<?xml version="1.0" encoding="utf-8"?>
<!-- Generator: Adobe Illustrator 22.0.0, SVG Export Plug-In . SVG Version: 6.00 Build 0)  -->
<svg version="1.1" xmlns="http://www.w3.org/2000/svg" xmlns:xlink="http://www.w3.org/1999/xlink" x="0px" y="0px"
	 viewBox="0 0 990 656" enable-background="new 0 0 990 656" xml:space="preserve">
<g id="BACKGROUND">
	<rect x="-327" y="-90" fill="#A4E4EA" width="1639.4" height="800"/>
	<g display="none">
		<defs>
			<rect id="SVGID_1_" x="-46.1" y="-90" width="1088" height="800"/>
		</defs>
		<clipPath id="SVGID_2_" display="inline">
			<use xlink:href="#SVGID_1_"  overflow="visible"/>
		</clipPath>
		<g display="inline" clip-path="url(#SVGID_2_)">
			<path fill="none" stroke="#76C2BA" stroke-width="1.6782" stroke-miterlimit="10" d="M1093.2-118.1
				c54.7,40.2,111.4,81.9,165.6,121.8"/>
			<path fill="none" stroke="#76C2BA" stroke-width="1.6782" stroke-miterlimit="10" d="M754.3-118.1
				C922.8,5.5,1091.1,129.2,1259.3,253"/>
			<path fill="none" stroke="#76C2BA" stroke-width="1.6782" stroke-miterlimit="10" d="M415.5-118
				C697.8,89,977.6,296.2,1259.3,503.3"/>
			<path fill="none" stroke="#76C2BA" stroke-width="1.6782" stroke-miterlimit="10" d="M76.4-118.1
				c394.4,289.1,787.7,579.8,1183.1,870"/>
			<path fill="none" stroke="#76C2BA" stroke-width="1.6782" stroke-miterlimit="10" d="M-262.9-118.2
				c506.6,374.1,1015.4,745.4,1522,1118.9"/>
			<path fill="none" stroke="#76C2BA" stroke-width="1.6782" stroke-miterlimit="10" d="M-337.4,76.3
				c453.9,335,907.9,668.9,1363.6,1002.5"/>
			<path fill="none" stroke="#76C2BA" stroke-width="1.6782" stroke-miterlimit="10" d="M-337.3,325.3
				C4.9,576.8,345.5,827.2,687.2,1078.8"/>
			<path fill="none" stroke="#76C2BA" stroke-width="1.6782" stroke-miterlimit="10" d="M-337.5,574.6
				c227,167.7,458,336,685.6,504.1"/>
			<path fill="none" stroke="#76C2BA" stroke-width="1.6782" stroke-miterlimit="10" d="M-337.5,823.2
				c115.4,86,232.8,169.5,346.8,255.7"/>
			<path fill="none" stroke="#76C2BA" stroke-width="1.6782" stroke-miterlimit="10" d="M-337.3,1073.3c2.6,1.9,5.1,3.8,7.7,5.7"/>
			<path fill="none" stroke="#76C2BA" stroke-width="1.6782" stroke-miterlimit="10" d="M-337.2,64.9
				c83.8-60.8,166-121.3,248.4-182.8"/>
			<path fill="none" stroke="#76C2BA" stroke-width="1.6782" stroke-miterlimit="10" d="M-337.5,314.3
				C-141.8,169.5,53.9,27.1,249.9-117.8"/>
			<path fill="none" stroke="#76C2BA" stroke-width="1.6782" stroke-miterlimit="10" d="M-337.2,563.3
				c306.9-226.9,618.1-452.8,926.1-681.4"/>
			<path fill="none" stroke="#76C2BA" stroke-width="1.6782" stroke-miterlimit="10" d="M-337.5,812.8
				C85.2,502,506,192.6,928.6-118.2"/>
			<path fill="none" stroke="#76C2BA" stroke-width="1.6782" stroke-miterlimit="10" d="M-337.2,1061.9
				C198.7,668.9,733,276,1267.2-117.7"/>
			<path fill="none" stroke="#76C2BA" stroke-width="1.6782" stroke-miterlimit="10" d="M-21.5,1079
				c427.7-313.7,852.4-628.8,1280.4-941.3"/>
			<path fill="none" stroke="#76C2BA" stroke-width="1.6782" stroke-miterlimit="10" d="M317.4,1079
				c315.8-230.2,627-463.4,941.4-692.8"/>
			<path fill="none" stroke="#76C2BA" stroke-width="1.6782" stroke-miterlimit="10" d="M656.4,1079
				c201.9-148.2,401.5-296.4,602.7-443.6"/>
			<path fill="none" stroke="#76C2BA" stroke-width="1.6782" stroke-miterlimit="10" d="M995.5,1078.9
				c87.8-64.6,175.9-129.4,263.5-193.8"/>
		</g>
	</g>
</g>
<g id="DESIGNED_BY_FREEPIK">
</g>
<g id="OBJECTS">
	<linearGradient id="SVGID_3_" gradientUnits="userSpaceOnUse" x1="161.0379" y1="-107.9216" x2="628.9559" y2="359.9964">
		<stop  offset="3.584230e-03" style="stop-color:#0FAEA3"/>
		<stop  offset="1" style="stop-color:#0FAEA3;stop-opacity:0"/>
	</linearGradient>
	<path fill="url(#SVGID_3_)" d="M888.9,103.7c-31.7-28.7-50.6-45.8-50.6-45.8c0-4-3.6-7.3-8-7.3h-676c-4.4,0-8,3.3-8,7.3v332.8
		c0,2.1,1,4,2.5,5.3c0.6,0.5,142.6,129.6,303.1,275.6h437V103.7z"/>
	<g>
		<linearGradient id="SVGID_4_" gradientUnits="userSpaceOnUse" x1="270.5453" y1="213.0432" x2="690.6067" y2="633.1046">
			<stop  offset="3.584230e-03" style="stop-color:#0FAEA3"/>
			<stop  offset="1" style="stop-color:#0FAEA3;stop-opacity:0"/>
		</linearGradient>
		<path fill="url(#SVGID_4_)" d="M888.9,566C785.1,461.1,679.1,354.3,637.5,313.1c-2.3-2.7-5.9-2.5-5.9-2.5c-1.5-3.3-6-2.9-6-2.9
			s-0.1-2.1-0.9-3.7c-1.5-2.9-6.1-1.7-6.1-1.7s-0.1-2.7-0.9-4c-1.3-2.2-5.7-2.5-7.4-1.3c-1.7,1.1-2.6,8.1-2.9,10.6
			c-0.4,2.6-3.1,13.4-3.1,13.4s-1.8-5.1-2.1-7.1c-0.3-2,1.7-7.9,0.9-11.7c-0.8-3.9-5.5-7.7-5.7-3.9c-0.1,3.8-3,10.5-3.6,13.4
			c-0.6,2.8,2,13.6,3.6,19.9c0.1,0.4,0.2,0.8,0.3,1.1c0,0.1,0.1,0.3,0.1,0.4c0.1,0.3,0.2,0.5,0.3,0.8c0.1,0.2,0.1,0.3,0.2,0.5
			c0.1,0.3,0.2,0.5,0.3,0.8c0.1,0.2,0.1,0.3,0.2,0.5c0.1,0.3,0.2,0.5,0.3,0.8c0.1,0.2,0.1,0.3,0.2,0.5c0.1,0.3,0.2,0.6,0.3,0.8
			c0.1,0.2,0.1,0.3,0.2,0.5c0.1,0.3,0.3,0.6,0.4,1c0,0.1,0.1,0.2,0.1,0.4c0.2,0.4,0.4,0.9,0.6,1.3c0,0,0,0,0,0.1
			c0.2,0.4,0.4,0.9,0.6,1.3c0.1,0.1,0.1,0.2,0.2,0.4c0.1,0.3,0.3,0.6,0.4,1c0.1,0.1,0.1,0.3,0.2,0.4c0.1,0.3,0.3,0.6,0.4,0.9
			c0.1,0.1,0.1,0.2,0.2,0.4c0.4,0.9,0.8,1.7,1.1,2.5c0.1,0.1,0.1,0.3,0.2,0.4c0.1,0.2,0.2,0.4,0.3,0.7c0.1,0.3,0.3,0.7,0.4,1
			c0,0.1,0.1,0.2,0.1,0.3c0,0.1,0.1,0.1,0.1,0.2c0.1,0.2,0.1,0.3,0.2,0.5c0.1,0.3,0.3,0.6,0.4,0.9c0.3,0.8,0.6,1.5,0.8,2.1
			c0.4,1.3,0.6,2.2,0.6,2.8c0,0.3,0,0.5,0,0.7c0,0,0,0,0,0c-1.5-0.1-2.4-0.2-2.7-0.2c0,0-0.1,0-0.1,0s0,0.1,0,0.2c0,0.1,0,0.3,0,0.5
			c0,0.2,0,0.5,0,0.8c0,0.4,0,0.9-0.1,1.5c0,0.1,0,0.1,0,0.2c0,0.2,0,0.4,0,0.6c0,0.2,0,0.4,0,0.6c0,0.2,0,0.5,0,0.8
			c0,0.1,0,0.1,0,0.2c0,0.3,0,0.6,0,0.9c0,0.3,0,0.5,0,0.8c0,0.2,0,0.4,0,0.6c0,0.8-0.1,1.7-0.1,2.6c0,0.2,0,0.4,0,0.6
			c-0.1,2.9-0.2,6.1-0.3,9.7c-2.1,0.2-4.1,0.9-5.9,1.8c-0.1,0.1-0.2,0.1-0.3,0.1c-0.3,0.2-0.7,0.4-1,0.6c-0.1,0.1-0.3,0.2-0.4,0.3
			c-0.3,0.2-0.6,0.4-0.9,0.6c-0.2,0.1-0.3,0.2-0.5,0.4c-0.3,0.2-0.5,0.4-0.7,0.6c-0.2,0.1-0.3,0.3-0.5,0.5c-0.2,0.2-0.4,0.4-0.6,0.7
			c-0.2,0.2-0.3,0.4-0.5,0.5c-0.2,0.2-0.4,0.5-0.6,0.7c-0.2,0.2-0.3,0.4-0.5,0.6c-0.2,0.2-0.3,0.5-0.5,0.7c-0.1,0.2-0.3,0.5-0.4,0.7
			c-0.1,0.2-0.3,0.5-0.4,0.7c-0.1,0.3-0.3,0.5-0.4,0.8c-0.1,0.2-0.2,0.5-0.3,0.7c-0.1,0.3-0.2,0.6-0.3,0.9c-0.1,0.2-0.2,0.5-0.2,0.7
			c-0.1,0.3-0.2,0.6-0.2,1c-0.1,0.2-0.1,0.4-0.2,0.7c-0.1,0.4-0.1,0.7-0.2,1.1c0,0.2-0.1,0.4-0.1,0.6c-0.1,0.6-0.1,1.2-0.1,1.8v25.9
			c-1.1-0.3-2.2-0.1-2.8,0.8c-0.5,0.7-1.2,3.3-2,6.4v-14.2c0-0.6,0-1.2-0.1-1.8c0-0.2-0.1-0.4-0.1-0.6c0-0.4-0.1-0.8-0.2-1.1
			c0-0.2-0.1-0.5-0.2-0.7c-0.1-0.3-0.2-0.7-0.2-1c-0.1-0.3-0.2-0.5-0.2-0.7c-0.1-0.3-0.2-0.6-0.3-0.9c-0.1-0.3-0.2-0.5-0.3-0.8
			c-0.1-0.3-0.2-0.5-0.4-0.8c-0.1-0.3-0.3-0.5-0.4-0.8c-0.1-0.2-0.3-0.5-0.4-0.7c-0.4-0.7-0.9-1.4-1.4-2l1.4-16.3
			c1-11.4-7.5-21.4-18.9-22.3l-13.2-1.1c-11.4-1-21.4,7.5-22.3,18.9l-2.7,13.9h-23.8c-6.1-8-15.1-22.7-23.3-32.8
			c0-0.1-0.1-0.1-0.1-0.2c-3.3-4.2-8.2-7.1-13.7-7.8c-0.2,0-0.4,0-0.6-0.1c-0.3,0-0.6-0.1-0.9-0.1c-0.9-0.1-1.5,0-1.9,0l-13.2,0.5
			c-11.4,0.4-20.3,10-19.9,21.4l0.8,21.1c-1.5,0.7-2.9,1.7-4.1,2.8c-0.1,0.1-0.1,0.1-0.2,0.2c-0.8,0.7-1.6,1.6-2.2,2.4
			c-0.1,0.2-0.2,0.3-0.4,0.5c-0.2,0.2-0.3,0.5-0.5,0.7c-0.2,0.2-0.3,0.5-0.4,0.7c-0.2,0.3-0.3,0.6-0.5,0.9c-0.2,0.3-0.3,0.7-0.5,1
			c-0.1,0.2-0.2,0.4-0.2,0.6c-0.1,0.3-0.3,0.7-0.4,1c-0.1,0.2-0.1,0.3-0.2,0.5c-0.2,0.5-0.3,1-0.4,1.5c0,0.1,0,0.3-0.1,0.4
			c-0.1,0.4-0.1,0.9-0.2,1.3c0,0.2,0,0.3-0.1,0.5c-0.1,0.6-0.1,1.1-0.1,1.7l0,31.8l0,0c-1.2-1.8-2.2-3.9-3.4-6
			c-0.1-0.2-0.2-0.5-0.4-0.7c-0.1-0.1-0.1-0.2-0.2-0.3c-0.2-0.3-0.4-0.7-0.6-1c-0.1-0.1-0.1-0.2-0.2-0.3c-0.2-0.4-0.4-0.7-0.7-1.1
			c-0.1-0.2-0.3-0.4-0.4-0.6v-40.8c0-0.6,0-1.2-0.1-1.8c0-0.2-0.1-0.4-0.1-0.6c-0.1-0.4-0.1-0.7-0.2-1.1c0-0.2-0.1-0.5-0.2-0.7
			c-0.1-0.3-0.1-0.6-0.2-0.9c-0.1-0.3-0.2-0.5-0.3-0.8c-0.1-0.3-0.2-0.5-0.3-0.8c-0.1-0.3-0.2-0.6-0.4-0.8c-0.1-0.2-0.2-0.5-0.3-0.7
			c-0.2-0.3-0.3-0.6-0.5-0.8c-0.1-0.2-0.2-0.4-0.3-0.6c-0.2-0.3-0.4-0.6-0.6-0.9c-0.1-0.2-0.2-0.3-0.3-0.5c-0.2-0.3-0.5-0.6-0.7-0.9
			c-0.1-0.1-0.2-0.2-0.3-0.4c-0.3-0.3-0.6-0.6-0.9-0.8c-0.1-0.1-0.2-0.2-0.3-0.3c-0.3-0.3-0.7-0.5-1-0.8c-0.1-0.1-0.2-0.1-0.3-0.2
			c-0.4-0.3-0.7-0.5-1.1-0.8c-0.1,0-0.1-0.1-0.2-0.1c-0.4-0.2-0.8-0.5-1.3-0.7c-0.1,0-0.1-0.1-0.2-0.1c-0.4-0.2-0.9-0.4-1.4-0.6
			c0,0-0.1,0-0.1,0c-0.5-0.2-1-0.3-1.5-0.5c0,0-0.1,0-0.1,0c-0.5-0.1-1.1-0.3-1.6-0.3c0,0,0,0,0,0c-0.6-0.1-1.1-0.2-1.7-0.2l0,0v0
			c0.1-2.1,0.1-4.2,0.1-6.4c0-0.2,0-0.4,0-0.6c0-0.9,0-1.8,0-2.7c0-0.3,0-0.5,0-0.8c0-1-0.1-2-0.1-3c0-0.1,0-0.3,0-0.4
			c0-1.2-0.1-2.3-0.2-3.5c0-0.2,0-0.5-0.1-0.7c-0.1-0.9-0.1-1.9-0.2-2.9c0-0.4-0.1-0.8-0.1-1.2c-0.1-0.9-0.2-1.8-0.3-2.7
			c0-0.4-0.1-0.8-0.1-1.2c-0.2-1.3-0.3-2.6-0.5-3.9c-2-14.1-1.1-47.4-2.3-48.1c0,0-0.1,0-0.2-0.1c-0.1,0-0.2,0-0.3-0.1
			c0,0,0,0-0.1,0c-0.3,0-0.7-0.1-1.2-0.2c0,0,0,0,0,0c1.8-2.9,3.7-5.1,5.6-6.6c3.7-3,3.6-5.9,6.9-9.9c3.3-4,4.7-11,6.4-18.4
			c1.7-7.5,4.7-11.3,6.4-13c1.7-1.7,5.2-3.8,3.2-5.3c-0.1-0.1-0.2-0.1-0.4-0.2c-0.1,0-0.1-0.1-0.2-0.1c-0.1,0-0.1,0-0.2-0.1
			c-0.2-0.1-0.4-0.1-0.7-0.1l0,0h0c0,0,0,0,0,0c-0.2,0-0.4,0-0.6,0h0c0,0,0,0-0.1,0c-0.2,0-0.4,0-0.6,0c0,0,0,0,0,0c0,0,0,0,0,0l0,0
			c-0.3,0-0.6,0.1-1,0.1c0,0,0,0-0.1,0c-0.3,0.1-0.7,0.1-1.1,0.2l0,0c0,0,0,0,0,0c0,0,0,0,0,0c-0.2,0.1-0.4,0.1-0.6,0.2
			c-0.1,0-0.2,0.1-0.3,0.1l0,0c0,0,0,0,0,0c-0.2,0.1-0.3,0.1-0.5,0.2l0,0l0,0c-0.1,0.1-0.3,0.1-0.4,0.2c-0.2,0.1-0.3,0.1-0.5,0.2
			l0,0l0,0c-0.2,0.1-0.3,0.2-0.5,0.2c-0.1,0.1-0.3,0.1-0.4,0.2c-0.3,0.1-0.5,0.3-0.8,0.4c0,0,0,0,0,0l0,0c-0.1,0-0.1,0.1-0.2,0.1
			c-0.3,0.2-0.5,0.3-0.8,0.5c-0.1,0.1-0.2,0.1-0.3,0.2c-0.2,0.1-0.4,0.3-0.6,0.4c-0.1,0.1-0.2,0.2-0.3,0.3c-0.2,0.2-0.3,0.3-0.5,0.5
			c-0.1,0.1-0.2,0.2-0.3,0.3l0,0c-0.2,0.2-0.3,0.4-0.5,0.6c-0.1,0.1-0.2,0.2-0.2,0.3c-0.2,0.3-0.4,0.6-0.6,0.9
			c-0.2,0.3-0.4,0.6-0.6,0.9c-0.1,0.1-0.1,0.2-0.2,0.3c-0.1,0.2-0.2,0.3-0.4,0.5c-0.1,0.1-0.1,0.2-0.2,0.3c-0.1,0.1-0.2,0.3-0.3,0.4
			c-0.1,0.1-0.1,0.2-0.2,0.2c-0.1,0.1-0.2,0.2-0.3,0.3c-0.1,0.1-0.1,0.1-0.2,0.2c-0.1,0.1-0.2,0.2-0.2,0.3c0,0-0.1,0.1-0.1,0.1
			c-0.1,0.1-0.2,0.2-0.2,0.2c0,0-0.1,0.1-0.1,0.1c-0.1,0.1-0.2,0.2-0.3,0.3c-0.2,0.2-0.4,0.3-0.5,0.4c-0.1,0.1-0.3,0.1-0.4,0.1l0,0
			c-0.1,0-0.2,0-0.2,0c0,0-0.1,0-0.1,0c0,0,0,0,0,0c0,0,0,0,0,0h0c0.2-4.8,2.9-19.3,3.9-25c0.9-5.7,3.4-13.6-1.3-14.5
			c-4.8-0.9-8,16.3-8,16.3c-1.2,6.4-3.5,15.7-3.9,12.8c-0.3-2.6,0.5-8.8,2.3-21.3c1.8-12.5,1.1-15.2-2.2-15.4
			c-3.9-0.2-6.3,15.1-6.8,17.5c-0.5,2.3-2.3,18.8-3.1,18.6c-0.7-0.2-0.4-6.4,0.1-12.2c0.5-5.8,1.3-11.8,1.7-15.7
			c0.4-3.9-3.9-5.3-5.2-3.3c-1.3,2.1-5,19.2-5.3,22.4c-0.2,3.2-2.3,14.9-3.3,14.3c-1-0.8,0.1-14.3,0.6-18.8c0.5-4.5-1.1-7.5-3.7-6.8
			c-2.6,0.7-4.3,11.6-4.3,15.4c0,3.8-3.1,18.4-2.8,23.4c0.3,5.1,0.7,21.5,1.7,24.9c0.7,2.4,0.1,7.3-0.2,9.7c0,0,0.1,0,0.1,0l0,0
			c-0.5,0-0.9,0-1.3,0.1c0,0,0,0,0,0c-0.4,0-0.8,0-1.2,0.1c0,0-0.1,0-0.1,0c-0.3,0-0.7,0.1-1,0.1c0,0-0.1,0-0.1,0
			c-0.3,0-0.6,0.1-0.8,0.1c-0.1,0-0.1,0-0.2,0c-0.2,0-0.4,0.1-0.6,0.1c-0.1,0-0.1,0-0.2,0c-0.2,0-0.3,0.1-0.5,0.1
			c-0.1,0-0.1,0-0.2,0c-0.1,0-0.2,0.1-0.3,0.1c0,0-0.1,0-0.1,0c-0.1,0.1-0.2,0.1-0.3,0.2c-1.7,2.1-1.9,18.8-3.6,26.5
			c-1.7,7.8-10.4,54.4-8,85.8c0.1,1.4,0.3,2.8,0.4,4.2c0,0.3,0.1,0.6,0.1,0.9c0.2,1.4,0.3,2.7,0.5,4c0,0.2,0.1,0.4,0.1,0.7
			c0.2,1.2,0.4,2.5,0.6,3.7c0,0.2,0.1,0.4,0.1,0.6c0.2,1.3,0.5,2.6,0.8,3.9c0.1,0.3,0.1,0.5,0.2,0.8c0.3,1.3,0.6,2.6,0.9,4
			c0,0,0,0,0,0.1c0.3,1.3,0.7,2.6,1.1,3.9c0.1,0.2,0.1,0.5,0.2,0.7c0.4,1.3,0.8,2.5,1.2,3.8c0.1,0.2,0.1,0.4,0.2,0.5
			c0.4,1.2,0.8,2.5,1.3,3.7c0,0.1,0.1,0.2,0.1,0.3c0.5,1.3,0.9,2.5,1.4,3.8c0.1,0.2,0.1,0.4,0.2,0.6c1,2.6,2.1,5.1,3.2,7.6
			c0.1,0.1,0.1,0.2,0.2,0.4c0.6,1.2,1.1,2.5,1.7,3.7c0,0.1,0.1,0.2,0.1,0.3c1.2,2.5,2.5,5,3.8,7.5c0,0.1,0.1,0.2,0.1,0.3
			c1.3,2.5,2.7,5,4.2,7.5c0,0,0,0,0,0V508c0,2.3,0.6,4.6,1.4,6.8c2.4,7.2,34.4,38.7,34.3,38.7c-0.2,0.1-0.3,0.2-0.5,0.3
			c-0.1,0.1-0.3,0.2-0.4,0.2c-0.1,0-0.2,0.1-0.3,0.1c-0.1,0.1-0.2,0.1-0.3,0.2c-0.1,0-0.2,0.1-0.2,0.1c-0.1,0-0.2,0.1-0.3,0.1
			c-0.1,0-0.1,0.1-0.2,0.1c-0.1,0-0.2,0.1-0.3,0.1c-0.1,0-0.1,0-0.2,0.1c-0.1,0-0.2,0.1-0.2,0.1c0,0-0.1,0-0.1,0
			c-0.1,0-0.1,0-0.2,0.1c0,0-0.1,0-0.1,0c-0.1,0-0.1,0-0.2,0c-0.1,0-0.1,0-0.2,0c0,0,0,0,0,0c0,0,0,0,0,0c0,0,0,0,0,0c0,0,0,0,0,0
			l0,0l0,0c-0.1,0-0.1,0-0.2,0.1c-0.5,0.1-0.9,0.3-1.4,0.4c-0.2,0.1-0.4,0.1-0.5,0.2c-0.3,0.1-0.7,0.3-1,0.4
			c-0.2,0.1-0.4,0.2-0.6,0.3c-0.3,0.2-0.6,0.3-0.9,0.5c-0.2,0.1-0.3,0.2-0.5,0.3c-0.4,0.2-0.7,0.5-1,0.7c-0.1,0.1-0.2,0.1-0.3,0.2
			c-0.4,0.3-0.8,0.7-1.2,1c-0.1,0.1-0.2,0.2-0.3,0.3c-0.3,0.3-0.5,0.5-0.8,0.8c-0.1,0.1-0.3,0.3-0.4,0.5c-0.2,0.3-0.4,0.6-0.7,0.8
			c-0.1,0.2-0.2,0.3-0.3,0.5c-0.2,0.3-0.4,0.7-0.6,1c-0.1,0.1-0.2,0.3-0.2,0.4c-0.3,0.5-0.5,1-0.7,1.5c0,0.1-0.1,0.2-0.1,0.3
			c-0.2,0.4-0.3,0.8-0.5,1.2c-0.1,0.2-0.1,0.4-0.2,0.5c-0.1,0.4-0.2,0.7-0.3,1.1c0,0.2-0.1,0.4-0.1,0.6c-0.1,0.4-0.1,0.8-0.2,1.2
			c0,0.2-0.1,0.4-0.1,0.5c-0.1,0.6-0.1,1.1-0.1,1.7v12.2c0,0.5,0,1.1,0.1,1.6c0,0.2,0,0.3,0.1,0.5c0,0.4,0.1,0.7,0.2,1.1
			c0,0.2,0.1,0.4,0.1,0.5c0.1,0.4,0.2,0.7,0.3,1.1c0,0.1,0.1,0.3,0.1,0.4c0.1,0.5,0.3,1,0.5,1.4c0,0,0,0.1,0,0.1
			c0.2,0.4,0.4,0.9,0.6,1.3c0.1,0.1,0.2,0.3,0.2,0.4c0.2,0.3,0.3,0.6,0.5,0.9c0.1,0.1,0.2,0.3,0.3,0.4c0.1,0.1,0.1,0.2,0.2,0.3
			c0,0,0.1,0.1,0.1,0.2c1,1.5,2.3,2.8,3.7,3.9c11.9,12.1,50.3,50.6,101.1,101.3h398.4V566z"/>
		<g>
			<g>
				<path fill="#545453" d="M594.6,602.4l-12.9,2.6c-56.5,11.4-114.6,11.3-171.1-0.2l-11.6-2.4c-9.3-0.6-16.6-8.3-16.6-17.7v-12.2
					c0-10.2,8.6-18.3,18.8-17.7l95.4,5.9c1.2,0.1,2.3,0.1,3.5,0l92.2-5.8c10.2-0.6,18.8,7.5,18.8,17.7v12.1
					C611.2,594.1,603.9,601.9,594.6,602.4z"/>
				<path fill="#464645" d="M583.1,512.2v-97.8c0-10.3-8.4-18.7-18.7-18.7H434.9c-10.3,0-18.7,8.4-18.7,18.7l0.1,97.8
					c-2.6,40.2-20.6,43.2-20.6,43.2c91.6,32.3,204.2,0.7,204.2,0.7C584.6,543.9,583.1,512.2,583.1,512.2z"/>
				<path fill="#464645" d="M392.8,526h-11.1c-9.8,0-17.7-7.9-17.7-17.7V395.4c0-9.8,7.9-17.7,17.7-17.7h11.1
					c9.8,0,17.7,7.9,17.7,17.7v112.8C410.5,518,402.6,526,392.8,526z"/>
				<path fill="#464645" d="M616.8,526h-11.1c-9.8,0-17.7-7.9-17.7-17.7V395.4c0-9.8,7.9-17.7,17.7-17.7h11.1
					c9.8,0,17.7,7.9,17.7,17.7v112.8C634.5,518,626.6,526,616.8,526z"/>
			</g>
			<g>
				<g>
					<path fill="#EC626E" d="M493.4,457.2l-64.6,1.9l-2.9-82.6c-0.4-11.4,8.5-21,19.9-21.4l13.2-0.5c11.4-0.4,21,8.5,21.4,19.9
						L493.4,457.2z"/>
					<path fill="#EC626E" d="M573.4,468.7l-62.7-7l15.2-79.8c1-11.4,10.9-19.8,22.3-18.9l13.2,1.1c11.4,1,19.8,10.9,18.9,22.3
						L573.4,468.7z"/>
				</g>
				<g>
					<path fill="#712659" d="M507.7,448.4c-14.3,0.6-53,2.5-75.6,4.3c-14.9,1.2-16-7.6-21.2-15.9c-4.6-7.3-14-13.8-16.7-20.1
						c-5.7-13.5,3.4-32.6-1.7-69c-2-14.1-1.1-47.4-2.3-48.1c-1.1-0.8-35.8-2.3-37.5-0.2c-1.7,2.1-1.9,18.8-3.6,26.5
						c-1.7,7.8-10.4,54.4-8,85.8c2.5,31.4,15.9,57.6,31.6,81.5c15.7,23.9,97.6,54.5,132.6,53.1c35-1.4,124.5-19.5,134.2-40.2
						c7.5-16,7.4-43.2,4.8-70.5c-2.6-27.3-4.5-72.2-4.5-76.7c0-4.5-10.7-1.5-18.3-1.1c-8.5,0.4-17.2-0.6-17.2-0.6
						s-1.1,31.5-1.7,52.9s-10.2,50.3-7.4,54.6c0,0-3.1,0.9-10.8,0.6c-7.7-0.3-17.9-16.5-29.8-18.2
						C542.7,445.3,511.2,448.3,507.7,448.4z"/>
					<g>
						<g>
							<path fill="#4A0D02" d="M507.3,540.6c55.3,0.8,55.9-49.5,55.9-49.5c2.3-0.7,6.3-6.5,4.3-13.2c-2-6.6-8.1-12-8.1-12
								c-2.7-14.2-8.7-19-8.7-19c-0.7-2.7-7.2-13.8-12.5-20.4c-5.3-6.5-19.9-10-19.9-10c0.9-1.8-3.7-3.7-3.7-3.7
								c-2.8-5.9-7.2-6.1-7.2-6.1h-0.1c0,0-4.4,0.2-7.2,6.1c0,0-4.6,1.9-3.7,3.7c0,0-14.6,3.5-19.9,10c-5.3,6.5-11.8,17.7-12.5,20.4
								c0,0-6.1,4.8-8.7,19c0,0-6.2,5.4-8.1,12s2,12.5,4.3,13.2C451.3,491.1,451.8,541.4,507.3,540.6L507.3,540.6z"/>
							<path fill="#F8C3C0" d="M476.4,447.7c4.5-2.7,6.7-11,11.9-15c4.2-3.2,12.1-1.2,18.3-1.8c6.2-0.6,17.5-4.7,22.1,1.8
								c8.5,12.2,21.9,14.2,21.9,14.2c-0.7-2.7-7.2-13.8-12.5-20.4c-5.3-6.5-19.9-10-19.9-10c0.9-1.8-3.7-3.7-3.7-3.7
								c-2.8-5.9-7.2-6.1-7.2-6.1h-0.1c0,0-4.4,0.2-7.2,6.1c0,0-4.6,1.9-3.7,3.7c0,0-14.6,3.5-19.9,10c-4.2,5.2-9.2,13.4-11.4,17.8
								c-0.1,0.3-0.8,1.8-1.1,2.6C464.3,448.8,471.9,450.4,476.4,447.7z"/>
							<path fill="#F5ADAB" d="M512.7,415.8c0.1,0.3,1.9,0,2.6,0.1c1.7,0.2,2.8,0.5,2.8,0.5c0.6-1.1-1-2.3-2.3-3
								C517.2,415,512.7,415.5,512.7,415.8z"/>
							<path fill="#F5ADAB" d="M501.1,415.9c0.8-0.3-4.4-0.1-3.7-1.8c-0.9,0.7-1.6,1.5-1.2,2.3c0,0,0.8-0.1,2.4-0.2
								C499.3,416.2,500.3,416.3,501.1,415.9z"/>
						</g>
						<g>
							<path fill="#F5ADAB" d="M451.3,491.1c0.2-9.4,3.5-22.5,3.9-25.2c0,0-6.2,5.4-8.1,12C445,484.5,449,490.4,451.3,491.1z"/>
							<path fill="#F5ADAB" d="M559.3,465.9c1,3.5,2.7,11.9,3.5,18.2c0.4,2.9,0.4,7,0.4,7c2.3-0.7,6.3-6.5,4.3-13.2
								C565.4,471.3,559.3,465.9,559.3,465.9z"/>
						</g>
					</g>
					<path fill="#616160" d="M451.5,478.7"/>
					<g>
						<g>
							<path fill="#F7B8B6" d="M621.6,357.8c4.2-0.2,9.4-1.2,13.1-1.3c-0.2-1-0.4-2-0.4-2.7c0.2-1.7,5.7-5.4,5.9-10.9
								c0.2-5.5,1.8-12.5,2.7-15.2c0.9-2.7-2.4-9.4-4.5-13.3c-2.2-3.9-6.7-3.6-6.7-3.6c-1.5-3.3-6-2.9-6-2.9s-0.1-2.1-0.9-3.7
								c-1.5-2.9-6.1-1.7-6.1-1.7s-0.1-2.7-0.9-4c-1.3-2.2-5.7-2.5-7.4-1.3c-1.7,1.1-2.6,8.1-2.9,10.6c-0.4,2.6-3.1,13.4-3.1,13.4
								s-1.8-5.1-2.1-7.1c-0.3-2,1.7-7.9,0.9-11.7c-0.8-3.9-5.5-7.7-5.7-3.9c-0.1,3.8-3,10.5-3.6,13.4c-0.6,2.8,2,13.6,3.6,19.9
								c1.6,6.3,6.4,15.9,8.1,20.2c1.3,3.2,1.4,5,1.4,5.6C610.3,357.7,616,358.1,621.6,357.8z"/>
						</g>
						<g>
							<path fill="#F8C3C0" d="M631.2,320.9c-3.6,0.6-4.6-2.1-7.4-2.5c-2.1-0.3-4.9,0.8-5.8,0.7c-4.4-0.5-5.1-3.6-9.1-2.6
								c-2.9,0.7-4.5,4.6-4.5,4.6s-5.4,15.3-3.5,19.8c1.8,4.3,3.8,8.4,4.7,10.9c1.3,3.2,1.4,5,1.4,5.6c3.2,0.3,8.9,0.6,14.5,0.3
								c4.2-0.2,9.4-1.2,13.1-1.3c-0.2-1-0.4-2-0.4-2.7c0.2-1.7,5.7-5.4,5.9-10.9c0.2-5.5,1.8-12.5,2.7-15.2
								c0.2-0.7,0.2-1.7-0.1-2.8c-1.8-3.3-4-1.7-6.2-2.2C634.2,322.2,634.8,320.3,631.2,320.9z"/>
						</g>
					</g>
					<g>
						<g>
							<path fill="#F8C3C0" d="M388.6,299.4c1.8-2.9,3.7-5.1,5.6-6.6c3.7-3,3.6-5.9,6.9-9.9c3.3-4,4.7-11,6.4-18.4
								c1.7-7.5,4.7-11.3,6.4-13c1.7-1.7,5.2-3.8,3.2-5.3c-2-1.6-9.5,0.3-12.9,5.6c-3.4,5.2-4.5,4.5-4.5,4.5
								c0.2-4.8,2.9-19.3,3.9-25c0.9-5.7,3.4-13.6-1.3-14.5c-4.8-0.9-8,16.3-8,16.3c-1.2,6.4-3.5,15.7-3.9,12.8
								c-0.3-2.6,0.5-8.8,2.3-21.3c1.8-12.5,1.1-15.2-2.2-15.4c-3.9-0.2-6.3,15.1-6.8,17.5c-0.5,2.3-2.3,18.8-3.1,18.6
								c-0.7-0.2-0.4-6.4,0.1-12.2c0.5-5.8,1.3-11.8,1.7-15.7c0.4-3.9-3.9-5.3-5.2-3.3c-1.3,2.1-5,19.2-5.3,22.4
								c-0.2,3.2-2.3,14.9-3.3,14.3c-1-0.8,0.1-14.3,0.6-18.8c0.5-4.5-1.1-7.5-3.7-6.8c-2.6,0.7-4.3,11.6-4.3,15.4
								s-3.1,18.4-2.8,23.4c0.3,5.1,0.7,21.5,1.7,24.9c0.7,2.4,0.1,7.3-0.2,9.7C368.6,298.2,383.5,298.8,388.6,299.4z"/>
						</g>
						<path fill="#F7B8B6" d="M399.5,256.1c-0.5,3.2-0.5,6.9-0.2,12.1c0.3,6.2,2.6-4,3.7-6.6c1-2.6,2-6.4,3.6-8.7
							c1.7-2.5,3.3-7.3,9-7.3c-3-0.3-8.7,1.7-11.5,6.1C400.6,256.9,399.5,256.1,399.5,256.1z"/>
					</g>
				</g>
			</g>
		</g>
	</g>
	<path fill="#68BEB5" d="M830.5,409.1H154c-4.3,0-7.8-3.5-7.8-7.8v-343c0-4.3,3.5-7.8,7.8-7.8h676.5c4.3,0,7.8,3.5,7.8,7.8v343
		C838.3,405.6,834.8,409.1,830.5,409.1z"/>
	<g>
		<linearGradient id="SVGID_5_" gradientUnits="userSpaceOnUse" x1="365.6513" y1="106.7701" x2="587.3599" y2="328.4787">
			<stop  offset="3.584230e-03" style="stop-color:#0FAEA3"/>
			<stop  offset="1" style="stop-color:#0FAEA3;stop-opacity:0"/>
		</linearGradient>
		<path fill="url(#SVGID_5_)" d="M852.7,603.2l-6.5-175l-271-273.1l0,0c-0.7-1-1.9-1.7-3.3-1.7h-16.5H400.5H384c-2.2,0-4,1.8-4,4
			v123.4c0,0.3,0,0.6,0.1,0.9c0,0,0,0.1,0,0.1c0.1,0.2,0.1,0.5,0.2,0.7c0,0,0,0,0,0.1c0.1,0.2,0.2,0.5,0.4,0.7c0,0,0,0,0,0
			c0.2,0.2,0.4,0.4,0.6,0.6l320.9,319.4H852.7z"/>
		<g>
			<g>
				<path fill="#C6C6C6" d="M570,155.2H385.8c-3.4,0-6.2-2.5-6.6-5.9l-7.2-46c-0.5-4,2.6-7.5,6.6-7.5h198.6c4,0,7.1,3.5,6.6,7.5
					l-7.2,46C576.2,152.7,573.3,155.2,570,155.2z"/>
				<path fill="#3C3C3B" d="M385.8,153.3c-2.5,0-4.5-1.8-4.8-4.3l-7.2-46.1c-0.2-1.3,0.3-2.7,1.2-3.8c0.9-1.1,2.3-1.7,3.7-1.7h198.6
					c1.4,0,2.7,0.6,3.7,1.7c0.9,1.1,1.4,2.5,1.2,3.8l-7.2,46c-0.3,2.5-2.4,4.3-4.9,4.3H385.8z"/>
				<path fill="#0FAEA3" d="M385.8,149.7c-0.6,0-1.2-0.5-1.3-1.1l-7.2-46c-0.1-0.5,0.1-0.8,0.3-1c0.2-0.2,0.5-0.4,1-0.4h198.6
					c0.5,0,0.8,0.2,1,0.4c0.2,0.2,0.4,0.5,0.3,1l-7.2,46c-0.1,0.6-0.6,1.1-1.3,1.1H385.8z"/>
				<path fill="#575756" d="M478.3,99.5c0-0.2-0.2-0.4-0.4-0.4c-0.2,0-0.4,0.2-0.4,0.4c0,0.2,0.2,0.4,0.4,0.4
					C478.1,100,478.3,99.8,478.3,99.5z"/>
			</g>
			<path fill="#3C3C3B" d="M553.4,149.7h-151c-1.1,0-1.9,0.9-1.9,1.9v1.7h154.8v-1.7C555.4,150.6,554.5,149.7,553.4,149.7z"/>
		</g>
		<g>
			<g>
				<g>
					<g>
						<path fill="#B2B2B2" d="M571.9,284.8H384c-2.2,0-4-1.8-4-4V157.4c0-2.2,1.8-4,4-4h187.9c2.2,0,4,1.8,4,4v123.4
							C575.9,283,574.1,284.8,571.9,284.8z"/>
						<path fill="#C6C6C6" d="M384,284.1c-1.8,0-3.3-1.5-3.3-3.3V157.4c0-1.8,1.5-3.3,3.3-3.3h187.9c1.8,0,3.3,1.5,3.3,3.3v123.4
							c0,1.8-1.5,3.3-3.3,3.3H384z"/>
					</g>
					<path fill="#B2B2B2" d="M491.8,284.8h-27.7v-1.5c0-0.7,0.6-1.3,1.3-1.3h25.2c0.7,0,1.3,0.6,1.3,1.3V284.8z"/>
				</g>
				<g>
					<path fill="#B2B2B2" d="M505.4,274.5h-55c-1.3,0-2.3-1-2.3-2.3v-35.1c0-1.3,1-2.3,2.3-2.3h55c1.3,0,2.3,1,2.3,2.3v35.1
						C507.7,273.5,506.7,274.5,505.4,274.5z"/>
					<path fill="#BDBCBC" d="M450.4,272.7c-0.3,0-0.5-0.2-0.5-0.5v-35.1c0-0.3,0.2-0.5,0.5-0.5h55c0.3,0,0.5,0.2,0.5,0.5v35.1
						c0,0.3-0.2,0.5-0.5,0.5H450.4z"/>
					<path fill="#C6C6C6" d="M505.9,264.6v-27.5c0-0.3-0.2-0.5-0.5-0.5h-55c-0.3,0-0.5,0.2-0.5,0.5v27.5H505.9z"/>
				</g>
				<path fill="#4A4A49" d="M553.4,159.4h-151c-1.1,0-1.9-0.9-1.9-1.9v-4.1h154.8v4.1C555.4,158.5,554.5,159.4,553.4,159.4z"/>
				<g>
					<path fill="#B2B2B2" d="M568.6,159.4c0-1.2-1-2.1-2.1-2.1c-1.2,0-2.1,1-2.1,2.1c0,1.2,1,2.1,2.1,2.1
						C567.6,161.6,568.6,160.6,568.6,159.4z"/>
					<path fill="#C6C6C6" d="M566.4,160.9c-0.8,0-1.5-0.7-1.5-1.5c0-0.8,0.7-1.5,1.5-1.5c0.8,0,1.5,0.7,1.5,1.5
						C567.9,160.2,567.2,160.9,566.4,160.9z"/>
				</g>
			</g>
			<g>
				<path fill="#B2B2B2" d="M552.5,230.4H403.3c-1.5,0-2.8-1.2-2.8-2.8v-61c0-1.5,1.2-2.8,2.8-2.8h149.3c1.5,0,2.8,1.2,2.8,2.8v61
					C555.3,229.1,554.1,230.4,552.5,230.4z"/>
				<g>
					<path fill="#3C3C3B" d="M410.2,182.8h-6.1c-0.6,0-1.1-0.5-1.1-1.1v-5.8c0-0.6,0.5-1.1,1.1-1.1h6.1c0.6,0,1.1,0.5,1.1,1.1v5.8
						C411.3,182.3,410.9,182.8,410.2,182.8z"/>
					<path fill="#4A4A49" d="M404.1,182.1c-0.2,0-0.4-0.2-0.4-0.4v-5.8c0-0.2,0.2-0.4,0.4-0.4h6.1c0.2,0,0.4,0.2,0.4,0.4v5.8
						c0,0.2-0.2,0.4-0.4,0.4H404.1z"/>
					<path fill="#3C3C3B" d="M420.7,182.8h-6.1c-0.6,0-1.1-0.5-1.1-1.1v-5.8c0-0.6,0.5-1.1,1.1-1.1h6.1c0.6,0,1.1,0.5,1.1,1.1v5.8
						C421.8,182.3,421.3,182.8,420.7,182.8z"/>
					<path fill="#4A4A49" d="M414.6,182.1c-0.2,0-0.4-0.2-0.4-0.4v-5.8c0-0.2,0.2-0.4,0.4-0.4h6.1c0.2,0,0.4,0.2,0.4,0.4v5.8
						c0,0.2-0.2,0.4-0.4,0.4H414.6z"/>
					<path fill="#3C3C3B" d="M431.2,182.8h-6.1c-0.6,0-1.1-0.5-1.1-1.1v-5.8c0-0.6,0.5-1.1,1.1-1.1h6.1c0.6,0,1.1,0.5,1.1,1.1v5.8
						C432.3,182.3,431.8,182.8,431.2,182.8z"/>
					<path fill="#4A4A49" d="M425.1,182.1c-0.2,0-0.4-0.2-0.4-0.4v-5.8c0-0.2,0.2-0.4,0.4-0.4h6.1c0.2,0,0.4,0.2,0.4,0.4v5.8
						c0,0.2-0.2,0.4-0.4,0.4H425.1z"/>
					<path fill="#3C3C3B" d="M410.2,228h-6.1c-0.6,0-1.1-0.5-1.1-1.1v-5.8c0-0.6,0.5-1.1,1.1-1.1h6.1c0.6,0,1.1,0.5,1.1,1.1v5.8
						C411.3,227.5,410.9,228,410.2,228z"/>
					<path fill="#4A4A49" d="M404.1,227.3c-0.2,0-0.4-0.2-0.4-0.4v-5.8c0-0.2,0.2-0.4,0.4-0.4h6.1c0.2,0,0.4,0.2,0.4,0.4v5.8
						c0,0.2-0.2,0.4-0.4,0.4H404.1z"/>
					<path fill="#3C3C3B" d="M420.7,228h-6.1c-0.6,0-1.1-0.5-1.1-1.1v-5.8c0-0.6,0.5-1.1,1.1-1.1h6.1c0.6,0,1.1,0.5,1.1,1.1v5.8
						C421.8,227.5,421.3,228,420.7,228z"/>
					<path fill="#4A4A49" d="M414.6,227.3c-0.2,0-0.4-0.2-0.4-0.4v-5.8c0-0.2,0.2-0.4,0.4-0.4h6.1c0.2,0,0.4,0.2,0.4,0.4v5.8
						c0,0.2-0.2,0.4-0.4,0.4H414.6z"/>
					<path fill="#3C3C3B" d="M431.2,228h-6.1c-0.6,0-1.1-0.5-1.1-1.1v-5.8c0-0.6,0.5-1.1,1.1-1.1h6.1c0.6,0,1.1,0.5,1.1,1.1v5.8
						C432.3,227.5,431.8,228,431.2,228z"/>
					<path fill="#4A4A49" d="M425.1,227.3c-0.2,0-0.4-0.2-0.4-0.4v-5.8c0-0.2,0.2-0.4,0.4-0.4h6.1c0.2,0,0.4,0.2,0.4,0.4v5.8
						c0,0.2-0.2,0.4-0.4,0.4H425.1z"/>
					<path fill="#3C3C3B" d="M441.6,182.8h-6.1c-0.6,0-1.1-0.5-1.1-1.1v-5.8c0-0.6,0.5-1.1,1.1-1.1h6.1c0.6,0,1.1,0.5,1.1,1.1v5.8
						C442.7,182.3,442.2,182.8,441.6,182.8z"/>
					<path fill="#4A4A49" d="M435.5,182.1c-0.2,0-0.4-0.2-0.4-0.4v-5.8c0-0.2,0.2-0.4,0.4-0.4h6.1c0.2,0,0.4,0.2,0.4,0.4v5.8
						c0,0.2-0.2,0.4-0.4,0.4H435.5z"/>
					<path fill="#3C3C3B" d="M452.1,182.8H446c-0.6,0-1.1-0.5-1.1-1.1v-5.8c0-0.6,0.5-1.1,1.1-1.1h6.1c0.6,0,1.1,0.5,1.1,1.1v5.8
						C453.2,182.3,452.7,182.8,452.1,182.8z"/>
					<path fill="#4A4A49" d="M446,182.1c-0.2,0-0.4-0.2-0.4-0.4v-5.8c0-0.2,0.2-0.4,0.4-0.4h6.1c0.2,0,0.4,0.2,0.4,0.4v5.8
						c0,0.2-0.2,0.4-0.4,0.4H446z"/>
					<path fill="#3C3C3B" d="M462.5,182.8h-6.1c-0.6,0-1.1-0.5-1.1-1.1v-5.8c0-0.6,0.5-1.1,1.1-1.1h6.1c0.6,0,1.1,0.5,1.1,1.1v5.8
						C463.6,182.3,463.1,182.8,462.5,182.8z"/>
					<path fill="#4A4A49" d="M456.4,182.1c-0.2,0-0.4-0.2-0.4-0.4v-5.8c0-0.2,0.2-0.4,0.4-0.4h6.1c0.2,0,0.4,0.2,0.4,0.4v5.8
						c0,0.2-0.2,0.4-0.4,0.4H456.4z"/>
					<path fill="#3C3C3B" d="M473,182.8h-6.1c-0.6,0-1.1-0.5-1.1-1.1v-5.8c0-0.6,0.5-1.1,1.1-1.1h6.1c0.6,0,1.1,0.5,1.1,1.1v5.8
						C474.1,182.3,473.6,182.8,473,182.8z"/>
					<path fill="#4A4A49" d="M466.9,182.1c-0.2,0-0.4-0.2-0.4-0.4v-5.8c0-0.2,0.2-0.4,0.4-0.4h6.1c0.2,0,0.4,0.2,0.4,0.4v5.8
						c0,0.2-0.2,0.4-0.4,0.4H466.9z"/>
					<path fill="#3C3C3B" d="M483.5,182.8h-6.1c-0.6,0-1.1-0.5-1.1-1.1v-5.8c0-0.6,0.5-1.1,1.1-1.1h6.1c0.6,0,1.1,0.5,1.1,1.1v5.8
						C484.5,182.3,484.1,182.8,483.5,182.8z"/>
					<path fill="#4A4A49" d="M477.3,182.1c-0.2,0-0.4-0.2-0.4-0.4v-5.8c0-0.2,0.2-0.4,0.4-0.4h6.1c0.2,0,0.4,0.2,0.4,0.4v5.8
						c0,0.2-0.2,0.4-0.4,0.4H477.3z"/>
					<path fill="#3C3C3B" d="M493.9,182.8h-6.1c-0.6,0-1.1-0.5-1.1-1.1v-5.8c0-0.6,0.5-1.1,1.1-1.1h6.1c0.6,0,1.1,0.5,1.1,1.1v5.8
						C495,182.3,494.5,182.8,493.9,182.8z"/>
					<path fill="#4A4A49" d="M487.8,182.1c-0.2,0-0.4-0.2-0.4-0.4v-5.8c0-0.2,0.2-0.4,0.4-0.4h6.1c0.2,0,0.4,0.2,0.4,0.4v5.8
						c0,0.2-0.2,0.4-0.4,0.4H487.8z"/>
					<path fill="#3C3C3B" d="M504.4,182.8h-6.1c-0.6,0-1.1-0.5-1.1-1.1v-5.8c0-0.6,0.5-1.1,1.1-1.1h6.1c0.6,0,1.1,0.5,1.1,1.1v5.8
						C505.5,182.3,505,182.8,504.4,182.8z"/>
					<path fill="#4A4A49" d="M498.3,182.1c-0.2,0-0.4-0.2-0.4-0.4v-5.8c0-0.2,0.2-0.4,0.4-0.4h6.1c0.2,0,0.4,0.2,0.4,0.4v5.8
						c0,0.2-0.2,0.4-0.4,0.4H498.3z"/>
					<path fill="#3C3C3B" d="M514.8,182.8h-6.1c-0.6,0-1.1-0.5-1.1-1.1v-5.8c0-0.6,0.5-1.1,1.1-1.1h6.1c0.6,0,1.1,0.5,1.1,1.1v5.8
						C515.9,182.3,515.4,182.8,514.8,182.8z"/>
					<path fill="#4A4A49" d="M508.7,182.1c-0.2,0-0.4-0.2-0.4-0.4v-5.8c0-0.2,0.2-0.4,0.4-0.4h6.1c0.2,0,0.4,0.2,0.4,0.4v5.8
						c0,0.2-0.2,0.4-0.4,0.4H508.7z"/>
					<path fill="#3C3C3B" d="M525.3,182.8h-6.1c-0.6,0-1.1-0.5-1.1-1.1v-5.8c0-0.6,0.5-1.1,1.1-1.1h6.1c0.6,0,1.1,0.5,1.1,1.1v5.8
						C526.4,182.3,525.9,182.8,525.3,182.8z"/>
					<path fill="#4A4A49" d="M519.2,182.1c-0.2,0-0.4-0.2-0.4-0.4v-5.8c0-0.2,0.2-0.4,0.4-0.4h6.1c0.2,0,0.4,0.2,0.4,0.4v5.8
						c0,0.2-0.2,0.4-0.4,0.4H519.2z"/>
					<path fill="#3C3C3B" d="M535.7,182.8h-6.1c-0.6,0-1.1-0.5-1.1-1.1v-5.8c0-0.6,0.5-1.1,1.1-1.1h6.1c0.6,0,1.1,0.5,1.1,1.1v5.8
						C536.8,182.3,536.3,182.8,535.7,182.8z"/>
					<path fill="#4A4A49" d="M529.6,182.1c-0.2,0-0.4-0.2-0.4-0.4v-5.8c0-0.2,0.2-0.4,0.4-0.4h6.1c0.2,0,0.4,0.2,0.4,0.4v5.8
						c0,0.2-0.2,0.4-0.4,0.4H529.6z"/>
					<path fill="#3C3C3B" d="M551.3,182.8h-11.2c-0.6,0-1.1-0.5-1.1-1.1v-5.8c0-0.6,0.5-1.1,1.1-1.1h11.2c0.6,0,1.1,0.5,1.1,1.1v5.8
						C552.4,182.3,551.9,182.8,551.3,182.8z"/>
					<path fill="#4A4A49" d="M540.1,182.1c-0.2,0-0.4-0.2-0.4-0.4v-5.8c0-0.2,0.2-0.4,0.4-0.4h11.2c0.2,0,0.4,0.2,0.4,0.4v5.8
						c0,0.2-0.2,0.4-0.4,0.4H540.1z"/>
					<path fill="#3C3C3B" d="M410.5,172h-6.3c-0.6,0-1.1-0.5-1.1-1.1v-3.6c0-0.6,0.5-1.1,1.1-1.1h6.3c0.6,0,1.1,0.5,1.1,1.1v3.6
						C411.7,171.5,411.2,172,410.5,172z"/>
					<path fill="#4A4A49" d="M404.2,171.3c-0.2,0-0.4-0.2-0.4-0.4v-3.6c0-0.2,0.2-0.4,0.4-0.4h6.3c0.2,0,0.4,0.2,0.4,0.4v3.6
						c0,0.2-0.2,0.4-0.4,0.4H404.2z"/>
					<path fill="#3C3C3B" d="M421.4,172H415c-0.6,0-1.1-0.5-1.1-1.1v-3.6c0-0.6,0.5-1.1,1.1-1.1h6.3c0.6,0,1.1,0.5,1.1,1.1v3.6
						C422.5,171.5,422,172,421.4,172z"/>
					<path fill="#4A4A49" d="M415,171.3c-0.2,0-0.4-0.2-0.4-0.4v-3.6c0-0.2,0.2-0.4,0.4-0.4h6.3c0.2,0,0.4,0.2,0.4,0.4v3.6
						c0,0.2-0.2,0.4-0.4,0.4H415z"/>
					<path fill="#3C3C3B" d="M432.2,172h-6.3c-0.6,0-1.1-0.5-1.1-1.1v-3.6c0-0.6,0.5-1.1,1.1-1.1h6.3c0.6,0,1.1,0.5,1.1,1.1v3.6
						C433.3,171.5,432.8,172,432.2,172z"/>
					<path fill="#4A4A49" d="M425.9,171.3c-0.2,0-0.4-0.2-0.4-0.4v-3.6c0-0.2,0.2-0.4,0.4-0.4h6.3c0.2,0,0.4,0.2,0.4,0.4v3.6
						c0,0.2-0.2,0.4-0.4,0.4H425.9z"/>
					<path fill="#3C3C3B" d="M443,172h-6.3c-0.6,0-1.1-0.5-1.1-1.1v-3.6c0-0.6,0.5-1.1,1.1-1.1h6.3c0.6,0,1.1,0.5,1.1,1.1v3.6
						C444.1,171.5,443.6,172,443,172z"/>
					<path fill="#4A4A49" d="M436.7,171.3c-0.2,0-0.4-0.2-0.4-0.4v-3.6c0-0.2,0.2-0.4,0.4-0.4h6.3c0.2,0,0.4,0.2,0.4,0.4v3.6
						c0,0.2-0.2,0.4-0.4,0.4H436.7z"/>
					<path fill="#3C3C3B" d="M453.8,172h-6.3c-0.6,0-1.1-0.5-1.1-1.1v-3.6c0-0.6,0.5-1.1,1.1-1.1h6.3c0.6,0,1.1,0.5,1.1,1.1v3.6
						C455,171.5,454.5,172,453.8,172z"/>
					<path fill="#4A4A49" d="M447.5,171.3c-0.2,0-0.4-0.2-0.4-0.4v-3.6c0-0.2,0.2-0.4,0.4-0.4h6.3c0.2,0,0.4,0.2,0.4,0.4v3.6
						c0,0.2-0.2,0.4-0.4,0.4H447.5z"/>
					<path fill="#3C3C3B" d="M464.7,172h-6.3c-0.6,0-1.1-0.5-1.1-1.1v-3.6c0-0.6,0.5-1.1,1.1-1.1h6.3c0.6,0,1.1,0.5,1.1,1.1v3.6
						C465.8,171.5,465.3,172,464.7,172z"/>
					<path fill="#4A4A49" d="M458.3,171.3c-0.2,0-0.4-0.2-0.4-0.4v-3.6c0-0.2,0.2-0.4,0.4-0.4h6.3c0.2,0,0.4,0.2,0.4,0.4v3.6
						c0,0.2-0.2,0.4-0.4,0.4H458.3z"/>
					<path fill="#3C3C3B" d="M475.5,172h-6.3c-0.6,0-1.1-0.5-1.1-1.1v-3.6c0-0.6,0.5-1.1,1.1-1.1h6.3c0.6,0,1.1,0.5,1.1,1.1v3.6
						C476.6,171.5,476.1,172,475.5,172z"/>
					<path fill="#4A4A49" d="M469.2,171.3c-0.2,0-0.4-0.2-0.4-0.4v-3.6c0-0.2,0.2-0.4,0.4-0.4h6.3c0.2,0,0.4,0.2,0.4,0.4v3.6
						c0,0.2-0.2,0.4-0.4,0.4H469.2z"/>
					<path fill="#3C3C3B" d="M486.3,172H480c-0.6,0-1.1-0.5-1.1-1.1v-3.6c0-0.6,0.5-1.1,1.1-1.1h6.3c0.6,0,1.1,0.5,1.1,1.1v3.6
						C487.4,171.5,486.9,172,486.3,172z"/>
					<path fill="#4A4A49" d="M480,171.3c-0.2,0-0.4-0.2-0.4-0.4v-3.6c0-0.2,0.2-0.4,0.4-0.4h6.3c0.2,0,0.4,0.2,0.4,0.4v3.6
						c0,0.2-0.2,0.4-0.4,0.4H480z"/>
					<path fill="#3C3C3B" d="M497.1,172h-6.3c-0.6,0-1.1-0.5-1.1-1.1v-3.6c0-0.6,0.5-1.1,1.1-1.1h6.3c0.6,0,1.1,0.5,1.1,1.1v3.6
						C498.3,171.5,497.8,172,497.1,172z"/>
					<path fill="#4A4A49" d="M490.8,171.3c-0.2,0-0.4-0.2-0.4-0.4v-3.6c0-0.2,0.2-0.4,0.4-0.4h6.3c0.2,0,0.4,0.2,0.4,0.4v3.6
						c0,0.2-0.2,0.4-0.4,0.4H490.8z"/>
					<path fill="#3C3C3B" d="M508,172h-6.3c-0.6,0-1.1-0.5-1.1-1.1v-3.6c0-0.6,0.5-1.1,1.1-1.1h6.3c0.6,0,1.1,0.5,1.1,1.1v3.6
						C509.1,171.5,508.6,172,508,172z"/>
					<path fill="#4A4A49" d="M501.6,171.3c-0.2,0-0.4-0.2-0.4-0.4v-3.6c0-0.2,0.2-0.4,0.4-0.4h6.3c0.2,0,0.4,0.2,0.4,0.4v3.6
						c0,0.2-0.2,0.4-0.4,0.4H501.6z"/>
					<path fill="#3C3C3B" d="M518.8,172h-6.3c-0.6,0-1.1-0.5-1.1-1.1v-3.6c0-0.6,0.5-1.1,1.1-1.1h6.3c0.6,0,1.1,0.5,1.1,1.1v3.6
						C519.9,171.5,519.4,172,518.8,172z"/>
					<path fill="#4A4A49" d="M512.5,171.3c-0.2,0-0.4-0.2-0.4-0.4v-3.6c0-0.2,0.2-0.4,0.4-0.4h6.3c0.2,0,0.4,0.2,0.4,0.4v3.6
						c0,0.2-0.2,0.4-0.4,0.4H512.5z"/>
					<path fill="#3C3C3B" d="M529.6,172h-6.3c-0.6,0-1.1-0.5-1.1-1.1v-3.6c0-0.6,0.5-1.1,1.1-1.1h6.3c0.6,0,1.1,0.5,1.1,1.1v3.6
						C530.7,171.5,530.2,172,529.6,172z"/>
					<path fill="#4A4A49" d="M523.3,171.3c-0.2,0-0.4-0.2-0.4-0.4v-3.6c0-0.2,0.2-0.4,0.4-0.4h6.3c0.2,0,0.4,0.2,0.4,0.4v3.6
						c0,0.2-0.2,0.4-0.4,0.4H523.3z"/>
					<path fill="#3C3C3B" d="M540.4,172h-6.3c-0.6,0-1.1-0.5-1.1-1.1v-3.6c0-0.6,0.5-1.1,1.1-1.1h6.3c0.6,0,1.1,0.5,1.1,1.1v3.6
						C541.6,171.5,541.1,172,540.4,172z"/>
					<path fill="#4A4A49" d="M534.1,171.3c-0.2,0-0.4-0.2-0.4-0.4v-3.6c0-0.2,0.2-0.4,0.4-0.4h6.3c0.2,0,0.4,0.2,0.4,0.4v3.6
						c0,0.2-0.2,0.4-0.4,0.4H534.1z"/>
					<path fill="#3C3C3B" d="M551.3,172h-6.3c-0.6,0-1.1-0.5-1.1-1.1v-3.6c0-0.6,0.5-1.1,1.1-1.1h6.3c0.6,0,1.1,0.5,1.1,1.1v3.6
						C552.4,171.5,551.9,172,551.3,172z"/>
					<path fill="#4A4A49" d="M544.9,171.3c-0.2,0-0.4-0.2-0.4-0.4v-3.6c0-0.2,0.2-0.4,0.4-0.4h6.3c0.2,0,0.4,0.2,0.4,0.4v3.6
						c0,0.2-0.2,0.4-0.4,0.4H544.9z"/>
					<path fill="#3C3C3B" d="M415.5,194.1h-11.3c-0.6,0-1.1-0.5-1.1-1.1v-5.8c0-0.6,0.5-1.1,1.1-1.1h11.3c0.6,0,1.1,0.5,1.1,1.1v5.8
						C416.6,193.6,416.1,194.1,415.5,194.1z"/>
					<path fill="#4A4A49" d="M404.1,193.4c-0.2,0-0.4-0.2-0.4-0.4v-5.8c0-0.2,0.2-0.4,0.4-0.4h11.3c0.2,0,0.4,0.2,0.4,0.4v5.8
						c0,0.2-0.2,0.4-0.4,0.4H404.1z"/>
					<path fill="#3C3C3B" d="M415.5,216.7h-11.3c-0.6,0-1.1-0.5-1.1-1.1v-5.8c0-0.6,0.5-1.1,1.1-1.1h11.3c0.6,0,1.1,0.5,1.1,1.1v5.8
						C416.6,216.2,416.1,216.7,415.5,216.7z"/>
					<path fill="#4A4A49" d="M404.1,216c-0.2,0-0.4-0.2-0.4-0.4v-5.8c0-0.2,0.2-0.4,0.4-0.4h11.3c0.2,0,0.4,0.2,0.4,0.4v5.8
						c0,0.2-0.2,0.4-0.4,0.4H404.1z"/>
					<path fill="#3C3C3B" d="M425.9,194.1h-6.1c-0.6,0-1.1-0.5-1.1-1.1v-5.8c0-0.6,0.5-1.1,1.1-1.1h6.1c0.6,0,1.1,0.5,1.1,1.1v5.8
						C427,193.6,426.5,194.1,425.9,194.1z"/>
					<path fill="#4A4A49" d="M419.8,193.4c-0.2,0-0.4-0.2-0.4-0.4v-5.8c0-0.2,0.2-0.4,0.4-0.4h6.1c0.2,0,0.4,0.2,0.4,0.4v5.8
						c0,0.2-0.2,0.4-0.4,0.4H419.8z"/>
					<path fill="#3C3C3B" d="M436.4,194.1h-6.1c-0.6,0-1.1-0.5-1.1-1.1v-5.8c0-0.6,0.5-1.1,1.1-1.1h6.1c0.6,0,1.1,0.5,1.1,1.1v5.8
						C437.5,193.6,437,194.1,436.4,194.1z"/>
					<path fill="#4A4A49" d="M430.3,193.4c-0.2,0-0.4-0.2-0.4-0.4v-5.8c0-0.2,0.2-0.4,0.4-0.4h6.1c0.2,0,0.4,0.2,0.4,0.4v5.8
						c0,0.2-0.2,0.4-0.4,0.4H430.3z"/>
					<path fill="#3C3C3B" d="M446.9,194.1h-6.1c-0.6,0-1.1-0.5-1.1-1.1v-5.8c0-0.6,0.5-1.1,1.1-1.1h6.1c0.6,0,1.1,0.5,1.1,1.1v5.8
						C447.9,193.6,447.5,194.1,446.9,194.1z"/>
					<path fill="#4A4A49" d="M440.7,193.4c-0.2,0-0.4-0.2-0.4-0.4v-5.8c0-0.2,0.2-0.4,0.4-0.4h6.1c0.2,0,0.4,0.2,0.4,0.4v5.8
						c0,0.2-0.2,0.4-0.4,0.4H440.7z"/>
					<path fill="#3C3C3B" d="M457.3,194.1h-6.1c-0.6,0-1.1-0.5-1.1-1.1v-5.8c0-0.6,0.5-1.1,1.1-1.1h6.1c0.6,0,1.1,0.5,1.1,1.1v5.8
						C458.4,193.6,457.9,194.1,457.3,194.1z"/>
					<path fill="#4A4A49" d="M451.2,193.4c-0.2,0-0.4-0.2-0.4-0.4v-5.8c0-0.2,0.2-0.4,0.4-0.4h6.1c0.2,0,0.4,0.2,0.4,0.4v5.8
						c0,0.2-0.2,0.4-0.4,0.4H451.2z"/>
					<path fill="#3C3C3B" d="M467.8,194.1h-6.1c-0.6,0-1.1-0.5-1.1-1.1v-5.8c0-0.6,0.5-1.1,1.1-1.1h6.1c0.6,0,1.1,0.5,1.1,1.1v5.8
						C468.9,193.6,468.4,194.1,467.8,194.1z"/>
					<path fill="#4A4A49" d="M461.7,193.4c-0.2,0-0.4-0.2-0.4-0.4v-5.8c0-0.2,0.2-0.4,0.4-0.4h6.1c0.2,0,0.4,0.2,0.4,0.4v5.8
						c0,0.2-0.2,0.4-0.4,0.4H461.7z"/>
					<path fill="#3C3C3B" d="M478.2,194.1h-6.1c-0.6,0-1.1-0.5-1.1-1.1v-5.8c0-0.6,0.5-1.1,1.1-1.1h6.1c0.6,0,1.1,0.5,1.1,1.1v5.8
						C479.3,193.6,478.8,194.1,478.2,194.1z"/>
					<path fill="#4A4A49" d="M472.1,193.4c-0.2,0-0.4-0.2-0.4-0.4v-5.8c0-0.2,0.2-0.4,0.4-0.4h6.1c0.2,0,0.4,0.2,0.4,0.4v5.8
						c0,0.2-0.2,0.4-0.4,0.4H472.1z"/>
					<path fill="#3C3C3B" d="M488.7,194.1h-6.1c-0.6,0-1.1-0.5-1.1-1.1v-5.8c0-0.6,0.5-1.1,1.1-1.1h6.1c0.6,0,1.1,0.5,1.1,1.1v5.8
						C489.8,193.6,489.3,194.1,488.7,194.1z"/>
					<path fill="#4A4A49" d="M482.6,193.4c-0.2,0-0.4-0.2-0.4-0.4v-5.8c0-0.2,0.2-0.4,0.4-0.4h6.1c0.2,0,0.4,0.2,0.4,0.4v5.8
						c0,0.2-0.2,0.4-0.4,0.4H482.6z"/>
					<path fill="#3C3C3B" d="M499.1,194.1H493c-0.6,0-1.1-0.5-1.1-1.1v-5.8c0-0.6,0.5-1.1,1.1-1.1h6.1c0.6,0,1.1,0.5,1.1,1.1v5.8
						C500.2,193.6,499.7,194.1,499.1,194.1z"/>
					<path fill="#4A4A49" d="M493,193.4c-0.2,0-0.4-0.2-0.4-0.4v-5.8c0-0.2,0.2-0.4,0.4-0.4h6.1c0.2,0,0.4,0.2,0.4,0.4v5.8
						c0,0.2-0.2,0.4-0.4,0.4H493z"/>
					<path fill="#3C3C3B" d="M509.6,194.1h-6.1c-0.6,0-1.1-0.5-1.1-1.1v-5.8c0-0.6,0.5-1.1,1.1-1.1h6.1c0.6,0,1.1,0.5,1.1,1.1v5.8
						C510.7,193.6,510.2,194.1,509.6,194.1z"/>
					<path fill="#4A4A49" d="M503.5,193.4c-0.2,0-0.4-0.2-0.4-0.4v-5.8c0-0.2,0.2-0.4,0.4-0.4h6.1c0.2,0,0.4,0.2,0.4,0.4v5.8
						c0,0.2-0.2,0.4-0.4,0.4H503.5z"/>
					<path fill="#3C3C3B" d="M520.1,194.1h-6.1c-0.6,0-1.1-0.5-1.1-1.1v-5.8c0-0.6,0.5-1.1,1.1-1.1h6.1c0.6,0,1.1,0.5,1.1,1.1v5.8
						C521.1,193.6,520.7,194.1,520.1,194.1z"/>
					<path fill="#4A4A49" d="M513.9,193.4c-0.2,0-0.4-0.2-0.4-0.4v-5.8c0-0.2,0.2-0.4,0.4-0.4h6.1c0.2,0,0.4,0.2,0.4,0.4v5.8
						c0,0.2-0.2,0.4-0.4,0.4H513.9z"/>
					<path fill="#3C3C3B" d="M530.5,194.1h-6.1c-0.6,0-1.1-0.5-1.1-1.1v-5.8c0-0.6,0.5-1.1,1.1-1.1h6.1c0.6,0,1.1,0.5,1.1,1.1v5.8
						C531.6,193.6,531.1,194.1,530.5,194.1z"/>
					<path fill="#4A4A49" d="M524.4,193.4c-0.2,0-0.4-0.2-0.4-0.4v-5.8c0-0.2,0.2-0.4,0.4-0.4h6.1c0.2,0,0.4,0.2,0.4,0.4v5.8
						c0,0.2-0.2,0.4-0.4,0.4H524.4z"/>
					<path fill="#3C3C3B" d="M541,194.1h-6.1c-0.6,0-1.1-0.5-1.1-1.1v-5.8c0-0.6,0.5-1.1,1.1-1.1h6.1c0.6,0,1.1,0.5,1.1,1.1v5.8
						C542.1,193.6,541.6,194.1,541,194.1z"/>
					<path fill="#4A4A49" d="M534.9,193.4c-0.2,0-0.4-0.2-0.4-0.4v-5.8c0-0.2,0.2-0.4,0.4-0.4h6.1c0.2,0,0.4,0.2,0.4,0.4v5.8
						c0,0.2-0.2,0.4-0.4,0.4H534.9z"/>
					<path fill="#3C3C3B" d="M551.3,186.1h-6.1c-0.6,0-1.1,0.5-1.1,1.1v5.8c0,0.6,0.5,1.1,1.1,1.1h1.1c0.4,0,0.7,0.3,0.7,0.7v9.5
						c0,0.6,0.5,1.1,1.1,1.1h3.3c0.6,0,1.1-0.5,1.1-1.1v-17.1C552.4,186.6,551.9,186.1,551.3,186.1z"/>
					<path fill="#4A4A49" d="M548,204.7c-0.2,0-0.4-0.2-0.4-0.4v-9.5c0-0.8-0.6-1.4-1.4-1.4h-1.1c-0.2,0-0.4-0.2-0.4-0.4v-5.8
						c0-0.2,0.2-0.4,0.4-0.4h6.1c0.2,0,0.4,0.2,0.4,0.4v17.1c0,0.2-0.2,0.4-0.4,0.4H548z"/>
					<path fill="#3C3C3B" d="M417.1,205.4h-12.9c-0.6,0-1.1-0.5-1.1-1.1v-5.8c0-0.6,0.5-1.1,1.1-1.1h12.9c0.6,0,1.1,0.5,1.1,1.1v5.8
						C418.2,204.9,417.7,205.4,417.1,205.4z"/>
					<path fill="#4A4A49" d="M404.1,204.7c-0.2,0-0.4-0.2-0.4-0.4v-5.8c0-0.2,0.2-0.4,0.4-0.4h12.9c0.2,0,0.4,0.2,0.4,0.4v5.8
						c0,0.2-0.2,0.4-0.4,0.4H404.1z"/>
					<path fill="#3C3C3B" d="M427.5,205.4h-6.1c-0.6,0-1.1-0.5-1.1-1.1v-5.8c0-0.6,0.5-1.1,1.1-1.1h6.1c0.6,0,1.1,0.5,1.1,1.1v5.8
						C428.6,204.9,428.1,205.4,427.5,205.4z"/>
					<path fill="#4A4A49" d="M421.4,204.7c-0.2,0-0.4-0.2-0.4-0.4v-5.8c0-0.2,0.2-0.4,0.4-0.4h6.1c0.2,0,0.4,0.2,0.4,0.4v5.8
						c0,0.2-0.2,0.4-0.4,0.4H421.4z"/>
					<path fill="#3C3C3B" d="M438,205.4h-6.1c-0.6,0-1.1-0.5-1.1-1.1v-5.8c0-0.6,0.5-1.1,1.1-1.1h6.1c0.6,0,1.1,0.5,1.1,1.1v5.8
						C439.1,204.9,438.6,205.4,438,205.4z"/>
					<path fill="#4A4A49" d="M431.9,204.7c-0.2,0-0.4-0.2-0.4-0.4v-5.8c0-0.2,0.2-0.4,0.4-0.4h6.1c0.2,0,0.4,0.2,0.4,0.4v5.8
						c0,0.2-0.2,0.4-0.4,0.4H431.9z"/>
					<path fill="#3C3C3B" d="M448.5,205.4h-6.1c-0.6,0-1.1-0.5-1.1-1.1v-5.8c0-0.6,0.5-1.1,1.1-1.1h6.1c0.6,0,1.1,0.5,1.1,1.1v5.8
						C449.6,204.9,449.1,205.4,448.5,205.4z"/>
					<path fill="#4A4A49" d="M442.4,204.7c-0.2,0-0.4-0.2-0.4-0.4v-5.8c0-0.2,0.2-0.4,0.4-0.4h6.1c0.2,0,0.4,0.2,0.4,0.4v5.8
						c0,0.2-0.2,0.4-0.4,0.4H442.4z"/>
					<path fill="#3C3C3B" d="M458.9,205.4h-6.1c-0.6,0-1.1-0.5-1.1-1.1v-5.8c0-0.6,0.5-1.1,1.1-1.1h6.1c0.6,0,1.1,0.5,1.1,1.1v5.8
						C460,204.9,459.5,205.4,458.9,205.4z"/>
					<path fill="#4A4A49" d="M452.8,204.7c-0.2,0-0.4-0.2-0.4-0.4v-5.8c0-0.2,0.2-0.4,0.4-0.4h6.1c0.2,0,0.4,0.2,0.4,0.4v5.8
						c0,0.2-0.2,0.4-0.4,0.4H452.8z"/>
					<path fill="#3C3C3B" d="M469.4,205.4h-6.1c-0.6,0-1.1-0.5-1.1-1.1v-5.8c0-0.6,0.5-1.1,1.1-1.1h6.1c0.6,0,1.1,0.5,1.1,1.1v5.8
						C470.5,204.9,470,205.4,469.4,205.4z"/>
					<path fill="#4A4A49" d="M463.3,204.7c-0.2,0-0.4-0.2-0.4-0.4v-5.8c0-0.2,0.2-0.4,0.4-0.4h6.1c0.2,0,0.4,0.2,0.4,0.4v5.8
						c0,0.2-0.2,0.4-0.4,0.4H463.3z"/>
					<path fill="#3C3C3B" d="M479.8,205.4h-6.1c-0.6,0-1.1-0.5-1.1-1.1v-5.8c0-0.6,0.5-1.1,1.1-1.1h6.1c0.6,0,1.1,0.5,1.1,1.1v5.8
						C480.9,204.9,480.4,205.4,479.8,205.4z"/>
					<path fill="#4A4A49" d="M473.7,204.7c-0.2,0-0.4-0.2-0.4-0.4v-5.8c0-0.2,0.2-0.4,0.4-0.4h6.1c0.2,0,0.4,0.2,0.4,0.4v5.8
						c0,0.2-0.2,0.4-0.4,0.4H473.7z"/>
					<path fill="#3C3C3B" d="M490.3,205.4h-6.1c-0.6,0-1.1-0.5-1.1-1.1v-5.8c0-0.6,0.5-1.1,1.1-1.1h6.1c0.6,0,1.1,0.5,1.1,1.1v5.8
						C491.4,204.9,490.9,205.4,490.3,205.4z"/>
					<path fill="#4A4A49" d="M484.2,204.7c-0.2,0-0.4-0.2-0.4-0.4v-5.8c0-0.2,0.2-0.4,0.4-0.4h6.1c0.2,0,0.4,0.2,0.4,0.4v5.8
						c0,0.2-0.2,0.4-0.4,0.4H484.2z"/>
					<path fill="#3C3C3B" d="M500.7,205.4h-6.1c-0.6,0-1.1-0.5-1.1-1.1v-5.8c0-0.6,0.5-1.1,1.1-1.1h6.1c0.6,0,1.1,0.5,1.1,1.1v5.8
						C501.8,204.9,501.4,205.4,500.7,205.4z"/>
					<path fill="#4A4A49" d="M494.6,204.7c-0.2,0-0.4-0.2-0.4-0.4v-5.8c0-0.2,0.2-0.4,0.4-0.4h6.1c0.2,0,0.4,0.2,0.4,0.4v5.8
						c0,0.2-0.2,0.4-0.4,0.4H494.6z"/>
					<path fill="#3C3C3B" d="M511.2,205.4h-6.1c-0.6,0-1.1-0.5-1.1-1.1v-5.8c0-0.6,0.5-1.1,1.1-1.1h6.1c0.6,0,1.1,0.5,1.1,1.1v5.8
						C512.3,204.9,511.8,205.4,511.2,205.4z"/>
					<path fill="#4A4A49" d="M505.1,204.7c-0.2,0-0.4-0.2-0.4-0.4v-5.8c0-0.2,0.2-0.4,0.4-0.4h6.1c0.2,0,0.4,0.2,0.4,0.4v5.8
						c0,0.2-0.2,0.4-0.4,0.4H505.1z"/>
					<path fill="#3C3C3B" d="M521.7,205.4h-6.1c-0.6,0-1.1-0.5-1.1-1.1v-5.8c0-0.6,0.5-1.1,1.1-1.1h6.1c0.6,0,1.1,0.5,1.1,1.1v5.8
						C522.8,204.9,522.3,205.4,521.7,205.4z"/>
					<path fill="#4A4A49" d="M515.6,204.7c-0.2,0-0.4-0.2-0.4-0.4v-5.8c0-0.2,0.2-0.4,0.4-0.4h6.1c0.2,0,0.4,0.2,0.4,0.4v5.8
						c0,0.2-0.2,0.4-0.4,0.4H515.6z"/>
					<path fill="#3C3C3B" d="M532.1,205.4H526c-0.6,0-1.1-0.5-1.1-1.1v-5.8c0-0.6,0.5-1.1,1.1-1.1h6.1c0.6,0,1.1,0.5,1.1,1.1v5.8
						C533.2,204.9,532.7,205.4,532.1,205.4z"/>
					<path fill="#4A4A49" d="M526,204.7c-0.2,0-0.4-0.2-0.4-0.4v-5.8c0-0.2,0.2-0.4,0.4-0.4h6.1c0.2,0,0.4,0.2,0.4,0.4v5.8
						c0,0.2-0.2,0.4-0.4,0.4H526z"/>
					<path fill="#3C3C3B" d="M542.6,205.4h-6.1c-0.6,0-1.1-0.5-1.1-1.1v-5.8c0-0.6,0.5-1.1,1.1-1.1h6.1c0.6,0,1.1,0.5,1.1,1.1v5.8
						C543.7,204.9,543.2,205.4,542.6,205.4z"/>
					<path fill="#4A4A49" d="M536.5,204.7c-0.2,0-0.4-0.2-0.4-0.4v-5.8c0-0.2,0.2-0.4,0.4-0.4h6.1c0.2,0,0.4,0.2,0.4,0.4v5.8
						c0,0.2-0.2,0.4-0.4,0.4H536.5z"/>
					<path fill="#3C3C3B" d="M425.9,216.7h-6.1c-0.6,0-1.1-0.5-1.1-1.1v-5.8c0-0.6,0.5-1.1,1.1-1.1h6.1c0.6,0,1.1,0.5,1.1,1.1v5.8
						C427,216.2,426.5,216.7,425.9,216.7z"/>
					<path fill="#4A4A49" d="M419.8,216c-0.2,0-0.4-0.2-0.4-0.4v-5.8c0-0.2,0.2-0.4,0.4-0.4h6.1c0.2,0,0.4,0.2,0.4,0.4v5.8
						c0,0.2-0.2,0.4-0.4,0.4H419.8z"/>
					<path fill="#3C3C3B" d="M436.4,216.7h-6.1c-0.6,0-1.1-0.5-1.1-1.1v-5.8c0-0.6,0.5-1.1,1.1-1.1h6.1c0.6,0,1.1,0.5,1.1,1.1v5.8
						C437.5,216.2,437,216.7,436.4,216.7z"/>
					<path fill="#4A4A49" d="M430.3,216c-0.2,0-0.4-0.2-0.4-0.4v-5.8c0-0.2,0.2-0.4,0.4-0.4h6.1c0.2,0,0.4,0.2,0.4,0.4v5.8
						c0,0.2-0.2,0.4-0.4,0.4H430.3z"/>
					<path fill="#3C3C3B" d="M446.9,216.7h-6.1c-0.6,0-1.1-0.5-1.1-1.1v-5.8c0-0.6,0.5-1.1,1.1-1.1h6.1c0.6,0,1.1,0.5,1.1,1.1v5.8
						C447.9,216.2,447.5,216.7,446.9,216.7z"/>
					<path fill="#4A4A49" d="M440.7,216c-0.2,0-0.4-0.2-0.4-0.4v-5.8c0-0.2,0.2-0.4,0.4-0.4h6.1c0.2,0,0.4,0.2,0.4,0.4v5.8
						c0,0.2-0.2,0.4-0.4,0.4H440.7z"/>
					<path fill="#3C3C3B" d="M457.3,216.7h-6.1c-0.6,0-1.1-0.5-1.1-1.1v-5.8c0-0.6,0.5-1.1,1.1-1.1h6.1c0.6,0,1.1,0.5,1.1,1.1v5.8
						C458.4,216.2,457.9,216.7,457.3,216.7z"/>
					<path fill="#4A4A49" d="M451.2,216c-0.2,0-0.4-0.2-0.4-0.4v-5.8c0-0.2,0.2-0.4,0.4-0.4h6.1c0.2,0,0.4,0.2,0.4,0.4v5.8
						c0,0.2-0.2,0.4-0.4,0.4H451.2z"/>
					<path fill="#3C3C3B" d="M467.8,216.7h-6.1c-0.6,0-1.1-0.5-1.1-1.1v-5.8c0-0.6,0.5-1.1,1.1-1.1h6.1c0.6,0,1.1,0.5,1.1,1.1v5.8
						C468.9,216.2,468.4,216.7,467.8,216.7z"/>
					<path fill="#4A4A49" d="M461.7,216c-0.2,0-0.4-0.2-0.4-0.4v-5.8c0-0.2,0.2-0.4,0.4-0.4h6.1c0.2,0,0.4,0.2,0.4,0.4v5.8
						c0,0.2-0.2,0.4-0.4,0.4H461.7z"/>
					<path fill="#3C3C3B" d="M478.2,216.7h-6.1c-0.6,0-1.1-0.5-1.1-1.1v-5.8c0-0.6,0.5-1.1,1.1-1.1h6.1c0.6,0,1.1,0.5,1.1,1.1v5.8
						C479.3,216.2,478.8,216.7,478.2,216.7z"/>
					<path fill="#4A4A49" d="M472.1,216c-0.2,0-0.4-0.2-0.4-0.4v-5.8c0-0.2,0.2-0.4,0.4-0.4h6.1c0.2,0,0.4,0.2,0.4,0.4v5.8
						c0,0.2-0.2,0.4-0.4,0.4H472.1z"/>
					<path fill="#3C3C3B" d="M488.7,216.7h-6.1c-0.6,0-1.1-0.5-1.1-1.1v-5.8c0-0.6,0.5-1.1,1.1-1.1h6.1c0.6,0,1.1,0.5,1.1,1.1v5.8
						C489.8,216.2,489.3,216.7,488.7,216.7z"/>
					<path fill="#4A4A49" d="M482.6,216c-0.2,0-0.4-0.2-0.4-0.4v-5.8c0-0.2,0.2-0.4,0.4-0.4h6.1c0.2,0,0.4,0.2,0.4,0.4v5.8
						c0,0.2-0.2,0.4-0.4,0.4H482.6z"/>
					<path fill="#3C3C3B" d="M499.1,216.7H493c-0.6,0-1.1-0.5-1.1-1.1v-5.8c0-0.6,0.5-1.1,1.1-1.1h6.1c0.6,0,1.1,0.5,1.1,1.1v5.8
						C500.2,216.2,499.7,216.7,499.1,216.7z"/>
					<path fill="#4A4A49" d="M493,216c-0.2,0-0.4-0.2-0.4-0.4v-5.8c0-0.2,0.2-0.4,0.4-0.4h6.1c0.2,0,0.4,0.2,0.4,0.4v5.8
						c0,0.2-0.2,0.4-0.4,0.4H493z"/>
					<path fill="#3C3C3B" d="M509.6,216.7h-6.1c-0.6,0-1.1-0.5-1.1-1.1v-5.8c0-0.6,0.5-1.1,1.1-1.1h6.1c0.6,0,1.1,0.5,1.1,1.1v5.8
						C510.7,216.2,510.2,216.7,509.6,216.7z"/>
					<path fill="#4A4A49" d="M503.5,216c-0.2,0-0.4-0.2-0.4-0.4v-5.8c0-0.2,0.2-0.4,0.4-0.4h6.1c0.2,0,0.4,0.2,0.4,0.4v5.8
						c0,0.2-0.2,0.4-0.4,0.4H503.5z"/>
					<path fill="#3C3C3B" d="M520.1,216.7h-6.1c-0.6,0-1.1-0.5-1.1-1.1v-5.8c0-0.6,0.5-1.1,1.1-1.1h6.1c0.6,0,1.1,0.5,1.1,1.1v5.8
						C521.1,216.2,520.7,216.7,520.1,216.7z"/>
					<path fill="#4A4A49" d="M513.9,216c-0.2,0-0.4-0.2-0.4-0.4v-5.8c0-0.2,0.2-0.4,0.4-0.4h6.1c0.2,0,0.4,0.2,0.4,0.4v5.8
						c0,0.2-0.2,0.4-0.4,0.4H513.9z"/>
					<path fill="#3C3C3B" d="M530.5,216.7h-6.1c-0.6,0-1.1-0.5-1.1-1.1v-5.8c0-0.6,0.5-1.1,1.1-1.1h6.1c0.6,0,1.1,0.5,1.1,1.1v5.8
						C531.6,216.2,531.1,216.7,530.5,216.7z"/>
					<path fill="#4A4A49" d="M524.4,216c-0.2,0-0.4-0.2-0.4-0.4v-5.8c0-0.2,0.2-0.4,0.4-0.4h6.1c0.2,0,0.4,0.2,0.4,0.4v5.8
						c0,0.2-0.2,0.4-0.4,0.4H524.4z"/>
					<path fill="#3C3C3B" d="M551.4,208.7H541h-1.5h-4.6c-0.6,0-1.1,0.5-1.1,1.1v5.8c0,0.6,0.5,1.1,1.1,1.1h4.6h1.5h10.5
						c0.6,0,1.1-0.5,1.1-1.1v-5.8C552.5,209.2,552,208.7,551.4,208.7z"/>
					<path fill="#4A4A49" d="M534.9,216c-0.2,0-0.4-0.2-0.4-0.4v-5.8c0-0.2,0.2-0.4,0.4-0.4h16.6c0.2,0,0.4,0.2,0.4,0.4v5.8
						c0,0.2-0.2,0.4-0.4,0.4H534.9z"/>
					<path fill="#3C3C3B" d="M441.6,228h-6.1c-0.6,0-1.1-0.5-1.1-1.1v-5.8c0-0.6,0.5-1.1,1.1-1.1h6.1c0.6,0,1.1,0.5,1.1,1.1v5.8
						C442.7,227.5,442.2,228,441.6,228z"/>
					<path fill="#4A4A49" d="M435.5,227.3c-0.2,0-0.4-0.2-0.4-0.4v-5.8c0-0.2,0.2-0.4,0.4-0.4h6.1c0.2,0,0.4,0.2,0.4,0.4v5.8
						c0,0.2-0.2,0.4-0.4,0.4H435.5z"/>
					<path fill="#3C3C3B" d="M499.3,220h-3.4h2.4h-4.4h-6.1h-4.4h-6.1H473h-6.1h-4.4h-6.1H446c-0.6,0-1.1,0.5-1.1,1.1v5.8
						c0,0.6,0.5,1.1,1.1,1.1h10.5h6.1h4.4h6.1h4.4h6.1h4.4h6.1h4.4h-2.4h3.4c0.6,0,1.1-0.5,1.1-1.1v-5.8
						C500.4,220.5,499.9,220,499.3,220z"/>
					<path fill="#4A4A49" d="M446,227.3c-0.2,0-0.4-0.2-0.4-0.4v-5.8c0-0.2,0.2-0.4,0.4-0.4h53.3c0.2,0,0.4,0.2,0.4,0.4v5.8
						c0,0.2-0.2,0.4-0.4,0.4H446z"/>
					<path fill="#3C3C3B" d="M509.8,228h-6.1c-0.6,0-1.1-0.5-1.1-1.1v-5.8c0-0.6,0.5-1.1,1.1-1.1h6.1c0.6,0,1.1,0.5,1.1,1.1v5.8
						C510.8,227.5,510.4,228,509.8,228z"/>
					<path fill="#4A4A49" d="M503.7,227.3c-0.2,0-0.4-0.2-0.4-0.4v-5.8c0-0.2,0.2-0.4,0.4-0.4h6.1c0.2,0,0.4,0.2,0.4,0.4v5.8
						c0,0.2-0.2,0.4-0.4,0.4H503.7z"/>
					<path fill="#3C3C3B" d="M520.2,228h-6.1c-0.6,0-1.1-0.5-1.1-1.1v-5.8c0-0.6,0.5-1.1,1.1-1.1h6.1c0.6,0,1.1,0.5,1.1,1.1v5.8
						C521.3,227.5,520.8,228,520.2,228z"/>
					<path fill="#4A4A49" d="M514.1,227.3c-0.2,0-0.4-0.2-0.4-0.4v-5.8c0-0.2,0.2-0.4,0.4-0.4h6.1c0.2,0,0.4,0.2,0.4,0.4v5.8
						c0,0.2-0.2,0.4-0.4,0.4H514.1z"/>
					<path fill="#3C3C3B" d="M530.3,228h-6.1c-0.6,0-1.1-0.5-1.1-1.1v-3.6c0-0.6,0.5-1.1,1.1-1.1h6.1c0.6,0,1.1,0.5,1.1,1.1v3.6
						C531.4,227.5,530.9,228,530.3,228z"/>
					<path fill="#4A4A49" d="M524.2,227.3c-0.2,0-0.4-0.2-0.4-0.4v-3.6c0-0.2,0.2-0.4,0.4-0.4h6.1c0.2,0,0.4,0.2,0.4,0.4v3.6
						c0,0.2-0.2,0.4-0.4,0.4H524.2z"/>
					<path fill="#3C3C3B" d="M551.6,227.4h-6.1c-0.6,0-1.1-0.5-1.1-1.1v-3.6c0-0.6,0.5-1.1,1.1-1.1h6.1c0.6,0,1.1,0.5,1.1,1.1v3.6
						C552.7,227,552.2,227.4,551.6,227.4z"/>
					<path fill="#4A4A49" d="M545.5,226.7c-0.2,0-0.4-0.2-0.4-0.4v-3.6c0-0.2,0.2-0.4,0.4-0.4h6.1c0.2,0,0.4,0.2,0.4,0.4v3.6
						c0,0.2-0.2,0.4-0.4,0.4H545.5z"/>
					<g>
						<path fill="#3C3C3B" d="M541.9,223.2v-2.1c0-0.6-0.5-1.1-1.1-1.1h-6.1c-0.6,0-1.1,0.5-1.1,1.1v2.1H541.9z"/>
						<path fill="#4A4A49" d="M534.3,222.5v-1.4c0-0.2,0.2-0.4,0.4-0.4h6.1c0.2,0,0.4,0.2,0.4,0.4v1.4H534.3z"/>
						<path fill="#3C3C3B" d="M533.6,224.8v2.1c0,0.6,0.5,1.1,1.1,1.1h6.1c0.6,0,1.1-0.5,1.1-1.1v-2.1H533.6z"/>
						<path fill="#4A4A49" d="M534.7,227.3c-0.2,0-0.4-0.2-0.4-0.4v-1.4h6.8v1.4c0,0.2-0.2,0.4-0.4,0.4H534.7z"/>
					</g>
				</g>
			</g>
		</g>
		<g>
			<path fill="#399BD8" d="M385.8,149.7c-0.6,0-1.2-0.5-1.3-1.1l-7.2-46c-0.1-0.5,0.1-0.8,0.3-1c0.2-0.2,0.5-0.4,1-0.4h198.6
				c0.5,0,0.8,0.2,1,0.4c0.2,0.2,0.4,0.5,0.3,1l-7.2,46c-0.1,0.6-0.6,1.1-1.3,1.1H385.8z"/>
			<g>
				<polygon fill="#FFFFFF" points="432.6,143.7 429.9,136.8 383.5,142.1 383.3,140.6 430.9,135.3 433.4,141.7 486.9,120.8 
					491.7,124.3 497.2,120.9 505,138 532.1,105.3 574.1,130.1 573.9,131.7 532.1,107.6 504.6,140.8 496.5,123 491.7,126.2 
					486.6,122.5 				"/>
			</g>
		</g>
	</g>
	<g>
		<defs>
			<path id="SVGID_6_" d="M830.3,409.1h-676c-4.4,0-8-3.6-8-8v-366c0-4.4,3.6-8,8-8h676c4.4,0,8,3.6,8,8v366
				C838.3,405.5,834.7,409.1,830.3,409.1z"/>
		</defs>
		<clipPath id="SVGID_7_">
			<use xlink:href="#SVGID_6_"  overflow="visible"/>
		</clipPath>
		<g clip-path="url(#SVGID_7_)">
			<g>
				<linearGradient id="SVGID_8_" gradientUnits="userSpaceOnUse" x1="676.4999" y1="92.8328" x2="817.9468" y2="234.2797">
					<stop  offset="3.584230e-03" style="stop-color:#0FAEA3"/>
					<stop  offset="1" style="stop-color:#0FAEA3;stop-opacity:0"/>
				</linearGradient>
				<path fill="url(#SVGID_8_)" d="M929.9,265.6c-41.5-41.5-137.3-137.4-137.3-137.4c-2.4-2.2-3.4-1.8-3.7-1.8h-90.8
					c-2.6,0-4.6,2.1-4.6,4.6v57.4c0,1.5,0.7,2.8,1.7,3.6c0.8,0.6,155.6,155.6,156.4,156.4c0.8,0.9,2.1,1.4,3.4,1.4h74.9V265.6z"/>
				<g>
					<path fill="#706F6F" d="M698.1,193.1c-2.6,0-4.7-2.1-4.7-4.6v-57.4c0-2.6,2.1-4.6,4.6-4.6h90.8c2.6,0,4.7,2.1,4.7,4.6v57.4
						c0,2.6-2.1,4.6-4.6,4.6H698.1z"/>
					<path fill="#575756" d="M698.1,192.1c-1.6,0-3-1.3-3-2.9V130c0-1.6,1.3-2.9,2.9-2.9h90.8c1.6,0,3,1.3,3,2.9v59.2
						c0,1.6-1.3,2.9-2.9,2.9H698.1z"/>
					<path fill="#706F6F" d="M788.9,127.1l-45.4,0.9l-45.4-0.9c-1.6,0-2.9,1.3-2.9,2.9v59.2c0,1.6,1.3,2.9,2.9,2.9l45.4-0.9
						l45.4,0.9c1.6,0,2.9-1.3,2.9-2.9V130C791.8,128.4,790.5,127.1,788.9,127.1z"/>
					<path fill="#DADADA" d="M743.5,191.3l-45.4,0.9c-1.6,0-2.9-1.3-2.9-2.9V130c0-1.6,1.3-2.9,2.9-2.9l45.4,0.9V191.3z"/>
					<path fill="#EDEDED" d="M743.5,128l45.4-0.9c1.6,0,2.9,1.3,2.9,2.9v59.2c0,1.6-1.3,2.9-2.9,2.9l-45.4-0.9V128z"/>
					<g>
						<rect x="701.3" y="137" fill="#9D9D9C" width="42.1" height="0.3"/>
						<rect x="701.3" y="143.4" fill="#9D9D9C" width="42.1" height="0.3"/>
						<rect x="701.3" y="149.8" fill="#9D9D9C" width="42.1" height="0.3"/>
						<rect x="701.3" y="156.3" fill="#9D9D9C" width="42.1" height="0.3"/>
						<rect x="701.3" y="162.7" fill="#9D9D9C" width="42.1" height="0.3"/>
						<rect x="701.3" y="169.1" fill="#9D9D9C" width="42.1" height="0.3"/>
						<rect x="701.3" y="175.5" fill="#9D9D9C" width="42.1" height="0.3"/>
						<rect x="701.3" y="181.9" fill="#9D9D9C" width="42.1" height="0.3"/>
					</g>
					<g>
						<rect x="743.5" y="137" fill="#B2B2B2" width="42.1" height="0.3"/>
						<rect x="743.5" y="143.4" fill="#B2B2B2" width="42.1" height="0.3"/>
						<rect x="743.5" y="149.8" fill="#B2B2B2" width="42.1" height="0.3"/>
						<rect x="743.5" y="156.3" fill="#B2B2B2" width="42.1" height="0.3"/>
						<rect x="743.5" y="162.7" fill="#B2B2B2" width="42.1" height="0.3"/>
						<rect x="743.5" y="169.1" fill="#B2B2B2" width="42.1" height="0.3"/>
						<rect x="743.5" y="175.5" fill="#B2B2B2" width="42.1" height="0.3"/>
						<rect x="743.5" y="181.9" fill="#B2B2B2" width="42.1" height="0.3"/>
					</g>
				</g>
			</g>
			<g>
				<linearGradient id="SVGID_9_" gradientUnits="userSpaceOnUse" x1="599.8027" y1="204.9619" x2="677.8346" y2="282.9938">
					<stop  offset="3.584230e-03" style="stop-color:#0FAEA3"/>
					<stop  offset="1" style="stop-color:#0FAEA3;stop-opacity:0"/>
				</linearGradient>
				<path fill="url(#SVGID_9_)" d="M652.3,216.8c-0.5-0.5-1.2-0.9-2-0.9h-27.5c-1.4,0-2.6,1.2-2.6,2.6v8.3h-0.3c0,0-0.1,0-0.1,0.1v2
					c0,0,0,0.1,0.1,0.1h0.3v1.8h-0.3c0,0-0.1,0-0.1,0.1v2c0,0,0,0.1,0.1,0.1h0.3v32c0,0.8,0.3,1.5,0.9,2
					c0.5,0.4,95.4,95.3,95.7,95.7c0.5,0.6,1.2,1,2,1h27.5c1.4,0,2.6-1.2,2.6-2.6v-46.4c0-0.8-0.3-1.5-0.9-2
					C747.6,312.2,652.7,217.2,652.3,216.8z"/>
				<g>
					<g>
						<g>
							<g>
								<g>
									<path fill="#C6C6C6" d="M650.3,267.6h-27.5c-1.4,0-2.6-1.2-2.6-2.6v-46.4c0-1.4,1.2-2.6,2.6-2.6h27.5
										c1.4,0,2.6,1.2,2.6,2.6v46.4C652.9,266.4,651.8,267.6,650.3,267.6z"/>
									<path fill="#DADADA" d="M622.8,267.1c-1.2,0-2.1-1-2.1-2.1v-46.4c0-1.2,1-2.1,2.1-2.1h27.5c1.2,0,2.1,1,2.1,2.1v46.4
										c0,1.2-1,2.1-2.1,2.1H622.8z"/>
								</g>
								<path fill="#B2B2B2" d="M620.2,226.8h-0.3c0,0-0.1,0-0.1,0.1v2c0,0,0,0.1,0.1,0.1h0.3V226.8z"/>
								<path fill="#B2B2B2" d="M620.2,230.8h-0.3c0,0-0.1,0-0.1,0.1v2c0,0,0,0.1,0.1,0.1h0.3V230.8z"/>
							</g>
							<g>
								<path fill="#575756" d="M638.2,218.7h-3.4c-0.2,0-0.4-0.2-0.4-0.4v-0.1c0-0.2,0.2-0.4,0.4-0.4h3.4c0.2,0,0.4,0.2,0.4,0.4
									v0.1C638.7,218.5,638.5,218.7,638.2,218.7z"/>
								<path fill="#575756" d="M633.3,218.3c0-0.2-0.2-0.4-0.4-0.4c-0.2,0-0.4,0.2-0.4,0.4c0,0.2,0.2,0.4,0.4,0.4
									C633.1,218.7,633.3,218.5,633.3,218.3z"/>
							</g>
						</g>
						<g>
							<g>
								<circle fill="#C6C6C6" cx="636.6" cy="264.2" r="2.1"/>
								<path fill="#DADADA" d="M636.6,265.8c-0.9,0-1.6-0.7-1.6-1.6c0-0.9,0.7-1.6,1.6-1.6c0.9,0,1.6,0.7,1.6,1.6
									C638.2,265.1,637.4,265.8,636.6,265.8z"/>
							</g>
							<path fill="#DADADA" stroke="#F6F6F6" stroke-width="0.3255" stroke-miterlimit="10" d="M637.1,263.4h-1
								c-0.1,0-0.3,0.1-0.3,0.3v1c0,0.1,0.1,0.3,0.3,0.3h1c0.1,0,0.3-0.1,0.3-0.3v-1C637.3,263.5,637.2,263.4,637.1,263.4z"/>
						</g>
					</g>
					<path fill="#0FAEA3" d="M650.9,261.1h-28.8c-0.4,0-0.6-0.3-0.6-0.6v-35.4c0-0.4,0.3-0.6,0.6-0.6h28.8c0.4,0,0.6,0.3,0.6,0.6
						v35.4C651.6,260.9,651.3,261.1,650.9,261.1z"/>
				</g>
			</g>
			<g>
				<linearGradient id="SVGID_10_" gradientUnits="userSpaceOnUse" x1="124.8849" y1="50.8579" x2="358.7236" y2="284.6966">
					<stop  offset="3.584230e-03" style="stop-color:#0FAEA3"/>
					<stop  offset="1" style="stop-color:#0FAEA3;stop-opacity:0"/>
				</linearGradient>
				<path fill="url(#SVGID_10_)" d="M576.8,440.5C575,438.7,298.3,162,296.6,160.3c-10.6-10.6-25.1-14.6-38.8-12.2
					c-0.4-0.4-40.9-41-42.7-42.8c-9.9-9.9-25.9-9.9-35.8,0c-9.9,9.9-9.9,25.9,0,35.8c1.8,1.8,42.4,42.3,42.8,42.7
					c-2.4,13.7,1.7,28.2,12.2,38.8c1.8,1.8,278.5,278.5,280.2,280.2c17.2,17.2,45.1,17.2,62.3,0C594,485.6,594,457.7,576.8,440.5z"
					/>
				<g>
					<g>
						<circle fill="#9D9D9C" cx="197.2" cy="123.1" r="25.3"/>
						<circle fill="#B2B2B2" cx="197.2" cy="123.1" r="24.6"/>
						<circle fill="#C6C6C6" cx="197.2" cy="123.1" r="18.5"/>
						<circle fill="#DADADA" cx="197.2" cy="123.1" r="16.2"/>
						<path fill="#C6C6C6" d="M203.3,129.3c3.4-3.4,3.4-8.9,0-12.4c-3.4-3.4-8.9-3.4-12.4,0c-3.4,3.4-3.4,8.9,0,12.4
							C194.4,132.7,199.9,132.7,203.3,129.3z"/>
						<path fill="#DADADA" d="M202.1,128.1c2.7-2.7,2.7-7.1,0-9.8c-2.7-2.7-7.1-2.7-9.8,0c-2.7,2.7-2.7,7.1,0,9.8
							C195,130.8,199.4,130.8,202.1,128.1z"/>
					</g>
					<g>
						<circle fill="#9D9D9C" cx="265.4" cy="191.4" r="44"/>
						<circle fill="#B2B2B2" cx="265.4" cy="191.4" r="42.1"/>
						<circle fill="#C6C6C6" cx="265.4" cy="191.4" r="34.5"/>
						<circle fill="#DADADA" cx="265.4" cy="191.4" r="27.7"/>
						<circle fill="#EDEDED" cx="265.4" cy="191.4" r="21.1"/>
					</g>
					<g>
						<g>
							<path fill="#706F6F" d="M215.4,145.4l-27.1-27.1c-1.1-1.1-1.1-2.9,0-4l0,0c1.1-1.1,2.9-1.1,4,0l27.1,27.1L215.4,145.4z"/>
							
								<rect x="191.6" y="115" transform="matrix(0.7071 0.7071 -0.7071 0.7071 139.5339 -101.1608)" fill="#575756" width="0.5" height="5.7"/>
							
								<rect x="193.4" y="116.7" transform="matrix(0.7071 0.7071 -0.7071 0.7071 141.2567 -101.8744)" fill="#575756" width="0.5" height="5.7"/>
							
								<rect x="195.1" y="118.4" transform="matrix(0.707 0.7072 -0.7072 0.707 143.0125 -102.5957)" fill="#575756" width="0.5" height="5.7"/>
							
								<rect x="196.8" y="120.2" transform="matrix(0.7071 0.7071 -0.7071 0.7071 144.7023 -103.3016)" fill="#575756" width="0.5" height="5.7"/>
							
								<rect x="198.5" y="121.9" transform="matrix(0.7071 0.7071 -0.7071 0.7071 146.4251 -104.0152)" fill="#575756" width="0.5" height="5.7"/>
							
								<rect x="200.3" y="123.6" transform="matrix(0.7072 0.707 -0.707 0.7072 148.1138 -104.7211)" fill="#575756" width="0.5" height="5.7"/>
							
								<rect x="202" y="125.3" transform="matrix(0.7071 0.7071 -0.7071 0.7071 149.8708 -105.4425)" fill="#575756" width="0.5" height="5.7"/>
							
								<rect x="203.7" y="127.1" transform="matrix(0.7071 0.7071 -0.7071 0.7071 151.5945 -106.1563)" fill="#575756" width="0.5" height="5.7"/>
							
								<rect x="205.4" y="128.8" transform="matrix(0.707 0.7072 -0.7072 0.707 153.3516 -106.8774)" fill="#575756" width="0.5" height="5.7"/>
							
								<rect x="207.1" y="130.5" transform="matrix(0.7071 0.7071 -0.7071 0.7071 155.0392 -107.5833)" fill="#575756" width="0.5" height="5.7"/>
							
								<rect x="208.9" y="132.2" transform="matrix(0.7071 0.7071 -0.7071 0.7071 156.762 -108.2969)" fill="#575756" width="0.5" height="5.7"/>
							
								<rect x="210.6" y="134" transform="matrix(0.7072 0.707 -0.707 0.7072 158.4486 -109.0028)" fill="#575756" width="0.5" height="5.7"/>
							
								<rect x="212.3" y="135.7" transform="matrix(0.7071 0.7071 -0.7071 0.7071 160.2066 -109.7239)" fill="#575756" width="0.5" height="5.7"/>
							
								<rect x="214" y="137.4" transform="matrix(0.7071 0.7071 -0.7071 0.7071 161.9305 -110.4378)" fill="#575756" width="0.5" height="5.7"/>
							
								<rect x="215.8" y="139.1" transform="matrix(0.707 0.7072 -0.7072 0.707 163.6906 -111.1591)" fill="#575756" width="0.5" height="5.7"/>
							<g>
								<path fill="#575756" d="M192.3,114.3c-0.1-0.1-0.2-0.2-0.4-0.3l-4,4c0.1,0.1,0.2,0.3,0.3,0.4l0,0L192.3,114.3L192.3,114.3z"
									/>
							</g>
						</g>
						<g>
							<path fill="#575756" d="M220.9,155.6l-5.5-5.5c-1.3-1.3-1.3-3.5,0-4.8l3.9-3.9c1.3-1.3,3.5-1.3,4.8,0l5.5,5.5L220.9,155.6z"
								/>
							<path fill="#C6C6C6" d="M225.7,170.1l-4.4-4.4c-2.9-2.9-2.9-7.6,0-10.4l8-8c2.9-2.9,7.6-2.9,10.4,0l4.4,4.4L225.7,170.1z"/>
							<path fill="#878787" d="M225.8,170.8L225.8,170.8c-0.2-0.2-0.2-0.6,0-0.8l18.5-18.5c0.2-0.2,0.6-0.2,0.8,0l0,0
								c0.2,0.2,0.2,0.6,0,0.8l-18.5,18.5C226.4,171,226,171,225.8,170.8z"/>
						</g>
					</g>
					<g>
						<path fill="#DADADA" d="M219.4,132.2c1-1,1-2.7,0-3.8c-1-1-2.7-1-3.8,0c-1,1-1,2.7,0,3.8C216.7,133.3,218.4,133.3,219.4,132.2
							z"/>
						<circle fill="#EDEDED" cx="217.5" cy="130.3" r="2.4"/>
						<circle fill="#C6C6C6" cx="217.5" cy="130.3" r="1"/>
						<circle fill="#EDEDED" cx="217.5" cy="130.3" r="0.7"/>
					</g>
				</g>
			</g>
			<g>
				<linearGradient id="SVGID_11_" gradientUnits="userSpaceOnUse" x1="183.219" y1="252.644" x2="339.4641" y2="408.8891">
					<stop  offset="3.584230e-03" style="stop-color:#0FAEA3"/>
					<stop  offset="1" style="stop-color:#0FAEA3;stop-opacity:0"/>
				</linearGradient>
				<path fill="url(#SVGID_11_)" d="M220.9,303.4v3.5h-0.6c-0.1,0-0.1,0.1-0.1,0.1v4c0,0.1,0.1,0.1,0.1,0.1h0.6v62.7
					c0,1.5,0.7,2.9,1.8,3.9c0.9,0.8,186.9,186.7,187.6,187.6c0.9,1.1,2.4,1.9,4,1.9h65.6c2.8,0,5.1-2.3,5.1-5.1v-91
					c0-1.5-0.7-2.9-1.7-3.8c-0.9-0.8-186.9-186.8-187.8-187.8c-0.9-1.1-2.3-1.7-3.8-1.7h-65.6c-2.8,0-5.1,2.3-5.1,5.1v16.3h-0.6
					c-0.1,0-0.1,0.1-0.1,0.1v4"/>
				<g>
					<g>
						<g>
							<g>
								<g>
									<path fill="#575756" d="M291.7,378.9h-65.6c-2.8,0-5.1-2.3-5.1-5.1v-91c0-2.8,2.3-5.1,5.1-5.1h65.6c2.8,0,5.1,2.3,5.1,5.1
										v91C296.8,376.6,294.5,378.9,291.7,378.9z"/>
									<path fill="#706F6F" d="M226.1,378c-2.3,0-4.2-1.9-4.2-4.2v-91c0-2.3,1.9-4.2,4.2-4.2h65.6c2.3,0,4.2,1.9,4.2,4.2v91
										c0,2.3-1.9,4.2-4.2,4.2H226.1z"/>
								</g>
							</g>
						</g>
						<path fill="#575756" d="M259.8,282.2c0-0.5-0.4-0.9-0.9-0.9c-0.5,0-0.9,0.4-0.9,0.9c0,0.5,0.4,0.9,0.9,0.9
							C259.4,283.1,259.8,282.7,259.8,282.2z"/>
					</g>
					<g>
						<g>
							<path fill="#575756" d="M263.1,372.4c0-2.3-1.9-4.2-4.2-4.2c-2.3,0-4.2,1.9-4.2,4.2c0,2.3,1.9,4.2,4.2,4.2
								C261.2,376.7,263.1,374.8,263.1,372.4z"/>
							<path fill="#706F6F" d="M258.9,375.7c-1.8,0-3.3-1.5-3.3-3.3c0-1.8,1.5-3.3,3.3-3.3c1.8,0,3.3,1.5,3.3,3.3
								C262.2,374.3,260.7,375.7,258.9,375.7z"/>
						</g>
						<path fill="none" stroke="#878787" stroke-width="0.6665" stroke-miterlimit="10" d="M259.9,370.9h-2.1
							c-0.3,0-0.5,0.2-0.5,0.5v2.1c0,0.3,0.2,0.5,0.5,0.5h2.1c0.3,0,0.5-0.2,0.5-0.5v-2.1C260.5,371.1,260.2,370.9,259.9,370.9z"/>
					</g>
					<path fill="#98CFC8" d="M292.9,366.4h-68.1c-0.7,0-1.2-0.6-1.2-1.2v-77.8c0-0.7,0.6-1.2,1.2-1.2h68.1c0.7,0,1.2,0.6,1.2,1.2
						v77.8C294.2,365.8,293.6,366.4,292.9,366.4z"/>
					<g>
						<g>
							<polygon fill="#29B0A6" points="270.9,309.7 271.2,308.3 273.3,310.3 270.6,311.1 							"/>
							<polygon fill="#E89970" points="259.5,319 262.4,318.6 261.3,321.2 							"/>
							<polygon fill="#EE7177" points="261.3,295 263.4,293 264,295.9 							"/>
							<polygon fill="#876182" points="244.9,308.4 247.2,306.7 247.5,309.6 							"/>
							<path fill="#EE7177" d="M268.1,300.4c-2-2.7-5.2-4.5-8.9-4.5c-1.3,0-2.6,0.2-3.8,0.7l3.8,10.3L268.1,300.4z"/>
							<path fill="#876182" d="M255.4,296.6c-4.2,1.6-7.2,5.6-7.2,10.3c0,5.6,4.1,10.2,9.5,10.9l1.5-10.9L255.4,296.6z"/>
							<path fill="#48B6AC" d="M270.3,306.9c0-2.5-0.8-4.7-2.2-6.5l-8.9,6.5l4.2,10.2C267.5,315.4,270.3,311.5,270.3,306.9"/>
							<path fill="#E89970" d="M259.3,306.9l-1.5,10.9c0.5,0.1,1,0.1,1.5,0.1c1.5,0,2.9-0.3,4.2-0.8L259.3,306.9z"/>
						</g>
						<g>
							<g>
								<g>
									<path fill="#59BAB1" d="M253.2,358.2v-19.1c0-1.2-1-2.2-2.2-2.2l0,0c-1.2,0-2.2,1-2.2,2.2v19.1H253.2z"/>
								</g>
								<g>
									<path fill="#0FAEA3" d="M250.9,336.9c-1.2,0-2.2,1-2.2,2.2v19.1h2.2V336.9z"/>
								</g>
							</g>
							<g>
								<g>
									<path fill="#81587B" d="M259,358.2V344c0-1.2-1-2.2-2.2-2.2l0,0c-1.2,0-2.2,1-2.2,2.2v14.1H259z"/>
								</g>
								<g>
									<path fill="#73476E" d="M256.8,341.9c-1.2,0-2.2,1-2.2,2.2v14.1h2.2V341.9z"/>
								</g>
							</g>
							<g>
								<g>
									<path fill="#F5A038" d="M264.9,358.2V349c0-1.2-1-2.2-2.2-2.2l0,0c-1.2,0-2.2,1-2.2,2.2v9.1H264.9z"/>
								</g>
								<g>
									<path fill="#F3941E" d="M262.6,346.9c-1.2,0-2.1,1-2.1,2.2v9.1h2.1V346.9z"/>
								</g>
							</g>
							<g>
								<g>
									<path fill="#EE7177" d="M270.8,358.2v-5c0-1.2-1-2.2-2.2-2.2l0,0c-1.2,0-2.2,1-2.2,2.2v5H270.8z"/>
								</g>
								<g>
									<path fill="#EB5E69" d="M268.6,351C268.6,351,268.6,351,268.6,351L268.6,351c-1.2,0-2.2,1-2.2,2.2v5h2.2V351z"/>
								</g>
							</g>
							<g>
								<g>
									<g>
										<rect x="244.9" y="357.6" fill="#DADADA" width="1.8" height="0.4"/>
									</g>
									<g>
										<rect x="244.9" y="355.3" fill="#DADADA" width="1.8" height="0.4"/>
									</g>
									<g>
										<rect x="244.9" y="353" fill="#DADADA" width="1.8" height="0.4"/>
									</g>
									<g>
										<rect x="244.9" y="350.7" fill="#DADADA" width="1.8" height="0.4"/>
									</g>
									<g>
										<rect x="244.9" y="348.5" fill="#DADADA" width="1.8" height="0.4"/>
									</g>
									<g>
										<rect x="244.9" y="346.2" fill="#DADADA" width="1.8" height="0.4"/>
									</g>
									<g>
										<rect x="244.9" y="343.9" fill="#DADADA" width="1.8" height="0.4"/>
									</g>
									<g>
										<rect x="244.9" y="341.6" fill="#DADADA" width="1.8" height="0.4"/>
									</g>
									<g>
										<rect x="244.9" y="339.3" fill="#DADADA" width="1.8" height="0.4"/>
									</g>
									<g>
										<rect x="244.9" y="337" fill="#DADADA" width="1.8" height="0.4"/>
									</g>
									<g>
										<rect x="244.9" y="334.7" fill="#DADADA" width="1.8" height="0.4"/>
									</g>
								</g>
							</g>
							<g>
								<path fill="#DADADA" d="M273.2,358.4h-25.5c-0.1,0-0.1-0.1-0.1-0.1v-23.8c0-0.1,0.1-0.1,0.1-0.1c0.1,0,0.1,0.1,0.1,0.1v23.7
									h25.4c0.1,0,0.1,0.1,0.1,0.1C273.4,358.3,273.3,358.4,273.2,358.4z"/>
							</g>
						</g>
					</g>
				</g>
			</g>
			<g>
				<linearGradient id="SVGID_12_" gradientUnits="userSpaceOnUse" x1="665.2473" y1="202.6627" x2="819.8687" y2="357.2841">
					<stop  offset="3.584230e-03" style="stop-color:#0FAEA3"/>
					<stop  offset="1" style="stop-color:#0FAEA3;stop-opacity:0"/>
				</linearGradient>
				<path fill="url(#SVGID_12_)" d="M919.9,380c-56.5-56.5-151.7-151.7-152.2-152.3c-0.8-1-2.1-1.7-3.5-1.7h-57.4
					c-2.5,0-4.6,2-4.6,4.6v84.6c0,1.5,0.7,2.8,1.9,3.7c0.7,0.5,192.3,192.3,193,193c0.8,0.9,2,1.5,3.4,1.5h19.5V380z"/>
				<g>
					<g>
						<path fill="#7C7C7B" d="M706.7,319.7c-2.5,0-4.5-2-4.5-4.5v-84.6c0-2.5,2-4.6,4.6-4.6h57.4c2.5,0,4.6,2,4.6,4.6v84.6
							c0,2.5-2,4.5-4.5,4.5H706.7z"/>
						<path fill="#878787" d="M764.2,227h-57.4c-2,0-3.6,1.6-3.6,3.6v23.9v60.7c0,1.9,1.6,3.5,3.5,3.5h57.6c1.9,0,3.5-1.6,3.5-3.5
							v-60.7v-23.9C767.7,228.6,766.2,227,764.2,227z"/>
						<path fill="#878787" d="M764.3,318.7h-57.6c-1.9,0-3.5-1.6-3.5-3.5v-60.7h64.6v60.7C767.7,317.1,766.2,318.7,764.3,318.7z"/>
					</g>
					<g>
						<path fill="#9D9D9C" d="M767.7,254.5h-64.6v-23.9c0-2,1.6-3.6,3.6-3.6h57.4c2,0,3.6,1.6,3.6,3.6V254.5z"/>
						<path fill="#878787" d="M707,233.4v14.6c0,1.2,1,2.3,2.3,2.3h52.5c1.2,0,2.3-1,2.3-2.3v-14.6c0-1.2-1-2.3-2.3-2.3h-52.5
							C708,231.2,707,232.2,707,233.4z"/>
					</g>
					<g>
						<path fill="#3C3C3B" d="M718.9,270h-10.5c-0.6,0-1.1-0.5-1.1-1.1v-10.5c0-0.6,0.5-1.1,1.1-1.1h10.5c0.6,0,1.1,0.5,1.1,1.1
							v10.5C720.1,269.5,719.5,270,718.9,270z"/>
						<path fill="#4A4A49" d="M708.4,269c-0.1,0-0.1-0.1-0.1-0.1v-10.5c0-0.1,0.1-0.1,0.1-0.1h10.5c0.1,0,0.1,0.1,0.1,0.1v10.5
							c0,0.1-0.1,0.1-0.1,0.1H708.4z"/>
						<path fill="#3C3C3B" d="M733.7,270h-10.5c-0.6,0-1.1-0.5-1.1-1.1v-10.5c0-0.6,0.5-1.1,1.1-1.1h10.5c0.6,0,1.1,0.5,1.1,1.1
							v10.5C734.8,269.5,734.3,270,733.7,270z"/>
						<path fill="#4A4A49" d="M723.2,269c-0.1,0-0.1-0.1-0.1-0.1v-10.5c0-0.1,0.1-0.1,0.1-0.1h10.5c0.1,0,0.1,0.1,0.1,0.1v10.5
							c0,0.1-0.1,0.1-0.1,0.1H723.2z"/>
						<path fill="#3C3C3B" d="M748.4,270h-10.5c-0.6,0-1.1-0.5-1.1-1.1v-10.5c0-0.6,0.5-1.1,1.1-1.1h10.5c0.6,0,1.1,0.5,1.1,1.1
							v10.5C749.6,269.5,749,270,748.4,270z"/>
						<path fill="#4A4A49" d="M737.9,269c-0.1,0-0.1-0.1-0.1-0.1v-10.5c0-0.1,0.1-0.1,0.1-0.1h10.5c0.1,0,0.1,0.1,0.1,0.1v10.5
							c0,0.1-0.1,0.1-0.1,0.1H737.9z"/>
						<path fill="#3C3C3B" d="M763.2,270h-10.5c-0.6,0-1.1-0.5-1.1-1.1v-10.5c0-0.6,0.5-1.1,1.1-1.1h10.5c0.6,0,1.1,0.5,1.1,1.1
							v10.5C764.3,269.5,763.8,270,763.2,270z"/>
						<path fill="#4A4A49" d="M752.7,269c-0.1,0-0.1-0.1-0.1-0.1v-10.5c0-0.1,0.1-0.1,0.1-0.1h10.5c0.1,0,0.1,0.1,0.1,0.1v10.5
							c0,0.1-0.1,0.1-0.1,0.1H752.7z"/>
						<path fill="#3C3C3B" d="M718.9,284.8h-10.5c-0.6,0-1.1-0.5-1.1-1.1v-10.5c0-0.6,0.5-1.1,1.1-1.1h10.5c0.6,0,1.1,0.5,1.1,1.1
							v10.5C720.1,284.3,719.5,284.8,718.9,284.8z"/>
						<path fill="#4A4A49" d="M708.4,283.8c-0.1,0-0.1-0.1-0.1-0.1v-10.5c0-0.1,0.1-0.1,0.1-0.1h10.5c0.1,0,0.1,0.1,0.1,0.1v10.5
							c0,0.1-0.1,0.1-0.1,0.1H708.4z"/>
						<path fill="#3C3C3B" d="M733.7,284.8h-10.5c-0.6,0-1.1-0.5-1.1-1.1v-10.5c0-0.6,0.5-1.1,1.1-1.1h10.5c0.6,0,1.1,0.5,1.1,1.1
							v10.5C734.8,284.3,734.3,284.8,733.7,284.8z"/>
						<path fill="#4A4A49" d="M723.2,283.8c-0.1,0-0.1-0.1-0.1-0.1v-10.5c0-0.1,0.1-0.1,0.1-0.1h10.5c0.1,0,0.1,0.1,0.1,0.1v10.5
							c0,0.1-0.1,0.1-0.1,0.1H723.2z"/>
						<path fill="#3C3C3B" d="M748.4,284.8h-10.5c-0.6,0-1.1-0.5-1.1-1.1v-10.5c0-0.6,0.5-1.1,1.1-1.1h10.5c0.6,0,1.1,0.5,1.1,1.1
							v10.5C749.6,284.3,749,284.8,748.4,284.8z"/>
						<path fill="#4A4A49" d="M737.9,283.8c-0.1,0-0.1-0.1-0.1-0.1v-10.5c0-0.1,0.1-0.1,0.1-0.1h10.5c0.1,0,0.1,0.1,0.1,0.1v10.5
							c0,0.1-0.1,0.1-0.1,0.1H737.9z"/>
						<path fill="#3C3C3B" d="M763.2,284.8h-10.5c-0.6,0-1.1-0.5-1.1-1.1v-10.5c0-0.6,0.5-1.1,1.1-1.1h10.5c0.6,0,1.1,0.5,1.1,1.1
							v10.5C764.3,284.3,763.8,284.8,763.2,284.8z"/>
						<path fill="#4A4A49" d="M752.7,283.8c-0.1,0-0.1-0.1-0.1-0.1v-10.5c0-0.1,0.1-0.1,0.1-0.1h10.5c0.1,0,0.1,0.1,0.1,0.1v10.5
							c0,0.1-0.1,0.1-0.1,0.1H752.7z"/>
						<path fill="#3C3C3B" d="M718.9,299.5h-10.5c-0.6,0-1.1-0.5-1.1-1.1v-10.5c0-0.6,0.5-1.1,1.1-1.1h10.5c0.6,0,1.1,0.5,1.1,1.1
							v10.5C720.1,299,719.5,299.5,718.9,299.5z"/>
						<path fill="#4A4A49" d="M708.4,298.5c-0.1,0-0.1-0.1-0.1-0.1v-10.5c0-0.1,0.1-0.1,0.1-0.1h10.5c0.1,0,0.1,0.1,0.1,0.1v10.5
							c0,0.1-0.1,0.1-0.1,0.1H708.4z"/>
						<path fill="#3C3C3B" d="M733.7,299.5h-10.5c-0.6,0-1.1-0.5-1.1-1.1v-10.5c0-0.6,0.5-1.1,1.1-1.1h10.5c0.6,0,1.1,0.5,1.1,1.1
							v10.5C734.8,299,734.3,299.5,733.7,299.5z"/>
						<path fill="#4A4A49" d="M723.2,298.5c-0.1,0-0.1-0.1-0.1-0.1v-10.5c0-0.1,0.1-0.1,0.1-0.1h10.5c0.1,0,0.1,0.1,0.1,0.1v10.5
							c0,0.1-0.1,0.1-0.1,0.1H723.2z"/>
						<path fill="#3C3C3B" d="M748.4,299.5h-10.5c-0.6,0-1.1-0.5-1.1-1.1v-10.5c0-0.6,0.5-1.1,1.1-1.1h10.5c0.6,0,1.1,0.5,1.1,1.1
							v10.5C749.6,299,749,299.5,748.4,299.5z"/>
						<path fill="#4A4A49" d="M737.9,298.5c-0.1,0-0.1-0.1-0.1-0.1v-10.5c0-0.1,0.1-0.1,0.1-0.1h10.5c0.1,0,0.1,0.1,0.1,0.1v10.5
							c0,0.1-0.1,0.1-0.1,0.1H737.9z"/>
						<path fill="#3C3C3B" d="M763.2,299.5h-10.5c-0.6,0-1.1-0.5-1.1-1.1v-10.5c0-0.6,0.5-1.1,1.1-1.1h10.5c0.6,0,1.1,0.5,1.1,1.1
							v10.5C764.3,299,763.8,299.5,763.2,299.5z"/>
						<path fill="#4A4A49" d="M752.7,298.5c-0.1,0-0.1-0.1-0.1-0.1v-10.5c0-0.1,0.1-0.1,0.1-0.1h10.5c0.1,0,0.1,0.1,0.1,0.1v10.5
							c0,0.1-0.1,0.1-0.1,0.1H752.7z"/>
						<path fill="#3C3C3B" d="M728.4,301.5h-6.4h-13.6c-0.6,0-1.1,0.5-1.1,1.1v10.5c0,0.6,0.5,1.1,1.1,1.1h13.6h6.4h5.3
							c0.6,0,1.1-0.5,1.1-1.1v-10.5c0-0.6-0.5-1.1-1.1-1.1H728.4z"/>
						<path fill="#4A4A49" d="M708.4,313.3c-0.1,0-0.1-0.1-0.1-0.1v-10.5c0-0.1,0.1-0.1,0.1-0.1h25.3c0.1,0,0.1,0.1,0.1,0.1v10.5
							c0,0.1-0.1,0.1-0.1,0.1H708.4z"/>
						<path fill="#3C3C3B" d="M748.4,314.3h-10.5c-0.6,0-1.1-0.5-1.1-1.1v-10.5c0-0.6,0.5-1.1,1.1-1.1h10.5c0.6,0,1.1,0.5,1.1,1.1
							v10.5C749.6,313.8,749,314.3,748.4,314.3z"/>
						<path fill="#4A4A49" d="M737.9,313.3c-0.1,0-0.1-0.1-0.1-0.1v-10.5c0-0.1,0.1-0.1,0.1-0.1h10.5c0.1,0,0.1,0.1,0.1,0.1v10.5
							c0,0.1-0.1,0.1-0.1,0.1H737.9z"/>
						<path fill="#3C3C3B" d="M763.2,314.3h-10.5c-0.6,0-1.1-0.5-1.1-1.1v-10.5c0-0.6,0.5-1.1,1.1-1.1h10.5c0.6,0,1.1,0.5,1.1,1.1
							v10.5C764.3,313.8,763.8,314.3,763.2,314.3z"/>
						<path fill="#4A4A49" d="M752.7,313.3c-0.1,0-0.1-0.1-0.1-0.1v-10.5c0-0.1,0.1-0.1,0.1-0.1h10.5c0.1,0,0.1,0.1,0.1,0.1v10.5
							c0,0.1-0.1,0.1-0.1,0.1H752.7z"/>
					</g>
				</g>
			</g>
		</g>
	</g>
	<g>
		<path fill="#9D9D9C" d="M616.6,351.4h-7.8c-7.6,0-13.8-6.2-13.8-13.8v-21.2c0-7.6,6.2-13.8,13.8-13.8h7.8
			c7.6,0,13.8,6.2,13.8,13.8v21.2C630.4,345.2,624.2,351.4,616.6,351.4z"/>
		<g>
			<g>
				<path fill="#712659" d="M643.9,429.7c-2.3-27.4-4-66.5-4-70.7c0-4.5-10.7-1.5-18.3-1.1c-8.5,0.4-17.2-0.6-17.2-0.6
					s-1.1,31.5-1.7,52.9c-0.2,6.1-1.1,12.9-2.2,19.6H643.9z"/>
				<path fill="#712659" d="M343.9,429.7h61.2c-4.3-4.5-9.1-8.8-10.8-12.9c-5.7-13.5,3.4-32.6-1.7-69c-2-14.1-1.1-47.4-2.3-48.1
					c-1.1-0.8-35.8-2.3-37.5-0.2c-1.7,2.1-1.9,18.8-3.6,26.5c-1.7,7.8-10.4,54.4-8,85.8C341.7,418,342.6,423.9,343.9,429.7z"/>
				<g>
					<g>
						<path fill="#F7B8B6" d="M621.6,357.8c4.2-0.2,9.4-1.2,13.1-1.3c-0.2-1-0.4-2-0.4-2.7c0.2-1.7,5.7-5.4,5.9-10.9
							c0.2-5.5,1.8-12.5,2.7-15.2c0.9-2.7-2.4-9.4-4.5-13.3c-2.2-3.9-6.7-3.6-6.7-3.6c-1.5-3.3-6-2.9-6-2.9s-0.1-2.1-0.9-3.7
							c-1.5-2.9-6.1-1.7-6.1-1.7s-0.1-2.7-0.9-4c-1.3-2.2-5.7-2.5-7.4-1.3c-1.7,1.1-2.6,8.1-2.9,10.6c-0.4,2.6-3.1,13.4-3.1,13.4
							s-1.8-5.1-2.1-7.1c-0.3-2,1.7-7.9,0.9-11.7c-0.8-3.9-5.5-7.7-5.7-3.9c-0.1,3.8-3,10.5-3.6,13.4c-0.6,2.8,2,13.6,3.6,19.9
							c1.6,6.3,6.4,15.9,8.1,20.2c1.3,3.2,1.4,5,1.4,5.6C610.3,357.7,616,358.1,621.6,357.8z"/>
					</g>
					<g>
						<path fill="#F8C3C0" d="M631.2,320.9c-3.6,0.6-4.6-2.1-7.4-2.5c-2.1-0.3-4.9,0.8-5.8,0.7c-4.4-0.5-5.1-3.6-9.1-2.6
							c-2.9,0.7-4.5,4.6-4.5,4.6s-5.4,15.3-3.5,19.8c1.8,4.3,3.8,8.4,4.7,10.9c1.3,3.2,1.4,5,1.4,5.6c3.2,0.3,8.9,0.6,14.5,0.3
							c4.2-0.2,9.4-1.2,13.1-1.3c-0.2-1-0.4-2-0.4-2.7c0.2-1.7,5.7-5.4,5.9-10.9c0.2-5.5,1.8-12.5,2.7-15.2c0.2-0.7,0.2-1.7-0.1-2.8
							c-1.8-3.3-4-1.7-6.2-2.2C634.2,322.2,634.8,320.3,631.2,320.9z"/>
					</g>
				</g>
				<g>
					<g>
						<path fill="#F8C3C0" d="M388.6,299.4c1.8-2.9,3.7-5.1,5.6-6.6c3.7-3,3.6-5.9,6.9-9.9c3.3-4,4.7-11,6.4-18.4
							c1.7-7.5,4.7-11.3,6.4-13c1.7-1.7,5.2-3.8,3.2-5.3c-2-1.6-9.5,0.3-12.9,5.6c-3.4,5.2-4.5,4.5-4.5,4.5c0.2-4.8,2.9-19.3,3.9-25
							c0.9-5.7,3.4-13.6-1.3-14.5c-4.8-0.9-8,16.3-8,16.3c-1.2,6.4-3.5,15.7-3.9,12.8c-0.3-2.6,0.5-8.8,2.3-21.3
							c1.8-12.5,1.1-15.2-2.2-15.4c-3.9-0.2-6.3,15.1-6.8,17.5c-0.5,2.3-2.3,18.8-3.1,18.6c-0.7-0.2-0.4-6.4,0.1-12.2
							c0.5-5.8,1.3-11.8,1.7-15.7c0.4-3.9-3.9-5.3-5.2-3.3c-1.3,2.1-5,19.2-5.3,22.4c-0.2,3.2-2.3,14.9-3.3,14.3
							c-1-0.8,0.1-14.3,0.6-18.8c0.5-4.5-1.1-7.5-3.7-6.8c-2.6,0.7-4.3,11.6-4.3,15.4s-3.1,18.4-2.8,23.4c0.3,5.1,0.7,21.5,1.7,24.9
							c0.7,2.4,0.1,7.3-0.2,9.7C368.6,298.2,383.5,298.8,388.6,299.4z"/>
					</g>
					<path fill="#F7B8B6" d="M399.5,256.1c-0.5,3.2-0.5,6.9-0.2,12.1c0.3,6.2,2.6-4,3.7-6.6c1-2.6,2-6.4,3.6-8.7
						c1.7-2.5,3.3-7.3,9-7.3c-3-0.3-8.7,1.7-11.5,6.1C400.6,256.9,399.5,256.1,399.5,256.1z"/>
				</g>
			</g>
		</g>
	</g>
</g>
</svg>
