<?xml version="1.0" encoding="utf-8"?>
<!-- Generator: Adobe Illustrator 22.0.0, SVG Export Plug-In . SVG Version: 6.00 Build 0)  -->
<svg version="1.1" id="Capa_1" xmlns="http://www.w3.org/2000/svg" xmlns:xlink="http://www.w3.org/1999/xlink" x="0px" y="0px"
	 viewBox="0 0 990 656" style="enable-background:new 0 0 990 656;" xml:space="preserve">
<style type="text/css">
	.st0{fill:#A4E4EA;}
	.st1{display:none;}
	.st2{display:inline;}
	.st3{clip-path:url(#SVGID_2_);}
	.st4{fill:none;stroke:#76C2BA;stroke-width:1.6782;stroke-miterlimit:10;}
	.st5{fill:url(#SVGID_3_);}
	.st6{fill:url(#SVGID_4_);}
	.st7{fill:#545453;}
	.st8{fill:#464645;}
	.st9{fill:#EC626E;}
	.st10{fill:#712659;}
	.st11{fill:#4A0D02;}
	.st12{fill:#F8C3C0;}
	.st13{fill:#F5ADAB;}
	.st14{fill:#616160;}
	.st15{fill:#F7B8B6;}
	.st16{fill:#68BEB5;}
	.st17{fill:url(#SVGID_5_);}
	.st18{fill:#C6C6C6;}
	.st19{fill:#3C3C3B;}
	.st20{fill:#0FAEA3;}
	.st21{fill:#575756;}
	.st22{fill:#B2B2B2;}
	.st23{fill:#BDBCBC;}
	.st24{fill:#4A4A49;}
	.st25{fill:#399BD8;}
	.st26{fill:#FFFFFF;}
	.st27{clip-path:url(#SVGID_7_);}
	.st28{fill:url(#SVGID_8_);}
	.st29{fill:#706F6F;}
	.st30{fill:#DADADA;}
	.st31{fill:#EDEDED;}
	.st32{fill:#9D9D9C;}
	.st33{fill:url(#SVGID_9_);}
	.st34{fill:#DADADA;stroke:#F6F6F6;stroke-width:0.3255;stroke-miterlimit:10;}
	.st35{fill:url(#SVGID_10_);}
	.st36{fill:#878787;}
	.st37{fill:url(#SVGID_11_);}
	.st38{fill:none;stroke:#878787;stroke-width:0.6665;stroke-miterlimit:10;}
	.st39{fill:#98CFC8;}
	.st40{fill:#29B0A6;}
	.st41{fill:#E89970;}
	.st42{fill:#EE7177;}
	.st43{fill:#876182;}
	.st44{fill:#48B6AC;}
	.st45{fill:#59BAB1;}
	.st46{fill:#81587B;}
	.st47{fill:#73476E;}
	.st48{fill:#F5A038;}
	.st49{fill:#F3941E;}
	.st50{fill:#EB5E69;}
	.st51{fill:url(#SVGID_12_);}
	.st52{fill:#7C7C7B;}
</style>
<g id="BACKGROUND">
	<rect x="-327" y="-90" class="st0" width="1639.4" height="800"/>
	<g class="st1">
		<g class="st2">
			<defs>
				<rect id="SVGID_1_" x="-46.1" y="-90" width="1088" height="800"/>
			</defs>
			<clipPath id="SVGID_2_">
				<use xlink:href="#SVGID_1_"  style="overflow:visible;"/>
			</clipPath>
			<g class="st3">
				<path class="st4" d="M1093.2-118.1c54.7,40.2,111.4,81.9,165.6,121.8"/>
				<path class="st4" d="M754.3-118.1c168.5,123.6,336.8,247.3,505,371.1"/>
				<path class="st4" d="M415.5-118c282.3,207,562.1,414.2,843.8,621.3"/>
				<path class="st4" d="M76.4-118.1c394.4,289.1,787.7,579.8,1183.1,870"/>
				<path class="st4" d="M-262.9-118.2c506.6,374.1,1015.4,745.4,1522,1118.9"/>
				<path class="st4" d="M-337.4,76.3c453.9,335,907.9,668.9,1363.6,1002.5"/>
				<path class="st4" d="M-337.3,325.3C4.9,576.8,345.5,827.2,687.2,1078.8"/>
				<path class="st4" d="M-337.5,574.6c227,167.7,458,336,685.6,504.1"/>
				<path class="st4" d="M-337.5,823.2c115.4,86,232.8,169.5,346.8,255.7"/>
				<path class="st4" d="M-337.3,1073.3c2.6,1.9,5.1,3.8,7.7,5.7"/>
				<path class="st4" d="M-337.2,64.9c83.8-60.8,166-121.3,248.4-182.8"/>
				<path class="st4" d="M-337.5,314.3C-141.8,169.5,53.9,27.1,249.9-117.8"/>
				<path class="st4" d="M-337.2,563.3c306.9-226.9,618.1-452.8,926.1-681.4"/>
				<path class="st4" d="M-337.5,812.8C85.2,502,506,192.6,928.6-118.2"/>
				<path class="st4" d="M-337.2,1061.9C198.7,668.9,733,276,1267.2-117.7"/>
				<path class="st4" d="M-21.5,1079c427.7-313.7,852.4-628.8,1280.4-941.3"/>
				<path class="st4" d="M317.4,1079c315.8-230.2,627-463.4,941.4-692.8"/>
				<path class="st4" d="M656.4,1079c201.9-148.2,401.5-296.4,602.7-443.6"/>
				<path class="st4" d="M995.5,1078.9c87.8-64.6,175.9-129.4,263.5-193.8"/>
			</g>
		</g>
	</g>
</g>
<g id="DESIGNED_BY_FREEPIK">
</g>
<g id="OBJECTS">
	
		<linearGradient id="SVGID_3_" gradientUnits="userSpaceOnUse" x1="177.4957" y1="694.8909" x2="618.8766" y2="253.51" gradientTransform="matrix(1 0 0 -1 0 656)">
		<stop  offset="3.584230e-03" style="stop-color:#0FAEA3"/>
		<stop  offset="1" style="stop-color:#0FAEA3;stop-opacity:0"/>
	</linearGradient>
	<path class="st5" d="M888.9,174.5c-31.7-25.1-50.6-40.1-50.6-40.1c0-3.5-3.6-6.4-8-6.4h-676c-4.4,0-8,2.9-8,6.4v291.3
		c0,1.8,1,3.5,2.5,4.6c0.6,0.4,142.6,113.4,303.1,241.2h437V174.5z"/>
	<g>
		
			<linearGradient id="SVGID_4_" gradientUnits="userSpaceOnUse" x1="283.5786" y1="407.0334" x2="668.4891" y2="22.1229" gradientTransform="matrix(1 0 0 -1 0 656)">
			<stop  offset="3.584230e-03" style="stop-color:#0FAEA3"/>
			<stop  offset="1" style="stop-color:#0FAEA3;stop-opacity:0"/>
		</linearGradient>
		<path class="st6" d="M850.1,572.4c-95.1-96.1-192.2-194-230.4-231.7c-2.1-2.5-5.4-2.3-5.4-2.3c-1.4-3-5.5-2.7-5.5-2.7
			s-0.1-1.9-0.8-3.4c-1.4-2.7-5.6-1.6-5.6-1.6s-0.1-2.5-0.8-3.7c-1.2-2-5.2-2.3-6.8-1.2c-1.6,1-2.4,7.4-2.7,9.7
			c-0.4,2.4-2.8,12.3-2.8,12.3s-1.6-4.7-1.9-6.5s1.6-7.2,0.8-10.7c-0.7-3.6-5-7.1-5.2-3.6c-0.1,3.5-2.7,9.6-3.3,12.3
			c-0.5,2.6,1.8,12.5,3.3,18.2c0.1,0.4,0.2,0.7,0.3,1c0,0.1,0.1,0.3,0.1,0.4c0.1,0.3,0.2,0.5,0.3,0.7c0.1,0.2,0.1,0.3,0.2,0.5
			c0.1,0.3,0.2,0.5,0.3,0.7c0.1,0.2,0.1,0.3,0.2,0.5c0.1,0.3,0.2,0.5,0.3,0.7c0.1,0.2,0.1,0.3,0.2,0.5c0.1,0.3,0.2,0.5,0.3,0.7
			c0.1,0.2,0.1,0.3,0.2,0.5c0.1,0.3,0.3,0.5,0.4,0.9c0,0.1,0.1,0.2,0.1,0.4c0.2,0.4,0.4,0.8,0.5,1.2c0,0,0,0,0,0.1
			c0.2,0.4,0.4,0.8,0.5,1.2c0.1,0.1,0.1,0.2,0.2,0.4c0.1,0.3,0.3,0.5,0.4,0.9c0.1,0.1,0.1,0.3,0.2,0.4c0.1,0.3,0.3,0.5,0.4,0.8
			c0.1,0.1,0.1,0.2,0.2,0.4c0.4,0.8,0.7,1.6,1,2.3c0.1,0.1,0.1,0.3,0.2,0.4c0.1,0.2,0.2,0.4,0.3,0.6c0.1,0.3,0.3,0.6,0.4,0.9
			c0,0.1,0.1,0.2,0.1,0.3s0.1,0.1,0.1,0.2c0.1,0.2,0.1,0.3,0.2,0.5c0.1,0.3,0.3,0.5,0.4,0.8c0.3,0.7,0.5,1.4,0.7,1.9
			c0.4,1.2,0.5,2,0.5,2.6c0,0.3,0,0.5,0,0.6l0,0c-1.4-0.1-2.2-0.2-2.5-0.2h-0.1c0,0,0,0.1,0,0.2s0,0.3,0,0.5s0,0.5,0,0.7
			c0,0.4,0,0.8-0.1,1.4c0,0.1,0,0.1,0,0.2c0,0.2,0,0.4,0,0.5c0,0.2,0,0.4,0,0.5c0,0.2,0,0.5,0,0.7c0,0.1,0,0.1,0,0.2
			c0,0.3,0,0.5,0,0.8c0,0.3,0,0.5,0,0.7c0,0.2,0,0.4,0,0.5c0,0.7-0.1,1.6-0.1,2.4c0,0.2,0,0.4,0,0.5c-0.1,2.7-0.2,5.6-0.3,8.9
			c-1.9,0.2-3.8,0.8-5.4,1.6c-0.1,0.1-0.2,0.1-0.3,0.1c-0.3,0.2-0.6,0.4-0.9,0.5c-0.1,0.1-0.3,0.2-0.4,0.3c-0.3,0.2-0.5,0.4-0.8,0.5
			c-0.2,0.1-0.3,0.2-0.5,0.4c-0.3,0.2-0.5,0.4-0.6,0.5c-0.2,0.1-0.3,0.3-0.5,0.5c-0.2,0.2-0.4,0.4-0.5,0.6c-0.2,0.2-0.3,0.4-0.5,0.5
			c-0.2,0.2-0.4,0.5-0.5,0.6c-0.2,0.2-0.3,0.4-0.5,0.5c-0.2,0.2-0.3,0.5-0.5,0.6c-0.1,0.2-0.3,0.5-0.4,0.6c-0.1,0.2-0.3,0.5-0.4,0.6
			c-0.1,0.3-0.3,0.5-0.4,0.7c-0.1,0.2-0.2,0.5-0.3,0.6c-0.1,0.3-0.2,0.5-0.3,0.8c-0.1,0.2-0.2,0.5-0.2,0.6c-0.1,0.3-0.2,0.5-0.2,0.9
			c-0.1,0.2-0.1,0.4-0.2,0.6c-0.1,0.4-0.1,0.6-0.2,1c0,0.2-0.1,0.4-0.1,0.5c-0.1,0.5-0.1,1.1-0.1,1.6v23.7c-1-0.3-2-0.1-2.6,0.7
			c-0.5,0.6-1.1,3-1.8,5.9v-13c0-0.5,0-1.1-0.1-1.6c0-0.2-0.1-0.4-0.1-0.5c0-0.4-0.1-0.7-0.2-1c0-0.2-0.1-0.5-0.2-0.6
			c-0.1-0.3-0.2-0.6-0.2-0.9c-0.1-0.3-0.2-0.5-0.2-0.6c-0.1-0.3-0.2-0.5-0.3-0.8c-0.1-0.3-0.2-0.5-0.3-0.7s-0.2-0.5-0.4-0.7
			c-0.1-0.3-0.3-0.5-0.4-0.7c-0.1-0.2-0.3-0.5-0.4-0.6c-0.4-0.6-0.8-1.3-1.3-1.8l1.3-14.9c0.9-10.4-6.9-19.6-17.3-20.4l-12.1-1
			c-10.4-0.9-19.6,6.9-20.4,17.3l-2.5,12.7h-21.8c-5.6-7.3-13.8-20.8-21.4-30.1c0-0.1-0.1-0.1-0.1-0.2c-3-3.8-7.5-6.5-12.6-7.1
			c-0.2,0-0.4,0-0.5-0.1c-0.3,0-0.5-0.1-0.8-0.1c-0.8-0.1-1.4,0-1.7,0l-12.1,0.5c-10.4,0.4-18.6,9.2-18.2,19.6l0.7,19.3
			c-1.4,0.6-2.7,1.6-3.8,2.6c-0.1,0.1-0.1,0.1-0.2,0.2c-0.7,0.6-1.5,1.5-2,2.2c-0.1,0.2-0.2,0.3-0.4,0.5c-0.2,0.2-0.3,0.5-0.5,0.6
			c-0.2,0.2-0.3,0.5-0.4,0.6c-0.2,0.3-0.3,0.5-0.5,0.8c-0.2,0.3-0.3,0.6-0.5,0.9c-0.1,0.2-0.2,0.4-0.2,0.5c-0.1,0.3-0.3,0.6-0.4,0.9
			c-0.1,0.2-0.1,0.3-0.2,0.5c-0.2,0.5-0.3,0.9-0.4,1.4c0,0.1,0,0.3-0.1,0.4c-0.1,0.4-0.1,0.8-0.2,1.2c0,0.2,0,0.3-0.1,0.5
			c-0.1,0.5-0.1,1-0.1,1.6v29.1l0,0c-1.1-1.6-2-3.6-3.1-5.5c-0.1-0.2-0.2-0.5-0.4-0.6c-0.1-0.1-0.1-0.2-0.2-0.3
			c-0.2-0.3-0.4-0.6-0.5-0.9c-0.1-0.1-0.1-0.2-0.2-0.3c-0.2-0.4-0.4-0.6-0.6-1c-0.1-0.2-0.3-0.4-0.4-0.5v-37.4c0-0.5,0-1.1-0.1-1.6
			c0-0.2-0.1-0.4-0.1-0.5c-0.1-0.4-0.1-0.6-0.2-1c0-0.2-0.1-0.5-0.2-0.6c-0.1-0.3-0.1-0.5-0.2-0.8c-0.1-0.3-0.2-0.5-0.3-0.7
			c-0.1-0.3-0.2-0.5-0.3-0.7c-0.1-0.3-0.2-0.5-0.4-0.7c-0.1-0.2-0.2-0.5-0.3-0.6c-0.2-0.3-0.3-0.5-0.5-0.7c-0.1-0.2-0.2-0.4-0.3-0.5
			c-0.2-0.3-0.4-0.5-0.5-0.8c-0.1-0.2-0.2-0.3-0.3-0.5c-0.2-0.3-0.5-0.5-0.6-0.8c-0.1-0.1-0.2-0.2-0.3-0.4c-0.3-0.3-0.5-0.5-0.8-0.7
			c-0.1-0.1-0.2-0.2-0.3-0.3c-0.3-0.3-0.6-0.5-0.9-0.7c-0.1-0.1-0.2-0.1-0.3-0.2c-0.4-0.3-0.6-0.5-1-0.7c-0.1,0-0.1-0.1-0.2-0.1
			c-0.4-0.2-0.7-0.5-1.2-0.6c-0.1,0-0.1-0.1-0.2-0.1c-0.4-0.2-0.8-0.4-1.3-0.5H401c-0.5-0.2-0.9-0.3-1.4-0.5h-0.1
			c-0.5-0.1-1-0.3-1.5-0.3l0,0c-0.5-0.1-1-0.2-1.6-0.2l0,0l0,0c0.1-1.9,0.1-3.8,0.1-5.9c0-0.2,0-0.4,0-0.5c0-0.8,0-1.6,0-2.5
			c0-0.3,0-0.5,0-0.7c0-0.9-0.1-1.8-0.1-2.7c0-0.1,0-0.3,0-0.4c0-1.1-0.1-2.1-0.2-3.2c0-0.2,0-0.5-0.1-0.6c-0.1-0.8-0.1-1.7-0.2-2.7
			c0-0.4-0.1-0.7-0.1-1.1c-0.1-0.8-0.2-1.6-0.3-2.5c0-0.4-0.1-0.7-0.1-1.1c-0.2-1.2-0.3-2.4-0.5-3.6c-1.8-12.9-1-43.4-2.1-44.1
			c0,0-0.1,0-0.2-0.1c-0.1,0-0.2,0-0.3-0.1c0,0,0,0-0.1,0c-0.3,0-0.6-0.1-1.1-0.2l0,0c1.6-2.7,3.4-4.7,5.1-6
			c3.4-2.7,3.3-5.4,6.3-9.1c3-3.7,4.3-10.1,5.9-16.9c1.6-6.9,4.3-10.4,5.9-11.9s4.8-3.5,2.9-4.9c-0.1-0.1-0.2-0.1-0.4-0.2
			c-0.1,0-0.1-0.1-0.2-0.1c-0.1,0-0.1,0-0.2-0.1c-0.2-0.1-0.4-0.1-0.6-0.1l0,0l0,0l0,0c-0.2,0-0.4,0-0.5,0l0,0c0,0,0,0-0.1,0
			c-0.2,0-0.4,0-0.5,0l0,0l0,0l0,0c-0.3,0-0.5,0.1-0.9,0.1c0,0,0,0-0.1,0c-0.3,0.1-0.6,0.1-1,0.2l0,0l0,0l0,0
			c-0.2,0.1-0.4,0.1-0.5,0.2c-0.1,0-0.2,0.1-0.3,0.1l0,0l0,0c-0.2,0.1-0.3,0.1-0.5,0.2l0,0l0,0c-0.1,0.1-0.3,0.1-0.4,0.2
			c-0.2,0.1-0.3,0.1-0.5,0.2l0,0l0,0c-0.2,0.1-0.3,0.2-0.5,0.2c-0.1,0.1-0.3,0.1-0.4,0.2c-0.3,0.1-0.5,0.3-0.7,0.4l0,0l0,0
			c-0.1,0-0.1,0.1-0.2,0.1c-0.3,0.2-0.5,0.3-0.7,0.5c-0.1,0.1-0.2,0.1-0.3,0.2c-0.2,0.1-0.4,0.3-0.5,0.4c-0.1,0.1-0.2,0.2-0.3,0.3
			c-0.2,0.2-0.3,0.3-0.5,0.5c-0.1,0.1-0.2,0.2-0.3,0.3l0,0c-0.2,0.2-0.3,0.4-0.5,0.5c-0.1,0.1-0.2,0.2-0.2,0.3
			c-0.2,0.3-0.4,0.5-0.5,0.8c-0.2,0.3-0.4,0.5-0.5,0.8c-0.1,0.1-0.1,0.2-0.2,0.3c-0.1,0.2-0.2,0.3-0.4,0.5c-0.1,0.1-0.1,0.2-0.2,0.3
			s-0.2,0.3-0.3,0.4c-0.1,0.1-0.1,0.2-0.2,0.2c-0.1,0.1-0.2,0.2-0.3,0.3c-0.1,0.1-0.1,0.1-0.2,0.2c-0.1,0.1-0.2,0.2-0.2,0.3
			l-0.1,0.1c-0.1,0.1-0.2,0.2-0.2,0.2l-0.1,0.1c-0.1,0.1-0.2,0.2-0.3,0.3c-0.2,0.2-0.4,0.3-0.5,0.4s-0.3,0.1-0.4,0.1l0,0
			c-0.1,0-0.2,0-0.2,0h-0.1l0,0l0,0l0,0c0.2-4.4,2.7-17.7,3.6-22.9c0.8-5.2,3.1-12.5-1.2-13.3c-4.4-0.8-7.3,14.9-7.3,14.9
			c-1.1,5.9-3.2,14.4-3.6,11.7c-0.3-2.4,0.5-8.1,2.1-19.5c1.6-11.5,1-13.9-2-14.1c-3.6-0.2-5.8,13.8-6.2,16
			c-0.5,2.1-2.1,17.2-2.8,17c-0.6-0.2-0.4-5.9,0.1-11.2c0.5-5.3,1.2-10.8,1.6-14.4c0.4-3.6-3.6-4.9-4.8-3
			c-1.2,1.9-4.6,17.6-4.9,20.5c-0.2,2.9-2.1,13.7-3,13.1c-0.9-0.7,0.1-13.1,0.5-17.2c0.5-4.1-1-6.9-3.4-6.2
			c-2.4,0.6-3.9,10.6-3.9,14.1c0,3.5-2.8,16.9-2.6,21.4c0.3,4.7,0.6,19.7,1.6,22.8c0.6,2.2,0.1,6.7-0.2,8.9h0.1l0,0
			c-0.5,0-0.8,0-1.2,0.1l0,0c-0.4,0-0.7,0-1.1,0.1h-0.1c-0.3,0-0.6,0.1-0.9,0.1h-0.1c-0.3,0-0.5,0.1-0.7,0.1c-0.1,0-0.1,0-0.2,0
			c-0.2,0-0.4,0.1-0.5,0.1c-0.1,0-0.1,0-0.2,0c-0.2,0-0.3,0.1-0.5,0.1c-0.1,0-0.1,0-0.2,0s-0.2,0.1-0.3,0.1h-0.1
			c-0.1,0.1-0.2,0.1-0.3,0.2c-1.6,1.9-1.7,17.2-3.3,24.3c-1.6,7.1-9.5,49.8-7.3,78.6c0.1,1.3,0.3,2.6,0.4,3.8c0,0.3,0.1,0.5,0.1,0.8
			c0.2,1.3,0.3,2.5,0.5,3.7c0,0.2,0.1,0.4,0.1,0.6c0.2,1.1,0.4,2.3,0.5,3.4c0,0.2,0.1,0.4,0.1,0.5c0.2,1.2,0.5,2.4,0.7,3.6
			c0.1,0.3,0.1,0.5,0.2,0.7c0.3,1.2,0.5,2.4,0.8,3.7c0,0,0,0,0,0.1c0.3,1.2,0.6,2.4,1,3.6c0.1,0.2,0.1,0.5,0.2,0.6
			c0.4,1.2,0.7,2.3,1.1,3.5c0.1,0.2,0.1,0.4,0.2,0.5c0.4,1.1,0.7,2.3,1.2,3.4c0,0.1,0.1,0.2,0.1,0.3c0.5,1.2,0.8,2.3,1.3,3.5
			c0.1,0.2,0.1,0.4,0.2,0.5c0.9,2.4,1.9,4.7,2.9,7c0.1,0.1,0.1,0.2,0.2,0.4c0.5,1.1,1,2.3,1.6,3.4c0,0.1,0.1,0.2,0.1,0.3
			c1.1,2.3,2.3,4.6,3.5,6.9c0,0.1,0.1,0.2,0.1,0.3c1.2,2.3,2.5,4.6,3.8,6.9l0,0v26.2c0,2.1,0.5,4.2,1.3,6.2
			c2.2,6.6,31.5,35.5,31.4,35.5c-0.2,0.1-0.3,0.2-0.5,0.3c-0.1,0.1-0.3,0.2-0.4,0.2s-0.2,0.1-0.3,0.1c-0.1,0.1-0.2,0.1-0.3,0.2
			c-0.1,0-0.2,0.1-0.2,0.1c-0.1,0-0.2,0.1-0.3,0.1c-0.1,0-0.1,0.1-0.2,0.1c-0.1,0-0.2,0.1-0.3,0.1c-0.1,0-0.1,0-0.2,0.1
			c-0.1,0-0.2,0.1-0.2,0.1h-0.1c-0.1,0-0.1,0-0.2,0.1h-0.1c-0.1,0-0.1,0-0.2,0s-0.1,0-0.2,0l0,0l0,0l0,0l0,0l0,0l0,0
			c-0.1,0-0.1,0-0.2,0.1c-0.5,0.1-0.8,0.3-1.3,0.4c-0.2,0.1-0.4,0.1-0.5,0.2c-0.3,0.1-0.6,0.3-0.9,0.4c-0.2,0.1-0.4,0.2-0.5,0.3
			c-0.3,0.2-0.5,0.3-0.8,0.5c-0.2,0.1-0.3,0.2-0.5,0.3c-0.4,0.2-0.6,0.5-0.9,0.6c-0.1,0.1-0.2,0.1-0.3,0.2c-0.4,0.3-0.7,0.6-1.1,0.9
			c-0.1,0.1-0.2,0.2-0.3,0.3c-0.3,0.3-0.5,0.5-0.7,0.7c-0.1,0.1-0.3,0.3-0.4,0.5c-0.2,0.3-0.4,0.5-0.6,0.7c-0.1,0.2-0.2,0.3-0.3,0.5
			c-0.2,0.3-0.4,0.6-0.5,0.9c-0.1,0.1-0.2,0.3-0.2,0.4c-0.3,0.5-0.5,0.9-0.6,1.4c0,0.1-0.1,0.2-0.1,0.3c-0.2,0.4-0.3,0.7-0.5,1.1
			c-0.1,0.2-0.1,0.4-0.2,0.5c-0.1,0.4-0.2,0.6-0.3,1c0,0.2-0.1,0.4-0.1,0.5c-0.1,0.4-0.1,0.7-0.2,1.1c0,0.2-0.1,0.4-0.1,0.5
			c-0.1,0.5-0.1,1-0.1,1.6v11.2c0,0.5,0,1,0.1,1.5c0,0.2,0,0.3,0.1,0.5c0,0.4,0.1,0.6,0.2,1c0,0.2,0.1,0.4,0.1,0.5
			c0.1,0.4,0.2,0.6,0.3,1c0,0.1,0.1,0.3,0.1,0.4c0.1,0.5,0.3,0.9,0.5,1.3v0.1c0.2,0.4,0.4,0.8,0.5,1.2c0.1,0.1,0.2,0.3,0.2,0.4
			c0.2,0.3,0.3,0.5,0.5,0.8c0.1,0.1,0.2,0.3,0.3,0.4c0.1,0.1,0.1,0.2,0.2,0.3c0,0,0.1,0.1,0.1,0.2c0.9,1.4,2.1,2.6,3.4,3.6
			c10.9,11.1,46.1,46.4,92.6,92.8H850L850.1,572.4L850.1,572.4z"/>
		<g>
			<g>
				<path class="st7" d="M580.5,605.8l-11.8,2.4c-51.8,10.4-105,10.4-156.8-0.2l-10.6-2.2c-8.5-0.5-15.2-7.6-15.2-16.2v-11.2
					c0-9.3,7.9-16.8,17.2-16.2l87.4,5.4c1.1,0.1,2.1,0.1,3.2,0l84.5-5.3c9.3-0.5,17.2,6.9,17.2,16.2v11.1
					C595.7,598.2,589,605.3,580.5,605.8z"/>
				<path class="st8" d="M569.9,523.1v-89.6c0-9.4-7.7-17.1-17.1-17.1H434.1c-9.4,0-17.1,7.7-17.1,17.1l0.1,89.6
					c-2.4,36.8-18.9,39.6-18.9,39.6c83.9,29.6,187.1,0.6,187.1,0.6C571.3,552.2,569.9,523.1,569.9,523.1z"/>
				<path class="st8" d="M395.5,535.8h-10.2c-9,0-16.2-7.2-16.2-16.2V416.1c0-9,7.2-16.2,16.2-16.2h10.2c9,0,16.2,7.2,16.2,16.2
					v103.4C411.8,528.5,404.5,535.8,395.5,535.8z"/>
				<path class="st8" d="M600.8,535.8h-10.2c-9,0-16.2-7.2-16.2-16.2V416.1c0-9,7.2-16.2,16.2-16.2h10.2c9,0,16.2,7.2,16.2,16.2
					v103.4C617,528.5,609.8,535.8,600.8,535.8z"/>
			</g>
			<g>
				<g>
					<path class="st9" d="M487.7,472.8l-59.2,1.7l-2.7-75.7c-0.4-10.4,7.8-19.2,18.2-19.6l12.1-0.5c10.4-0.4,19.2,7.8,19.6,18.2
						L487.7,472.8z"/>
					<path class="st9" d="M561,483.3l-57.5-6.4l13.9-73.1c0.9-10.4,10-18.1,20.4-17.3l12.1,1c10.4,0.9,18.1,10,17.3,20.4L561,483.3z
						"/>
				</g>
				<g>
					<path class="st10" d="M500.8,464.7c-13.1,0.5-48.6,2.3-69.3,3.9c-13.7,1.1-14.7-7-19.4-14.6c-4.2-6.7-12.8-12.6-15.3-18.4
						c-5.2-12.4,3.1-29.9-1.6-63.2c-1.8-12.9-1-43.4-2.1-44.1c-1-0.7-32.8-2.1-34.4-0.2c-1.6,1.9-1.7,17.2-3.3,24.3
						c-1.6,7.1-9.5,49.8-7.3,78.6c2.3,28.8,14.6,52.8,29,74.7c14.4,21.9,89.4,49.9,121.5,48.7c32.1-1.3,114.1-17.9,123-36.8
						c6.9-14.7,6.8-39.6,4.4-64.6s-4.1-66.2-4.1-70.3s-9.8-1.4-16.8-1c-7.8,0.4-15.8-0.5-15.8-0.5s-1,28.9-1.6,48.5
						c-0.5,19.6-9.3,46.1-6.8,50c0,0-2.8,0.8-9.9,0.5c-7.1-0.3-16.4-15.1-27.3-16.7C532.9,461.8,504,464.6,500.8,464.7z"/>
					<g>
						<g>
							<path class="st11" d="M500.5,549.2c50.7,0.7,51.2-45.4,51.2-45.4c2.1-0.6,5.8-6,3.9-12.1c-1.8-6-7.4-11-7.4-11
								c-2.5-13-8-17.4-8-17.4c-0.6-2.5-6.6-12.6-11.5-18.7c-4.9-6-18.2-9.2-18.2-9.2c0.8-1.6-3.4-3.4-3.4-3.4
								c-2.6-5.4-6.6-5.6-6.6-5.6h-0.1c0,0-4,0.2-6.6,5.6c0,0-4.2,1.7-3.4,3.4c0,0-13.4,3.2-18.2,9.2c-4.9,6-10.8,16.2-11.5,18.7
								c0,0-5.6,4.4-8,17.4c0,0-5.7,4.9-7.4,11c-1.7,6,1.8,11.5,3.9,12.1C449.1,503.8,449.6,549.9,500.5,549.2L500.5,549.2z"/>
							<path class="st12" d="M472.1,464c4.1-2.5,6.1-10.1,10.9-13.7c3.8-2.9,11.1-1.1,16.8-1.6c5.7-0.5,16-4.3,20.3,1.6
								c7.8,11.2,20.1,13,20.1,13c-0.6-2.5-6.6-12.6-11.5-18.7c-4.9-6-18.2-9.2-18.2-9.2c0.8-1.6-3.4-3.4-3.4-3.4
								c-2.6-5.4-6.6-5.6-6.6-5.6h-0.1c0,0-4,0.2-6.6,5.6c0,0-4.2,1.7-3.4,3.4c0,0-13.4,3.2-18.2,9.2c-3.8,4.8-8.4,12.3-10.4,16.3
								c-0.1,0.3-0.7,1.6-1,2.4C461.1,465.1,468,466.5,472.1,464z"/>
							<path class="st13" d="M505.4,434.8c0.1,0.3,1.7,0,2.4,0.1c1.6,0.2,2.6,0.5,2.6,0.5c0.5-1-0.9-2.1-2.1-2.7
								C509.5,434.1,505.4,434.5,505.4,434.8z"/>
							<path class="st13" d="M494.8,434.9c0.7-0.3-4-0.1-3.4-1.6c-0.8,0.6-1.5,1.4-1.1,2.1c0,0,0.7-0.1,2.2-0.2
								C493.1,435.2,494,435.3,494.8,434.9z"/>
						</g>
						<g>
							<path class="st13" d="M449.1,503.8c0.2-8.6,3.2-20.6,3.6-23.1c0,0-5.7,4.9-7.4,11C443.4,497.8,447,503.2,449.1,503.8z"/>
							<path class="st13" d="M548.1,480.7c0.9,3.2,2.5,10.9,3.2,16.7c0.4,2.7,0.4,6.4,0.4,6.4c2.1-0.6,5.8-6,3.9-12.1
								C553.7,485.7,548.1,480.7,548.1,480.7z"/>
						</g>
					</g>
					<path class="st14" d="M449.3,492.5"/>
					<g>
						<g>
							<path class="st15" d="M605.2,381.7c3.8-0.2,8.6-1.1,12-1.2c-0.2-0.9-0.4-1.8-0.4-2.5c0.2-1.6,5.2-4.9,5.4-10
								c0.2-5,1.6-11.5,2.5-13.9c0.8-2.5-2.2-8.6-4.1-12.2c-2-3.6-6.1-3.3-6.1-3.3c-1.4-3-5.5-2.7-5.5-2.7s-0.1-1.9-0.8-3.4
								c-1.4-2.7-5.6-1.6-5.6-1.6s-0.1-2.5-0.8-3.7c-1.2-2-5.2-2.3-6.8-1.2c-1.6,1-2.4,7.4-2.7,9.7c-0.4,2.4-2.8,12.3-2.8,12.3
								s-1.6-4.7-1.9-6.5c-0.3-1.8,1.6-7.2,0.8-10.7c-0.7-3.6-5-7.1-5.2-3.6c-0.1,3.5-2.7,9.6-3.3,12.3c-0.5,2.6,1.8,12.5,3.3,18.2
								c1.5,5.8,5.9,14.6,7.4,18.5c1.2,2.9,1.3,4.6,1.3,5.1C594.8,381.6,600.1,381.9,605.2,381.7z"/>
						</g>
						<g>
							<path class="st12" d="M614,347.9c-3.3,0.5-4.2-1.9-6.8-2.3c-1.9-0.3-4.5,0.7-5.3,0.6c-4-0.5-4.7-3.3-8.3-2.4
								c-2.7,0.6-4.1,4.2-4.1,4.2s-4.9,14-3.2,18.1c1.6,3.9,3.5,7.7,4.3,10c1.2,2.9,1.3,4.6,1.3,5.1c2.9,0.3,8.2,0.5,13.3,0.3
								c3.8-0.2,8.6-1.1,12-1.2c-0.2-0.9-0.4-1.8-0.4-2.5c0.2-1.6,5.2-4.9,5.4-10s1.6-11.5,2.5-13.9c0.2-0.6,0.2-1.6-0.1-2.6
								c-1.6-3-3.7-1.6-5.7-2C616.7,349,617.3,347.3,614,347.9z"/>
						</g>
					</g>
					<g>
						<g>
							<path class="st12" d="M391.7,328.2c1.6-2.7,3.4-4.7,5.1-6c3.4-2.7,3.3-5.4,6.3-9.1c3-3.7,4.3-10.1,5.9-16.9
								c1.6-6.9,4.3-10.4,5.9-11.9c1.6-1.6,4.8-3.5,2.9-4.9c-1.8-1.5-8.7,0.3-11.8,5.1c-3.1,4.8-4.1,4.1-4.1,4.1
								c0.2-4.4,2.7-17.7,3.6-22.9c0.8-5.2,3.1-12.5-1.2-13.3c-4.4-0.8-7.3,14.9-7.3,14.9c-1.1,5.9-3.2,14.4-3.6,11.7
								c-0.3-2.4,0.5-8.1,2.1-19.5c1.6-11.5,1-13.9-2-14.1c-3.6-0.2-5.8,13.8-6.2,16c-0.5,2.1-2.1,17.2-2.8,17
								c-0.6-0.2-0.4-5.9,0.1-11.2c0.5-5.3,1.2-10.8,1.6-14.4s-3.6-4.9-4.8-3c-1.2,1.9-4.6,17.6-4.9,20.5c-0.2,2.9-2.1,13.7-3,13.1
								c-0.9-0.7,0.1-13.1,0.5-17.2c0.5-4.1-1-6.9-3.4-6.2c-2.4,0.6-3.9,10.6-3.9,14.1c0,3.5-2.8,16.9-2.6,21.4
								c0.3,4.7,0.6,19.7,1.6,22.8c0.6,2.2,0.1,6.7-0.2,8.9C373.4,327.1,387,327.6,391.7,328.2z"/>
						</g>
						<path class="st15" d="M401.7,288.5c-0.5,2.9-0.5,6.3-0.2,11.1c0.3,5.7,2.4-3.7,3.4-6c0.9-2.4,1.8-5.9,3.3-8
							c1.6-2.3,3-6.7,8.2-6.7c-2.7-0.3-8,1.6-10.5,5.6C402.7,289.2,401.7,288.5,401.7,288.5z"/>
					</g>
				</g>
			</g>
		</g>
	</g>
	<path class="st16" d="M830.5,409.1H154c-4.3,0-7.8-2.7-7.8-6.1V134.1c0-3.4,3.5-6.1,7.8-6.1h676.5c4.3,0,7.8,2.7,7.8,6.1V403
		C838.3,406.4,834.8,409.1,830.5,409.1z"/>
	<g>
		
			<linearGradient id="SVGID_5_" gradientUnits="userSpaceOnUse" x1="386.7096" y1="456.0904" x2="608.4183" y2="234.3818" gradientTransform="matrix(1 0 0 -1 0 656)">
			<stop  offset="3.584230e-03" style="stop-color:#0FAEA3"/>
			<stop  offset="1" style="stop-color:#0FAEA3;stop-opacity:0"/>
		</linearGradient>
		<path class="st17" d="M873.8,696.3l-6.5-175l-271-273.1l0,0c-0.7-1-1.9-1.7-3.3-1.7h-16.5H421.6h-16.5c-2.2,0-4,1.8-4,4v123.4
			c0,0.3,0,0.6,0.1,0.9v0.1c0.1,0.2,0.1,0.5,0.2,0.7c0,0,0,0,0,0.1c0.1,0.2,0.2,0.5,0.4,0.7l0,0c0.2,0.2,0.4,0.4,0.6,0.6
			l320.9,319.4h150.5V696.3z"/>
		<g>
			<g>
				<path class="st18" d="M591.1,248.3H406.9c-3.4,0-6.2-2.5-6.6-5.9l-7.2-46c-0.5-4,2.6-7.5,6.6-7.5h198.6c4,0,7.1,3.5,6.6,7.5
					l-7.2,46C597.3,245.8,594.4,248.3,591.1,248.3z"/>
				<path class="st19" d="M406.9,246.4c-2.5,0-4.5-1.8-4.8-4.3l-7.2-46.1c-0.2-1.3,0.3-2.7,1.2-3.8c0.9-1.1,2.3-1.7,3.7-1.7h198.6
					c1.4,0,2.7,0.6,3.7,1.7c0.9,1.1,1.4,2.5,1.2,3.8l-7.2,46c-0.3,2.5-2.4,4.3-4.9,4.3H406.9V246.4z"/>
				<path class="st20" d="M406.9,242.8c-0.6,0-1.2-0.5-1.3-1.1l-7.2-46c-0.1-0.5,0.1-0.8,0.3-1c0.2-0.2,0.5-0.4,1-0.4h198.6
					c0.5,0,0.8,0.2,1,0.4c0.2,0.2,0.4,0.5,0.3,1l-7.2,46c-0.1,0.6-0.6,1.1-1.3,1.1H406.9z"/>
				<path class="st21" d="M499.4,192.6c0-0.2-0.2-0.4-0.4-0.4c-0.2,0-0.4,0.2-0.4,0.4c0,0.2,0.2,0.4,0.4,0.4
					C499.2,193.1,499.4,192.9,499.4,192.6z"/>
			</g>
			<path class="st19" d="M574.5,242.8h-151c-1.1,0-1.9,0.9-1.9,1.9v1.7h154.8v-1.7C576.5,243.7,575.6,242.8,574.5,242.8z"/>
		</g>
		<g>
			<g>
				<g>
					<g>
						<path class="st22" d="M593,377.9H405.1c-2.2,0-4-1.8-4-4V250.5c0-2.2,1.8-4,4-4H593c2.2,0,4,1.8,4,4v123.4
							C597,376.1,595.2,377.9,593,377.9z"/>
						<path class="st18" d="M405.1,377.2c-1.8,0-3.3-1.5-3.3-3.3V250.5c0-1.8,1.5-3.3,3.3-3.3H593c1.8,0,3.3,1.5,3.3,3.3v123.4
							c0,1.8-1.5,3.3-3.3,3.3L405.1,377.2L405.1,377.2z"/>
					</g>
					<path class="st22" d="M512.9,377.9h-27.7v-1.5c0-0.7,0.6-1.3,1.3-1.3h25.2c0.7,0,1.3,0.6,1.3,1.3L512.9,377.9L512.9,377.9z"/>
				</g>
				<g>
					<path class="st22" d="M526.5,367.6h-55c-1.3,0-2.3-1-2.3-2.3v-35.1c0-1.3,1-2.3,2.3-2.3h55c1.3,0,2.3,1,2.3,2.3v35.1
						C528.8,366.6,527.8,367.6,526.5,367.6z"/>
					<path class="st23" d="M471.5,365.8c-0.3,0-0.5-0.2-0.5-0.5v-35.1c0-0.3,0.2-0.5,0.5-0.5h55c0.3,0,0.5,0.2,0.5,0.5v35.1
						c0,0.3-0.2,0.5-0.5,0.5H471.5z"/>
					<path class="st18" d="M527,357.7v-27.5c0-0.3-0.2-0.5-0.5-0.5h-55c-0.3,0-0.5,0.2-0.5,0.5v27.5H527z"/>
				</g>
				<path class="st24" d="M574.5,252.5h-151c-1.1,0-1.9-0.9-1.9-1.9v-4.1h154.8v4.1C576.5,251.6,575.6,252.5,574.5,252.5z"/>
				<g>
					<path class="st22" d="M589.7,252.5c0-1.2-1-2.1-2.1-2.1c-1.2,0-2.1,1-2.1,2.1c0,1.2,1,2.1,2.1,2.1
						C588.7,254.7,589.7,253.7,589.7,252.5z"/>
					<path class="st18" d="M587.5,254c-0.8,0-1.5-0.7-1.5-1.5s0.7-1.5,1.5-1.5s1.5,0.7,1.5,1.5S588.3,254,587.5,254z"/>
				</g>
			</g>
			<g>
				<path class="st22" d="M573.6,323.5H424.4c-1.5,0-2.8-1.2-2.8-2.8v-61c0-1.5,1.2-2.8,2.8-2.8h149.3c1.5,0,2.8,1.2,2.8,2.8v61
					C576.4,322.2,575.2,323.5,573.6,323.5z"/>
				<g>
					<path class="st19" d="M431.3,275.9h-6.1c-0.6,0-1.1-0.5-1.1-1.1V269c0-0.6,0.5-1.1,1.1-1.1h6.1c0.6,0,1.1,0.5,1.1,1.1v5.8
						C432.4,275.4,432,275.9,431.3,275.9z"/>
					<path class="st24" d="M425.2,275.2c-0.2,0-0.4-0.2-0.4-0.4V269c0-0.2,0.2-0.4,0.4-0.4h6.1c0.2,0,0.4,0.2,0.4,0.4v5.8
						c0,0.2-0.2,0.4-0.4,0.4H425.2z"/>
					<path class="st19" d="M441.8,275.9h-6.1c-0.6,0-1.1-0.5-1.1-1.1V269c0-0.6,0.5-1.1,1.1-1.1h6.1c0.6,0,1.1,0.5,1.1,1.1v5.8
						C442.9,275.4,442.4,275.9,441.8,275.9z"/>
					<path class="st24" d="M435.7,275.2c-0.2,0-0.4-0.2-0.4-0.4V269c0-0.2,0.2-0.4,0.4-0.4h6.1c0.2,0,0.4,0.2,0.4,0.4v5.8
						c0,0.2-0.2,0.4-0.4,0.4H435.7z"/>
					<path class="st19" d="M452.3,275.9h-6.1c-0.6,0-1.1-0.5-1.1-1.1V269c0-0.6,0.5-1.1,1.1-1.1h6.1c0.6,0,1.1,0.5,1.1,1.1v5.8
						C453.4,275.4,452.9,275.9,452.3,275.9z"/>
					<path class="st24" d="M446.2,275.2c-0.2,0-0.4-0.2-0.4-0.4V269c0-0.2,0.2-0.4,0.4-0.4h6.1c0.2,0,0.4,0.2,0.4,0.4v5.8
						c0,0.2-0.2,0.4-0.4,0.4H446.2z"/>
					<path class="st19" d="M431.3,321.1h-6.1c-0.6,0-1.1-0.5-1.1-1.1v-5.8c0-0.6,0.5-1.1,1.1-1.1h6.1c0.6,0,1.1,0.5,1.1,1.1v5.8
						C432.4,320.6,432,321.1,431.3,321.1z"/>
					<path class="st24" d="M425.2,320.4c-0.2,0-0.4-0.2-0.4-0.4v-5.8c0-0.2,0.2-0.4,0.4-0.4h6.1c0.2,0,0.4,0.2,0.4,0.4v5.8
						c0,0.2-0.2,0.4-0.4,0.4H425.2z"/>
					<path class="st19" d="M441.8,321.1h-6.1c-0.6,0-1.1-0.5-1.1-1.1v-5.8c0-0.6,0.5-1.1,1.1-1.1h6.1c0.6,0,1.1,0.5,1.1,1.1v5.8
						C442.9,320.6,442.4,321.1,441.8,321.1z"/>
					<path class="st24" d="M435.7,320.4c-0.2,0-0.4-0.2-0.4-0.4v-5.8c0-0.2,0.2-0.4,0.4-0.4h6.1c0.2,0,0.4,0.2,0.4,0.4v5.8
						c0,0.2-0.2,0.4-0.4,0.4H435.7z"/>
					<path class="st19" d="M452.3,321.1h-6.1c-0.6,0-1.1-0.5-1.1-1.1v-5.8c0-0.6,0.5-1.1,1.1-1.1h6.1c0.6,0,1.1,0.5,1.1,1.1v5.8
						C453.4,320.6,452.9,321.1,452.3,321.1z"/>
					<path class="st24" d="M446.2,320.4c-0.2,0-0.4-0.2-0.4-0.4v-5.8c0-0.2,0.2-0.4,0.4-0.4h6.1c0.2,0,0.4,0.2,0.4,0.4v5.8
						c0,0.2-0.2,0.4-0.4,0.4H446.2z"/>
					<path class="st19" d="M462.7,275.9h-6.1c-0.6,0-1.1-0.5-1.1-1.1V269c0-0.6,0.5-1.1,1.1-1.1h6.1c0.6,0,1.1,0.5,1.1,1.1v5.8
						C463.8,275.4,463.3,275.9,462.7,275.9z"/>
					<path class="st24" d="M456.6,275.2c-0.2,0-0.4-0.2-0.4-0.4V269c0-0.2,0.2-0.4,0.4-0.4h6.1c0.2,0,0.4,0.2,0.4,0.4v5.8
						c0,0.2-0.2,0.4-0.4,0.4H456.6z"/>
					<path class="st19" d="M473.2,275.9h-6.1c-0.6,0-1.1-0.5-1.1-1.1V269c0-0.6,0.5-1.1,1.1-1.1h6.1c0.6,0,1.1,0.5,1.1,1.1v5.8
						C474.3,275.4,473.8,275.9,473.2,275.9z"/>
					<path class="st24" d="M467.1,275.2c-0.2,0-0.4-0.2-0.4-0.4V269c0-0.2,0.2-0.4,0.4-0.4h6.1c0.2,0,0.4,0.2,0.4,0.4v5.8
						c0,0.2-0.2,0.4-0.4,0.4H467.1z"/>
					<path class="st19" d="M483.6,275.9h-6.1c-0.6,0-1.1-0.5-1.1-1.1V269c0-0.6,0.5-1.1,1.1-1.1h6.1c0.6,0,1.1,0.5,1.1,1.1v5.8
						C484.7,275.4,484.2,275.9,483.6,275.9z"/>
					<path class="st24" d="M477.5,275.2c-0.2,0-0.4-0.2-0.4-0.4V269c0-0.2,0.2-0.4,0.4-0.4h6.1c0.2,0,0.4,0.2,0.4,0.4v5.8
						c0,0.2-0.2,0.4-0.4,0.4H477.5z"/>
					<path class="st19" d="M494.1,275.9H488c-0.6,0-1.1-0.5-1.1-1.1V269c0-0.6,0.5-1.1,1.1-1.1h6.1c0.6,0,1.1,0.5,1.1,1.1v5.8
						C495.2,275.4,494.7,275.9,494.1,275.9z"/>
					<path class="st24" d="M488,275.2c-0.2,0-0.4-0.2-0.4-0.4V269c0-0.2,0.2-0.4,0.4-0.4h6.1c0.2,0,0.4,0.2,0.4,0.4v5.8
						c0,0.2-0.2,0.4-0.4,0.4H488z"/>
					<path class="st19" d="M504.6,275.9h-6.1c-0.6,0-1.1-0.5-1.1-1.1V269c0-0.6,0.5-1.1,1.1-1.1h6.1c0.6,0,1.1,0.5,1.1,1.1v5.8
						C505.6,275.4,505.2,275.9,504.6,275.9z"/>
					<path class="st24" d="M498.4,275.2c-0.2,0-0.4-0.2-0.4-0.4V269c0-0.2,0.2-0.4,0.4-0.4h6.1c0.2,0,0.4,0.2,0.4,0.4v5.8
						c0,0.2-0.2,0.4-0.4,0.4H498.4z"/>
					<path class="st19" d="M515,275.9h-6.1c-0.6,0-1.1-0.5-1.1-1.1V269c0-0.6,0.5-1.1,1.1-1.1h6.1c0.6,0,1.1,0.5,1.1,1.1v5.8
						C516.1,275.4,515.6,275.9,515,275.9z"/>
					<path class="st24" d="M508.9,275.2c-0.2,0-0.4-0.2-0.4-0.4V269c0-0.2,0.2-0.4,0.4-0.4h6.1c0.2,0,0.4,0.2,0.4,0.4v5.8
						c0,0.2-0.2,0.4-0.4,0.4H508.9z"/>
					<path class="st19" d="M525.5,275.9h-6.1c-0.6,0-1.1-0.5-1.1-1.1V269c0-0.6,0.5-1.1,1.1-1.1h6.1c0.6,0,1.1,0.5,1.1,1.1v5.8
						C526.6,275.4,526.1,275.9,525.5,275.9z"/>
					<path class="st24" d="M519.4,275.2c-0.2,0-0.4-0.2-0.4-0.4V269c0-0.2,0.2-0.4,0.4-0.4h6.1c0.2,0,0.4,0.2,0.4,0.4v5.8
						c0,0.2-0.2,0.4-0.4,0.4H519.4z"/>
					<path class="st19" d="M535.9,275.9h-6.1c-0.6,0-1.1-0.5-1.1-1.1V269c0-0.6,0.5-1.1,1.1-1.1h6.1c0.6,0,1.1,0.5,1.1,1.1v5.8
						C537,275.4,536.5,275.9,535.9,275.9z"/>
					<path class="st24" d="M529.8,275.2c-0.2,0-0.4-0.2-0.4-0.4V269c0-0.2,0.2-0.4,0.4-0.4h6.1c0.2,0,0.4,0.2,0.4,0.4v5.8
						c0,0.2-0.2,0.4-0.4,0.4H529.8z"/>
					<path class="st19" d="M546.4,275.9h-6.1c-0.6,0-1.1-0.5-1.1-1.1V269c0-0.6,0.5-1.1,1.1-1.1h6.1c0.6,0,1.1,0.5,1.1,1.1v5.8
						C547.5,275.4,547,275.9,546.4,275.9z"/>
					<path class="st24" d="M540.3,275.2c-0.2,0-0.4-0.2-0.4-0.4V269c0-0.2,0.2-0.4,0.4-0.4h6.1c0.2,0,0.4,0.2,0.4,0.4v5.8
						c0,0.2-0.2,0.4-0.4,0.4H540.3z"/>
					<path class="st19" d="M556.8,275.9h-6.1c-0.6,0-1.1-0.5-1.1-1.1V269c0-0.6,0.5-1.1,1.1-1.1h6.1c0.6,0,1.1,0.5,1.1,1.1v5.8
						C557.9,275.4,557.4,275.9,556.8,275.9z"/>
					<path class="st24" d="M550.7,275.2c-0.2,0-0.4-0.2-0.4-0.4V269c0-0.2,0.2-0.4,0.4-0.4h6.1c0.2,0,0.4,0.2,0.4,0.4v5.8
						c0,0.2-0.2,0.4-0.4,0.4H550.7z"/>
					<path class="st19" d="M572.4,275.9h-11.2c-0.6,0-1.1-0.5-1.1-1.1V269c0-0.6,0.5-1.1,1.1-1.1h11.2c0.6,0,1.1,0.5,1.1,1.1v5.8
						C573.5,275.4,573,275.9,572.4,275.9z"/>
					<path class="st24" d="M561.2,275.2c-0.2,0-0.4-0.2-0.4-0.4V269c0-0.2,0.2-0.4,0.4-0.4h11.2c0.2,0,0.4,0.2,0.4,0.4v5.8
						c0,0.2-0.2,0.4-0.4,0.4H561.2z"/>
					<path class="st19" d="M431.6,265.1h-6.3c-0.6,0-1.1-0.5-1.1-1.1v-3.6c0-0.6,0.5-1.1,1.1-1.1h6.3c0.6,0,1.1,0.5,1.1,1.1v3.6
						C432.8,264.6,432.3,265.1,431.6,265.1z"/>
					<path class="st24" d="M425.3,264.4c-0.2,0-0.4-0.2-0.4-0.4v-3.6c0-0.2,0.2-0.4,0.4-0.4h6.3c0.2,0,0.4,0.2,0.4,0.4v3.6
						c0,0.2-0.2,0.4-0.4,0.4H425.3z"/>
					<path class="st19" d="M442.5,265.1h-6.4c-0.6,0-1.1-0.5-1.1-1.1v-3.6c0-0.6,0.5-1.1,1.1-1.1h6.3c0.6,0,1.1,0.5,1.1,1.1v3.6
						C443.6,264.6,443.1,265.1,442.5,265.1z"/>
					<path class="st24" d="M436.1,264.4c-0.2,0-0.4-0.2-0.4-0.4v-3.6c0-0.2,0.2-0.4,0.4-0.4h6.3c0.2,0,0.4,0.2,0.4,0.4v3.6
						c0,0.2-0.2,0.4-0.4,0.4H436.1z"/>
					<path class="st19" d="M453.3,265.1H447c-0.6,0-1.1-0.5-1.1-1.1v-3.6c0-0.6,0.5-1.1,1.1-1.1h6.3c0.6,0,1.1,0.5,1.1,1.1v3.6
						C454.4,264.6,453.9,265.1,453.3,265.1z"/>
					<path class="st24" d="M447,264.4c-0.2,0-0.4-0.2-0.4-0.4v-3.6c0-0.2,0.2-0.4,0.4-0.4h6.3c0.2,0,0.4,0.2,0.4,0.4v3.6
						c0,0.2-0.2,0.4-0.4,0.4H447z"/>
					<path class="st19" d="M464.1,265.1h-6.3c-0.6,0-1.1-0.5-1.1-1.1v-3.6c0-0.6,0.5-1.1,1.1-1.1h6.3c0.6,0,1.1,0.5,1.1,1.1v3.6
						C465.2,264.6,464.7,265.1,464.1,265.1z"/>
					<path class="st24" d="M457.8,264.4c-0.2,0-0.4-0.2-0.4-0.4v-3.6c0-0.2,0.2-0.4,0.4-0.4h6.3c0.2,0,0.4,0.2,0.4,0.4v3.6
						c0,0.2-0.2,0.4-0.4,0.4H457.8z"/>
					<path class="st19" d="M474.9,265.1h-6.3c-0.6,0-1.1-0.5-1.1-1.1v-3.6c0-0.6,0.5-1.1,1.1-1.1h6.3c0.6,0,1.1,0.5,1.1,1.1v3.6
						C476.1,264.6,475.6,265.1,474.9,265.1z"/>
					<path class="st24" d="M468.6,264.4c-0.2,0-0.4-0.2-0.4-0.4v-3.6c0-0.2,0.2-0.4,0.4-0.4h6.3c0.2,0,0.4,0.2,0.4,0.4v3.6
						c0,0.2-0.2,0.4-0.4,0.4H468.6z"/>
					<path class="st19" d="M485.8,265.1h-6.3c-0.6,0-1.1-0.5-1.1-1.1v-3.6c0-0.6,0.5-1.1,1.1-1.1h6.3c0.6,0,1.1,0.5,1.1,1.1v3.6
						C486.9,264.6,486.4,265.1,485.8,265.1z"/>
					<path class="st24" d="M479.4,264.4c-0.2,0-0.4-0.2-0.4-0.4v-3.6c0-0.2,0.2-0.4,0.4-0.4h6.3c0.2,0,0.4,0.2,0.4,0.4v3.6
						c0,0.2-0.2,0.4-0.4,0.4H479.4z"/>
					<path class="st19" d="M496.6,265.1h-6.3c-0.6,0-1.1-0.5-1.1-1.1v-3.6c0-0.6,0.5-1.1,1.1-1.1h6.3c0.6,0,1.1,0.5,1.1,1.1v3.6
						C497.7,264.6,497.2,265.1,496.6,265.1z"/>
					<path class="st24" d="M490.3,264.4c-0.2,0-0.4-0.2-0.4-0.4v-3.6c0-0.2,0.2-0.4,0.4-0.4h6.3c0.2,0,0.4,0.2,0.4,0.4v3.6
						c0,0.2-0.2,0.4-0.4,0.4H490.3z"/>
					<path class="st19" d="M507.4,265.1h-6.3c-0.6,0-1.1-0.5-1.1-1.1v-3.6c0-0.6,0.5-1.1,1.1-1.1h6.3c0.6,0,1.1,0.5,1.1,1.1v3.6
						C508.5,264.6,508,265.1,507.4,265.1z"/>
					<path class="st24" d="M501.1,264.4c-0.2,0-0.4-0.2-0.4-0.4v-3.6c0-0.2,0.2-0.4,0.4-0.4h6.3c0.2,0,0.4,0.2,0.4,0.4v3.6
						c0,0.2-0.2,0.4-0.4,0.4H501.1z"/>
					<path class="st19" d="M518.2,265.1h-6.3c-0.6,0-1.1-0.5-1.1-1.1v-3.6c0-0.6,0.5-1.1,1.1-1.1h6.3c0.6,0,1.1,0.5,1.1,1.1v3.6
						C519.4,264.6,518.9,265.1,518.2,265.1z"/>
					<path class="st24" d="M511.9,264.4c-0.2,0-0.4-0.2-0.4-0.4v-3.6c0-0.2,0.2-0.4,0.4-0.4h6.3c0.2,0,0.4,0.2,0.4,0.4v3.6
						c0,0.2-0.2,0.4-0.4,0.4H511.9z"/>
					<path class="st19" d="M529.1,265.1h-6.3c-0.6,0-1.1-0.5-1.1-1.1v-3.6c0-0.6,0.5-1.1,1.1-1.1h6.3c0.6,0,1.1,0.5,1.1,1.1v3.6
						C530.2,264.6,529.7,265.1,529.1,265.1z"/>
					<path class="st24" d="M522.7,264.4c-0.2,0-0.4-0.2-0.4-0.4v-3.6c0-0.2,0.2-0.4,0.4-0.4h6.3c0.2,0,0.4,0.2,0.4,0.4v3.6
						c0,0.2-0.2,0.4-0.4,0.4H522.7z"/>
					<path class="st19" d="M539.9,265.1h-6.3c-0.6,0-1.1-0.5-1.1-1.1v-3.6c0-0.6,0.5-1.1,1.1-1.1h6.3c0.6,0,1.1,0.5,1.1,1.1v3.6
						C541,264.6,540.5,265.1,539.9,265.1z"/>
					<path class="st24" d="M533.6,264.4c-0.2,0-0.4-0.2-0.4-0.4v-3.6c0-0.2,0.2-0.4,0.4-0.4h6.3c0.2,0,0.4,0.2,0.4,0.4v3.6
						c0,0.2-0.2,0.4-0.4,0.4H533.6z"/>
					<path class="st19" d="M550.7,265.1h-6.3c-0.6,0-1.1-0.5-1.1-1.1v-3.6c0-0.6,0.5-1.1,1.1-1.1h6.3c0.6,0,1.1,0.5,1.1,1.1v3.6
						C551.8,264.6,551.3,265.1,550.7,265.1z"/>
					<path class="st24" d="M544.4,264.4c-0.2,0-0.4-0.2-0.4-0.4v-3.6c0-0.2,0.2-0.4,0.4-0.4h6.3c0.2,0,0.4,0.2,0.4,0.4v3.6
						c0,0.2-0.2,0.4-0.4,0.4H544.4z"/>
					<path class="st19" d="M561.5,265.1h-6.3c-0.6,0-1.1-0.5-1.1-1.1v-3.6c0-0.6,0.5-1.1,1.1-1.1h6.3c0.6,0,1.1,0.5,1.1,1.1v3.6
						C562.7,264.6,562.2,265.1,561.5,265.1z"/>
					<path class="st24" d="M555.2,264.4c-0.2,0-0.4-0.2-0.4-0.4v-3.6c0-0.2,0.2-0.4,0.4-0.4h6.3c0.2,0,0.4,0.2,0.4,0.4v3.6
						c0,0.2-0.2,0.4-0.4,0.4H555.2z"/>
					<path class="st19" d="M572.4,265.1h-6.3c-0.6,0-1.1-0.5-1.1-1.1v-3.6c0-0.6,0.5-1.1,1.1-1.1h6.3c0.6,0,1.1,0.5,1.1,1.1v3.6
						C573.5,264.6,573,265.1,572.4,265.1z"/>
					<path class="st24" d="M566,264.4c-0.2,0-0.4-0.2-0.4-0.4v-3.6c0-0.2,0.2-0.4,0.4-0.4h6.3c0.2,0,0.4,0.2,0.4,0.4v3.6
						c0,0.2-0.2,0.4-0.4,0.4H566z"/>
					<path class="st19" d="M436.6,287.2h-11.3c-0.6,0-1.1-0.5-1.1-1.1v-5.8c0-0.6,0.5-1.1,1.1-1.1h11.3c0.6,0,1.1,0.5,1.1,1.1v5.8
						C437.7,286.7,437.2,287.2,436.6,287.2z"/>
					<path class="st24" d="M425.2,286.5c-0.2,0-0.4-0.2-0.4-0.4v-5.8c0-0.2,0.2-0.4,0.4-0.4h11.3c0.2,0,0.4,0.2,0.4,0.4v5.8
						c0,0.2-0.2,0.4-0.4,0.4H425.2z"/>
					<path class="st19" d="M436.6,309.8h-11.3c-0.6,0-1.1-0.5-1.1-1.1v-5.8c0-0.6,0.5-1.1,1.1-1.1h11.3c0.6,0,1.1,0.5,1.1,1.1v5.8
						C437.7,309.3,437.2,309.8,436.6,309.8z"/>
					<path class="st24" d="M425.2,309.1c-0.2,0-0.4-0.2-0.4-0.4v-5.8c0-0.2,0.2-0.4,0.4-0.4h11.3c0.2,0,0.4,0.2,0.4,0.4v5.8
						c0,0.2-0.2,0.4-0.4,0.4H425.2z"/>
					<path class="st19" d="M447,287.2h-6.1c-0.6,0-1.1-0.5-1.1-1.1v-5.8c0-0.6,0.5-1.1,1.1-1.1h6.1c0.6,0,1.1,0.5,1.1,1.1v5.8
						C448.1,286.7,447.6,287.2,447,287.2z"/>
					<path class="st24" d="M440.9,286.5c-0.2,0-0.4-0.2-0.4-0.4v-5.8c0-0.2,0.2-0.4,0.4-0.4h6.1c0.2,0,0.4,0.2,0.4,0.4v5.8
						c0,0.2-0.2,0.4-0.4,0.4H440.9z"/>
					<path class="st19" d="M457.5,287.2h-6.1c-0.6,0-1.1-0.5-1.1-1.1v-5.8c0-0.6,0.5-1.1,1.1-1.1h6.1c0.6,0,1.1,0.5,1.1,1.1v5.8
						C458.6,286.7,458.1,287.2,457.5,287.2z"/>
					<path class="st24" d="M451.4,286.5c-0.2,0-0.4-0.2-0.4-0.4v-5.8c0-0.2,0.2-0.4,0.4-0.4h6.1c0.2,0,0.4,0.2,0.4,0.4v5.8
						c0,0.2-0.2,0.4-0.4,0.4H451.4z"/>
					<path class="st19" d="M468,287.2h-6.1c-0.6,0-1.1-0.5-1.1-1.1v-5.8c0-0.6,0.5-1.1,1.1-1.1h6.1c0.6,0,1.1,0.5,1.1,1.1v5.8
						C469,286.7,468.6,287.2,468,287.2z"/>
					<path class="st24" d="M461.8,286.5c-0.2,0-0.4-0.2-0.4-0.4v-5.8c0-0.2,0.2-0.4,0.4-0.4h6.1c0.2,0,0.4,0.2,0.4,0.4v5.8
						c0,0.2-0.2,0.4-0.4,0.4H461.8z"/>
					<path class="st19" d="M478.4,287.2h-6.1c-0.6,0-1.1-0.5-1.1-1.1v-5.8c0-0.6,0.5-1.1,1.1-1.1h6.1c0.6,0,1.1,0.5,1.1,1.1v5.8
						C479.5,286.7,479,287.2,478.4,287.2z"/>
					<path class="st24" d="M472.3,286.5c-0.2,0-0.4-0.2-0.4-0.4v-5.8c0-0.2,0.2-0.4,0.4-0.4h6.1c0.2,0,0.4,0.2,0.4,0.4v5.8
						c0,0.2-0.2,0.4-0.4,0.4H472.3z"/>
					<path class="st19" d="M488.9,287.2h-6.1c-0.6,0-1.1-0.5-1.1-1.1v-5.8c0-0.6,0.5-1.1,1.1-1.1h6.1c0.6,0,1.1,0.5,1.1,1.1v5.8
						C490,286.7,489.5,287.2,488.9,287.2z"/>
					<path class="st24" d="M482.8,286.5c-0.2,0-0.4-0.2-0.4-0.4v-5.8c0-0.2,0.2-0.4,0.4-0.4h6.1c0.2,0,0.4,0.2,0.4,0.4v5.8
						c0,0.2-0.2,0.4-0.4,0.4H482.8z"/>
					<path class="st19" d="M499.3,287.2h-6.1c-0.6,0-1.1-0.5-1.1-1.1v-5.8c0-0.6,0.5-1.1,1.1-1.1h6.1c0.6,0,1.1,0.5,1.1,1.1v5.8
						C500.4,286.7,499.9,287.2,499.3,287.2z"/>
					<path class="st24" d="M493.2,286.5c-0.2,0-0.4-0.2-0.4-0.4v-5.8c0-0.2,0.2-0.4,0.4-0.4h6.1c0.2,0,0.4,0.2,0.4,0.4v5.8
						c0,0.2-0.2,0.4-0.4,0.4H493.2z"/>
					<path class="st19" d="M509.8,287.2h-6.1c-0.6,0-1.1-0.5-1.1-1.1v-5.8c0-0.6,0.5-1.1,1.1-1.1h6.1c0.6,0,1.1,0.5,1.1,1.1v5.8
						C510.9,286.7,510.4,287.2,509.8,287.2z"/>
					<path class="st24" d="M503.7,286.5c-0.2,0-0.4-0.2-0.4-0.4v-5.8c0-0.2,0.2-0.4,0.4-0.4h6.1c0.2,0,0.4,0.2,0.4,0.4v5.8
						c0,0.2-0.2,0.4-0.4,0.4H503.7z"/>
					<path class="st19" d="M520.2,287.2h-6.1c-0.6,0-1.1-0.5-1.1-1.1v-5.8c0-0.6,0.5-1.1,1.1-1.1h6.1c0.6,0,1.1,0.5,1.1,1.1v5.8
						C521.3,286.7,520.8,287.2,520.2,287.2z"/>
					<path class="st24" d="M514.1,286.5c-0.2,0-0.4-0.2-0.4-0.4v-5.8c0-0.2,0.2-0.4,0.4-0.4h6.1c0.2,0,0.4,0.2,0.4,0.4v5.8
						c0,0.2-0.2,0.4-0.4,0.4H514.1z"/>
					<path class="st19" d="M530.7,287.2h-6.1c-0.6,0-1.1-0.5-1.1-1.1v-5.8c0-0.6,0.5-1.1,1.1-1.1h6.1c0.6,0,1.1,0.5,1.1,1.1v5.8
						C531.8,286.7,531.3,287.2,530.7,287.2z"/>
					<path class="st24" d="M524.6,286.5c-0.2,0-0.4-0.2-0.4-0.4v-5.8c0-0.2,0.2-0.4,0.4-0.4h6.1c0.2,0,0.4,0.2,0.4,0.4v5.8
						c0,0.2-0.2,0.4-0.4,0.4H524.6z"/>
					<path class="st19" d="M541.2,287.2h-6.1c-0.6,0-1.1-0.5-1.1-1.1v-5.8c0-0.6,0.5-1.1,1.1-1.1h6.1c0.6,0,1.1,0.5,1.1,1.1v5.8
						C542.2,286.7,541.8,287.2,541.2,287.2z"/>
					<path class="st24" d="M535,286.5c-0.2,0-0.4-0.2-0.4-0.4v-5.8c0-0.2,0.2-0.4,0.4-0.4h6.1c0.2,0,0.4,0.2,0.4,0.4v5.8
						c0,0.2-0.2,0.4-0.4,0.4H535z"/>
					<path class="st19" d="M551.6,287.2h-6.1c-0.6,0-1.1-0.5-1.1-1.1v-5.8c0-0.6,0.5-1.1,1.1-1.1h6.1c0.6,0,1.1,0.5,1.1,1.1v5.8
						C552.7,286.7,552.2,287.2,551.6,287.2z"/>
					<path class="st24" d="M545.5,286.5c-0.2,0-0.4-0.2-0.4-0.4v-5.8c0-0.2,0.2-0.4,0.4-0.4h6.1c0.2,0,0.4,0.2,0.4,0.4v5.8
						c0,0.2-0.2,0.4-0.4,0.4H545.5z"/>
					<path class="st19" d="M562.1,287.2H556c-0.6,0-1.1-0.5-1.1-1.1v-5.8c0-0.6,0.5-1.1,1.1-1.1h6.1c0.6,0,1.1,0.5,1.1,1.1v5.8
						C563.2,286.7,562.7,287.2,562.1,287.2z"/>
					<path class="st24" d="M556,286.5c-0.2,0-0.4-0.2-0.4-0.4v-5.8c0-0.2,0.2-0.4,0.4-0.4h6.1c0.2,0,0.4,0.2,0.4,0.4v5.8
						c0,0.2-0.2,0.4-0.4,0.4H556z"/>
					<path class="st19" d="M572.4,279.2h-6.1c-0.6,0-1.1,0.5-1.1,1.1v5.8c0,0.6,0.5,1.1,1.1,1.1h1.1c0.4,0,0.7,0.3,0.7,0.7v9.5
						c0,0.6,0.5,1.1,1.1,1.1h3.3c0.6,0,1.1-0.5,1.1-1.1v-17.1C573.5,279.7,573,279.2,572.4,279.2z"/>
					<path class="st24" d="M569.1,297.8c-0.2,0-0.4-0.2-0.4-0.4v-9.5c0-0.8-0.6-1.4-1.4-1.4h-1.1c-0.2,0-0.4-0.2-0.4-0.4v-5.8
						c0-0.2,0.2-0.4,0.4-0.4h6.1c0.2,0,0.4,0.2,0.4,0.4v17.1c0,0.2-0.2,0.4-0.4,0.4H569.1L569.1,297.8z"/>
					<path class="st19" d="M438.2,298.5h-12.9c-0.6,0-1.1-0.5-1.1-1.1v-5.8c0-0.6,0.5-1.1,1.1-1.1h12.9c0.6,0,1.1,0.5,1.1,1.1v5.8
						C439.3,298,438.8,298.5,438.2,298.5z"/>
					<path class="st24" d="M425.2,297.8c-0.2,0-0.4-0.2-0.4-0.4v-5.8c0-0.2,0.2-0.4,0.4-0.4h12.9c0.2,0,0.4,0.2,0.4,0.4v5.8
						c0,0.2-0.2,0.4-0.4,0.4H425.2z"/>
					<path class="st19" d="M448.6,298.5h-6.1c-0.6,0-1.1-0.5-1.1-1.1v-5.8c0-0.6,0.5-1.1,1.1-1.1h6.1c0.6,0,1.1,0.5,1.1,1.1v5.8
						C449.7,298,449.2,298.5,448.6,298.5z"/>
					<path class="st24" d="M442.5,297.8c-0.2,0-0.4-0.2-0.4-0.4v-5.8c0-0.2,0.2-0.4,0.4-0.4h6.1c0.2,0,0.4,0.2,0.4,0.4v5.8
						c0,0.2-0.2,0.4-0.4,0.4H442.5z"/>
					<path class="st19" d="M459.1,298.5H453c-0.6,0-1.1-0.5-1.1-1.1v-5.8c0-0.6,0.5-1.1,1.1-1.1h6.1c0.6,0,1.1,0.5,1.1,1.1v5.8
						C460.2,298,459.7,298.5,459.1,298.5z"/>
					<path class="st24" d="M453,297.8c-0.2,0-0.4-0.2-0.4-0.4v-5.8c0-0.2,0.2-0.4,0.4-0.4h6.1c0.2,0,0.4,0.2,0.4,0.4v5.8
						c0,0.2-0.2,0.4-0.4,0.4H453z"/>
					<path class="st19" d="M469.6,298.5h-6.1c-0.6,0-1.1-0.5-1.1-1.1v-5.8c0-0.6,0.5-1.1,1.1-1.1h6.1c0.6,0,1.1,0.5,1.1,1.1v5.8
						C470.7,298,470.2,298.5,469.6,298.5z"/>
					<path class="st24" d="M463.5,297.8c-0.2,0-0.4-0.2-0.4-0.4v-5.8c0-0.2,0.2-0.4,0.4-0.4h6.1c0.2,0,0.4,0.2,0.4,0.4v5.8
						c0,0.2-0.2,0.4-0.4,0.4H463.5z"/>
					<path class="st19" d="M480,298.5h-6.1c-0.6,0-1.1-0.5-1.1-1.1v-5.8c0-0.6,0.5-1.1,1.1-1.1h6.1c0.6,0,1.1,0.5,1.1,1.1v5.8
						C481.1,298,480.6,298.5,480,298.5z"/>
					<path class="st24" d="M473.9,297.8c-0.2,0-0.4-0.2-0.4-0.4v-5.8c0-0.2,0.2-0.4,0.4-0.4h6.1c0.2,0,0.4,0.2,0.4,0.4v5.8
						c0,0.2-0.2,0.4-0.4,0.4H473.9z"/>
					<path class="st19" d="M490.5,298.5h-6.1c-0.6,0-1.1-0.5-1.1-1.1v-5.8c0-0.6,0.5-1.1,1.1-1.1h6.1c0.6,0,1.1,0.5,1.1,1.1v5.8
						C491.6,298,491.1,298.5,490.5,298.5z"/>
					<path class="st24" d="M484.4,297.8c-0.2,0-0.4-0.2-0.4-0.4v-5.8c0-0.2,0.2-0.4,0.4-0.4h6.1c0.2,0,0.4,0.2,0.4,0.4v5.8
						c0,0.2-0.2,0.4-0.4,0.4H484.4z"/>
					<path class="st19" d="M500.9,298.5h-6.1c-0.6,0-1.1-0.5-1.1-1.1v-5.8c0-0.6,0.5-1.1,1.1-1.1h6.1c0.6,0,1.1,0.5,1.1,1.1v5.8
						C502,298,501.5,298.5,500.9,298.5z"/>
					<path class="st24" d="M494.8,297.8c-0.2,0-0.4-0.2-0.4-0.4v-5.8c0-0.2,0.2-0.4,0.4-0.4h6.1c0.2,0,0.4,0.2,0.4,0.4v5.8
						c0,0.2-0.2,0.4-0.4,0.4H494.8z"/>
					<path class="st19" d="M511.4,298.5h-6.1c-0.6,0-1.1-0.5-1.1-1.1v-5.8c0-0.6,0.5-1.1,1.1-1.1h6.1c0.6,0,1.1,0.5,1.1,1.1v5.8
						C512.5,298,512,298.5,511.4,298.5z"/>
					<path class="st24" d="M505.3,297.8c-0.2,0-0.4-0.2-0.4-0.4v-5.8c0-0.2,0.2-0.4,0.4-0.4h6.1c0.2,0,0.4,0.2,0.4,0.4v5.8
						c0,0.2-0.2,0.4-0.4,0.4H505.3z"/>
					<path class="st19" d="M521.8,298.5h-6.1c-0.6,0-1.1-0.5-1.1-1.1v-5.8c0-0.6,0.5-1.1,1.1-1.1h6.1c0.6,0,1.1,0.5,1.1,1.1v5.8
						C522.9,298,522.5,298.5,521.8,298.5z"/>
					<path class="st24" d="M515.7,297.8c-0.2,0-0.4-0.2-0.4-0.4v-5.8c0-0.2,0.2-0.4,0.4-0.4h6.1c0.2,0,0.4,0.2,0.4,0.4v5.8
						c0,0.2-0.2,0.4-0.4,0.4H515.7z"/>
					<path class="st19" d="M532.3,298.5h-6.1c-0.6,0-1.1-0.5-1.1-1.1v-5.8c0-0.6,0.5-1.1,1.1-1.1h6.1c0.6,0,1.1,0.5,1.1,1.1v5.8
						C533.4,298,532.9,298.5,532.3,298.5z"/>
					<path class="st24" d="M526.2,297.8c-0.2,0-0.4-0.2-0.4-0.4v-5.8c0-0.2,0.2-0.4,0.4-0.4h6.1c0.2,0,0.4,0.2,0.4,0.4v5.8
						c0,0.2-0.2,0.4-0.4,0.4H526.2z"/>
					<path class="st19" d="M542.8,298.5h-6.1c-0.6,0-1.1-0.5-1.1-1.1v-5.8c0-0.6,0.5-1.1,1.1-1.1h6.1c0.6,0,1.1,0.5,1.1,1.1v5.8
						C543.9,298,543.4,298.5,542.8,298.5z"/>
					<path class="st24" d="M536.7,297.8c-0.2,0-0.4-0.2-0.4-0.4v-5.8c0-0.2,0.2-0.4,0.4-0.4h6.1c0.2,0,0.4,0.2,0.4,0.4v5.8
						c0,0.2-0.2,0.4-0.4,0.4H536.7z"/>
					<path class="st19" d="M553.2,298.5h-6.1c-0.6,0-1.1-0.5-1.1-1.1v-5.8c0-0.6,0.5-1.1,1.1-1.1h6.1c0.6,0,1.1,0.5,1.1,1.1v5.8
						C554.3,298,553.8,298.5,553.2,298.5z"/>
					<path class="st24" d="M547.1,297.8c-0.2,0-0.4-0.2-0.4-0.4v-5.8c0-0.2,0.2-0.4,0.4-0.4h6.1c0.2,0,0.4,0.2,0.4,0.4v5.8
						c0,0.2-0.2,0.4-0.4,0.4H547.1z"/>
					<path class="st19" d="M563.7,298.5h-6.1c-0.6,0-1.1-0.5-1.1-1.1v-5.8c0-0.6,0.5-1.1,1.1-1.1h6.1c0.6,0,1.1,0.5,1.1,1.1v5.8
						C564.8,298,564.3,298.5,563.7,298.5z"/>
					<path class="st24" d="M557.6,297.8c-0.2,0-0.4-0.2-0.4-0.4v-5.8c0-0.2,0.2-0.4,0.4-0.4h6.1c0.2,0,0.4,0.2,0.4,0.4v5.8
						c0,0.2-0.2,0.4-0.4,0.4H557.6z"/>
					<path class="st19" d="M447,309.8h-6.1c-0.6,0-1.1-0.5-1.1-1.1v-5.8c0-0.6,0.5-1.1,1.1-1.1h6.1c0.6,0,1.1,0.5,1.1,1.1v5.8
						C448.1,309.3,447.6,309.8,447,309.8z"/>
					<path class="st24" d="M440.9,309.1c-0.2,0-0.4-0.2-0.4-0.4v-5.8c0-0.2,0.2-0.4,0.4-0.4h6.1c0.2,0,0.4,0.2,0.4,0.4v5.8
						c0,0.2-0.2,0.4-0.4,0.4H440.9z"/>
					<path class="st19" d="M457.5,309.8h-6.1c-0.6,0-1.1-0.5-1.1-1.1v-5.8c0-0.6,0.5-1.1,1.1-1.1h6.1c0.6,0,1.1,0.5,1.1,1.1v5.8
						C458.6,309.3,458.1,309.8,457.5,309.8z"/>
					<path class="st24" d="M451.4,309.1c-0.2,0-0.4-0.2-0.4-0.4v-5.8c0-0.2,0.2-0.4,0.4-0.4h6.1c0.2,0,0.4,0.2,0.4,0.4v5.8
						c0,0.2-0.2,0.4-0.4,0.4H451.4z"/>
					<path class="st19" d="M468,309.8h-6.1c-0.6,0-1.1-0.5-1.1-1.1v-5.8c0-0.6,0.5-1.1,1.1-1.1h6.1c0.6,0,1.1,0.5,1.1,1.1v5.8
						C469,309.3,468.6,309.8,468,309.8z"/>
					<path class="st24" d="M461.8,309.1c-0.2,0-0.4-0.2-0.4-0.4v-5.8c0-0.2,0.2-0.4,0.4-0.4h6.1c0.2,0,0.4,0.2,0.4,0.4v5.8
						c0,0.2-0.2,0.4-0.4,0.4H461.8z"/>
					<path class="st19" d="M478.4,309.8h-6.1c-0.6,0-1.1-0.5-1.1-1.1v-5.8c0-0.6,0.5-1.1,1.1-1.1h6.1c0.6,0,1.1,0.5,1.1,1.1v5.8
						C479.5,309.3,479,309.8,478.4,309.8z"/>
					<path class="st24" d="M472.3,309.1c-0.2,0-0.4-0.2-0.4-0.4v-5.8c0-0.2,0.2-0.4,0.4-0.4h6.1c0.2,0,0.4,0.2,0.4,0.4v5.8
						c0,0.2-0.2,0.4-0.4,0.4H472.3z"/>
					<path class="st19" d="M488.9,309.8h-6.1c-0.6,0-1.1-0.5-1.1-1.1v-5.8c0-0.6,0.5-1.1,1.1-1.1h6.1c0.6,0,1.1,0.5,1.1,1.1v5.8
						C490,309.3,489.5,309.8,488.9,309.8z"/>
					<path class="st24" d="M482.8,309.1c-0.2,0-0.4-0.2-0.4-0.4v-5.8c0-0.2,0.2-0.4,0.4-0.4h6.1c0.2,0,0.4,0.2,0.4,0.4v5.8
						c0,0.2-0.2,0.4-0.4,0.4H482.8z"/>
					<path class="st19" d="M499.3,309.8h-6.1c-0.6,0-1.1-0.5-1.1-1.1v-5.8c0-0.6,0.5-1.1,1.1-1.1h6.1c0.6,0,1.1,0.5,1.1,1.1v5.8
						C500.4,309.3,499.9,309.8,499.3,309.8z"/>
					<path class="st24" d="M493.2,309.1c-0.2,0-0.4-0.2-0.4-0.4v-5.8c0-0.2,0.2-0.4,0.4-0.4h6.1c0.2,0,0.4,0.2,0.4,0.4v5.8
						c0,0.2-0.2,0.4-0.4,0.4H493.2z"/>
					<path class="st19" d="M509.8,309.8h-6.1c-0.6,0-1.1-0.5-1.1-1.1v-5.8c0-0.6,0.5-1.1,1.1-1.1h6.1c0.6,0,1.1,0.5,1.1,1.1v5.8
						C510.9,309.3,510.4,309.8,509.8,309.8z"/>
					<path class="st24" d="M503.7,309.1c-0.2,0-0.4-0.2-0.4-0.4v-5.8c0-0.2,0.2-0.4,0.4-0.4h6.1c0.2,0,0.4,0.2,0.4,0.4v5.8
						c0,0.2-0.2,0.4-0.4,0.4H503.7z"/>
					<path class="st19" d="M520.2,309.8h-6.1c-0.6,0-1.1-0.5-1.1-1.1v-5.8c0-0.6,0.5-1.1,1.1-1.1h6.1c0.6,0,1.1,0.5,1.1,1.1v5.8
						C521.3,309.3,520.8,309.8,520.2,309.8z"/>
					<path class="st24" d="M514.1,309.1c-0.2,0-0.4-0.2-0.4-0.4v-5.8c0-0.2,0.2-0.4,0.4-0.4h6.1c0.2,0,0.4,0.2,0.4,0.4v5.8
						c0,0.2-0.2,0.4-0.4,0.4H514.1z"/>
					<path class="st19" d="M530.7,309.8h-6.1c-0.6,0-1.1-0.5-1.1-1.1v-5.8c0-0.6,0.5-1.1,1.1-1.1h6.1c0.6,0,1.1,0.5,1.1,1.1v5.8
						C531.8,309.3,531.3,309.8,530.7,309.8z"/>
					<path class="st24" d="M524.6,309.1c-0.2,0-0.4-0.2-0.4-0.4v-5.8c0-0.2,0.2-0.4,0.4-0.4h6.1c0.2,0,0.4,0.2,0.4,0.4v5.8
						c0,0.2-0.2,0.4-0.4,0.4H524.6z"/>
					<path class="st19" d="M541.2,309.8h-6.1c-0.6,0-1.1-0.5-1.1-1.1v-5.8c0-0.6,0.5-1.1,1.1-1.1h6.1c0.6,0,1.1,0.5,1.1,1.1v5.8
						C542.2,309.3,541.8,309.8,541.2,309.8z"/>
					<path class="st24" d="M535,309.1c-0.2,0-0.4-0.2-0.4-0.4v-5.8c0-0.2,0.2-0.4,0.4-0.4h6.1c0.2,0,0.4,0.2,0.4,0.4v5.8
						c0,0.2-0.2,0.4-0.4,0.4H535z"/>
					<path class="st19" d="M551.6,309.8h-6.1c-0.6,0-1.1-0.5-1.1-1.1v-5.8c0-0.6,0.5-1.1,1.1-1.1h6.1c0.6,0,1.1,0.5,1.1,1.1v5.8
						C552.7,309.3,552.2,309.8,551.6,309.8z"/>
					<path class="st24" d="M545.5,309.1c-0.2,0-0.4-0.2-0.4-0.4v-5.8c0-0.2,0.2-0.4,0.4-0.4h6.1c0.2,0,0.4,0.2,0.4,0.4v5.8
						c0,0.2-0.2,0.4-0.4,0.4H545.5z"/>
					<path class="st19" d="M572.5,301.8h-10.4h-1.5H556c-0.6,0-1.1,0.5-1.1,1.1v5.8c0,0.6,0.5,1.1,1.1,1.1h4.6h1.5h10.5
						c0.6,0,1.1-0.5,1.1-1.1v-5.8C573.6,302.3,573.1,301.8,572.5,301.8z"/>
					<path class="st24" d="M556,309.1c-0.2,0-0.4-0.2-0.4-0.4v-5.8c0-0.2,0.2-0.4,0.4-0.4h16.6c0.2,0,0.4,0.2,0.4,0.4v5.8
						c0,0.2-0.2,0.4-0.4,0.4H556z"/>
					<path class="st19" d="M462.7,321.1h-6.1c-0.6,0-1.1-0.5-1.1-1.1v-5.8c0-0.6,0.5-1.1,1.1-1.1h6.1c0.6,0,1.1,0.5,1.1,1.1v5.8
						C463.8,320.6,463.3,321.1,462.7,321.1z"/>
					<path class="st24" d="M456.6,320.4c-0.2,0-0.4-0.2-0.4-0.4v-5.8c0-0.2,0.2-0.4,0.4-0.4h6.1c0.2,0,0.4,0.2,0.4,0.4v5.8
						c0,0.2-0.2,0.4-0.4,0.4H456.6z"/>
					<path class="st19" d="M520.4,313.1H517h2.4H515h-6.1h-4.4h-6.1h-4.3H488h-4.4h-6.1h-10.4c-0.6,0-1.1,0.5-1.1,1.1v5.8
						c0,0.6,0.5,1.1,1.1,1.1h10.5h6.1h4.4h6.1h4.4h6.1h4.4h6.1h4.4h-2.4h3.4c0.6,0,1.1-0.5,1.1-1.1v-5.8
						C521.5,313.6,521,313.1,520.4,313.1z"/>
					<path class="st24" d="M467.1,320.4c-0.2,0-0.4-0.2-0.4-0.4v-5.8c0-0.2,0.2-0.4,0.4-0.4h53.3c0.2,0,0.4,0.2,0.4,0.4v5.8
						c0,0.2-0.2,0.4-0.4,0.4H467.1z"/>
					<path class="st19" d="M530.9,321.1h-6.1c-0.6,0-1.1-0.5-1.1-1.1v-5.8c0-0.6,0.5-1.1,1.1-1.1h6.1c0.6,0,1.1,0.5,1.1,1.1v5.8
						C531.9,320.6,531.5,321.1,530.9,321.1z"/>
					<path class="st24" d="M524.8,320.4c-0.2,0-0.4-0.2-0.4-0.4v-5.8c0-0.2,0.2-0.4,0.4-0.4h6.1c0.2,0,0.4,0.2,0.4,0.4v5.8
						c0,0.2-0.2,0.4-0.4,0.4H524.8z"/>
					<path class="st19" d="M541.3,321.1h-6.1c-0.6,0-1.1-0.5-1.1-1.1v-5.8c0-0.6,0.5-1.1,1.1-1.1h6.1c0.6,0,1.1,0.5,1.1,1.1v5.8
						C542.4,320.6,541.9,321.1,541.3,321.1z"/>
					<path class="st24" d="M535.2,320.4c-0.2,0-0.4-0.2-0.4-0.4v-5.8c0-0.2,0.2-0.4,0.4-0.4h6.1c0.2,0,0.4,0.2,0.4,0.4v5.8
						c0,0.2-0.2,0.4-0.4,0.4H535.2z"/>
					<path class="st19" d="M551.4,321.1h-6.1c-0.6,0-1.1-0.5-1.1-1.1v-3.6c0-0.6,0.5-1.1,1.1-1.1h6.1c0.6,0,1.1,0.5,1.1,1.1v3.6
						C552.5,320.6,552,321.1,551.4,321.1z"/>
					<path class="st24" d="M545.3,320.4c-0.2,0-0.4-0.2-0.4-0.4v-3.6c0-0.2,0.2-0.4,0.4-0.4h6.1c0.2,0,0.4,0.2,0.4,0.4v3.6
						c0,0.2-0.2,0.4-0.4,0.4H545.3z"/>
					<path class="st19" d="M572.7,320.5h-6.1c-0.6,0-1.1-0.5-1.1-1.1v-3.6c0-0.6,0.5-1.1,1.1-1.1h6.1c0.6,0,1.1,0.5,1.1,1.1v3.6
						C573.8,320.1,573.3,320.5,572.7,320.5z"/>
					<path class="st24" d="M566.6,319.8c-0.2,0-0.4-0.2-0.4-0.4v-3.6c0-0.2,0.2-0.4,0.4-0.4h6.1c0.2,0,0.4,0.2,0.4,0.4v3.6
						c0,0.2-0.2,0.4-0.4,0.4H566.6z"/>
					<g>
						<path class="st19" d="M563,316.3v-2.1c0-0.6-0.5-1.1-1.1-1.1h-6.1c-0.6,0-1.1,0.5-1.1,1.1v2.1H563z"/>
						<path class="st24" d="M555.4,315.6v-1.4c0-0.2,0.2-0.4,0.4-0.4h6.1c0.2,0,0.4,0.2,0.4,0.4v1.4H555.4z"/>
						<path class="st19" d="M554.7,317.9v2.1c0,0.6,0.5,1.1,1.1,1.1h6.1c0.6,0,1.1-0.5,1.1-1.1v-2.1H554.7z"/>
						<path class="st24" d="M555.8,320.4c-0.2,0-0.4-0.2-0.4-0.4v-1.4h6.8v1.4c0,0.2-0.2,0.4-0.4,0.4H555.8z"/>
					</g>
				</g>
			</g>
		</g>
		<g>
			<path class="st25" d="M406.9,242.8c-0.6,0-1.2-0.5-1.3-1.1l-7.2-46c-0.1-0.5,0.1-0.8,0.3-1c0.2-0.2,0.5-0.4,1-0.4h198.6
				c0.5,0,0.8,0.2,1,0.4c0.2,0.2,0.4,0.5,0.3,1l-7.2,46c-0.1,0.6-0.6,1.1-1.3,1.1H406.9z"/>
			<g>
				<polygon class="st26" points="453.7,236.8 451,229.9 404.6,235.2 404.4,233.7 452,228.4 454.5,234.8 508,213.9 512.8,217.4 
					518.3,214 526.1,231.1 553.2,198.4 595.2,223.2 595,224.8 553.2,200.7 525.7,233.9 517.6,216.1 512.8,219.3 507.7,215.6 				"/>
			</g>
		</g>
	</g>
	<g>
		<g>
			<defs>
				<path id="SVGID_6_" d="M830.3,409.1h-676c-4.4,0-8-3.6-8-8v-366c0-4.4,3.6-8,8-8h676c4.4,0,8,3.6,8,8v366
					C838.3,405.5,834.7,409.1,830.3,409.1z"/>
			</defs>
			<clipPath id="SVGID_7_">
				<use xlink:href="#SVGID_6_"  style="overflow:visible;"/>
			</clipPath>
			<g class="st27">
				<g>
					
						<linearGradient id="SVGID_8_" gradientUnits="userSpaceOnUse" x1="676.557" y1="543.2244" x2="818.0039" y2="401.7775" gradientTransform="matrix(1 0 0 -1 0 656)">
						<stop  offset="3.584230e-03" style="stop-color:#0FAEA3"/>
						<stop  offset="1" style="stop-color:#0FAEA3;stop-opacity:0"/>
					</linearGradient>
					<path class="st28" d="M929.9,285.6c-41.5-41.5-137.3-137.4-137.3-137.4c-2.4-2.2-3.4-1.8-3.7-1.8h-90.8c-2.6,0-4.6,2.1-4.6,4.6
						v57.4c0,1.5,0.7,2.8,1.7,3.6c0.8,0.6,155.6,155.6,156.4,156.4c0.8,0.9,2.1,1.4,3.4,1.4h74.9L929.9,285.6L929.9,285.6z"/>
					<g>
						<path class="st29" d="M698.1,213.1c-2.6,0-4.7-2.1-4.7-4.6v-57.4c0-2.6,2.1-4.6,4.6-4.6h90.8c2.6,0,4.7,2.1,4.7,4.6v57.4
							c0,2.6-2.1,4.6-4.6,4.6H698.1z"/>
						<path class="st21" d="M698.1,212.1c-1.6,0-3-1.3-3-2.9V150c0-1.6,1.3-2.9,2.9-2.9h90.8c1.6,0,3,1.3,3,2.9v59.2
							c0,1.6-1.3,2.9-2.9,2.9L698.1,212.1L698.1,212.1z"/>
						<path class="st29" d="M788.9,147.1l-45.4,0.9l-45.4-0.9c-1.6,0-2.9,1.3-2.9,2.9v59.2c0,1.6,1.3,2.9,2.9,2.9l45.4-0.9l45.4,0.9
							c1.6,0,2.9-1.3,2.9-2.9V150C791.8,148.4,790.5,147.1,788.9,147.1z"/>
						<path class="st30" d="M743.5,211.3l-45.4,0.9c-1.6,0-2.9-1.3-2.9-2.9V150c0-1.6,1.3-2.9,2.9-2.9l45.4,0.9V211.3z"/>
						<path class="st31" d="M743.5,148l45.4-0.9c1.6,0,2.9,1.3,2.9,2.9v59.2c0,1.6-1.3,2.9-2.9,2.9l-45.4-0.9V148z"/>
						<g>
							<rect x="701.3" y="157" class="st32" width="42.1" height="0.3"/>
							<rect x="701.3" y="163.4" class="st32" width="42.1" height="0.3"/>
							<rect x="701.3" y="169.8" class="st32" width="42.1" height="0.3"/>
							<rect x="701.3" y="176.3" class="st32" width="42.1" height="0.3"/>
							<rect x="701.3" y="182.7" class="st32" width="42.1" height="0.3"/>
							<rect x="701.3" y="189.1" class="st32" width="42.1" height="0.3"/>
							<rect x="701.3" y="195.5" class="st32" width="42.1" height="0.3"/>
							<rect x="701.3" y="201.9" class="st32" width="42.1" height="0.3"/>
						</g>
						<g>
							<rect x="743.5" y="157" class="st22" width="42.1" height="0.3"/>
							<rect x="743.5" y="163.4" class="st22" width="42.1" height="0.3"/>
							<rect x="743.5" y="169.8" class="st22" width="42.1" height="0.3"/>
							<rect x="743.5" y="176.3" class="st22" width="42.1" height="0.3"/>
							<rect x="743.5" y="182.7" class="st22" width="42.1" height="0.3"/>
							<rect x="743.5" y="189.1" class="st22" width="42.1" height="0.3"/>
							<rect x="743.5" y="195.5" class="st22" width="42.1" height="0.3"/>
							<rect x="743.5" y="201.9" class="st22" width="42.1" height="0.3"/>
						</g>
					</g>
				</g>
				<g>
					
						<linearGradient id="SVGID_9_" gradientUnits="userSpaceOnUse" x1="599.7776" y1="431.0131" x2="677.8096" y2="352.9811" gradientTransform="matrix(1 0 0 -1 0 656)">
						<stop  offset="3.584230e-03" style="stop-color:#0FAEA3"/>
						<stop  offset="1" style="stop-color:#0FAEA3;stop-opacity:0"/>
					</linearGradient>
					<path class="st33" d="M652.3,236.8c-0.5-0.5-1.2-0.9-2-0.9h-27.5c-1.4,0-2.6,1.2-2.6,2.6v8.3h-0.3c0,0-0.1,0-0.1,0.1v2
						c0,0,0,0.1,0.1,0.1h0.3v1.8h-0.3c0,0-0.1,0-0.1,0.1v2c0,0,0,0.1,0.1,0.1h0.3v32c0,0.8,0.3,1.5,0.9,2
						c0.5,0.4,95.4,95.3,95.7,95.7c0.5,0.6,1.2,1,2,1h27.5c1.4,0,2.6-1.2,2.6-2.6v-46.4c0-0.8-0.3-1.5-0.9-2
						C747.6,332.2,652.7,237.2,652.3,236.8z"/>
					<g>
						<g>
							<g>
								<g>
									<g>
										<path class="st18" d="M650.3,287.6h-27.5c-1.4,0-2.6-1.2-2.6-2.6v-46.4c0-1.4,1.2-2.6,2.6-2.6h27.5c1.4,0,2.6,1.2,2.6,2.6
											V285C652.9,286.4,651.8,287.6,650.3,287.6z"/>
										<path class="st30" d="M622.8,287.1c-1.2,0-2.1-1-2.1-2.1v-46.4c0-1.2,1-2.1,2.1-2.1h27.5c1.2,0,2.1,1,2.1,2.1V285
											c0,1.2-1,2.1-2.1,2.1H622.8z"/>
									</g>
									<path class="st22" d="M620.2,246.8h-0.3c0,0-0.1,0-0.1,0.1v2c0,0,0,0.1,0.1,0.1h0.3V246.8z"/>
									<path class="st22" d="M620.2,250.8h-0.3c0,0-0.1,0-0.1,0.1v2c0,0,0,0.1,0.1,0.1h0.3V250.8z"/>
								</g>
								<g>
									<path class="st21" d="M638.2,238.7h-3.4c-0.2,0-0.4-0.2-0.4-0.4v-0.1c0-0.2,0.2-0.4,0.4-0.4h3.4c0.2,0,0.4,0.2,0.4,0.4v0.1
										C638.7,238.5,638.5,238.7,638.2,238.7z"/>
									<path class="st21" d="M633.3,238.3c0-0.2-0.2-0.4-0.4-0.4s-0.4,0.2-0.4,0.4s0.2,0.4,0.4,0.4S633.3,238.5,633.3,238.3z"/>
								</g>
							</g>
							<g>
								<g>
									<circle class="st18" cx="636.6" cy="284.2" r="2.1"/>
									<path class="st30" d="M636.6,285.8c-0.9,0-1.6-0.7-1.6-1.6s0.7-1.6,1.6-1.6c0.9,0,1.6,0.7,1.6,1.6
										C638.2,285.1,637.4,285.8,636.6,285.8z"/>
								</g>
								<path class="st34" d="M637.1,283.4h-1c-0.1,0-0.3,0.1-0.3,0.3v1c0,0.1,0.1,0.3,0.3,0.3h1c0.1,0,0.3-0.1,0.3-0.3v-1
									C637.3,283.5,637.2,283.4,637.1,283.4z"/>
							</g>
						</g>
						<path class="st20" d="M650.9,281.1h-28.8c-0.4,0-0.6-0.3-0.6-0.6v-35.4c0-0.4,0.3-0.6,0.6-0.6h28.8c0.4,0,0.6,0.3,0.6,0.6
							v35.4C651.6,280.9,651.3,281.1,650.9,281.1z"/>
					</g>
				</g>
				<g>
					
						<linearGradient id="SVGID_10_" gradientUnits="userSpaceOnUse" x1="124.8714" y1="555.1286" x2="358.7101" y2="321.2899" gradientTransform="matrix(1 0 0 -1 0 656)">
						<stop  offset="3.584230e-03" style="stop-color:#0FAEA3"/>
						<stop  offset="1" style="stop-color:#0FAEA3;stop-opacity:0"/>
					</linearGradient>
					<path class="st35" d="M576.8,490.5C575,488.7,298.3,212,296.6,210.3c-10.6-10.6-25.1-14.6-38.8-12.2
						c-0.4-0.4-40.9-41-42.7-42.8c-9.9-9.9-25.9-9.9-35.8,0c-9.9,9.9-9.9,25.9,0,35.8c1.8,1.8,42.4,42.3,42.8,42.7
						c-2.4,13.7,1.7,28.2,12.2,38.8c1.8,1.8,278.5,278.5,280.2,280.2c17.2,17.2,45.1,17.2,62.3,0C594,535.6,594,507.7,576.8,490.5z"
						/>
					<g>
						<g>
							<circle class="st32" cx="197.2" cy="173.1" r="25.3"/>
							<circle class="st22" cx="197.2" cy="173.1" r="24.6"/>
							<circle class="st18" cx="197.2" cy="173.1" r="18.5"/>
							<circle class="st30" cx="197.2" cy="173.1" r="16.2"/>
							<path class="st18" d="M203.3,179.3c3.4-3.4,3.4-8.9,0-12.4c-3.4-3.4-8.9-3.4-12.4,0c-3.4,3.4-3.4,8.9,0,12.4
								C194.4,182.7,199.9,182.7,203.3,179.3z"/>
							<path class="st30" d="M202.1,178.1c2.7-2.7,2.7-7.1,0-9.8s-7.1-2.7-9.8,0s-2.7,7.1,0,9.8C195,180.8,199.4,180.8,202.1,178.1z
								"/>
						</g>
						<g>
							<circle class="st32" cx="265.4" cy="241.4" r="44"/>
							<circle class="st22" cx="265.4" cy="241.4" r="42.1"/>
							<circle class="st18" cx="265.4" cy="241.4" r="34.5"/>
							
								<ellipse transform="matrix(0.1602 -0.9871 0.9871 0.1602 -15.3953 464.705)" class="st30" cx="265.4" cy="241.4" rx="27.7" ry="27.7"/>
							<circle class="st31" cx="265.4" cy="241.4" r="21.1"/>
						</g>
						<g>
							<g>
								<path class="st29" d="M215.4,195.4l-27.1-27.1c-1.1-1.1-1.1-2.9,0-4l0,0c1.1-1.1,2.9-1.1,4,0l27.1,27.1L215.4,195.4z"/>
								
									<rect x="189" y="167.6" transform="matrix(0.7071 -0.7071 0.7071 0.7071 -62.4781 184.8207)" class="st21" width="5.7" height="0.5"/>
								
									<rect x="190.8" y="169.3" transform="matrix(0.7071 -0.7071 0.7071 0.7071 -63.1982 186.6048)" class="st21" width="5.7" height="0.5"/>
								
									<rect x="192.5" y="171" transform="matrix(0.7072 -0.707 0.707 0.7072 -63.8908 188.2823)" class="st21" width="5.7" height="0.5"/>
								
									<rect x="194.2" y="172.8" transform="matrix(0.7071 -0.7071 0.7071 0.7071 -64.6505 190.0022)" class="st21" width="5.7" height="0.5"/>
								
									<rect x="195.9" y="174.5" transform="matrix(0.7071 -0.7071 0.7071 0.7071 -65.3413 191.7155)" class="st21" width="5.7" height="0.5"/>
								
									<rect x="197.7" y="176.2" transform="matrix(0.707 -0.7072 0.7072 0.707 -66.0596 193.5364)" class="st21" width="5.7" height="0.5"/>
								
									<rect x="199.4" y="177.9" transform="matrix(0.7071 -0.7071 0.7071 0.7071 -66.752 195.213)" class="st21" width="5.7" height="0.5"/>
								
									<rect x="201.1" y="179.7" transform="matrix(0.7071 -0.7071 0.7071 0.7071 -67.5131 196.8976)" class="st21" width="5.7" height="0.5"/>
								
									<rect x="202.8" y="181.4" transform="matrix(0.7072 -0.707 0.707 0.7072 -68.2061 198.5726)" class="st21" width="5.7" height="0.5"/>
								
									<rect x="204.5" y="183.1" transform="matrix(0.7071 -0.7071 0.7071 0.7071 -68.8951 200.3238)" class="st21" width="5.7" height="0.5"/>
								
									<rect x="206.3" y="184.8" transform="matrix(0.7071 -0.7071 0.7071 0.7071 -69.6152 202.1078)" class="st21" width="5.7" height="0.5"/>
								
									<rect x="208" y="186.6" transform="matrix(0.707 -0.7072 0.7072 0.707 -70.375 203.8307)" class="st21" width="5.7" height="0.5"/>
								
									<rect x="209.7" y="188.3" transform="matrix(0.7071 -0.7071 0.7071 0.7071 -71.0679 205.5046)" class="st21" width="5.7" height="0.5"/>
								
									<rect x="211.4" y="190" transform="matrix(0.7071 -0.7071 0.7071 0.7071 -71.7582 207.2186)" class="st21" width="5.7" height="0.5"/>
								
									<rect x="213.2" y="191.7" transform="matrix(0.7072 -0.707 0.707 0.7072 -72.4801 208.9629)" class="st21" width="5.7" height="0.5"/>
								<g>
									<path class="st21" d="M192.3,164.3c-0.1-0.1-0.2-0.2-0.4-0.3l-4,4c0.1,0.1,0.2,0.3,0.3,0.4l0,0L192.3,164.3L192.3,164.3z"
										/>
								</g>
							</g>
							<g>
								<path class="st21" d="M220.9,205.6l-5.5-5.5c-1.3-1.3-1.3-3.5,0-4.8l3.9-3.9c1.3-1.3,3.5-1.3,4.8,0l5.5,5.5L220.9,205.6z"/>
								<path class="st18" d="M225.7,220.1l-4.4-4.4c-2.9-2.9-2.9-7.6,0-10.4l8-8c2.9-2.9,7.6-2.9,10.4,0l4.4,4.4L225.7,220.1z"/>
								<path class="st36" d="M225.8,220.8L225.8,220.8c-0.2-0.2-0.2-0.6,0-0.8l18.5-18.5c0.2-0.2,0.6-0.2,0.8,0l0,0
									c0.2,0.2,0.2,0.6,0,0.8l-18.5,18.5C226.4,221,226,221,225.8,220.8z"/>
							</g>
						</g>
						<g>
							<path class="st30" d="M219.4,182.2c1-1,1-2.7,0-3.8c-1-1-2.7-1-3.8,0c-1,1-1,2.7,0,3.8C216.7,183.3,218.4,183.3,219.4,182.2z
								"/>
							<circle class="st31" cx="217.5" cy="180.3" r="2.4"/>
							<circle class="st18" cx="217.5" cy="180.3" r="1"/>
							<circle class="st31" cx="217.5" cy="180.3" r="0.7"/>
						</g>
					</g>
				</g>
				<g>
					
						<linearGradient id="SVGID_11_" gradientUnits="userSpaceOnUse" x1="183.1807" y1="383.3177" x2="339.4258" y2="227.0726" gradientTransform="matrix(1 0 0 -1 0 656)">
						<stop  offset="3.584230e-03" style="stop-color:#0FAEA3"/>
						<stop  offset="1" style="stop-color:#0FAEA3;stop-opacity:0"/>
					</linearGradient>
					<path class="st37" d="M220.9,323.4v3.5h-0.6c-0.1,0-0.1,0.1-0.1,0.1v4c0,0.1,0.1,0.1,0.1,0.1h0.6v62.7c0,1.5,0.7,2.9,1.8,3.9
						c0.9,0.8,186.9,186.7,187.6,187.6c0.9,1.1,2.4,1.9,4,1.9h65.6c2.8,0,5.1-2.3,5.1-5.1v-91c0-1.5-0.7-2.9-1.7-3.8
						c-0.9-0.8-186.9-186.8-187.8-187.8c-0.9-1.1-2.3-1.7-3.8-1.7h-65.6c-2.8,0-5.1,2.3-5.1,5.1v16.3h-0.6c-0.1,0-0.1,0.1-0.1,0.1v4
						"/>
					<g>
						<g>
							<g>
								<g>
									<g>
										<path class="st21" d="M291.7,398.9h-65.6c-2.8,0-5.1-2.3-5.1-5.1v-91c0-2.8,2.3-5.1,5.1-5.1h65.6c2.8,0,5.1,2.3,5.1,5.1
											v91C296.8,396.6,294.5,398.9,291.7,398.9z"/>
										<path class="st29" d="M226.1,398c-2.3,0-4.2-1.9-4.2-4.2v-91c0-2.3,1.9-4.2,4.2-4.2h65.6c2.3,0,4.2,1.9,4.2,4.2v91
											c0,2.3-1.9,4.2-4.2,4.2H226.1z"/>
									</g>
								</g>
							</g>
							<path class="st21" d="M259.8,302.2c0-0.5-0.4-0.9-0.9-0.9s-0.9,0.4-0.9,0.9s0.4,0.9,0.9,0.9S259.8,302.7,259.8,302.2z"/>
						</g>
						<g>
							<g>
								<path class="st21" d="M263.1,392.4c0-2.3-1.9-4.2-4.2-4.2c-2.3,0-4.2,1.9-4.2,4.2c0,2.3,1.9,4.2,4.2,4.2
									C261.2,396.7,263.1,394.8,263.1,392.4z"/>
								<path class="st29" d="M258.9,395.7c-1.8,0-3.3-1.5-3.3-3.3s1.5-3.3,3.3-3.3c1.8,0,3.3,1.5,3.3,3.3
									C262.2,394.3,260.7,395.7,258.9,395.7z"/>
							</g>
							<path class="st38" d="M259.9,390.9h-2.1c-0.3,0-0.5,0.2-0.5,0.5v2.1c0,0.3,0.2,0.5,0.5,0.5h2.1c0.3,0,0.5-0.2,0.5-0.5v-2.1
								C260.5,391.1,260.2,390.9,259.9,390.9z"/>
						</g>
						<path class="st39" d="M292.9,386.4h-68.1c-0.7,0-1.2-0.6-1.2-1.2v-77.8c0-0.7,0.6-1.2,1.2-1.2h68.1c0.7,0,1.2,0.6,1.2,1.2
							v77.8C294.2,385.8,293.6,386.4,292.9,386.4z"/>
						<g>
							<g>
								<polygon class="st40" points="270.9,329.7 271.2,328.3 273.3,330.3 270.6,331.1 								"/>
								<polygon class="st41" points="259.5,339 262.4,338.6 261.3,341.2 								"/>
								<polygon class="st42" points="261.3,315 263.4,313 264,315.9 								"/>
								<polygon class="st43" points="244.9,328.4 247.2,326.7 247.5,329.6 								"/>
								<path class="st42" d="M268.1,320.4c-2-2.7-5.2-4.5-8.9-4.5c-1.3,0-2.6,0.2-3.8,0.7l3.8,10.3L268.1,320.4z"/>
								<path class="st43" d="M255.4,316.6c-4.2,1.6-7.2,5.6-7.2,10.3c0,5.6,4.1,10.2,9.5,10.9l1.5-10.9L255.4,316.6z"/>
								<path class="st44" d="M270.3,326.9c0-2.5-0.8-4.7-2.2-6.5l-8.9,6.5l4.2,10.2C267.5,335.4,270.3,331.5,270.3,326.9"/>
								<path class="st41" d="M259.3,326.9l-1.5,10.9c0.5,0.1,1,0.1,1.5,0.1c1.5,0,2.9-0.3,4.2-0.8L259.3,326.9z"/>
							</g>
							<g>
								<g>
									<g>
										<path class="st45" d="M253.2,378.2v-19.1c0-1.2-1-2.2-2.2-2.2l0,0c-1.2,0-2.2,1-2.2,2.2v19.1H253.2z"/>
									</g>
									<g>
										<path class="st20" d="M250.9,356.9c-1.2,0-2.2,1-2.2,2.2v19.1h2.2V356.9z"/>
									</g>
								</g>
								<g>
									<g>
										<path class="st46" d="M259,378.2V364c0-1.2-1-2.2-2.2-2.2l0,0c-1.2,0-2.2,1-2.2,2.2v14.1h4.4V378.2z"/>
									</g>
									<g>
										<path class="st47" d="M256.8,361.9c-1.2,0-2.2,1-2.2,2.2v14.1h2.2V361.9z"/>
									</g>
								</g>
								<g>
									<g>
										<path class="st48" d="M264.9,378.2V369c0-1.2-1-2.2-2.2-2.2l0,0c-1.2,0-2.2,1-2.2,2.2v9.1h4.4V378.2z"/>
									</g>
									<g>
										<path class="st49" d="M262.6,366.9c-1.2,0-2.1,1-2.1,2.2v9.1h2.1V366.9z"/>
									</g>
								</g>
								<g>
									<g>
										<path class="st42" d="M270.8,378.2v-5c0-1.2-1-2.2-2.2-2.2l0,0c-1.2,0-2.2,1-2.2,2.2v5H270.8z"/>
									</g>
									<g>
										<path class="st50" d="M268.6,371L268.6,371L268.6,371c-1.2,0-2.2,1-2.2,2.2v5h2.2V371z"/>
									</g>
								</g>
								<g>
									<g>
										<g>
											<rect x="244.9" y="377.6" class="st30" width="1.8" height="0.4"/>
										</g>
										<g>
											<rect x="244.9" y="375.3" class="st30" width="1.8" height="0.4"/>
										</g>
										<g>
											<rect x="244.9" y="373" class="st30" width="1.8" height="0.4"/>
										</g>
										<g>
											<rect x="244.9" y="370.7" class="st30" width="1.8" height="0.4"/>
										</g>
										<g>
											<rect x="244.9" y="368.5" class="st30" width="1.8" height="0.4"/>
										</g>
										<g>
											<rect x="244.9" y="366.2" class="st30" width="1.8" height="0.4"/>
										</g>
										<g>
											<rect x="244.9" y="363.9" class="st30" width="1.8" height="0.4"/>
										</g>
										<g>
											<rect x="244.9" y="361.6" class="st30" width="1.8" height="0.4"/>
										</g>
										<g>
											<rect x="244.9" y="359.3" class="st30" width="1.8" height="0.4"/>
										</g>
										<g>
											<rect x="244.9" y="357" class="st30" width="1.8" height="0.4"/>
										</g>
										<g>
											<rect x="244.9" y="354.7" class="st30" width="1.8" height="0.4"/>
										</g>
									</g>
								</g>
								<g>
									<path class="st30" d="M273.2,378.4h-25.5c-0.1,0-0.1-0.1-0.1-0.1v-23.8c0-0.1,0.1-0.1,0.1-0.1c0.1,0,0.1,0.1,0.1,0.1v23.7
										h25.4c0.1,0,0.1,0.1,0.1,0.1C273.4,378.3,273.3,378.4,273.2,378.4z"/>
								</g>
							</g>
						</g>
					</g>
				</g>
				<g>
					
						<linearGradient id="SVGID_12_" gradientUnits="userSpaceOnUse" x1="665.2457" y1="433.3356" x2="819.8671" y2="278.7142" gradientTransform="matrix(1 0 0 -1 0 656)">
						<stop  offset="3.584230e-03" style="stop-color:#0FAEA3"/>
						<stop  offset="1" style="stop-color:#0FAEA3;stop-opacity:0"/>
					</linearGradient>
					<path class="st51" d="M919.9,400c-56.5-56.5-151.7-151.7-152.2-152.3c-0.8-1-2.1-1.7-3.5-1.7h-57.4c-2.5,0-4.6,2-4.6,4.6v84.6
						c0,1.5,0.7,2.8,1.9,3.7c0.7,0.5,192.3,192.3,193,193c0.8,0.9,2,1.5,3.4,1.5H920V400H919.9z"/>
					<g>
						<g>
							<path class="st52" d="M706.7,339.7c-2.5,0-4.5-2-4.5-4.5v-84.6c0-2.5,2-4.6,4.6-4.6h57.4c2.5,0,4.6,2,4.6,4.6v84.6
								c0,2.5-2,4.5-4.5,4.5H706.7z"/>
							<path class="st36" d="M764.2,247h-57.4c-2,0-3.6,1.6-3.6,3.6v23.9v60.7c0,1.9,1.6,3.5,3.5,3.5h57.6c1.9,0,3.5-1.6,3.5-3.5
								v-60.7v-23.9C767.7,248.6,766.2,247,764.2,247z"/>
							<path class="st36" d="M764.3,338.7h-57.6c-1.9,0-3.5-1.6-3.5-3.5v-60.7h64.6v60.7C767.7,337.1,766.2,338.7,764.3,338.7z"/>
						</g>
						<g>
							<path class="st32" d="M767.7,274.5h-64.6v-23.9c0-2,1.6-3.6,3.6-3.6h57.4c2,0,3.6,1.6,3.6,3.6V274.5z"/>
							<path class="st36" d="M707,253.4V268c0,1.2,1,2.3,2.3,2.3h52.5c1.2,0,2.3-1,2.3-2.3v-14.6c0-1.2-1-2.3-2.3-2.3h-52.5
								C708,251.2,707,252.2,707,253.4z"/>
						</g>
						<g>
							<path class="st19" d="M718.9,290h-10.5c-0.6,0-1.1-0.5-1.1-1.1v-10.5c0-0.6,0.5-1.1,1.1-1.1h10.5c0.6,0,1.1,0.5,1.1,1.1v10.5
								C720.1,289.5,719.5,290,718.9,290z"/>
							<path class="st24" d="M708.4,289c-0.1,0-0.1-0.1-0.1-0.1v-10.5c0-0.1,0.1-0.1,0.1-0.1h10.5c0.1,0,0.1,0.1,0.1,0.1v10.5
								c0,0.1-0.1,0.1-0.1,0.1H708.4z"/>
							<path class="st19" d="M733.7,290h-10.5c-0.6,0-1.1-0.5-1.1-1.1v-10.5c0-0.6,0.5-1.1,1.1-1.1h10.5c0.6,0,1.1,0.5,1.1,1.1v10.5
								C734.8,289.5,734.3,290,733.7,290z"/>
							<path class="st24" d="M723.2,289c-0.1,0-0.1-0.1-0.1-0.1v-10.5c0-0.1,0.1-0.1,0.1-0.1h10.5c0.1,0,0.1,0.1,0.1,0.1v10.5
								c0,0.1-0.1,0.1-0.1,0.1H723.2z"/>
							<path class="st19" d="M748.4,290h-10.5c-0.6,0-1.1-0.5-1.1-1.1v-10.5c0-0.6,0.5-1.1,1.1-1.1h10.5c0.6,0,1.1,0.5,1.1,1.1v10.5
								C749.6,289.5,749,290,748.4,290z"/>
							<path class="st24" d="M737.9,289c-0.1,0-0.1-0.1-0.1-0.1v-10.5c0-0.1,0.1-0.1,0.1-0.1h10.5c0.1,0,0.1,0.1,0.1,0.1v10.5
								c0,0.1-0.1,0.1-0.1,0.1H737.9z"/>
							<path class="st19" d="M763.2,290h-10.5c-0.6,0-1.1-0.5-1.1-1.1v-10.5c0-0.6,0.5-1.1,1.1-1.1h10.5c0.6,0,1.1,0.5,1.1,1.1v10.5
								C764.3,289.5,763.8,290,763.2,290z"/>
							<path class="st24" d="M752.7,289c-0.1,0-0.1-0.1-0.1-0.1v-10.5c0-0.1,0.1-0.1,0.1-0.1h10.5c0.1,0,0.1,0.1,0.1,0.1v10.5
								c0,0.1-0.1,0.1-0.1,0.1H752.7z"/>
							<path class="st19" d="M718.9,304.8h-10.5c-0.6,0-1.1-0.5-1.1-1.1v-10.5c0-0.6,0.5-1.1,1.1-1.1h10.5c0.6,0,1.1,0.5,1.1,1.1
								v10.5C720.1,304.3,719.5,304.8,718.9,304.8z"/>
							<path class="st24" d="M708.4,303.8c-0.1,0-0.1-0.1-0.1-0.1v-10.5c0-0.1,0.1-0.1,0.1-0.1h10.5c0.1,0,0.1,0.1,0.1,0.1v10.5
								c0,0.1-0.1,0.1-0.1,0.1H708.4z"/>
							<path class="st19" d="M733.7,304.8h-10.5c-0.6,0-1.1-0.5-1.1-1.1v-10.5c0-0.6,0.5-1.1,1.1-1.1h10.5c0.6,0,1.1,0.5,1.1,1.1
								v10.5C734.8,304.3,734.3,304.8,733.7,304.8z"/>
							<path class="st24" d="M723.2,303.8c-0.1,0-0.1-0.1-0.1-0.1v-10.5c0-0.1,0.1-0.1,0.1-0.1h10.5c0.1,0,0.1,0.1,0.1,0.1v10.5
								c0,0.1-0.1,0.1-0.1,0.1H723.2z"/>
							<path class="st19" d="M748.4,304.8h-10.5c-0.6,0-1.1-0.5-1.1-1.1v-10.5c0-0.6,0.5-1.1,1.1-1.1h10.5c0.6,0,1.1,0.5,1.1,1.1
								v10.5C749.6,304.3,749,304.8,748.4,304.8z"/>
							<path class="st24" d="M737.9,303.8c-0.1,0-0.1-0.1-0.1-0.1v-10.5c0-0.1,0.1-0.1,0.1-0.1h10.5c0.1,0,0.1,0.1,0.1,0.1v10.5
								c0,0.1-0.1,0.1-0.1,0.1H737.9z"/>
							<path class="st19" d="M763.2,304.8h-10.5c-0.6,0-1.1-0.5-1.1-1.1v-10.5c0-0.6,0.5-1.1,1.1-1.1h10.5c0.6,0,1.1,0.5,1.1,1.1
								v10.5C764.3,304.3,763.8,304.8,763.2,304.8z"/>
							<path class="st24" d="M752.7,303.8c-0.1,0-0.1-0.1-0.1-0.1v-10.5c0-0.1,0.1-0.1,0.1-0.1h10.5c0.1,0,0.1,0.1,0.1,0.1v10.5
								c0,0.1-0.1,0.1-0.1,0.1H752.7z"/>
							<path class="st19" d="M718.9,319.5h-10.5c-0.6,0-1.1-0.5-1.1-1.1v-10.5c0-0.6,0.5-1.1,1.1-1.1h10.5c0.6,0,1.1,0.5,1.1,1.1
								v10.5C720.1,319,719.5,319.5,718.9,319.5z"/>
							<path class="st24" d="M708.4,318.5c-0.1,0-0.1-0.1-0.1-0.1v-10.5c0-0.1,0.1-0.1,0.1-0.1h10.5c0.1,0,0.1,0.1,0.1,0.1v10.5
								c0,0.1-0.1,0.1-0.1,0.1H708.4z"/>
							<path class="st19" d="M733.7,319.5h-10.5c-0.6,0-1.1-0.5-1.1-1.1v-10.5c0-0.6,0.5-1.1,1.1-1.1h10.5c0.6,0,1.1,0.5,1.1,1.1
								v10.5C734.8,319,734.3,319.5,733.7,319.5z"/>
							<path class="st24" d="M723.2,318.5c-0.1,0-0.1-0.1-0.1-0.1v-10.5c0-0.1,0.1-0.1,0.1-0.1h10.5c0.1,0,0.1,0.1,0.1,0.1v10.5
								c0,0.1-0.1,0.1-0.1,0.1H723.2z"/>
							<path class="st19" d="M748.4,319.5h-10.5c-0.6,0-1.1-0.5-1.1-1.1v-10.5c0-0.6,0.5-1.1,1.1-1.1h10.5c0.6,0,1.1,0.5,1.1,1.1
								v10.5C749.6,319,749,319.5,748.4,319.5z"/>
							<path class="st24" d="M737.9,318.5c-0.1,0-0.1-0.1-0.1-0.1v-10.5c0-0.1,0.1-0.1,0.1-0.1h10.5c0.1,0,0.1,0.1,0.1,0.1v10.5
								c0,0.1-0.1,0.1-0.1,0.1H737.9z"/>
							<path class="st19" d="M763.2,319.5h-10.5c-0.6,0-1.1-0.5-1.1-1.1v-10.5c0-0.6,0.5-1.1,1.1-1.1h10.5c0.6,0,1.1,0.5,1.1,1.1
								v10.5C764.3,319,763.8,319.5,763.2,319.5z"/>
							<path class="st24" d="M752.7,318.5c-0.1,0-0.1-0.1-0.1-0.1v-10.5c0-0.1,0.1-0.1,0.1-0.1h10.5c0.1,0,0.1,0.1,0.1,0.1v10.5
								c0,0.1-0.1,0.1-0.1,0.1H752.7z"/>
							<path class="st19" d="M728.4,321.5H722h-13.6c-0.6,0-1.1,0.5-1.1,1.1v10.5c0,0.6,0.5,1.1,1.1,1.1H722h6.4h5.3
								c0.6,0,1.1-0.5,1.1-1.1v-10.5c0-0.6-0.5-1.1-1.1-1.1H728.4z"/>
							<path class="st24" d="M708.4,333.3c-0.1,0-0.1-0.1-0.1-0.1v-10.5c0-0.1,0.1-0.1,0.1-0.1h25.3c0.1,0,0.1,0.1,0.1,0.1v10.5
								c0,0.1-0.1,0.1-0.1,0.1H708.4z"/>
							<path class="st19" d="M748.4,334.3h-10.5c-0.6,0-1.1-0.5-1.1-1.1v-10.5c0-0.6,0.5-1.1,1.1-1.1h10.5c0.6,0,1.1,0.5,1.1,1.1
								v10.5C749.6,333.8,749,334.3,748.4,334.3z"/>
							<path class="st24" d="M737.9,333.3c-0.1,0-0.1-0.1-0.1-0.1v-10.5c0-0.1,0.1-0.1,0.1-0.1h10.5c0.1,0,0.1,0.1,0.1,0.1v10.5
								c0,0.1-0.1,0.1-0.1,0.1H737.9z"/>
							<path class="st19" d="M763.2,334.3h-10.5c-0.6,0-1.1-0.5-1.1-1.1v-10.5c0-0.6,0.5-1.1,1.1-1.1h10.5c0.6,0,1.1,0.5,1.1,1.1
								v10.5C764.3,333.8,763.8,334.3,763.2,334.3z"/>
							<path class="st24" d="M752.7,333.3c-0.1,0-0.1-0.1-0.1-0.1v-10.5c0-0.1,0.1-0.1,0.1-0.1h10.5c0.1,0,0.1,0.1,0.1,0.1v10.5
								c0,0.1-0.1,0.1-0.1,0.1H752.7z"/>
						</g>
					</g>
				</g>
			</g>
		</g>
	</g>
	<g>
		<path class="st32" d="M600.6,375.8h-7.1c-7,0-12.6-5.7-12.6-12.6v-19.4c0-7,5.7-12.6,12.6-12.6h7.1c7,0,12.6,5.7,12.6,12.6v19.4
			C613.3,370.1,607.6,375.8,600.6,375.8z"/>
		<g>
			<g>
				<path class="st10" d="M625.6,447.6c-2.1-25.1-3.7-60.9-3.7-64.8c0-4.1-9.8-1.4-16.8-1c-7.8,0.4-15.8-0.5-15.8-0.5
					s-1,28.9-1.6,48.5c-0.2,5.6-1,11.8-2,18L625.6,447.6L625.6,447.6z"/>
				<path class="st10" d="M350.7,447.6h56.1c-3.9-4.1-8.3-8.1-9.9-11.8c-5.2-12.4,3.1-29.9-1.6-63.2c-1.8-12.9-1-43.4-2.1-44.1
					c-1-0.7-32.8-2.1-34.4-0.2c-1.6,1.9-1.7,17.2-3.3,24.3c-1.6,7.1-9.5,49.8-7.3,78.6C348.7,436.8,349.5,442.2,350.7,447.6z"/>
				<g>
					<g>
						<path class="st15" d="M605.2,381.7c3.8-0.2,8.6-1.1,12-1.2c-0.2-0.9-0.4-1.8-0.4-2.5c0.2-1.6,5.2-4.9,5.4-10
							c0.2-5,1.6-11.5,2.5-13.9c0.8-2.5-2.2-8.6-4.1-12.2c-2-3.6-6.1-3.3-6.1-3.3c-1.4-3-5.5-2.7-5.5-2.7s-0.1-1.9-0.8-3.4
							c-1.4-2.7-5.6-1.6-5.6-1.6s-0.1-2.5-0.8-3.7c-1.2-2-5.2-2.3-6.8-1.2c-1.6,1-2.4,7.4-2.7,9.7c-0.4,2.4-2.8,12.3-2.8,12.3
							s-1.6-4.7-1.9-6.5c-0.3-1.8,1.6-7.2,0.8-10.7c-0.7-3.6-5-7.1-5.2-3.6c-0.1,3.5-2.7,9.6-3.3,12.3c-0.5,2.6,1.8,12.5,3.3,18.2
							c1.5,5.8,5.9,14.6,7.4,18.5c1.2,2.9,1.3,4.6,1.3,5.1C594.8,381.6,600.1,381.9,605.2,381.7z"/>
					</g>
					<g>
						<path class="st12" d="M614,347.9c-3.3,0.5-4.2-1.9-6.8-2.3c-1.9-0.3-4.5,0.7-5.3,0.6c-4-0.5-4.7-3.3-8.3-2.4
							c-2.7,0.6-4.1,4.2-4.1,4.2s-4.9,14-3.2,18.1c1.6,3.9,3.5,7.7,4.3,10c1.2,2.9,1.3,4.6,1.3,5.1c2.9,0.3,8.2,0.5,13.3,0.3
							c3.8-0.2,8.6-1.1,12-1.2c-0.2-0.9-0.4-1.8-0.4-2.5c0.2-1.6,5.2-4.9,5.4-10s1.6-11.5,2.5-13.9c0.2-0.6,0.2-1.6-0.1-2.6
							c-1.6-3-3.7-1.6-5.7-2C616.7,349,617.3,347.3,614,347.9z"/>
					</g>
				</g>
				<g>
					<g>
						<path class="st12" d="M391.7,328.2c1.6-2.7,3.4-4.7,5.1-6c3.4-2.7,3.3-5.4,6.3-9.1c3-3.7,4.3-10.1,5.9-16.9
							c1.6-6.9,4.3-10.4,5.9-11.9c1.6-1.6,4.8-3.5,2.9-4.9c-1.8-1.5-8.7,0.3-11.8,5.1c-3.1,4.8-4.1,4.1-4.1,4.1
							c0.2-4.4,2.7-17.7,3.6-22.9c0.8-5.2,3.1-12.5-1.2-13.3c-4.4-0.8-7.3,14.9-7.3,14.9c-1.1,5.9-3.2,14.4-3.6,11.7
							c-0.3-2.4,0.5-8.1,2.1-19.5c1.6-11.5,1-13.9-2-14.1c-3.6-0.2-5.8,13.8-6.2,16c-0.5,2.1-2.1,17.2-2.8,17
							c-0.6-0.2-0.4-5.9,0.1-11.2c0.5-5.3,1.2-10.8,1.6-14.4s-3.6-4.9-4.8-3c-1.2,1.9-4.6,17.6-4.9,20.5c-0.2,2.9-2.1,13.7-3,13.1
							c-0.9-0.7,0.1-13.1,0.5-17.2c0.5-4.1-1-6.9-3.4-6.2c-2.4,0.6-3.9,10.6-3.9,14.1c0,3.5-2.8,16.9-2.6,21.4
							c0.3,4.7,0.6,19.7,1.6,22.8c0.6,2.2,0.1,6.7-0.2,8.9C373.4,327.1,387,327.6,391.7,328.2z"/>
					</g>
					<path class="st15" d="M401.7,288.5c-0.5,2.9-0.5,6.3-0.2,11.1c0.3,5.7,2.4-3.7,3.4-6c0.9-2.4,1.8-5.9,3.3-8
						c1.6-2.3,3-6.7,8.2-6.7c-2.7-0.3-8,1.6-10.5,5.6C402.7,289.2,401.7,288.5,401.7,288.5z"/>
				</g>
			</g>
		</g>
	</g>
</g>
</svg>
