<?xml version="1.0" encoding="utf-8"?>
<!-- Generator: Adobe Illustrator 22.0.0, SVG Export Plug-In . SVG Version: 6.00 Build 0)  -->
<svg version="1.0" xmlns="http://www.w3.org/2000/svg" xmlns:xlink="http://www.w3.org/1999/xlink" x="0px" y="0px"
	 viewBox="0 0 9927.8 5601.7" style="enable-background:new 0 0 9927.8 5601.7;" xml:space="preserve">
<style type="text/css">
	.st0{fill:#EDF7F9;}
	.st1{fill:#E1F0F3;}
	.st2{fill:#C3D7D6;}
	.st3{fill:#FFFFFF;}
	.st4{fill:#DFEDEC;}
	.st5{fill:#ABC6C4;}
	.st6{fill:#8EADAA;}
	.st7{display:none;}
	.st8{display:inline;fill:#DFB28B;}
	.st9{display:inline;fill:#F7C98B;}
	.st10{display:inline;fill:#F4F4F4;}
	.st11{display:inline;fill:#0E726A;}
	.st12{display:inline;fill:#0C938C;}
	.st13{display:inline;opacity:0.23;}
	.st14{display:inline;fill:#FDDF6A;}
	.st15{display:inline;fill:#7F2834;}
	.st16{display:inline;fill:#9E3641;}
	.st17{display:inline;fill:#144F79;}
	.st18{display:inline;}
	.st19{fill:#161616;}
</style>
<g id="Layer_1_1_">
	<rect y="-450" class="st0" width="9939" height="9939"/>
</g>
<g id="Layer_2_1_">
	<path class="st1" d="M9939,2650.2v950.7H0V2569.1h13.1v527.4h31.7v-522.8h48.7l64.9-111.5h44.9l0.5-52.5l97.9,0.4l0,52.1H337
		l65.9,113.6l51,0.5v549.2h24.4v-54.8h24.3V2036.2h68.2v-46.7l97.4-81.1v-69h72l0-91.4l44.5,0.2l-0.2-149.5h32.1l-0.2,149.6
		l44.2,0.2l-0.7,90.9h71v66.9l116.9,97.4v34.5h56v296.2h160.7v178.5h63.3v243.4h138.8v-533.5h44.7v-217.1h66.7v-722.2l56.7,0.7
		v-22.1h83.8l0.6-128.6l25.5,0.5l-0.3,128.1H2046v26.8l58,0.7v633l46.3,38.5h122.3v-377.3l170.4-142h282.4v109.5h68.2v411.8h82.8
		v-174.4h189.9v215h48.7v-744.4h31.8v-30h118.9v-72.9h116.2v72.9h118.9v30h35.3v860h90.1V671.1h44.4l-0.1-244.2l53.4-1l1.3,245.2
		h313.5l0.5-503.8l53.5,1l0.6,502.9h46.5v1870.3h73V1361h34.8v-42.8h47.7v42.8h47.7v-12.5h37.2v12.5h42.4v-12.5h53.1v12.5h58.4
		v-31.5h39.8v31.5h18.6v-12.5h37.1v12.5h49.8l2.1,1090.2v89.2l11.2-0.2l63.2-0.9V1249.2h167.9v-72l76.5-0.3v72.3h56.7v-11.4h56.7
		v11.4h56.7v-11.4h28.3v11.4h34.7v1215l56.4,0.4l104.8,143.5l14.2,19.4V1516.9h30.4v-46.4h29.7v22.7h19.8v23.8h168.5v-14.7h49.6
		v14.7h39.6v-106.8l19.8-0.2v107.1h148.7v-21.5h23.1v21.5h16.1v1146.5h224.2V985.8l254.6-48.6l7.7-194.8
		c-25.5-10.2-42.9-29.5-42.9-51.8c0-24,20-44.6,48.6-54l21-389.8l22.1-396.8l10.4,396.9l18.1,390.4c27.7,9.7,47,29.9,47,53.4
		c0,22.1-17.1,41.2-42.2,51.6l10.6,196.6l233.1,43v1642.7h172.9V1645l157,0l0.7-105.7l53.1,0.1l0.5-77.6l95.5-0.4v78.2l37.8,0.1
		V1645l307.7,0l-0.1,63.7h87.1v264.6h28.5l157,116.9v378h116.1v-30.7h141.9l0.7,30.7h158.9v-102h70.6v-78.5h90.1v78.5h29.2v306.3
		h80.4V2807h77.9l0.7-268.8h85.2v-73h168v115.6h50.4l-0.7,235.3l146.4,0.5V2776h17v-39.9h70.4l-0.3-48.6l130,0.1l-0.2,48.4h75.5
		v39.9h108.6v46.6h122.7v-103.5h94.9v75.1h77.9v-144H9939z"/>
	<polygon class="st2" points="9939,3175 9939,9489 0,9489 0,3393.6 1,3393.6 0.1,2915.1 109.3,2915.4 109.3,3023.1 178.9,3023.1 
		178.9,2966.3 260.4,2966.3 260.4,3044.4 335.9,3044.4 335.9,3008.9 463.2,3008.9 463.2,2942.1 616.2,2942.1 616.2,3008.9 
		632.1,3008.9 632.1,3040.1 775.2,3040.1 775.2,3023.1 832.9,3023.1 832.9,2997.5 890.5,2997.5 890.5,2910.9 1037.6,2910.9 
		1037.6,2964.9 1113.2,2964.9 1113.2,3033 1180.8,3033 1180.8,2932.2 1250.3,2932.2 1250.3,2703.6 1276.2,2703.6 1276.2,2644 
		1355.7,2644 1355.7,2703.6 1417.3,2703.6 1417.3,2778.8 1781.1,2778.8 1781.1,2506.8 1918.6,2408.3 1995.8,2408.3 1995.8,2392.7 
		2156.8,2392.7 2156.8,2408.3 2284,2408.3 2284,2389.8 2317.8,2389.8 2317.8,2408.3 2367.5,2408.3 2367.5,2581.5 2472.8,2581.5 
		2472.8,2700.8 2741.2,2700.8 2741.2,1667.1 2927.4,1666.1 2928,1096.3 3069.2,1096.3 3069.8,1670.9 3254,1670.2 3254,2830 
		3450.8,2830 3450.8,2067.5 3558.2,2067.5 3558.2,2024.9 3822.5,2024.9 3822.5,2067.5 3927.9,2067.5 3927.9,2802.8 4027.2,2732 
		4081,2732 4081,1712.5 4128.7,1712.5 4128.7,1695.5 4238,1695.5 4238,1712.5 4345.3,1712.5 4345.3,1694.1 4484.5,1694.1 
		4484.5,1714 4600.2,1714 4602,2983.2 4657.4,2983 4657.4,1434.3 4727,1434.3 4727,1404.4 4947.6,1404.4 4947.6,1435.1 
		5142.4,1434.8 5142.4,1401.6 5351.2,1401.6 5351.2,1434.3 5420.7,1434.3 5422.9,2791.6 5480.4,2791.6 5480.4,1874.4 5573.8,1874.4 
		5573.8,1861.6 5639.4,1861.6 5639.4,1787.8 5761.6,1788.1 5761.1,1861.6 5840.2,1861.6 5840.2,1874.4 5931.6,1874.4 5931.6,2511.9 
		5973.3,2511.9 5973.3,2270.5 5993.2,2270.5 5993.2,2253.7 6092.6,2254 6092.6,2268.5 6151.4,2268.7 6150.6,2662.4 6209.9,2662.4 
		6209.9,2093.1 6271.5,2093.1 6271.5,2010.7 6518.7,2010.7 6667.1,2117.6 6667.1,2479.3 6774.5,2479.3 6814.2,2450.6 6814.2,1897.5 
		6849.6,1897.2 6904.2,1819.1 6939.4,1819 7178,1818.7 7237.2,1893.3 7275.3,1892.9 7275.3,2433.8 7333,2433.8 7333,2595.7 
		7372.8,2595.7 7372.8,2994.7 7494,2994.7 7494,2812.9 7547.7,2812.9 7547.7,2679.5 7688.8,2679.5 7688.8,2458 7738.5,2458 
		7738.5,2431.7 7839.9,2358.9 7839.9,2308.9 8070.5,2308.9 8070.5,2360.4 8154,2421.1 8154,2456.5 8213.6,2456.5 8213.6,3271.5 
		8257.3,3271.5 8257.3,2900.6 8306.1,2870.2 8359.2,2774.6 8497.5,2774.6 8571.9,2858.4 8614.5,2858.4 8807.9,2858.3 8807.9,3084.1 
		8877.5,3084.1 8877.5,3203.4 8947.1,3203.4 8947.1,3116.8 9020.6,3116.8 9020.6,3062.8 9167.7,3062.8 9167.7,3149.4 9225.4,3149.4 
		9225.4,3175 9283,3175 9283,3192 9428.1,3192 9428.1,3160.8 9442,3160.8 9442,3092.6 9595.1,3092.6 9595.1,3160.8 9722.3,3160.8 
		9722.3,3196.3 9797.9,3196.3 9797.9,3118.2 9881.4,3118.2 9881.4,3175 	"/>
	<g>
		<rect x="94.5" y="3658.7" class="st3" width="85.5" height="85.5"/>
		<rect x="1001.4" y="3599.1" class="st3" width="35.8" height="35.8"/>
		<rect x="1114.7" y="3599.1" class="st3" width="35.8" height="35.8"/>
		<rect x="944.7" y="3654.1" class="st3" width="35.8" height="35.8"/>
		<rect x="1058.1" y="3654.1" class="st3" width="35.8" height="35.8"/>
		<rect x="1114.7" y="3654.1" class="st3" width="35.8" height="35.8"/>
		<rect x="944.7" y="3709.1" class="st3" width="35.8" height="35.8"/>
		<rect x="1001.4" y="3709.1" class="st3" width="35.8" height="35.8"/>
		<rect x="944.7" y="3764.1" class="st3" width="35.8" height="35.8"/>
		<rect x="1114.7" y="3764.1" class="st3" width="35.8" height="35.8"/>
		<rect x="1058.1" y="3819.1" class="st3" width="35.8" height="35.8"/>
		<rect x="1114.7" y="3819.1" class="st3" width="35.8" height="35.8"/>
		<rect x="944.7" y="3874.1" class="st3" width="35.8" height="35.8"/>
		<rect x="1001.4" y="3874.1" class="st3" width="35.8" height="35.8"/>
		<rect x="1058.1" y="3874.1" class="st3" width="35.8" height="35.8"/>
		<rect x="1001.4" y="3929.1" class="st3" width="35.8" height="35.8"/>
		<rect x="1114.7" y="3929.1" class="st3" width="35.8" height="35.8"/>
		<rect x="944.7" y="3984.1" class="st3" width="35.8" height="35.8"/>
		<rect x="1001.4" y="3984.1" class="st3" width="35.8" height="35.8"/>
		<rect x="1058.1" y="3984.1" class="st3" width="35.8" height="35.8"/>
		<rect x="944.7" y="4039.1" class="st3" width="35.8" height="35.8"/>
		<rect x="1001.4" y="4094" class="st3" width="35.8" height="35.8"/>
		<rect x="1058.1" y="4094" class="st3" width="35.8" height="35.8"/>
		<rect x="9077.3" y="3920.8" class="st3" width="35.8" height="35.8"/>
		<rect x="9190.6" y="3920.8" class="st3" width="35.8" height="35.8"/>
		<rect x="9020.7" y="3975.8" class="st3" width="35.8" height="35.8"/>
		<rect x="9134" y="3975.8" class="st3" width="35.8" height="35.8"/>
		<rect x="9190.6" y="3975.8" class="st3" width="35.8" height="35.8"/>
		<rect x="9020.7" y="4030.8" class="st3" width="35.8" height="35.8"/>
		<rect x="9077.3" y="4030.8" class="st3" width="35.8" height="35.8"/>
		<rect x="9020.7" y="4085.8" class="st3" width="35.8" height="35.8"/>
		<rect x="9190.6" y="4085.8" class="st3" width="35.8" height="35.8"/>
		<rect x="9134" y="4140.8" class="st3" width="35.8" height="35.8"/>
		<rect x="9190.6" y="4140.8" class="st3" width="35.8" height="35.8"/>
		<rect x="9020.7" y="4195.8" class="st3" width="35.8" height="35.8"/>
		<rect x="9077.3" y="4195.8" class="st3" width="35.8" height="35.8"/>
		<rect x="9134" y="4195.8" class="st3" width="35.8" height="35.8"/>
		<rect x="9077.3" y="4250.8" class="st3" width="35.8" height="35.8"/>
		<rect x="9190.6" y="4250.8" class="st3" width="35.8" height="35.8"/>
		<rect x="9020.7" y="4305.8" class="st3" width="35.8" height="35.8"/>
		<rect x="9077.3" y="4305.8" class="st3" width="35.8" height="35.8"/>
		<rect x="9134" y="4305.8" class="st3" width="35.8" height="35.8"/>
		<rect x="9009.8" y="3875.7" class="st3" width="35.8" height="35.8"/>
		<rect x="9077.3" y="3814.4" class="st3" width="35.8" height="35.8"/>
		<rect x="9134" y="3814.4" class="st3" width="35.8" height="35.8"/>
		
			<rect x="3740.8" y="2469.2" transform="matrix(-1 -1.224647e-16 1.224647e-16 -1 7546.8359 5003.5591)" class="st3" width="65.2" height="65.2"/>
		
			<rect x="3534.5" y="2469.2" transform="matrix(-1 -1.224647e-16 1.224647e-16 -1 7134.1226 5003.5591)" class="st3" width="65.2" height="65.2"/>
		
			<rect x="3844" y="2569.4" transform="matrix(-1 -1.224647e-16 1.224647e-16 -1 7753.1929 5203.8818)" class="st3" width="65.2" height="65.2"/>
		
			<rect x="3637.7" y="2569.4" transform="matrix(-1 -1.224647e-16 1.224647e-16 -1 7340.4795 5203.8818)" class="st3" width="65.2" height="65.2"/>
		
			<rect x="3534.5" y="2569.4" transform="matrix(-1 -1.224647e-16 1.224647e-16 -1 7134.1226 5203.8818)" class="st3" width="65.2" height="65.2"/>
		
			<rect x="3844" y="2669.5" transform="matrix(-1 -1.224647e-16 1.224647e-16 -1 7753.1929 5404.2041)" class="st3" width="65.2" height="65.2"/>
		
			<rect x="3740.8" y="2669.5" transform="matrix(-1 -1.224647e-16 1.224647e-16 -1 7546.8359 5404.2041)" class="st3" width="65.2" height="65.2"/>
		
			<rect x="3844" y="2769.7" transform="matrix(-1 -1.224647e-16 1.224647e-16 -1 7753.1929 5604.5273)" class="st3" width="65.2" height="65.2"/>
		
			<rect x="3534.5" y="2769.7" transform="matrix(-1 -1.224647e-16 1.224647e-16 -1 7134.1226 5604.5273)" class="st3" width="65.2" height="65.2"/>
		
			<rect x="3637.7" y="2869.8" transform="matrix(-1 -1.224647e-16 1.224647e-16 -1 7340.4795 5804.8501)" class="st3" width="65.2" height="65.2"/>
		
			<rect x="3534.5" y="2869.8" transform="matrix(-1 -1.224647e-16 1.224647e-16 -1 7134.1226 5804.8501)" class="st3" width="65.2" height="65.2"/>
		
			<rect x="3844" y="2970" transform="matrix(-1 -1.224647e-16 1.224647e-16 -1 7753.1929 6005.1733)" class="st3" width="65.2" height="65.2"/>
		
			<rect x="3740.8" y="2970" transform="matrix(-1 -1.224647e-16 1.224647e-16 -1 7546.8359 6005.1733)" class="st3" width="65.2" height="65.2"/>
		
			<rect x="3637.7" y="2970" transform="matrix(-1 -1.224647e-16 1.224647e-16 -1 7340.4795 6005.1733)" class="st3" width="65.2" height="65.2"/>
		
			<rect x="3740.8" y="3070.2" transform="matrix(-1 -1.224647e-16 1.224647e-16 -1 7546.8359 6205.4961)" class="st3" width="65.2" height="65.2"/>
		
			<rect x="3534.5" y="3070.2" transform="matrix(-1 -1.224647e-16 1.224647e-16 -1 7134.1226 6205.4961)" class="st3" width="65.2" height="65.2"/>
		
			<rect x="3844" y="3170.3" transform="matrix(-1 -1.224647e-16 1.224647e-16 -1 7753.1929 6405.8188)" class="st3" width="65.2" height="65.2"/>
		
			<rect x="3740.8" y="3170.3" transform="matrix(-1 -1.224647e-16 1.224647e-16 -1 7546.8359 6405.8188)" class="st3" width="65.2" height="65.2"/>
		
			<rect x="3637.7" y="3170.3" transform="matrix(-1 -1.224647e-16 1.224647e-16 -1 7340.4795 6405.8188)" class="st3" width="65.2" height="65.2"/>
		
			<rect x="3844" y="3270.5" transform="matrix(-1 -1.224647e-16 1.224647e-16 -1 7753.1929 6606.1416)" class="st3" width="65.2" height="65.2"/>
		
			<rect x="3740.8" y="3370.6" transform="matrix(-1 -1.224647e-16 1.224647e-16 -1 7546.8359 6806.4644)" class="st3" width="65.2" height="65.2"/>
		
			<rect x="3637.7" y="3370.6" transform="matrix(-1 -1.224647e-16 1.224647e-16 -1 7340.4795 6806.4644)" class="st3" width="65.2" height="65.2"/>
		
			<rect x="8691.9" y="3542.2" transform="matrix(-1 -1.224647e-16 1.224647e-16 -1 17449.0039 7149.6431)" class="st3" width="65.2" height="65.2"/>
		
			<rect x="8588.7" y="3542.2" transform="matrix(-1 -1.224647e-16 1.224647e-16 -1 17242.6484 7149.6431)" class="st3" width="65.2" height="65.2"/>
		
			<rect x="8485.6" y="3542.2" transform="matrix(-1 -1.224647e-16 1.224647e-16 -1 17036.291 7149.6431)" class="st3" width="65.2" height="65.2"/>
		
			<rect x="8691.9" y="3642.4" transform="matrix(-1 -1.224647e-16 1.224647e-16 -1 17449.0039 7349.9658)" class="st3" width="65.2" height="65.2"/>
		<rect x="9744.6" y="3954.7" class="st3" width="65.2" height="65.2"/>
		<rect x="9847.8" y="3954.7" class="st3" width="65.2" height="65.2"/>
		<rect x="9641.5" y="4054.9" class="st3" width="65.2" height="65.2"/>
		
			<rect x="8588.7" y="3742.6" transform="matrix(-1 -1.224647e-16 1.224647e-16 -1 17242.6484 7550.2886)" class="st3" width="65.2" height="65.2"/>
		
			<rect x="8485.6" y="3742.6" transform="matrix(-1 -1.224647e-16 1.224647e-16 -1 17036.291 7550.2886)" class="st3" width="65.2" height="65.2"/>
		<rect x="244.5" y="3658.7" class="st3" width="85.5" height="85.5"/>
		<rect x="394.6" y="3658.7" class="st3" width="85.5" height="85.5"/>
		<rect x="544.7" y="3658.7" class="st3" width="85.5" height="85.5"/>
		<rect x="1872.1" y="2939.1" class="st3" width="85.5" height="85.5"/>
		<rect x="2022.1" y="2939.1" class="st3" width="85.5" height="85.5"/>
		<rect x="2172.2" y="2939.1" class="st3" width="85.5" height="85.5"/>
		<rect x="1872.1" y="3167.1" class="st3" width="85.5" height="85.5"/>
		<rect x="2022.1" y="3167.1" class="st3" width="85.5" height="85.5"/>
		<rect x="2172.2" y="3167.1" class="st3" width="85.5" height="85.5"/>
		<rect x="1872.1" y="3395" class="st3" width="85.5" height="85.5"/>
		<rect x="2022.1" y="3395" class="st3" width="85.5" height="85.5"/>
		<rect x="2172.2" y="3395" class="st3" width="85.5" height="85.5"/>
		<rect x="1872.1" y="3622.9" class="st3" width="85.5" height="85.5"/>
		<rect x="2022.1" y="3622.9" class="st3" width="85.5" height="85.5"/>
		<rect x="2172.2" y="3622.9" class="st3" width="85.5" height="85.5"/>
		<rect x="1872.1" y="3850.9" class="st3" width="85.5" height="85.5"/>
		<rect x="2022.1" y="3850.9" class="st3" width="85.5" height="85.5"/>
		<rect x="2172.2" y="3850.9" class="st3" width="85.5" height="85.5"/>
		<rect x="1872.1" y="4078.8" class="st3" width="85.5" height="85.5"/>
		<rect x="2022.1" y="4078.8" class="st3" width="85.5" height="85.5"/>
		<rect x="2172.2" y="4078.8" class="st3" width="85.5" height="85.5"/>
		<rect x="6876.1" y="2207.2" class="st3" width="85.5" height="85.5"/>
		<rect x="7026.1" y="2207.2" class="st3" width="85.5" height="85.5"/>
		<rect x="7176.2" y="2207.2" class="st3" width="85.5" height="85.5"/>
		<rect x="7026.1" y="2435.1" class="st3" width="85.5" height="85.5"/>
		<rect x="7176.2" y="2435.1" class="st3" width="85.5" height="85.5"/>
		<rect x="6876.1" y="2663" class="st3" width="85.5" height="85.5"/>
		<rect x="7026.1" y="2663" class="st3" width="85.5" height="85.5"/>
		<rect x="6927.7" y="2891" class="st3" width="85.5" height="85.5"/>
		<rect x="7176.2" y="2891" class="st3" width="85.5" height="85.5"/>
		<rect x="6905.9" y="3118.9" class="st3" width="85.5" height="85.5"/>
		<rect x="7068.9" y="3118.9" class="st3" width="85.5" height="85.5"/>
		<rect x="6042.7" y="2755" class="st3" width="85.5" height="85.5"/>
		<rect x="6042.7" y="3021.6" class="st3" width="85.5" height="85.5"/>
		<rect x="6042.7" y="3288.2" class="st3" width="85.5" height="85.5"/>
		<rect x="6042.7" y="3554.8" class="st3" width="85.5" height="85.5"/>
		<rect x="6042.7" y="3821.4" class="st3" width="85.5" height="85.5"/>
		<rect x="6961.5" y="3346.9" class="st3" width="85.5" height="85.5"/>
		<rect x="7176.2" y="3346.9" class="st3" width="85.5" height="85.5"/>
		<rect x="4805.1" y="1586.5" class="st3" width="85.5" height="85.5"/>
		<rect x="4955.1" y="1586.5" class="st3" width="85.5" height="85.5"/>
		<rect x="5105.2" y="1586.5" class="st3" width="85.5" height="85.5"/>
		<rect x="4805.1" y="1814.5" class="st3" width="85.5" height="85.5"/>
		<rect x="5105.2" y="1814.5" class="st3" width="85.5" height="85.5"/>
		<rect x="4805.1" y="2042.4" class="st3" width="85.5" height="85.5"/>
		<rect x="4955.1" y="2042.4" class="st3" width="85.5" height="85.5"/>
		<rect x="5105.2" y="2042.4" class="st3" width="85.5" height="85.5"/>
		<rect x="4805.1" y="2270.3" class="st3" width="85.5" height="85.5"/>
		<rect x="4955.1" y="2270.3" class="st3" width="85.5" height="85.5"/>
		<rect x="5105.2" y="2270.3" class="st3" width="85.5" height="85.5"/>
		<rect x="4805.1" y="2498.3" class="st3" width="85.5" height="85.5"/>
		<rect x="4955.1" y="2498.3" class="st3" width="85.5" height="85.5"/>
		<rect x="4805.1" y="2726.2" class="st3" width="85.5" height="85.5"/>
		<rect x="5105.2" y="2726.2" class="st3" width="85.5" height="85.5"/>
		<rect x="5255.3" y="1814.5" class="st3" width="85.5" height="85.5"/>
		<rect x="5255.3" y="2042.4" class="st3" width="85.5" height="85.5"/>
		<rect x="5255.3" y="2270.3" class="st3" width="85.5" height="85.5"/>
		<rect x="5255.3" y="2498.3" class="st3" width="85.5" height="85.5"/>
		<rect x="5255.3" y="2726.2" class="st3" width="85.5" height="85.5"/>
		<rect x="2826" y="1887" class="st3" width="137.8" height="137.8"/>
		<rect x="3084.5" y="2124.2" class="st3" width="137.8" height="137.8"/>
		<rect x="5554.4" y="2288.9" class="st3" width="66.9" height="66.9"/>
		<rect x="5640.5" y="2288.9" class="st3" width="66.9" height="66.9"/>
		<rect x="5726.7" y="2288.9" class="st3" width="66.9" height="66.9"/>
		<rect x="5812.8" y="2288.9" class="st3" width="66.9" height="66.9"/>
		<rect x="5554.4" y="2373.7" class="st3" width="66.9" height="66.9"/>
		<rect x="5640.5" y="2373.7" class="st3" width="66.9" height="66.9"/>
		<rect x="5726.7" y="2373.7" class="st3" width="66.9" height="66.9"/>
		<rect x="5812.8" y="2373.7" class="st3" width="66.9" height="66.9"/>
		<rect x="5554.4" y="2458.5" class="st3" width="66.9" height="66.9"/>
		<rect x="5640.5" y="2458.5" class="st3" width="66.9" height="66.9"/>
		<rect x="5726.7" y="2458.5" class="st3" width="66.9" height="66.9"/>
		<rect x="5812.8" y="2458.5" class="st3" width="66.9" height="66.9"/>
		<rect x="5554.4" y="2543.3" class="st3" width="66.9" height="66.9"/>
		<rect x="5640.5" y="2543.3" class="st3" width="66.9" height="66.9"/>
		<rect x="5726.7" y="2543.3" class="st3" width="66.9" height="66.9"/>
		<rect x="5812.8" y="2543.3" class="st3" width="66.9" height="66.9"/>
		<rect x="5554.4" y="2628.1" class="st3" width="66.9" height="66.9"/>
		<rect x="5640.5" y="2628.1" class="st3" width="66.9" height="66.9"/>
		<rect x="5726.7" y="2628.1" class="st3" width="66.9" height="66.9"/>
		<rect x="5812.8" y="2628.1" class="st3" width="66.9" height="66.9"/>
		<rect x="5554.4" y="2713" class="st3" width="66.9" height="66.9"/>
		<rect x="5640.5" y="2713" class="st3" width="66.9" height="66.9"/>
		<rect x="5726.7" y="2713" class="st3" width="66.9" height="66.9"/>
		<rect x="5812.8" y="2713" class="st3" width="66.9" height="66.9"/>
		<rect x="5554.4" y="2797.8" class="st3" width="66.9" height="66.9"/>
		<rect x="5640.5" y="2797.8" class="st3" width="66.9" height="66.9"/>
		<rect x="5726.7" y="2797.8" class="st3" width="66.9" height="66.9"/>
		<rect x="5812.8" y="2797.8" class="st3" width="66.9" height="66.9"/>
		<rect x="5554.4" y="2882.6" class="st3" width="66.9" height="66.9"/>
		<rect x="5640.5" y="2882.6" class="st3" width="66.9" height="66.9"/>
		<rect x="5726.7" y="2882.6" class="st3" width="66.9" height="66.9"/>
		<rect x="5812.8" y="2882.6" class="st3" width="66.9" height="66.9"/>
		<rect x="5554.4" y="2967.4" class="st3" width="66.9" height="66.9"/>
		<rect x="5640.5" y="2967.4" class="st3" width="66.9" height="66.9"/>
		<rect x="5726.7" y="2967.4" class="st3" width="66.9" height="66.9"/>
		<rect x="5812.8" y="2967.4" class="st3" width="66.9" height="66.9"/>
		<rect x="5554.4" y="3052.2" class="st3" width="66.9" height="66.9"/>
		<rect x="5640.5" y="3052.2" class="st3" width="66.9" height="66.9"/>
		<rect x="5726.7" y="3052.2" class="st3" width="66.9" height="66.9"/>
		<rect x="5812.8" y="3052.2" class="st3" width="66.9" height="66.9"/>
		<rect x="4169.7" y="1970.1" class="st3" width="400.9" height="38.9"/>
		<rect x="4169.7" y="2254.3" class="st3" width="400.9" height="38.9"/>
		<rect x="4169.7" y="2538.6" class="st3" width="400.9" height="38.9"/>
		<rect x="4169.7" y="2822.9" class="st3" width="400.9" height="38.9"/>
		<rect x="4169.7" y="3107.1" class="st3" width="400.9" height="38.9"/>
		<rect x="4169.7" y="2066.2" class="st3" width="175" height="38.9"/>
		<rect x="4169.7" y="2160.3" class="st3" width="175" height="38.9"/>
		<rect x="7773.8" y="2976.5" class="st3" width="109.2" height="32"/>
		<rect x="7775.4" y="3210.8" class="st3" width="396" height="32"/>
		<rect x="7633.9" y="3295.3" class="st3" width="537.5" height="32"/>
		<rect x="7633.9" y="3379.9" class="st3" width="537.5" height="32"/>
		<rect x="7633.9" y="3464.5" class="st3" width="537.5" height="32"/>
		<rect x="7633.9" y="3549.1" class="st3" width="176" height="32"/>
		<rect x="7773.8" y="3055.7" class="st3" width="239" height="32"/>
		<rect x="7773.8" y="3133.2" class="st3" width="72.1" height="32"/>
		<rect x="3084.5" y="2389.3" class="st3" width="137.8" height="137.8"/>
		<rect x="2826" y="2741.1" class="st3" width="137.8" height="137.8"/>
		<rect x="2826" y="3150.6" class="st3" width="137.8" height="137.8"/>
		
			<rect x="6527.1" y="2458.5" transform="matrix(-1 -1.224647e-16 1.224647e-16 -1 13179.9414 5042.8774)" class="st3" width="125.8" height="125.8"/>
		
			<rect x="6291.1" y="2675.1" transform="matrix(-1 -1.224647e-16 1.224647e-16 -1 12708.0547 5476.0449)" class="st3" width="125.8" height="125.8"/>
		
			<rect x="6291.1" y="2917.1" transform="matrix(-1 -1.224647e-16 1.224647e-16 -1 12708.0547 5960.0313)" class="st3" width="125.8" height="125.8"/>
		
			<rect x="6527.1" y="3238.3" transform="matrix(-1 -1.224647e-16 1.224647e-16 -1 13179.9414 6602.5229)" class="st3" width="125.8" height="125.8"/>
		
			<rect x="4805.1" y="2909.8" transform="matrix(-1 -1.224647e-16 1.224647e-16 -1 9684.5439 5894.0449)" class="st3" width="74.4" height="74.4"/>
		
			<rect x="5255.3" y="3082.4" transform="matrix(-1 -1.224647e-16 1.224647e-16 -1 10596.084 6250.1919)" class="st3" width="85.5" height="85.5"/>
		
			<rect x="5105.2" y="3082.4" transform="matrix(-1 -1.224647e-16 1.224647e-16 -1 10295.9258 6250.1919)" class="st3" width="85.5" height="85.5"/>
		
			<rect x="4955.1" y="3082.4" transform="matrix(-1 -1.224647e-16 1.224647e-16 -1 9995.7676 6250.1919)" class="st3" width="85.5" height="85.5"/>
		
			<rect x="5255.3" y="3310.3" transform="matrix(-1 -1.224647e-16 1.224647e-16 -1 10596.084 6706.061)" class="st3" width="85.5" height="85.5"/>
		
			<rect x="4955.1" y="3310.3" transform="matrix(-1 -1.224647e-16 1.224647e-16 -1 9995.7676 6706.061)" class="st3" width="85.5" height="85.5"/>
		
			<rect x="5255.3" y="3538.2" transform="matrix(-1 -1.224647e-16 1.224647e-16 -1 10596.084 7161.9302)" class="st3" width="85.5" height="85.5"/>
		
			<rect x="5105.2" y="3538.2" transform="matrix(-1 -1.224647e-16 1.224647e-16 -1 10295.9258 7161.9302)" class="st3" width="85.5" height="85.5"/>
		
			<rect x="5255.3" y="3766.2" transform="matrix(-1 -1.224647e-16 1.224647e-16 -1 10596.084 7617.7983)" class="st3" width="85.5" height="85.5"/>
		
			<rect x="4955.1" y="3766.2" transform="matrix(-1 -1.224647e-16 1.224647e-16 -1 9995.7676 7617.7983)" class="st3" width="85.5" height="85.5"/>
		
			<rect x="4805.1" y="3310.3" transform="matrix(-1 -1.224647e-16 1.224647e-16 -1 9695.6104 6706.061)" class="st3" width="85.5" height="85.5"/>
		
			<rect x="4805.1" y="3538.2" transform="matrix(-1 -1.224647e-16 1.224647e-16 -1 9695.6104 7161.9302)" class="st3" width="85.5" height="85.5"/>
		<rect x="244.5" y="3855.5" class="st3" width="85.5" height="85.5"/>
		<rect x="394.6" y="3855.5" class="st3" width="85.5" height="85.5"/>
		<rect x="544.7" y="3855.5" class="st3" width="85.5" height="85.5"/>
		<rect x="94.5" y="4052.3" class="st3" width="85.5" height="85.5"/>
		<rect x="244.5" y="4052.3" class="st3" width="85.5" height="85.5"/>
		<rect x="544.7" y="4052.3" class="st3" width="85.5" height="85.5"/>
		<rect x="94.5" y="4249.1" class="st3" width="85.5" height="85.5"/>
		<rect x="394.6" y="4249.1" class="st3" width="85.5" height="85.5"/>
		<rect x="544.7" y="4249.1" class="st3" width="85.5" height="85.5"/>
	</g>
</g>
<g id="Layer_3">
	<path class="st4" d="M4659.8,5590h-200.4c-9.6-36.6-20.7-73.4-32.6-109.6c0-0.1-0.1-0.3-0.1-0.4c-5.6-17-11.4-34-17.3-50.9
		c-6.4-18.2-15.8-35.4-32-48.3c-37.3-29.5-53.1-71.5-64.3-115.9c-1.6-6.3-3.8-13.1-7.7-18.1c-3.1-4-5.5-8.2-7.2-12.5
		c-8-20.5,0.9-42.4,23.2-51.5c2.4-1,5.3-4.4,5.5-6.9c1.7-26.5,19.5-43.6,46.7-41.4c1.6-15.1,10.5-24.6,24-30.7
		c14.6-6.6,26.3,2.9,40,7.2c2.6-12.9,10.6-19.6,23-22.1c4.5-0.9,8.8-1.2,12.9-0.8c5.9,0.6,11.4,2.8,16.4,6.9
		c9.9,8.3,18.8,17.7,28.7,27.1c0.5-0.3,2.1-0.9,3.5-1.8c25.7-15.5,36.2-14.2,58.3,11.1c3.3,3.8,5.8,8.5,8.2,13.1
		c8.7,16.8,16.6,34,25.7,50.6c13.6,24.8,10.7,48.3-4.2,71.1c-15.4,23.6-30.6,47.5-47,70.4c-8.4,11.8-8.6,23-4,35.9
		c7.7,21.7,15.9,43.1,24.5,64.3c0,0.1,0.1-0.5,0.1,0.3h0c21.5,52.9,46.7,103.7,76.1,152.7C4659.8,5589.8,4659.8,5590,4659.8,5590z"
		/>
	<path class="st4" d="M4659.8,5590L4659.8,5590L4659.8,5590C4659.8,5590,4659.8,5590,4659.8,5590z"/>
	
		<rect x="4479.5" y="5339.9" transform="matrix(-0.2655 -0.9641 0.9641 -0.2655 447.8916 11225.9336)" class="st4" width="41.1" height="204.8"/>
	<polygon class="st4" points="4659.8,5590 4420.3,5590 4392.7,5489.8 4426.8,5480.4 4426.8,5480.4 4509.3,5457.6 4572.5,5440.4 
		4572.5,5440.2 4583.7,5437.1 4583.7,5437.1 4615.3,5428.4 4659.8,5589.8 	"/>
	<path class="st4" d="M3257.9,4955.3c1.5,6.2,0.8,13.3-0.4,19.7c-8,45.1-10.6,89.8,11.3,132c9.6,18.4,11.1,38,9.5,57.2
		c-1.5,17.9-3.2,35.7-5,53.6c-6.6,64.3-15.8,128.3-30.5,191.5c-1.4,6-3,11.8-4.8,19.3l196.3,30.1l7-45.3
		c-6.7-56.9-8.9-113.9-7-170.9c0.8-22.9,2.1-45.8,3.9-68.7c1.1-13.6,5.8-23.7,18.3-31.1c24.3-14.3,47.9-29.8,71.6-45.1
		c22.9-14.7,35.1-35,32.9-63.1c-1.5-18.9-1.8-37.8-2.8-56.7c-0.3-5.1-0.6-10.4-2.1-15.3c-9.8-32.1-18.8-37.6-48.7-33.9
		c-1.7,0.2-3.4,0.2-3.9,0.2c-5.2-12.6-9.5-24.9-15.1-36.5c-4.7-9.8-13.3-15.1-24.2-17.6c-12.4-2.8-22.4,0.1-30,10.8
		c-10.8-9.5-17.5-23-33.6-23c-14.8,0.1-26.8,5.1-34.4,18.2c-24-13.2-47.2-4.8-59.6,18.7c-1.2,2.2-5.2,4.2-7.8,4.1
		C3269.5,4902.5,3250.7,4926.6,3257.9,4955.3z"/>
	
		<rect x="3335.1" y="5111.1" transform="matrix(0.1518 -0.9884 0.9884 0.1518 -2306.7556 7739.0908)" class="st4" width="41.1" height="204.8"/>
	<polygon class="st4" points="3466.5,5248 3414,5590 3180.4,5590 3238.3,5213 3340.2,5228.7 	"/>
	<path class="st4" d="M1121.1,5076.8c4.5,4.5,7.6,10.9,10,17c16.9,42.6,38.1,82,78.9,106.4c17.8,10.7,29.4,26.5,38.1,43.7
		c8.1,16,16.1,32.1,23.9,48.2c28.1,58.2,54,117.5,74.6,179c2,5.8,3.7,11.6,6,18.9l182.8-77.4l-17.9-42.2
		c-35.6-44.8-67.4-92.2-95.7-141.8c-11.4-19.9-22.3-40.1-32.8-60.5c-6.2-12.2-7.5-23.2-0.7-36.1c13.2-24.9,25.1-50.5,37.3-76
		c11.8-24.6,11.5-48.2-5.2-71c-11.2-15.2-21.4-31.2-32.2-46.8c-2.9-4.2-6-8.6-9.8-11.9c-25.2-22.2-35.7-22.1-59.2-3.3
		c-1.3,1.1-2.8,1.9-3.2,2.3c-11-8-21.1-16.2-32-23.1c-9.2-5.9-19.3-5.9-29.8-2.3c-12,4.1-19,11.8-19.9,24.9
		c-14.2-2.5-27-10.4-40.6-1.9c-12.6,7.8-20.2,18.4-19.8,33.6c-27.3,1.4-42.7,20.7-40.9,47.2c0.2,2.5-2.2,6.3-4.5,7.6
		C1103.3,5025.7,1100,5056.1,1121.1,5076.8z"/>
	
		<rect x="1319.3" y="5142.8" transform="matrix(-0.3898 -0.9209 0.9209 -0.3898 -2967.9326 8523.8525)" class="st4" width="41.1" height="204.8"/>
	<polygon class="st4" points="1610.5,5590 1359.7,5590 1239.7,5306.3 1452.3,5216.4 1485.9,5295.7 	"/>
	<path class="st4" d="M321.4,5019.1c0,5.1-1.2,10.3-2.5,15.2c-4.5,18.4-9.8,36.6-13.9,55c-6,27.6-23.7,43.4-49.9,50.8
		c-27.2,7.6-54.3,15.6-81.7,22.1c-14.1,3.4-21.6,11.7-26.6,24.4c-3.8,9.7-7.6,19.4-11.2,29.2c-4.4,11.7-8.6,23.5-12.6,35.4
		c-0.1,0.1-0.1,0.3-0.2,0.5c-0.4,1-0.7,2.1-1.1,3.1c-17.9,52.8-32.1,106.8-42,161.9L59.9,5458L0,5429.1v-306.7
		c5.2-15.4,7.8-31.8,4.6-49.1c-8.6-46.8,7-88.8,27.8-129.5c3-5.8,5.8-12.4,6.1-18.8c1.6-29.6,26.6-47.2,54.2-37.6
		c2.5,0.9,6.9,0.1,8.7-1.6c18.7-18.8,43.3-20,62.4-0.5c11.1-10.3,24.1-11.6,38.3-7.3c15.4,4.6,17.9,19.5,25.4,31.8
		c10.4-8,20.8-7.8,31.9-1.5c9.6,5.5,16.3,13.1,18,23.9c2,12.7,2.5,25.7,3.8,39.3c0.6,0.1,2.2,0.6,3.8,1
		C314.4,4977.7,321.4,4985.5,321.4,5019.1z"/>
	<polygon class="st4" points="157.7,5226.5 141.2,5260.5 139.8,5263.5 121.8,5254.9 0,5196.1 0,5150.5 135.7,5215.9 	"/>
	<polygon class="st4" points="152.5,5266 0,5582.6 0,5192.5 86.6,5234.2 122.9,5251.7 141.2,5260.5 	"/>
	<path class="st4" d="M5000,5038.9V5590h-47.1l-103.1-347l14-4.3l-11-36.9l19-5.6c-8.2-23.2-20.9-43.9-44.8-54.6
		c-12.7-5.5-25.7-9.5-38.7-12.2c-15.3-3.1-30.8-4.4-46-4.1c-5.1,1.5-10.1,2.2-14.9,2.3c-10.8-0.1-22.2-3.4-29.2-11.6
		c-3.5-3.8-6.3-8.5-8-13.7c-1.8-5.2-2.6-11.1-2.3-17.4c0.1-2.7-1.9-6.9-4.1-8.2c-24.2-13.1-32.6-37.3-18.6-62
		c-13.5-8-18.6-20.6-18.4-35.9c0.1-16.6,14.2-23.5,24.2-34.5c-11-8.1-13.8-18.5-10.8-31.3c1.5-6.5,4.1-12.2,7.9-16.7
		c2.8-3.3,6.3-6.1,10.6-8.1c6-2.8,12.2-5.3,18.5-7.7c6.4-2.5,12.9-4.9,19.5-7.5c0-0.6,0-2.4-0.2-4.1c-0.9-8-1.1-14.5-0.5-19.9
		c1.1-9,4.6-15.1,12-20.1c5.6-3.8,13.5-6.9,24.3-10c5.1-1.5,10.6-1.8,15.9-2c19.6-0.9,39.3-0.9,58.8-2.2c29.3-2,50.1,10.9,65.1,34.9
		c7.8,12.4,15.6,24.8,23.3,37.2c0.7,1.1,1.4,2.2,2,3.3c1.9,3.1,3.8,6.1,5.6,9.2c4.8,6.7,7.8,14.4,11,21.8c2.3,5.5,4.4,10.5,8.5,15.1
		c0.7,0.7,1.3,1.4,2,2v0c26,27.4,40.9,61.3,53.8,96.1C4998.8,5035.8,4999.4,5037.4,5000,5038.9z"/>
	<path class="st4" d="M3571.6,4263.8c35,9.7,68.9,26.2,98.5,51.1c37.1,31.8,37.5,81.8,34.3,125.7c-0.9,10-2.4,20-4.3,29.6
		c-1.9,9.7-4.3,19.1-7,28c-3.5,16.9-7,33.3-9.1,48.6c-0.9,6.5-1.5,13-1.7,19.5c-0.6,19.4,2.4,38.2,11.9,55.5
		c3.6,6.6,8.1,12.9,13.8,19c15.2,17.9,39.4,22.4,62.1,20.6c35.8-2.5,70.1,3,103.8-5.2c31.9-8,42.5-34.3,47.1-65
		c1.2-7.7,1.9-15.6,2.5-23.5c0.7-8.9,0.3-17.9,1.8-26.6c2.1-14.1,4.2-27.6,4.3-42c-1.7-57.6-8.2-113.7-5.2-170.8
		c0.5-11.6-1-24-1.3-35.4c-0.4-7.7-0.8-15.5-1-23.2c-0.4-8.2-0.9-16.3-1.4-24.5c-3.2-48.9-9.4-97.3-32.8-141.5
		c-3.4-7.2-4-14.1-4.9-21.7c-1.3-10.2-2.1-20.8-5.6-30.9c-1.6-6.1-3.2-12.1-4.9-18.2c-4.9-18.2-10.1-36.3-15.1-54.4
		c-9.7-35-30.7-58.6-67.4-66.8c-24.6-5.5-48.8-12.7-73.3-18.8c-6.6-1.7-13.5-3.3-20.3-3.4c-44.8-0.2-55.3,9.1-62.5,48.6
		c-0.4,2.2-1.1,4.4-1.3,5.1c-18.1,1.6-35.4,2.3-52.4,4.8c-14.3,2.1-24.5,11-31.9,23.8c-8.4,14.6-8.8,28.5,1.8,42.5
		c-16.4,9.9-36.3,13.2-42.5,33.7c-5.8,18.9-4.1,36.2,9.6,51.1c-26.2,25.3-24.7,58.2,0.3,83.2c2.3,2.3,3.2,8.3,2.1,11.6
		c-2.7,7.6-3.8,15.2-3.5,22.3c0.3,7.1,2,13.8,4.9,19.8c5.6,12.8,18.5,20.9,31.7,25C3558.3,4262.8,3564.8,4263.7,3571.6,4263.8z"/>
	
		<rect x="3788.3" y="4289.2" transform="matrix(6.123234e-17 -1 1 6.123234e-17 -610.071 8241.5176)" class="st4" width="54.8" height="273.2"/>
	<rect x="3660.8" y="4448.6" class="st4" width="307.5" height="1141.4"/>
	<path class="st4" d="M3993.8,3607c-3.2-2-6.4-3.9-9.8-5.6l7-17.5c0,0-167.5-68.7-223.6-103.8c-3.7-2.3-6.9-4.5-9.5-6.4l-6.3,15.6
		c-128.6-78-325.2-210.6-407.9-336.6c3.1-11.8-3.2-24.3-14.8-28.6c-12.4-4.7-26.3,1.6-31,14.1l-72.1,192.1l-48.2-18.2
		c-2.8-1.1-6,0.4-7,3.2l-13.4,95.9l-53.2,80.9c-1.1,2.8,0.4,6,3.2,7l48.4,18.3l-74.7,199.1c-4.7,12.5,1.6,26.3,14.1,31
		c11,4.1,23.2-0.3,29-10c1.3-0.4,2.7-0.8,4-1.1l-0.5,1.4c54-15.5,120.9-21.2,191.2-20.9c116.4,0.9,241.7,18,333.8,33.8l-5.9,16.7
		c3.3,0.3,7.1,0.8,11.4,1.5c20.6,3.5,51.7,11.8,84.6,21.5l-45.7,146.4l-0.1,0.3l-42,134.6l0,0.1l-30.4,97.3
		c-13.2,41.6,2.5,56.8,11.8,60.3l58.5,24.9c18.5,7,46.2,16.3,63-44.1l24.8-90.2l0-0.1l12.1-44l25.4-92.3l0.1-0.3l42.4-154.6
		c12.6,4.3,22.3,7.6,27.5,9.4c1.3,0.5,2.4,0.8,3.1,1.1c0.1,0,0.3,0.1,0.4,0.1c0.6,0.2,0.9,0.3,0.9,0.3l5-14c3.7,1,7.4,1.7,11.1,2.3
		c49.3,7.5,98.8-20.2,117-68.8l8.8-23.5C4054.1,3687.1,4035.4,3634,3993.8,3607z"/>
	<path class="st4" d="M2050.8,5208.2c-23.2,6.5-45.7,17.4-65.3,33.9c-24.6,21.1-24.9,54.2-22.8,83.4c0.6,6.6,1.6,13.2,2.8,19.7
		c1.3,6.4,2.9,12.7,4.6,18.6c2.3,11.2,4.6,22.1,6,32.2c0.6,4.3,1,8.6,1.1,12.9c0.4,12.8-1.6,25.4-7.9,36.8
		c-2.4,4.4-5.4,8.6-9.1,12.6c-10.1,11.9-26.1,14.9-41.2,13.7c-23.7-1.7-46.5,2-68.8-3.4c-21.2-5.3-28.2-22.8-31.2-43.1
		c-0.8-5.1-1.3-10.4-1.6-15.6c-0.5-5.9-0.2-11.8-1.2-17.6c-1.4-9.4-2.8-18.3-2.8-27.8c1.1-38.2,5.5-75.4,3.4-113.3
		c-0.3-7.7,0.6-15.9,0.9-23.5c0.3-5.1,0.5-10.3,0.7-15.4c0.3-5.4,0.6-10.8,0.9-16.2c2.1-32.4,6.3-64.5,21.8-93.8
		c2.2-4.8,2.7-9.3,3.2-14.4c0.8-6.8,1.4-13.8,3.7-20.5c1.1-4,2.1-8,3.2-12.1c3.3-12,6.7-24.1,10-36.1c6.4-23.2,20.3-38.9,44.7-44.3
		c16.3-3.7,32.4-8.4,48.6-12.5c4.4-1.1,9-2.2,13.5-2.2c29.7-0.1,36.7,6.1,41.4,32.2c0.3,1.5,0.7,2.9,0.8,3.4c12,1,23.5,1.5,34.8,3.2
		c9.5,1.4,16.3,7.3,21.2,15.8c5.6,9.7,5.8,18.9-1.2,28.2c10.9,6.6,24.1,8.8,28.2,22.4c3.8,12.5,2.7,24-6.4,33.9
		c17.4,16.8,16.4,38.6-0.2,55.2c-1.5,1.5-2.2,5.5-1.4,7.7c1.8,5.1,2.5,10,2.3,14.8c-0.2,4.7-1.3,9.2-3.2,13.1
		c-3.7,8.5-12.2,13.9-21,16.6C2059.6,5207.6,2055.3,5208.2,2050.8,5208.2z"/>
	
		<rect x="1870.7" y="5225" transform="matrix(6.123234e-17 -1 1 6.123234e-17 -3426.7839 7204.4976)" class="st4" width="36.4" height="181.2"/>
	<rect x="1787.2" y="5330.5" class="st4" width="204.2" height="259.5"/>
	<path class="st4" d="M1770.7,4772.6c2.1-1.3,4.3-2.6,6.5-3.7l-4.7-11.6c0,0,111.1-45.6,148.3-68.9c2.4-1.5,4.5-3,6.3-4.3l4.2,10.3
		c85.3-51.7,215.7-139.7,270.5-223.2c-2.1-7.8,2.1-16.1,9.8-19c8.3-3.1,17.5,1.1,20.6,9.3l47.8,127.4l31.9-12c1.9-0.7,4,0.2,4.7,2.1
		l8.9,63.6l35.3,53.6c0.7,1.9-0.2,4-2.1,4.7l-32.1,12.1l49.6,132c3.1,8.3-1.1,17.5-9.3,20.6c-7.3,2.7-15.4-0.2-19.3-6.7
		c-0.9-0.3-1.8-0.5-2.7-0.7l0.3,0.9c-35.8-10.3-80.2-14.1-126.8-13.9c-77.2,0.6-160.3,11.9-221.4,22.4l3.9,11.1
		c-2.2,0.2-4.7,0.5-7.6,1c-13.7,2.3-34.3,7.8-56.1,14.3l30.3,97.1l0.1,0.2l27.9,89.2l0,0.1l20.2,64.5c8.8,27.6-1.7,37.7-7.8,40
		l-38.8,16.5c-12.3,4.6-30.6,10.8-41.8-29.3l-16.4-59.8l0-0.1l-8-29.2l-16.8-61.2l0-0.2l-28.1-102.5c-8.4,2.8-14.8,5-18.2,6.2
		c-0.9,0.3-1.6,0.5-2.1,0.7c-0.1,0-0.2,0-0.2,0.1c-0.4,0.1-0.6,0.2-0.6,0.2l-3.3-9.3c-2.5,0.7-4.9,1.2-7.4,1.5
		c-32.7,4.9-65.5-13.4-77.6-45.6l-5.8-15.6C1730.7,4825.7,1743.2,4790.5,1770.7,4772.6z"/>
	
		<rect x="4704.1" y="4438.4" transform="matrix(-0.9586 0.2849 -0.2849 -0.9586 10716.0146 8314.0254)" class="st4" width="98.3" height="996.1"/>
	<polygon class="st4" points="5000,4369.3 5000,4430.8 4253.6,4652.6 4122.6,4211.7 4885.7,3984.9 	"/>
	<polygon class="st4" points="251.6,3623.7 120.6,4064.6 0,4028.8 0,3548.9 	"/>
	<path class="st4" d="M2913.4,5208.8l-14.6,86.9l-49.5,294.3h-242.2l70.7-420.8l14.4,2.3l6.4-38l19.5,3.3
		c2.9-24.4,0.5-48.6-16.2-68.7c-19.5-22.9-43.3-39.9-68.9-51.9c-5.2-0.9-10.1-2.5-14.3-4.5c-9.6-4.9-18.4-12.8-21.1-23.3
		c-1.5-5-1.9-10.4-1.2-15.8c0.7-5.5,2.5-11.1,5.6-16.6c1.3-2.4,1.4-7.1-0.1-9.1c-15.9-22.4-12.8-47.8,10.5-63.9
		c-8.6-13.2-7.6-26.6-0.8-40.4c7.4-14.9,23.1-14.9,37-20.4c-6.3-12.1-4.3-22.7,4.1-32.8c7.3-8.9,16.3-14.4,27.5-14.2
		c13.4,0.2,26.7,1.9,40.8,3.1c0.2-0.5,1-2.1,1.6-3.7c10.6-29.3,19.8-35.1,54.2-29.2c5.2,0.9,10.3,3.1,15.1,5.2
		c18,7.9,35.6,16.5,53.8,23.9c27.1,11.1,40.2,31.8,43.1,59.9c1.5,14.5,3.1,29.1,4.6,43.7c0.5,4.9,1,9.7,1.4,14.6
		c1.4,8.2,0.7,16.4,0.3,24.4c-0.3,6-0.7,11.3,0.9,17.3c12.2,36.9,10.8,74.8,6.9,112.7c-0.6,6.3-1.3,12.6-2.1,18.9
		c-0.8,6-1.5,11.9-2.2,17.9c-1.2,8.8-1.7,18.6-3.6,27.4c-4,17.8-6.6,35.3-9,53.7l21.2,3.6l-6.4,38L2913.4,5208.8z"/>
	
		<rect x="2676.8" y="4353.5" transform="matrix(-0.9862 -0.1658 0.1658 -0.9862 4609.9248 10087.7754)" class="st4" width="98.3" height="996.1"/>
	
		<rect x="2434.7" y="3986" transform="matrix(-0.9862 -0.1658 0.1658 -0.9862 4927.4678 8843.3193)" class="st4" width="796.1" height="460"/>
	<path class="st4" d="M777.5,5590H538.2l-7.6-128.2l14.6-0.9l-2.3-38.4l19.8-1.2c-2.7-24.4-10.4-47.5-31.2-63.3
		c-19.6-14.6-41.1-24.8-63.3-31.2c-5.1-1.5-10.3-2.8-15.4-3.9c-5.3,0.3-10.4-0.1-15-1.2c-8.1-2-16.1-5.9-21.6-12
		c-1.6-1.8-3-3.8-4.2-6c-2.6-4.5-4.2-9.7-4.7-15.2c-0.5-5.5,0-11.4,1.7-17.4c0.7-2.6-0.2-7.2-2.1-8.9c-20.6-18.3-23.2-43.7-4.1-64.6
		c-11.3-10.9-13.4-24.3-9.8-39.2c3.1-12.7,13.1-17.6,23.2-23.1c2.8-1.6,5.6-3.2,8.3-5c-8.9-10.4-9.2-21.1-3.4-32.9
		c5.1-10.3,12.6-17.6,23.7-20c2.8-0.6,5.7-1.1,8.5-1.6c10.4-1.8,21-2.9,31.9-4.5c0.1-0.6,0.5-2.3,0.8-4
		c3.8-30.9,11.5-38.6,46.2-40.6c5.3-0.3,10.7,0.7,15.9,1.7c0.3,0.1,0.6,0.1,0.9,0.2c19,3.6,37.8,8,56.9,11.1
		c28.9,4.7,46.3,22,55.4,48.8c4.7,13.8,9.6,27.7,14.3,41.5c1.6,4.6,3.1,9.2,4.6,13.9c3.2,7.6,4.3,15.8,5.8,23.7
		c1,5.9,1.9,11.2,4.8,16.6c20.2,33.2,27.3,70.5,32,108.3c0.4,3.1,0.7,6.1,1.1,9.2c0.4,3.3,0.8,6.5,1.1,9.8c0.6,6,1.2,12,1.9,18
		c0.8,8.8,2.5,18.5,2.7,27.5c0.1,18.2,1.4,35.9,3.3,54.4l12.4-0.7l9.1-0.5l2.3,38.4l12.6-0.7L777.5,5590z"/>
	<polygon class="st4" points="582.3,5590 483.7,5590 468.1,5326.8 453.1,5075.9 427.6,4647.3 525.8,4641.5 548.8,5028.6 	"/>
	
		<rect x="69.9" y="4268.3" transform="matrix(-0.9982 5.944424e-02 -5.944424e-02 -0.9982 1202.5444 8960.7949)" class="st4" width="796.1" height="460"/>
	<path class="st5" d="M399.1,5478.2c0.6,3.9,0.3,7.8-0.7,11.4c-1.8,7.6-8,13.4-14.9,17c-3.1,1.5-6.5,2.6-10.3,3.4
		c-3.4,1.7-6.8,3.5-10.1,5.4c-14.4,8.3-27.7,19.1-38.8,32.7c-10.1,12.5-12.6,27.4-11.7,42.1H188c-0.6-3.3-1.3-6-2-8.9
		c-1.4-6.3-1.9-13.3-2.9-19.6c-0.5-4.3-1.1-8.6-1.8-12.8c-0.6-4.5-1.2-9.1-1.7-13.6c-3.2-27.2-4.6-54.4,3.7-81
		c1.1-4.3,0.8-8.1,0.5-12.4c-0.3-5.8-0.9-11.7,0-17.5c0.3-3.5,0.5-7,0.8-10.5c0.9-10.5,1.9-20.9,2.8-31.4
		c1.8-20.2,10.9-35.3,30.3-43.5c12.8-5.4,25.2-11.7,37.8-17.5c0.2-0.1,0.4-0.2,0.6-0.3c3.5-1.6,7.1-3.2,10.8-3.9
		c24.6-4.6,31.3-0.6,39.2,20.4c0.4,1.2,1,2.3,1.2,2.7c7.9-0.8,15.5-1.8,23.1-2.3c2.1-0.2,4.1-0.3,6.2-0.3c8.1-0.3,14.6,3.6,19.9,9.9
		c6.1,7.2,7.7,14.8,3.3,23.5c10,3.8,21.3,3.6,26.8,14.2c5.1,9.8,5.9,19.5-0.1,29c17,11.3,19.5,29.5,8.3,45.7c-1,1.5-1,4.9,0,6.6
		C397.1,5470.2,398.5,5474.3,399.1,5478.2z"/>
	<polygon class="st5" points="376.9,5590 305.1,5590 255.6,5321.1 186.6,4945.9 256.1,4933.1 330.5,5337.7 363.2,5515.3 	"/>
	<polygon class="st5" points="611.4,4867.8 0,4980.2 0,4644.3 63.6,4632.6 63.6,4632.6 141.3,4618.3 551.6,4542.8 	"/>
	<path class="st5" d="M2146.5,5580.8l21.1,3.9l-1,5.3h-226l1.4-7.4l14.4,2.6l7-38l18.8,3.5c3.2-23.8,1.2-47.6-14.9-67.5
		c-15.2-18.5-33.4-33.2-53-44.6c-4.5-2.6-9.1-5.1-13.8-7.3c-5.1-1-9.8-2.6-14-4.6c-9.3-4.9-17.8-12.8-20.3-23.1
		c-1.4-4.9-1.7-10.2-0.9-15.5c0.8-5.4,2.6-10.8,5.7-16.2c1.3-2.3,1.5-6.9,0-9c-7.4-10.7-10.4-22-9-32.6c1.5-11.4,8.2-21.9,20.2-29.9
		c-8.2-13-7.1-26.2-0.1-39.6c7.5-14.5,22.9-14.2,36.5-19.4c-6-11.9-3.8-22.3,4.5-32.1c7.3-8.6,16.2-13.8,27.2-13.5
		c2.8,0.1,5.7,0.3,8.5,0.5c10.3,0.7,20.6,2.1,31.5,3.1c0.2-0.5,1.1-2,1.7-3.6c10.8-28.6,20-34.1,53.5-27.8c5.1,0.9,10,3.2,14.8,5.3
		c0.3,0.1,0.5,0.2,0.8,0.4c17.2,7.9,34.2,16.4,51.6,23.8c26.4,11.2,38.9,31.8,41.3,59.4c1.3,14.3,2.6,28.6,3.8,42.9
		c0.4,4.8,0.8,9.5,1.2,14.3c1.2,8,0.4,16.1-0.1,23.9c-0.4,5.9-0.9,11.1,0.7,17c11.5,36.4,9.5,73.5,5.1,110.6
		c-0.7,6.2-1.5,12.4-2.3,18.5c-0.9,5.8-1.7,11.7-2.4,17.5c-1.3,8.6-1.9,18.2-3.9,26.8C2151.9,5545.7,2149,5563.2,2146.5,5580.8z"/>
	<polygon class="st5" points="2155.2,4661.5 2061.1,5173.6 1991,5554.8 1984.6,5590 1886.5,5590 1914.4,5438.6 1934.3,5330.3 
		1958.9,5196.2 2060.4,4644.1 	"/>
	
		<rect x="1614.3" y="4131.1" transform="matrix(-0.9835 -0.1808 0.1808 -0.9835 3480.7251 9105.5391)" class="st5" width="1082.3" height="526.1"/>
	<path class="st5" d="M3460.2,4785.2c2.3,6.5,3.2,12.9,3,18.9s-1.7,11.8-4.2,16.9c-4.8,10.9-15.7,17.8-27,21.3
		c-5,1.4-10.5,2.2-16.3,2.3c-29.8,8.3-58.6,22.4-83.8,43.6c-21.7,18.6-28.6,44.5-30,71.3h22v42.3h16.3V5590h-261.1v-588.2h13.8
		v-42.3h22.6c0.8-20.3,1.2-39.8,0.1-59.7c-0.4-9.8,0.8-20.7,1.1-30.4c0.4-6.6,0.7-13.2,0.9-19.7c0.4-6.9,0.7-13.9,1.2-20.8
		c2.7-41.6,8-82.8,27.9-120.4c2.9-6.1,3.4-12,4.1-18.5c1.1-8.7,1.8-17.7,4.8-26.3c1.4-5.2,2.7-10.3,4.1-15.5
		c4.2-15.4,8.6-30.9,12.9-46.3c8.3-29.8,26.1-49.9,57.4-56.9c20.9-4.7,41.6-10.8,62.4-16c5.7-1.4,11.5-2.9,17.3-2.9
		c38.1-0.2,47,7.8,53.2,41.3c0.3,1.9,0.9,3.7,1.1,4.3c15.4,1.4,30.1,1.9,44.6,4.1c12.2,1.8,20.9,9.4,27.2,20.3
		c7.2,12.5,7.5,24.3-1.6,36.2c13.9,8.5,30.9,11.3,36.2,28.7c4.9,16.1,3.5,30.8-8.1,43.5c22.3,21.5,21,49.5-0.2,70.8
		C3460,4777.3,3459.2,4782.4,3460.2,4785.2z"/>
	<rect x="3291.5" y="3948.1" class="st5" width="107.6" height="1090"/>
	<rect x="2741.3" y="3444.8" class="st5" width="1208.1" height="665.5"/>
	<path class="st5" d="M4970.2,4840.4l-11.4,16.8c-8,11.8-18.5,21.1-30.2,27.5c-3.6,2-7.4,3.7-11.2,5.2c-20.2,7.6-43.1,7.7-63.8-0.7
		c-2.8-1.1-5.6-2.4-8.3-3.9l-6.6,10.1c0,0-0.2-0.1-0.6-0.4c-0.1-0.1-0.2-0.1-0.3-0.2c-0.5-0.3-1.3-0.8-2.2-1.4
		c-3.8-2.4-10.7-6.9-19.9-12.6l-43,78c6.8,11.1,10.2,24.3,10.7,39.3c0.5,15.2,1.1,30.5,1.6,45.7c0.1,5.1,0.3,10.2,0.4,15.2
		c0.8,8.6-0.5,17.1-1.4,25.4c-0.8,6.2-1.6,11.7-0.3,18c2.3,9,3.8,17.9,4.8,26.9c3.2,30.3-0.5,60.6-5.8,90.8
		c-1.1,6.5-2.3,13-3.5,19.5c-1.3,6.2-2.5,12.3-3.6,18.5c-1.9,9-3.1,19.1-5.7,28.1c-5.4,18.2-9.6,36.7-13.2,55.1l21.6,5.2l-9.4,39
		l13.6,3.4l-48.4,200.9h-256.5l31.9-132.4l23.9-99.1l6.7-27.9l13.6,3.2l9.4-39.1l21,5c4.7-24.8,4-50.4-11.9-72.5
		c-18.6-25.2-42.2-44.6-67.9-58.9c-5.4-1.4-10.3-3.3-14.6-5.7c-9.6-5.7-18.2-14.6-20.2-25.7c-1.2-5.3-1.2-10.9-0.1-16.6
		c1.1-5.6,3.4-11.4,7-16.9c1.5-2.4,1.9-7.2,0.5-9.5c-1.2-2-2.3-4-3.3-6c-10.7-22.6-4.5-45.8,18.9-59.6c-8-14.3-6-28.3,2.1-42
		c8.8-14.9,25.1-13.8,39.9-18.5c-5.7-13-2.8-23.9,6.6-33.8c8.2-8.7,18-13.7,29.7-12.7c13.9,1.2,27.6,4,42.2,6.1
		c0.3-0.5,1.2-2.1,2-3.8c12.5-28.2,22.1-34.4,53.2-27.6c1.7,0.4,3.4,0.8,5.2,1.2c3.8,0.9,7.5,2.6,11.1,4.3l12.8-21.4l18.8-31.5
		l12-20.1l0.5-0.9c-24.1-13.9-47-26.4-62.6-33c-3.2-1.4-6.1-2.5-8.7-3.3l7.9-12.1c-69.5-29.9-165-67.2-256.5-90
		c-55.3-13.6-109-21.8-154.5-19.8l0.7-1c-1.1,0-2.3,0.1-3.4,0.1c-6.5,6.5-16.9,7.8-24.8,2.4c-8.9-6-11.3-18.2-5.2-27.1l96.6-142.6
		l-34.7-23.6c-2-1.4-2.5-4.1-1.2-6.1l57.3-53.6l28.8-73c1.4-2,4.1-2.5,6.1-1.2l34.5,23.4l93.2-137.6c6-8.9,18.2-11.2,27.1-5.2
		c8.3,5.7,10.9,16.7,6.3,25.4c23.8,66.4,77.2,141.8,134.7,210.1c23.5,27.9,47.7,54.7,70.8,79.2c18.2,19.3,35.8,37.2,51.9,53.1
		l7.9-11.1c1.7,2,3.8,4.3,6.2,6.9c13.9,14.2,39.1,35,65.2,55.5c44.3,34.8,91.3,68.8,91.3,68.8l-8.9,12.4c2.4,2,4.6,4.1,6.7,6.3
		C4988.9,4760.4,4993.6,4805.8,4970.2,4840.4z"/>
	<path class="st5" d="M1487,4728.4c0.1,1.7-1.2,3.2-3,3.3l-29.6,1.5l6,121.6c0.4,7.6-5.5,14.1-13.1,14.5
		c-6.7,0.3-12.6-4.2-14.1-10.5c-0.7-0.4-1.3-0.9-2-1.3l0.1,0.9c-26.8-17.9-62.2-32.6-100.6-44.7c-63.6-19.8-134.9-32.4-187.9-39.8
		l0.3,10.2c-1.9-0.4-4-0.8-6.5-1.2c-11.8-1.7-30.2-2.6-49.9-3l-0.4,60.8c2.8,0.2,5.6,0.6,8.3,1.5c24.4,7.7,28.5,14.6,25.6,37.4
		c-0.2,1.3-0.2,2.6-0.2,3c9.6,4,18.9,7.4,27.7,11.8c7.5,3.7,11.5,10.3,13.2,18.6c2,9.5-0.2,17.1-8.4,22.9
		c7.2,8.3,17.5,13.6,17.3,25.8c-0.1,11.3-4.1,20.5-14.1,26.2c9.9,18.4,3.3,36-14.7,45.3c-1.7,0.9-3.2,3.9-3.1,5.9
		c0.1,4.6-0.6,8.9-2,12.8c-1.4,3.8-3.5,7.2-6.1,10c-5.3,6-13.7,8.2-21.7,8.1c-3.5-0.1-7.1-0.8-10.9-1.9
		c-20.8-0.8-42.1,2.3-62.6,10.7c-17.7,7.5-27.5,22.7-33.8,39.4l14.6,4.7l-8.6,27l9.4,3.2l-28.1,84.8l-49,147.7l-68,205H685.6
		l38.2-115.1l21.4-64.4l103.4-311.7l9.4,2.9l8.6-27.1l14.9,4.8c4.6-12.4,8.9-25.1,12.2-38.1c1.8-6.4,4.7-12.9,6.9-19.1
		c1.6-4.1,3.1-8.3,4.6-12.5c1.7-4.4,3.3-8.8,5-13.1c10.3-26.1,22.1-51.4,42.6-71.4c3.1-3.3,4.7-7,6.5-11c2.5-5.4,4.8-11,8.4-15.9
		c1.9-3,3.9-6,5.8-9.1c5.9-9,11.8-18,17.7-27c5.8-8.9,12.7-15.6,20.9-19.8l2.6-62.9c-7.6,0.1-13.5,0.3-16.6,0.3c-0.8,0-1.4,0-1.9,0
		c-0.1,0-0.2,0-0.2,0c-0.3,0-0.5,0-0.5,0l-0.3-8.5c-2.2-0.1-4.3-0.3-6.4-0.7c-28.2-4.5-50.3-28.3-51.8-57.9l-0.7-14.3
		c-1.5-29.5,18-55.2,45.4-62.6c2.1-0.6,4.2-1,6.3-1.4l-0.8-10.8c0,0,103.3-8.3,140.1-17.6c2.4-0.6,4.5-1.2,6.3-1.8l0.7,9.6
		c83.7-20.1,214.1-58.1,281.1-112.3c0.4-7,6-12.7,13.1-13c7.6-0.4,14.1,5.5,14.5,13.1l5.8,117.3l29.4-1.5c1.7-0.1,3.2,1.2,3.3,3
		l-9.4,54.6L1487,4728.4z"/>
	<path class="st6" d="M86.6,5234.2c-1.7,4.3-4,8.5-7.2,12.5c-3.9,5-6.1,11.8-7.7,18.1c-11.1,44.4-27,86.3-64.3,115.9
		c-2.6,2.1-5.1,4.3-7.4,6.6v-275.4c6.2,5.6,10.1,12.9,11.1,22.5c27.3-2.2,45,14.9,46.7,41.4c0.2,2.5,3,5.9,5.5,6.9
		C85.7,5191.8,94.6,5213.7,86.6,5234.2z"/>
	<path class="st6" d="M1126.9,4955.3c-1.5,6.2-0.8,13.3,0.4,19.7c8,45.1,10.6,89.8-11.3,132c-9.6,18.4-11.1,38-9.5,57.2
		c1.5,17.9,3.2,35.7,5,53.6c6.6,64.3,15.8,128.3,30.5,191.5c1.4,6,3,11.8,4.8,19.3l-196.3,30.1l-7-45.3c6.7-56.9,8.9-113.9,7-170.9
		c-0.8-22.9-2.1-45.8-3.9-68.7c-1.1-13.6-5.8-23.7-18.3-31.1c-24.3-14.3-47.9-29.8-71.6-45.1c-22.9-14.7-35.1-35-32.9-63.1
		c1.5-18.9,1.8-37.8,2.8-56.7c0.3-5.1,0.6-10.4,2.1-15.3c9.8-32.1,18.8-37.6,48.7-33.9c1.7,0.2,3.4,0.2,3.9,0.2
		c5.2-12.6,9.5-24.9,15.1-36.5c4.7-9.8,13.3-15.1,24.2-17.6c12.4-2.8,22.4,0.1,30,10.8c10.8-9.5,17.5-23,33.6-23
		c14.8,0.1,26.8,5.1,34.4,18.2c24-13.2,47.2-4.8,59.6,18.7c1.2,2.2,5.2,4.2,7.8,4.1C1115.2,4902.5,1134,4926.6,1126.9,4955.3z"/>
	
		<rect x="1008.5" y="5111.1" transform="matrix(-0.1518 -0.9884 0.9884 -0.1518 -3967.8601 7021.8823)" class="st6" width="41.1" height="204.8"/>
	<polygon class="st6" points="1204.3,5590 970.7,5590 939.2,5385 918.2,5248 988.2,5237.3 1146.4,5213 	"/>
	<path class="st6" d="M3263.6,5076.8c-4.5,4.5-7.6,10.9-10,17c-16.9,42.6-38.1,82-78.9,106.4c-17.8,10.7-29.4,26.5-38.1,43.7
		c-8.1,16-16.1,32.1-23.9,48.2c-28.1,58.2-54,117.5-74.6,179c-2,5.8-3.7,11.6-6,18.9l-182.8-77.4l17.9-42.2
		c35.6-44.8,67.4-92.2,95.7-141.8c11.4-19.9,22.3-40.1,32.8-60.5c6.2-12.2,7.5-23.2,0.7-36.1c-13.2-24.9-25.1-50.5-37.3-76
		c-11.8-24.6-11.5-48.2,5.2-71c11.2-15.2,21.4-31.2,32.2-46.8c2.9-4.2,6-8.6,9.8-11.9c25.2-22.2,35.7-22.1,59.2-3.3
		c1.3,1.1,2.8,1.9,3.2,2.3c11-8,21.1-16.2,32-23.1c9.2-5.9,19.3-5.9,29.8-2.3c12,4.1,19,11.8,19.9,24.9c14.2-2.5,27-10.4,40.6-1.9
		c12.6,7.8,20.2,18.4,19.8,33.6c27.3,1.4,42.7,20.7,40.9,47.2c-0.2,2.5,2.2,6.3,4.5,7.6C3281.4,5025.7,3284.8,5056.1,3263.6,5076.8z
		"/>
	
		<rect x="3024.3" y="5142.8" transform="matrix(0.3898 -0.9209 0.9209 0.3898 -2972.3682 6004.3057)" class="st6" width="41.1" height="204.8"/>
	<polygon class="st6" points="3145,5306.3 3078.8,5462.9 3025,5590 2774.2,5590 2898.8,5295.7 2932.4,5216.4 3078.8,5278.3 	"/>
	<path class="st6" d="M4346.2,4925.1c0.3,6.4,3.2,12.9,6.1,18.8c20.8,40.8,36.4,82.8,27.8,129.6c-3.8,20.4,0.5,39.6,7.7,57.5
		c6.7,16.6,13.5,33.2,20.5,49.8c25.2,59.6,52.6,118.1,85.2,174.2c3.1,5.3,6.3,10.4,10.3,17l-178.9,86.2l-19.9-41.3
		c-10.2-56.3-24.8-111.5-43.3-165.5c-7.4-21.7-15.4-43.2-23.8-64.6c-5-12.7-12.5-21-26.6-24.4c-27.4-6.5-54.5-14.5-81.7-22.2
		c-26.2-7.4-43.8-23.2-49.9-50.8c-4.1-18.5-9.3-36.7-13.9-55c-1.2-5-2.5-10.2-2.5-15.2c0-33.6,7-41.4,36.6-46.7
		c1.7-0.3,3.3-0.8,3.8-0.9c1.2-13.6,1.8-26.5,3.8-39.3c1.7-10.7,8.3-18.4,18-23.9c11-6.3,21.4-6.5,31.9,1.5
		c7.5-12.3,10-27.2,25.4-31.8c14.2-4.3,27.2-3,38.3,7.3c19.1-19.6,43.7-18.4,62.4,0.5c1.7,1.8,6.2,2.5,8.7,1.6
		C4319.6,4877.9,4344.7,4895.5,4346.2,4925.1z"/>
	
		<rect x="4307.7" y="5098.1" transform="matrix(-0.4341 -0.9009 0.9009 -0.4341 1522.1234 11357.2441)" class="st6" width="41.1" height="204.8"/>
	<polygon class="st6" points="4644.6,5590 4388.3,5590 4232.2,5266 4298.1,5234.2 4440.2,5165.8 4533.1,5358.6 4572.5,5440.2 
		4572.5,5440.4 	"/>
	<path class="st6" d="M813.1,4263.8c-35,9.7-68.9,26.2-98.5,51.1c-37.1,31.8-37.5,81.8-34.3,125.7c0.9,10,2.4,20,4.3,29.6
		c1.9,9.7,4.3,19.1,7,28c3.5,16.9,7,33.3,9.1,48.6c0.9,6.5,1.5,13,1.7,19.5c0.6,19.4-2.4,38.2-11.9,55.5c-3.6,6.6-8.1,12.9-13.8,19
		c-15.2,17.9-39.4,22.4-62.1,20.6c-35.8-2.5-70.1,3-103.8-5.2c-31.9-8-42.5-34.3-47.1-65c-1.2-7.7-1.9-15.6-2.5-23.5
		c-0.7-8.9-0.3-17.9-1.8-26.6c-2.1-14.1-4.2-27.6-4.3-42c1.7-57.6,8.3-113.7,5.2-170.8c-0.5-11.6,1-24,1.3-35.4
		c0.4-7.7,0.8-15.5,1-23.2c0.4-8.2,0.9-16.3,1.4-24.5c3.2-48.9,9.4-97.3,32.8-141.5c3.4-7.2,4-14.1,4.9-21.7
		c1.3-10.2,2.1-20.8,5.6-30.9c1.6-6.1,3.2-12.1,4.9-18.2c4.9-18.2,10.1-36.3,15.1-54.4c9.7-35,30.7-58.6,67.4-66.8
		c24.6-5.5,48.8-12.7,73.3-18.8c6.6-1.7,13.5-3.3,20.3-3.4c44.8-0.2,55.3,9.1,62.5,48.6c0.4,2.2,1.1,4.4,1.3,5.1
		c18.1,1.6,35.4,2.3,52.4,4.8c14.3,2.1,24.5,11,31.9,23.8c8.4,14.6,8.8,28.5-1.8,42.5c16.4,9.9,36.3,13.2,42.5,33.7
		c5.8,18.9,4.1,36.2-9.6,51.1c26.2,25.3,24.7,58.2-0.3,83.2c-2.3,2.3-3.2,8.3-2.1,11.6c2.7,7.6,3.8,15.2,3.5,22.3
		c-0.3,7.1-2,13.8-4.9,19.8c-5.6,12.8-18.5,20.9-31.7,25C826.4,4262.8,820,4263.7,813.1,4263.8z"/>
	
		<rect x="541.6" y="4289.2" transform="matrix(6.123234e-17 -1 1 6.123234e-17 -3856.7996 4994.7886)" class="st6" width="54.8" height="273.2"/>
	<rect x="416.4" y="4448.6" class="st6" width="307.5" height="1141.4"/>
	<path class="st6" d="M390.9,3607c3.2-2,6.4-3.9,9.8-5.6l-7-17.5c0,0,167.5-68.7,223.6-103.8c3.7-2.3,6.9-4.5,9.5-6.4l6.3,15.6
		c128.6-78,325.2-210.6,407.9-336.6c-3.1-11.8,3.2-24.3,14.8-28.6c12.4-4.7,26.3,1.6,31,14.1l72.1,192.1l48.2-18.2
		c2.8-1.1,6,0.4,7,3.2l13.4,95.9l53.2,80.9c1.1,2.8-0.4,6-3.2,7l-48.4,18.3l74.7,199.1c4.7,12.5-1.6,26.3-14.1,31
		c-11,4.1-23.2-0.3-29-10c-1.3-0.4-2.7-0.8-4-1.1l0.5,1.4c-54-15.5-120.9-21.2-191.2-20.9c-116.4,0.9-241.7,18-333.8,33.8l5.9,16.7
		c-3.3,0.3-7.1,0.8-11.4,1.5c-20.6,3.5-51.7,11.8-84.6,21.5l45.7,146.4l0.1,0.3l42,134.6l0,0.1l30.4,97.3
		c13.2,41.6-2.5,56.8-11.8,60.3l-58.5,24.9c-18.5,7-46.2,16.3-63-44.1l-24.8-90.2l0-0.1l-12.1-44l-25.4-92.3l-0.1-0.3l-42.4-154.6
		c-12.6,4.3-22.3,7.6-27.5,9.4c-1.3,0.5-2.4,0.8-3.1,1.1c-0.1,0-0.3,0.1-0.4,0.1c-0.6,0.2-0.9,0.3-0.9,0.3l-5-14
		c-3.7,1-7.4,1.7-11.1,2.3c-49.3,7.5-98.8-20.2-117-68.8l-8.8-23.5C330.6,3687.1,349.3,3634,390.9,3607z"/>
	<path class="st6" d="M2334,5208.2c23.2,6.5,45.7,17.4,65.3,33.9c24.6,21.1,24.9,54.2,22.8,83.4c-0.6,6.6-1.6,13.2-2.8,19.7
		c-1.3,6.4-2.9,12.7-4.6,18.6c-2.3,11.2-4.6,22.1-6,32.2c-0.6,4.3-1,8.6-1.1,12.9c-0.4,12.8,1.6,25.4,7.9,36.8
		c2.4,4.4,5.4,8.6,9.1,12.6c10.1,11.9,26.1,14.9,41.2,13.7c23.7-1.7,46.5,2,68.8-3.4c21.2-5.3,28.2-22.8,31.2-43.1
		c0.8-5.1,1.3-10.4,1.6-15.6c0.5-5.9,0.2-11.8,1.2-17.6c1.4-9.4,2.8-18.3,2.8-27.8c-1.1-38.2-5.5-75.4-3.4-113.3
		c0.3-7.7-0.6-15.9-0.9-23.5c-0.3-5.1-0.5-10.3-0.7-15.4c-0.3-5.4-0.6-10.8-0.9-16.2c-2.1-32.4-6.3-64.5-21.8-93.8
		c-2.2-4.8-2.7-9.3-3.2-14.4c-0.8-6.8-1.4-13.8-3.7-20.5c-1.1-4-2.1-8-3.2-12.1c-3.3-12-6.7-24.1-10-36.1
		c-6.4-23.2-20.3-38.9-44.7-44.3c-16.3-3.7-32.4-8.4-48.6-12.5c-4.4-1.1-9-2.2-13.5-2.2c-29.7-0.1-36.7,6.1-41.4,32.2
		c-0.3,1.5-0.7,2.9-0.8,3.4c-12,1-23.5,1.5-34.8,3.2c-9.5,1.4-16.3,7.3-21.2,15.8c-5.6,9.7-5.8,18.9,1.2,28.2
		c-10.9,6.6-24.1,8.8-28.2,22.4c-3.8,12.5-2.7,24,6.4,33.9c-17.4,16.8-16.4,38.6,0.2,55.2c1.5,1.5,2.2,5.5,1.4,7.7
		c-1.8,5.1-2.5,10-2.3,14.8c0.2,4.7,1.3,9.2,3.2,13.1c3.7,8.5,12.2,13.9,21,16.6C2325.1,5207.6,2329.4,5208.2,2334,5208.2z"/>
	
		<rect x="2477.7" y="5225" transform="matrix(6.123234e-17 -1 1 6.123234e-17 -2819.7798 7811.5015)" class="st6" width="36.4" height="181.2"/>
	<rect x="2393.3" y="5330.5" class="st6" width="204.2" height="259.5"/>
	<path class="st6" d="M2614,4772.6c-2.1-1.3-4.3-2.6-6.5-3.7l4.7-11.6c0,0-111.1-45.6-148.3-68.9c-2.4-1.5-4.5-3-6.3-4.3l-4.2,10.3
		c-85.3-51.7-215.7-139.7-270.5-223.2c2.1-7.8-2.1-16.1-9.8-19c-8.3-3.1-17.5,1.1-20.6,9.3l-47.8,127.4l-31.9-12
		c-1.9-0.7-4,0.2-4.7,2.1l-8.9,63.6l-35.3,53.6c-0.7,1.9,0.2,4,2.1,4.7l32.1,12.1l-49.6,132c-3.1,8.3,1.1,17.5,9.3,20.6
		c7.3,2.7,15.4-0.2,19.3-6.7c0.9-0.3,1.8-0.5,2.7-0.7l-0.3,0.9c35.8-10.3,80.2-14.1,126.8-13.9c77.2,0.6,160.3,11.9,221.4,22.4
		l-3.9,11.1c2.2,0.2,4.7,0.5,7.6,1c13.7,2.3,34.3,7.8,56.1,14.3l-30.3,97.1l-0.1,0.2l-27.9,89.2l0,0.1l-20.2,64.5
		c-8.8,27.6,1.7,37.7,7.8,40l38.8,16.5c12.3,4.6,30.6,10.8,41.8-29.3l16.4-59.8l0-0.1l8-29.2l16.8-61.2l0-0.2l28.1-102.5
		c8.4,2.8,14.8,5,18.2,6.2c0.9,0.3,1.6,0.5,2.1,0.7c0.1,0,0.2,0,0.2,0.1c0.4,0.1,0.6,0.2,0.6,0.2l3.3-9.3c2.5,0.7,4.9,1.2,7.4,1.5
		c32.7,4.9,65.5-13.4,77.6-45.6l5.8-15.6C2654,4825.7,2641.6,4790.5,2614,4772.6z"/>
	<polygon class="st6" points="262.1,4211.7 141.3,4618.3 131.1,4652.6 63.6,4632.6 0,4613.7 0,4133.8 	"/>
	<path class="st6" d="M1788.3,4972.6c0.7,5.5,0.3,10.9-1.2,15.8c-2.7,10.5-11.5,18.4-21.1,23.3c-4.3,2-9.1,3.6-14.3,4.5
		c-25.6,12-49.4,29-68.9,51.9c-16.7,20.1-19.1,44.3-16.2,68.7l19.5-3.3l6.4,37.9l14.4-2.3l70.7,420.8h-242.2l-49.5-294.3l-14.6-86.9
		l12.4-2.2l-6.4-38l21.2-3.6c-2.3-18.5-5-36-9-53.7c-1.9-8.8-2.4-18.7-3.6-27.4c-0.7-6-1.4-11.9-2.2-17.9
		c-0.7-6.3-1.4-12.6-2.1-18.9c-3.8-37.9-5.3-75.8,6.9-112.7c1.6-5.9,1.3-11.3,0.9-17.3c-0.3-8-1.1-16.2,0.3-24.4
		c0.4-4.9,0.9-9.7,1.4-14.6c1.5-14.6,3.1-29.1,4.6-43.7c2.9-28.1,16-48.9,43.1-59.9c18.2-7.4,35.8-16,53.8-23.9
		c4.9-2.1,9.9-4.3,15.1-5.2c34.3-5.9,43.6-0.1,54.2,29.2c0.6,1.6,1.4,3.2,1.6,3.7c14.1-1.1,27.4-2.8,40.8-3.1
		c11.3-0.2,20.2,5.3,27.5,14.2c8.3,10.1,10.4,20.7,4.1,32.8c13.8,5.5,29.5,5.5,37,20.4c6.9,13.7,7.8,27.2-0.8,40.4
		c23.4,16,26.5,41.4,10.5,63.9c-1.5,2.1-1.4,6.8-0.1,9.1C1785.8,4961.5,1787.6,4967.1,1788.3,4972.6z"/>
	
		<rect x="1609.6" y="4353.5" transform="matrix(0.9862 -0.1658 0.1658 0.9862 -781.3684 342.138)" class="st6" width="98.3" height="996.1"/>
	
		<rect x="1153.8" y="3986" transform="matrix(0.9862 -0.1658 0.1658 0.9862 -677.4934 315.6331)" class="st6" width="796.1" height="460"/>
	<path class="st6" d="M3978,5262.3c-1.9,1.7-2.9,6.3-2.1,8.9c1.7,6.1,2.2,11.9,1.7,17.4c-0.5,5.5-2.1,10.6-4.7,15.2
		c-1.1,2.2-2.5,4.2-4.2,6c-5.5,6.1-13.5,10-21.6,12c-4.6,1-9.7,1.4-15,1.2c-5.2,1.1-10.3,2.4-15.4,3.9
		c-22.2,6.5-43.7,16.7-63.3,31.2c-20.8,15.8-28.5,38.9-31.2,63.3l19.8,1.2l-2.3,38.4l14.6,0.9l-7.6,128.2h-239.3l8.5-142.2l12.6,0.7
		l2.3-38.4l21.4,1.3c1.9-18.5,3.2-36.2,3.3-54.4c0.2-9,1.9-18.7,2.7-27.5c0.7-6,1.3-12,1.9-18c0.4-3.3,0.7-6.5,1.1-9.8
		c0.4-3.1,0.7-6.1,1.1-9.2c4.7-37.8,11.8-75,32-108.3c2.9-5.4,3.8-10.7,4.8-16.6c1.5-7.9,2.6-16.1,5.8-23.7
		c1.5-4.6,3.1-9.3,4.6-13.9c4.7-13.9,9.5-27.7,14.3-41.5c9.1-26.7,26.5-44.1,55.4-48.8c19.1-3.1,37.9-7.4,56.9-11.1
		c0.3-0.1,0.6-0.1,0.9-0.2c5.2-1,10.7-2,15.9-1.7c34.8,1.9,42.5,9.6,46.2,40.6c0.2,1.7,0.7,3.4,0.8,4c11,1.6,21.6,2.8,31.9,4.5
		c2.9,0.5,5.7,1,8.5,1.6c11,2.3,18.5,9.7,23.7,20c5.9,11.7,5.5,22.5-3.4,32.9c2.7,1.8,5.5,3.4,8.3,5c10.1,5.6,20.1,10.5,23.2,23.1
		c3.6,14.9,1.5,28.3-9.8,39.2C4001.2,5218.6,3998.6,5244,3978,5262.3z"/>
	<polygon class="st6" points="3957.1,4647.3 3931.6,5075.9 3916.6,5326.8 3901,5590 3802.5,5590 3835.9,5028.6 3858.9,4641.5 	"/>
	
		<rect x="3518.7" y="4268.3" transform="matrix(0.9982 5.944423e-02 -5.944423e-02 0.9982 274.3233 -224.8724)" class="st6" width="796.1" height="460"/>
	<path class="st4" d="M5271.2,5606h200.4c9.6-36.6,20.7-73.4,32.6-109.6c0-0.1,0.1-0.3,0.1-0.4c5.6-17,11.4-34,17.3-50.9
		c6.4-18.2,15.8-35.4,32-48.3c37.3-29.5,53.1-71.5,64.3-115.9c1.6-6.3,3.8-13.1,7.7-18.1c3.1-4,5.5-8.2,7.2-12.5
		c8-20.5-0.9-42.4-23.2-51.5c-2.4-1-5.3-4.4-5.5-6.9c-1.7-26.5-19.5-43.6-46.7-41.4c-1.6-15.1-10.5-24.6-24-30.7
		c-14.6-6.6-26.3,2.9-40,7.2c-2.6-12.9-10.6-19.6-23-22.1c-4.5-0.9-8.8-1.2-12.9-0.8c-5.9,0.6-11.4,2.8-16.4,6.9
		c-9.9,8.3-18.8,17.7-28.7,27.1c-0.5-0.3-2.1-0.9-3.5-1.8c-25.7-15.5-36.2-14.2-58.3,11.1c-3.3,3.8-5.8,8.5-8.2,13.1
		c-8.7,16.8-16.6,34-25.7,50.6c-13.6,24.8-10.7,48.3,4.2,71.1c15.4,23.6,30.6,47.5,47,70.4c8.4,11.8,8.6,23,4,35.9
		c-7.7,21.7-15.9,43.1-24.5,64.3c0,0.1-0.1-0.5-0.1,0.3h0c-21.5,52.9-46.7,103.7-76.1,152.7C5271.2,5605.8,5271.2,5606,5271.2,5606z
		"/>
	<path class="st4" d="M5271.2,5606L5271.2,5606L5271.2,5606C5271.2,5606,5271.2,5606,5271.2,5606z"/>
	
		<rect x="5410.4" y="5355.9" transform="matrix(0.2655 -0.9641 0.9641 0.2655 -1273.5024 9245.082)" class="st4" width="41.1" height="204.8"/>
	<polygon class="st4" points="5271.2,5606 5510.7,5606 5538.3,5505.8 5504.2,5496.4 5504.2,5496.4 5421.7,5473.6 5358.5,5456.4 
		5358.5,5456.2 5347.3,5453.1 5347.3,5453.1 5315.7,5444.4 5271.2,5605.8 	"/>
	<path class="st4" d="M6673.1,4971.3c-1.5,6.2-0.8,13.3,0.4,19.7c8,45.1,10.6,89.8-11.3,132c-9.6,18.4-11.1,38-9.5,57.2
		c1.5,17.9,3.2,35.7,5,53.6c6.6,64.3,15.8,128.3,30.5,191.5c1.4,6,3,11.8,4.8,19.3l-196.3,30.1l-7-45.3c6.7-56.9,8.9-113.9,7-170.9
		c-0.8-22.9-2.1-45.8-3.9-68.7c-1.1-13.6-5.8-23.7-18.3-31.1c-24.3-14.3-47.9-29.8-71.6-45.1c-22.9-14.7-35.1-35-32.9-63.1
		c1.5-18.9,1.8-37.8,2.8-56.7c0.3-5.1,0.6-10.4,2.1-15.3c9.8-32.1,18.8-37.6,48.7-33.9c1.7,0.2,3.4,0.2,3.9,0.2
		c5.2-12.6,9.5-24.9,15.1-36.5c4.7-9.8,13.3-15.1,24.2-17.6c12.4-2.8,22.4,0.1,30,10.8c10.8-9.5,17.5-23,33.6-23
		c14.8,0.1,26.8,5.1,34.4,18.2c24-13.2,47.2-4.8,59.6,18.7c1.2,2.2,5.2,4.2,7.8,4.1C6661.5,4918.5,6680.3,4942.6,6673.1,4971.3z"/>
	
		<rect x="6554.8" y="5127.1" transform="matrix(-0.1518 -0.9884 0.9884 -0.1518 2404.2825 12522.3574)" class="st4" width="41.1" height="204.8"/>
	<polygon class="st4" points="6464.5,5264 6517,5606 6750.6,5606 6692.7,5229 6590.8,5244.7 	"/>
	<path class="st4" d="M8809.9,5092.8c-4.5,4.5-7.6,10.9-10,17c-16.9,42.6-38.1,82-78.9,106.4c-17.8,10.7-29.4,26.5-38.1,43.7
		c-8.1,16-16.1,32.1-23.9,48.2c-28.1,58.2-54,117.5-74.6,179c-2,5.8-3.7,11.6-6,18.9l-182.8-77.4l17.9-42.2
		c35.6-44.8,67.4-92.2,95.7-141.8c11.4-19.9,22.3-40.1,32.8-60.5c6.2-12.2,7.5-23.2,0.7-36.1c-13.2-24.9-25.1-50.5-37.3-76
		c-11.8-24.6-11.5-48.2,5.2-71c11.2-15.2,21.4-31.2,32.2-46.8c2.9-4.2,6-8.6,9.8-11.9c25.2-22.2,35.7-22.1,59.2-3.3
		c1.3,1.1,2.8,1.9,3.2,2.3c11-8,21.1-16.2,32-23.1c9.2-5.9,19.3-5.9,29.8-2.3c12,4.1,19,11.8,19.9,24.9c14.2-2.5,27-10.4,40.6-1.9
		c12.6,7.8,20.2,18.4,19.8,33.6c27.3,1.4,42.7,20.7,40.9,47.2c-0.2,2.5,2.2,6.3,4.5,7.6C8827.7,5041.7,8831,5072.1,8809.9,5092.8z"
		/>
	
		<rect x="8570.5" y="5158.8" transform="matrix(0.3898 -0.9209 0.9209 0.3898 397.014 11121.542)" class="st4" width="41.1" height="204.8"/>
	<polygon class="st4" points="8320.5,5606 8571.3,5606 8691.3,5322.3 8478.7,5232.4 8445.1,5311.7 	"/>
	<path class="st4" d="M9609.6,5035.1c0,5.1,1.2,10.3,2.5,15.2c4.5,18.4,9.8,36.6,13.9,55c6,27.6,23.7,43.4,49.9,50.8
		c27.2,7.6,54.3,15.6,81.7,22.1c14.2,3.4,21.6,11.7,26.6,24.4c3.8,9.7,7.6,19.4,11.2,29.2c4.4,11.7,8.6,23.5,12.6,35.4
		c0,0.1,0.1,0.3,0.2,0.5c0.4,1,0.7,2.1,1.1,3.1c17.9,52.8,32.1,106.8,42,161.9l19.9,41.3l59.9-28.9v-306.7
		c-5.2-15.4-7.8-31.8-4.6-49.1c8.6-46.8-7-88.8-27.8-129.5c-3-5.8-5.8-12.4-6.1-18.8c-1.6-29.6-26.6-47.2-54.2-37.6
		c-2.5,0.9-6.9,0.1-8.7-1.6c-18.7-18.8-43.3-20-62.4-0.5c-11.1-10.3-24.1-11.6-38.3-7.3c-15.4,4.6-17.9,19.5-25.4,31.8
		c-10.4-8-20.9-7.8-31.9-1.5c-9.6,5.5-16.3,13.1-18,23.9c-2,12.7-2.5,25.7-3.8,39.3c-0.6,0.1-2.2,0.6-3.8,1
		C9616.6,4993.7,9609.6,5001.5,9609.6,5035.1z"/>
	<polygon class="st4" points="9773.3,5242.5 9789.8,5276.5 9791.2,5279.5 9809.2,5270.9 9931,5212.1 9931,5166.5 9795.3,5231.9 	"/>
	<polygon class="st4" points="9778.5,5282 9931,5598.6 9931,5208.5 9844.4,5250.2 9808.1,5267.7 9789.8,5276.5 	"/>
	<path class="st4" d="M4931,5054.9V5606h47.1l103.1-347l-14-4.3l11-36.9l-19-5.6c8.2-23.2,20.9-43.9,44.8-54.6
		c12.7-5.5,25.7-9.5,38.7-12.2c15.3-3.1,30.8-4.4,46-4.1c5.1,1.5,10.1,2.2,14.9,2.3c10.8-0.1,22.2-3.4,29.2-11.6
		c3.5-3.8,6.3-8.5,8-13.7c1.8-5.2,2.6-11.1,2.3-17.4c-0.1-2.7,1.9-6.9,4.1-8.2c24.2-13.1,32.6-37.3,18.6-62
		c13.5-8,18.6-20.6,18.4-35.9c-0.1-16.6-14.2-23.5-24.2-34.5c11-8.1,13.8-18.5,10.8-31.3c-1.5-6.5-4.1-12.2-7.9-16.7
		c-2.8-3.3-6.3-6.1-10.6-8.1c-6-2.8-12.2-5.3-18.5-7.7c-6.4-2.5-12.9-4.9-19.5-7.5c0-0.6,0-2.4,0.2-4.1c0.9-8,1.1-14.5,0.5-19.9
		c-1.1-9-4.6-15.1-12-20.1c-5.6-3.8-13.5-6.9-24.3-10c-5.1-1.5-10.6-1.8-15.9-2c-19.6-0.9-39.3-0.9-58.8-2.2
		c-29.3-2-50.1,10.9-65.1,34.9c-7.8,12.4-15.6,24.8-23.3,37.2c-0.7,1.1-1.4,2.2-2,3.3c-1.9,3.1-3.8,6.1-5.6,9.2
		c-4.8,6.7-7.8,14.4-11,21.8c-2.3,5.5-4.4,10.5-8.5,15.1c-0.7,0.7-1.3,1.4-2,2v0c-26,27.4-40.9,61.3-53.8,96.1
		C4932.2,5051.8,4931.6,5053.4,4931,5054.9z"/>
	<path class="st4" d="M6359.4,4279.8c-35,9.7-68.9,26.2-98.5,51.1c-37.1,31.8-37.5,81.8-34.3,125.7c0.9,10,2.4,20,4.3,29.6
		c1.9,9.7,4.3,19.1,7,28c3.5,16.9,7,33.3,9.1,48.6c0.9,6.5,1.5,13,1.7,19.5c0.6,19.4-2.4,38.2-11.9,55.5c-3.6,6.6-8.1,12.9-13.8,19
		c-15.2,17.9-39.4,22.4-62.1,20.6c-35.8-2.5-70.1,3-103.8-5.2c-31.9-8-42.5-34.3-47.1-65c-1.2-7.7-1.9-15.6-2.5-23.5
		c-0.7-8.9-0.3-17.9-1.8-26.6c-2.1-14.1-4.2-27.6-4.3-42c1.7-57.6,8.3-113.7,5.2-170.8c-0.5-11.6,1-24,1.3-35.4
		c0.4-7.7,0.8-15.5,1-23.2c0.4-8.2,0.9-16.3,1.4-24.5c3.2-48.9,9.4-97.3,32.8-141.5c3.4-7.2,4-14.1,4.9-21.7
		c1.3-10.2,2.1-20.8,5.6-30.9c1.6-6.1,3.2-12.1,4.9-18.2c4.9-18.2,10.1-36.3,15.1-54.4c9.7-35,30.7-58.6,67.4-66.8
		c24.6-5.5,48.8-12.7,73.3-18.8c6.6-1.7,13.5-3.3,20.3-3.4c44.8-0.2,55.3,9.1,62.5,48.6c0.4,2.2,1.1,4.4,1.3,5.1
		c18.1,1.6,35.4,2.3,52.4,4.8c14.3,2.1,24.5,11,31.9,23.8c8.4,14.6,8.8,28.5-1.8,42.5c16.4,9.9,36.3,13.2,42.5,33.7
		c5.8,18.9,4.1,36.2-9.6,51.1c26.2,25.3,24.7,58.2-0.3,83.2c-2.3,2.3-3.2,8.3-2.1,11.6c2.7,7.6,3.8,15.2,3.5,22.3
		c-0.3,7.1-2,13.8-4.9,19.8c-5.6,12.8-18.5,20.9-31.7,25C6372.7,4278.8,6366.2,4279.7,6359.4,4279.8z"/>
	
		<rect x="6087.9" y="4305.2" transform="matrix(4.487350e-11 -1 1 4.487350e-11 1673.4829 10557.0713)" class="st4" width="54.8" height="273.2"/>
	<rect x="5962.7" y="4464.6" class="st4" width="307.5" height="1141.4"/>
	<path class="st4" d="M5937.2,3623c3.1-2,6.4-3.9,9.8-5.6l-7-17.5c0,0,167.5-68.7,223.6-103.8c3.7-2.3,6.9-4.5,9.5-6.4l6.3,15.6
		c128.6-78,325.2-210.6,407.9-336.6c-3.1-11.8,3.2-24.3,14.8-28.6c12.4-4.7,26.3,1.6,31,14.1l72.1,192.1l48.2-18.2
		c2.8-1.1,6,0.4,7,3.2l13.4,95.9l53.2,80.9c1.1,2.8-0.4,6-3.2,7l-48.4,18.3l74.7,199.1c4.7,12.5-1.6,26.3-14.1,31
		c-11,4.1-23.2-0.3-29-10c-1.3-0.4-2.7-0.8-4-1.1l0.5,1.4c-54-15.5-120.9-21.2-191.2-20.9c-116.4,0.9-241.7,18-333.8,33.8l5.9,16.7
		c-3.3,0.3-7.1,0.8-11.4,1.5c-20.6,3.5-51.7,11.8-84.6,21.5l45.7,146.4l0.1,0.3l42,134.6l0,0.1l30.4,97.3
		c13.2,41.6-2.5,56.8-11.8,60.3l-58.5,24.9c-18.5,7-46.2,16.3-63-44.1l-24.8-90.2l0-0.1l-12.1-44l-25.4-92.3l-0.1-0.3l-42.4-154.6
		c-12.6,4.3-22.3,7.6-27.5,9.4c-1.3,0.5-2.4,0.8-3.1,1.1c-0.1,0-0.3,0.1-0.4,0.1c-0.6,0.2-0.9,0.3-0.9,0.3l-5-14
		c-3.7,1-7.4,1.7-11.1,2.3c-49.3,7.5-98.8-20.2-117-68.8l-8.8-23.5C5876.9,3703.1,5895.6,3650,5937.2,3623z"/>
	<path class="st4" d="M7880.2,5224.2c23.2,6.5,45.7,17.4,65.3,33.9c24.6,21.1,24.9,54.2,22.8,83.4c-0.6,6.6-1.6,13.2-2.8,19.7
		c-1.3,6.4-2.9,12.7-4.6,18.6c-2.3,11.2-4.6,22.1-6,32.2c-0.6,4.3-1,8.6-1.1,12.9c-0.4,12.8,1.6,25.4,7.9,36.8
		c2.4,4.4,5.4,8.6,9.1,12.6c10.1,11.9,26.1,14.9,41.2,13.7c23.8-1.7,46.5,2,68.8-3.4c21.2-5.3,28.2-22.8,31.2-43.1
		c0.8-5.1,1.3-10.4,1.6-15.6c0.5-5.9,0.2-11.8,1.2-17.6c1.4-9.4,2.8-18.3,2.8-27.8c-1.1-38.2-5.5-75.4-3.4-113.3
		c0.3-7.7-0.6-15.9-0.9-23.5c-0.3-5.1-0.5-10.3-0.7-15.4c-0.3-5.4-0.6-10.8-0.9-16.2c-2.1-32.4-6.3-64.5-21.8-93.8
		c-2.2-4.8-2.7-9.3-3.2-14.4c-0.8-6.8-1.4-13.8-3.7-20.5c-1.1-4-2.1-8-3.2-12.1c-3.3-12-6.7-24.1-10-36.1
		c-6.4-23.2-20.3-38.9-44.7-44.3c-16.3-3.7-32.4-8.4-48.6-12.5c-4.4-1.1-9-2.2-13.5-2.2c-29.7-0.1-36.7,6.1-41.4,32.2
		c-0.3,1.5-0.7,2.9-0.8,3.4c-12,1-23.5,1.5-34.8,3.2c-9.5,1.4-16.3,7.3-21.2,15.8c-5.6,9.7-5.8,18.9,1.2,28.2
		c-10.9,6.6-24.1,8.8-28.2,22.4c-3.8,12.5-2.7,24,6.4,33.9c-17.4,16.8-16.4,38.6,0.2,55.2c1.5,1.5,2.2,5.5,1.4,7.7
		c-1.8,5.1-2.5,10-2.3,14.8c0.2,4.7,1.3,9.2,3.2,13.1c3.7,8.5,12.2,13.9,21,16.6C7871.4,5223.6,7875.7,5224.2,7880.2,5224.2z"/>
	
		<rect x="8024" y="5241" transform="matrix(4.490459e-11 -1 1 4.490459e-11 2710.5027 13373.7842)" class="st4" width="36.4" height="181.2"/>
	<rect x="7939.6" y="5346.5" class="st4" width="204.2" height="259.5"/>
	<path class="st4" d="M8160.3,4788.6c-2.1-1.3-4.3-2.6-6.5-3.7l4.7-11.6c0,0-111.1-45.6-148.3-68.9c-2.4-1.5-4.5-3-6.3-4.3
		l-4.2,10.3c-85.3-51.7-215.7-139.7-270.5-223.2c2.1-7.8-2.1-16.1-9.8-19c-8.3-3.1-17.5,1.1-20.6,9.3l-47.8,127.4l-31.9-12
		c-1.9-0.7-4,0.2-4.7,2.1l-8.9,63.6l-35.3,53.6c-0.7,1.9,0.2,4,2.1,4.7l32.1,12.1l-49.6,132c-3.1,8.3,1.1,17.5,9.3,20.6
		c7.3,2.7,15.4-0.2,19.3-6.7c0.9-0.3,1.8-0.5,2.7-0.7l-0.3,0.9c35.8-10.3,80.2-14.1,126.8-13.9c77.2,0.6,160.3,11.9,221.4,22.4
		l-3.9,11.1c2.2,0.2,4.7,0.5,7.6,1c13.7,2.3,34.3,7.8,56.1,14.3l-30.3,97.1l-0.1,0.2l-27.9,89.2l0,0.1l-20.2,64.5
		c-8.8,27.6,1.7,37.7,7.8,40l38.8,16.5c12.3,4.6,30.6,10.8,41.8-29.3l16.4-59.8l0-0.1l8-29.2l16.8-61.2l0-0.2l28.1-102.5
		c8.4,2.8,14.8,5,18.2,6.2c0.9,0.3,1.6,0.5,2.1,0.7c0.1,0,0.2,0,0.2,0.1c0.4,0.1,0.6,0.2,0.6,0.2l3.3-9.3c2.5,0.7,4.9,1.2,7.4,1.5
		c32.7,4.9,65.5-13.4,77.6-45.6l5.8-15.6C8200.3,4841.7,8187.8,4806.5,8160.3,4788.6z"/>
	
		<rect x="5128.6" y="4454.4" transform="matrix(0.9586 0.2849 -0.2849 0.9586 1625.6191 -1269.9388)" class="st4" width="98.3" height="996.1"/>
	<polygon class="st4" points="4931,4385.3 4931,4446.8 5677.4,4668.6 5808.4,4227.7 5045.3,4000.9 	"/>
	<polygon class="st4" points="9679.4,3639.7 9810.4,4080.6 9931,4044.8 9931,3564.9 	"/>
	<path class="st4" d="M7017.6,5224.8l14.6,86.9l49.5,294.3h242.2l-70.7-420.8l-14.4,2.3l-6.4-38l-19.5,3.3
		c-2.9-24.4-0.5-48.6,16.2-68.7c19.5-22.9,43.3-39.9,68.9-51.9c5.2-0.9,10.1-2.5,14.3-4.5c9.6-4.9,18.4-12.8,21.1-23.3
		c1.5-5,1.9-10.4,1.2-15.8c-0.7-5.5-2.5-11.1-5.6-16.6c-1.3-2.4-1.4-7.1,0.1-9.1c15.9-22.4,12.8-47.8-10.5-63.9
		c8.6-13.2,7.6-26.6,0.8-40.4c-7.4-14.9-23.1-14.9-37-20.4c6.3-12.1,4.3-22.7-4.1-32.8c-7.3-8.9-16.3-14.4-27.5-14.2
		c-13.4,0.2-26.7,1.9-40.8,3.1c-0.2-0.5-1-2.1-1.6-3.7c-10.6-29.3-19.8-35.1-54.2-29.2c-5.2,0.9-10.3,3.1-15.1,5.2
		c-18,7.9-35.6,16.5-53.8,23.9c-27.1,11.1-40.2,31.8-43.1,59.9c-1.5,14.5-3.1,29.1-4.6,43.7c-0.5,4.9-1,9.7-1.4,14.6
		c-1.4,8.2-0.7,16.4-0.3,24.4c0.3,6,0.7,11.3-0.9,17.3c-12.2,36.9-10.8,74.8-6.9,112.7c0.6,6.3,1.3,12.6,2.1,18.9
		c0.8,6,1.5,11.9,2.2,17.9c1.2,8.8,1.7,18.6,3.6,27.4c4,17.8,6.6,35.3,9,53.7l-21.2,3.6l6.4,38L7017.6,5224.8z"/>
	
		<rect x="7155.8" y="4369.5" transform="matrix(0.9862 -0.1658 0.1658 0.9862 -707.2668 1261.8706)" class="st4" width="98.3" height="996.1"/>
	
		<rect x="6700.1" y="4002" transform="matrix(0.9862 -0.1658 0.1658 0.9862 -603.3918 1235.3702)" class="st4" width="796.1" height="460"/>
	<path class="st4" d="M9153.5,5606h239.3l7.6-128.2l-14.6-0.9l2.3-38.4l-19.8-1.2c2.7-24.4,10.4-47.5,31.2-63.3
		c19.6-14.6,41.1-24.8,63.3-31.2c5.1-1.5,10.3-2.8,15.4-3.9c5.3,0.3,10.4-0.1,15-1.2c8.1-2,16.1-5.9,21.6-12c1.6-1.8,3-3.8,4.2-6
		c2.6-4.5,4.2-9.7,4.7-15.2c0.5-5.5,0-11.4-1.7-17.4c-0.7-2.6,0.2-7.2,2.1-8.9c20.6-18.3,23.2-43.7,4.1-64.6
		c11.3-10.9,13.4-24.3,9.8-39.2c-3.1-12.7-13.1-17.6-23.2-23.1c-2.8-1.6-5.6-3.2-8.3-5c8.9-10.4,9.2-21.1,3.4-32.9
		c-5.1-10.3-12.6-17.6-23.7-20c-2.8-0.6-5.7-1.1-8.5-1.6c-10.4-1.8-21-2.9-31.9-4.5c-0.1-0.6-0.5-2.3-0.8-4
		c-3.8-30.9-11.5-38.6-46.2-40.6c-5.3-0.3-10.7,0.7-15.9,1.7c-0.3,0.1-0.6,0.1-0.9,0.2c-19,3.6-37.8,8-56.9,11.1
		c-28.9,4.7-46.3,22-55.4,48.8c-4.7,13.8-9.6,27.7-14.3,41.5c-1.6,4.6-3.1,9.2-4.6,13.9c-3.2,7.6-4.3,15.8-5.8,23.7
		c-1,5.9-1.9,11.2-4.8,16.6c-20.2,33.2-27.3,70.5-32,108.3c-0.4,3.1-0.8,6.1-1.1,9.2c-0.4,3.3-0.8,6.5-1.1,9.8c-0.6,6-1.2,12-1.9,18
		c-0.8,8.8-2.5,18.5-2.7,27.5c-0.1,18.2-1.4,35.9-3.3,54.4l-12.4-0.7l-9.1-0.5l-2.3,38.4l-12.6-0.7L9153.5,5606z"/>
	<polygon class="st4" points="9348.7,5606 9447.3,5606 9462.9,5342.8 9477.9,5091.9 9503.4,4663.3 9405.2,4657.5 9382.2,5044.6 	"/>
	
		<rect x="9064.9" y="4284.3" transform="matrix(0.9982 5.944424e-02 -5.944424e-02 0.9982 285.0823 -554.5386)" class="st4" width="796.1" height="460"/>
	<path class="st5" d="M9531.9,5494.2c-0.6,3.9-0.3,7.8,0.7,11.4c1.8,7.6,8,13.4,14.9,17c3.1,1.5,6.5,2.6,10.3,3.4
		c3.4,1.7,6.8,3.5,10.1,5.4c14.4,8.3,27.7,19.1,38.8,32.7c10.1,12.5,12.6,27.4,11.7,42.1H9743c0.6-3.3,1.3-6,2-8.9
		c1.4-6.3,1.9-13.3,2.8-19.6c0.5-4.3,1.1-8.6,1.8-12.8c0.6-4.5,1.2-9.1,1.7-13.6c3.2-27.2,4.6-54.4-3.7-81
		c-1.1-4.3-0.8-8.1-0.5-12.4c0.3-5.8,0.9-11.7,0-17.5c-0.3-3.5-0.5-7-0.8-10.5c-0.9-10.5-1.9-20.9-2.8-31.4
		c-1.8-20.2-10.9-35.3-30.3-43.5c-12.8-5.4-25.2-11.7-37.8-17.5c-0.2-0.1-0.4-0.2-0.6-0.3c-3.5-1.6-7.1-3.2-10.8-3.9
		c-24.6-4.6-31.3-0.6-39.2,20.4c-0.4,1.2-1,2.3-1.2,2.7c-7.9-0.8-15.5-1.8-23.1-2.3c-2.1-0.2-4.1-0.3-6.2-0.3
		c-8.1-0.3-14.6,3.6-19.9,9.9c-6.1,7.2-7.7,14.8-3.3,23.5c-10,3.8-21.3,3.6-26.8,14.2c-5.1,9.8-5.9,19.5,0.1,29
		c-17,11.3-19.5,29.5-8.3,45.7c1,1.5,1,4.9,0,6.6C9533.9,5486.2,9532.5,5490.3,9531.9,5494.2z"/>
	<polygon class="st5" points="9554.1,5606 9625.9,5606 9675.4,5337.1 9744.4,4961.9 9674.9,4949.1 9600.5,5353.7 9567.8,5531.3 	"/>
	<polygon class="st5" points="9319.6,4883.8 9931,4996.2 9931,4660.3 9867.4,4648.6 9867.4,4648.6 9789.7,4634.3 9379.4,4558.8 	"/>
	<path class="st5" d="M7784.5,5596.8l-21.1,3.9l1,5.3h226l-1.4-7.4l-14.4,2.6l-7-38l-18.8,3.5c-3.2-23.8-1.2-47.6,14.9-67.5
		c15.2-18.5,33.4-33.2,53-44.6c4.5-2.6,9.1-5.1,13.8-7.3c5.1-1,9.8-2.6,14-4.6c9.3-4.9,17.8-12.8,20.3-23.1
		c1.4-4.9,1.7-10.2,0.9-15.5c-0.8-5.4-2.6-10.8-5.7-16.2c-1.3-2.3-1.5-6.9,0-9c7.4-10.7,10.4-22,9-32.6
		c-1.5-11.4-8.2-21.9-20.2-29.9c8.2-13,7.1-26.2,0.1-39.6c-7.5-14.5-22.9-14.2-36.5-19.4c6-11.9,3.8-22.3-4.5-32.1
		c-7.3-8.6-16.2-13.8-27.2-13.5c-2.8,0.1-5.7,0.3-8.5,0.5c-10.3,0.7-20.6,2.1-31.5,3.1c-0.2-0.5-1.1-2-1.7-3.6
		c-10.8-28.6-20-34.1-53.5-27.8c-5.1,0.9-10,3.2-14.8,5.3c-0.3,0.1-0.5,0.2-0.8,0.4c-17.2,7.9-34.2,16.4-51.6,23.8
		c-26.4,11.2-38.9,31.8-41.3,59.4c-1.3,14.3-2.6,28.6-3.8,42.9c-0.4,4.8-0.8,9.5-1.2,14.3c-1.2,8-0.4,16.1,0.1,23.9
		c0.4,5.9,0.9,11.1-0.7,17c-11.5,36.4-9.5,73.5-5.1,110.6c0.7,6.2,1.5,12.4,2.3,18.5c0.9,5.8,1.7,11.7,2.4,17.5
		c1.3,8.6,1.9,18.2,3.9,26.8C7779.1,5561.7,7782,5579.2,7784.5,5596.8z"/>
	<polygon class="st5" points="7775.8,4677.5 7869.9,5189.6 7940,5570.8 7946.4,5606 8044.5,5606 8016.6,5454.6 7996.7,5346.3 
		7972.1,5212.2 7870.6,4660.1 	"/>
	
		<rect x="7234.5" y="4147.1" transform="matrix(0.9835 -0.1808 0.1808 0.9835 -669.2709 1478.6943)" class="st5" width="1082.3" height="526.1"/>
	<path class="st5" d="M6470.8,4801.2c-2.3,6.5-3.2,12.9-3,18.9c0.2,6,1.7,11.8,4.2,16.9c4.8,10.9,15.7,17.8,27,21.3
		c5,1.4,10.5,2.2,16.3,2.3c29.8,8.3,58.6,22.4,83.8,43.6c21.7,18.6,28.6,44.5,30,71.3h-22v42.3h-16.3V5606h261.1v-588.2H6838v-42.3
		h-22.6c-0.8-20.3-1.2-39.8-0.1-59.7c0.4-9.8-0.8-20.7-1.1-30.4c-0.4-6.6-0.7-13.2-0.9-19.7c-0.4-6.9-0.7-13.9-1.2-20.8
		c-2.7-41.6-8-82.8-27.9-120.4c-2.9-6.1-3.4-12-4.1-18.5c-1.1-8.7-1.8-17.7-4.8-26.3c-1.4-5.2-2.7-10.3-4.1-15.5
		c-4.2-15.4-8.6-30.9-12.9-46.3c-8.3-29.8-26.1-49.9-57.4-56.9c-20.9-4.7-41.6-10.8-62.4-16c-5.7-1.4-11.5-2.9-17.3-2.9
		c-38.1-0.2-47,7.8-53.2,41.3c-0.3,1.9-0.9,3.7-1.1,4.3c-15.4,1.4-30.1,1.9-44.6,4.1c-12.2,1.8-20.9,9.4-27.2,20.3
		c-7.2,12.5-7.5,24.3,1.6,36.2c-13.9,8.5-30.9,11.3-36.2,28.7c-4.9,16.1-3.5,30.8,8.1,43.5c-22.3,21.5-21,49.5,0.2,70.8
		C6471,4793.3,6471.8,4798.4,6470.8,4801.2z"/>
	
		<rect x="6531.9" y="3964.1" transform="matrix(-1 -4.489399e-11 4.489399e-11 -1 13171.3262 9018.2598)" class="st5" width="107.6" height="1090"/>
	
		<rect x="5981.6" y="3460.8" transform="matrix(-1 -4.489710e-11 4.489710e-11 -1 13171.3262 7587.001)" class="st5" width="1208.1" height="665.5"/>
	<path class="st5" d="M4960.8,4856.4l11.4,16.8c8,11.8,18.5,21.1,30.2,27.5c3.6,2,7.4,3.7,11.2,5.2c20.2,7.6,43.1,7.7,63.8-0.7
		c2.8-1.1,5.6-2.4,8.3-3.9l6.6,10.1c0,0,0.2-0.1,0.6-0.4c0.1-0.1,0.2-0.1,0.3-0.2c0.5-0.3,1.3-0.8,2.2-1.4
		c3.8-2.4,10.7-6.9,19.9-12.6l43,78c-6.8,11.1-10.2,24.3-10.7,39.3c-0.5,15.2-1.1,30.5-1.6,45.7c-0.1,5.1-0.3,10.2-0.4,15.2
		c-0.8,8.6,0.5,17.1,1.4,25.4c0.8,6.2,1.6,11.7,0.3,18c-2.3,9-3.8,17.9-4.8,26.9c-3.2,30.3,0.5,60.6,5.8,90.8
		c1.1,6.5,2.3,13,3.5,19.5c1.3,6.2,2.5,12.3,3.6,18.5c1.9,9,3.1,19.1,5.7,28.1c5.4,18.2,9.6,36.7,13.2,55.1l-21.6,5.2l9.4,39
		l-13.6,3.4l48.4,200.9h256.5l-31.9-132.4l-23.9-99.1l-6.7-27.9l-13.6,3.2l-9.4-39.1l-21,5c-4.7-24.8-4-50.4,11.9-72.5
		c18.6-25.2,42.2-44.6,67.9-58.9c5.4-1.4,10.3-3.3,14.6-5.7c9.6-5.7,18.2-14.6,20.2-25.7c1.2-5.3,1.2-10.9,0.1-16.6
		c-1.1-5.6-3.4-11.4-7-16.9c-1.5-2.4-1.9-7.2-0.5-9.5c1.2-2,2.3-4,3.3-6c10.7-22.6,4.5-45.8-18.9-59.6c8-14.3,6-28.3-2.1-42
		c-8.8-14.9-25.1-13.8-39.9-18.5c5.7-13,2.8-23.9-6.6-33.8c-8.2-8.7-18-13.7-29.7-12.7c-13.9,1.2-27.6,4-42.2,6.1
		c-0.3-0.5-1.2-2.1-2-3.8c-12.5-28.2-22.1-34.4-53.2-27.6c-1.7,0.4-3.4,0.8-5.2,1.2c-3.8,0.9-7.5,2.6-11.1,4.3l-12.8-21.4
		l-18.8-31.5l-12-20.1l-0.5-0.9c24.1-13.9,47-26.4,62.6-33c3.2-1.4,6.1-2.5,8.7-3.3l-7.9-12.1c69.5-29.9,165-67.2,256.5-90
		c55.3-13.6,109-21.8,154.5-19.8l-0.7-1c1.1,0,2.3,0.1,3.4,0.1c6.5,6.5,16.9,7.8,24.8,2.4c8.9-6,11.3-18.2,5.2-27.1l-96.6-142.6
		l34.7-23.6c2-1.4,2.5-4.1,1.2-6.1l-57.3-53.6l-28.8-73c-1.4-2-4.1-2.5-6.1-1.2l-34.5,23.4l-93.2-137.6c-6-8.9-18.2-11.2-27.1-5.2
		c-8.3,5.7-10.9,16.7-6.3,25.4c-23.8,66.4-77.2,141.8-134.7,210.1c-23.5,27.9-47.7,54.7-70.8,79.2c-18.2,19.3-35.8,37.2-51.9,53.1
		l-7.9-11.1c-1.7,2-3.8,4.3-6.2,6.9c-13.9,14.2-39.1,35-65.2,55.5c-44.3,34.8-91.3,68.8-91.3,68.8l8.9,12.4c-2.4,2-4.6,4.1-6.7,6.3
		C4942.1,4776.4,4937.4,4821.8,4960.8,4856.4z"/>
	<path class="st5" d="M8444,4744.4c-0.1,1.7,1.2,3.2,3,3.3l29.6,1.5l-6,121.6c-0.4,7.6,5.5,14.1,13.1,14.5
		c6.7,0.3,12.6-4.2,14.1-10.5c0.7-0.4,1.3-0.9,2-1.3l-0.1,0.9c26.8-17.9,62.2-32.6,100.6-44.7c63.6-19.8,134.9-32.4,187.9-39.8
		l-0.3,10.2c1.9-0.4,4-0.8,6.5-1.2c11.8-1.7,30.2-2.6,49.9-3l0.4,60.8c-2.8,0.2-5.6,0.6-8.3,1.5c-24.4,7.7-28.5,14.6-25.6,37.4
		c0.2,1.3,0.2,2.6,0.2,3c-9.6,4-18.9,7.4-27.7,11.8c-7.5,3.7-11.5,10.3-13.2,18.6c-2,9.5,0.2,17.1,8.4,22.9
		c-7.2,8.3-17.5,13.6-17.3,25.8c0.1,11.3,4.1,20.5,14.1,26.2c-9.9,18.4-3.3,36,14.7,45.3c1.7,0.9,3.2,3.9,3.1,5.9
		c-0.1,4.6,0.6,8.9,2,12.8c1.4,3.8,3.5,7.2,6.1,10c5.3,6,13.7,8.2,21.7,8.1c3.5-0.1,7.1-0.8,10.9-1.9c20.8-0.8,42.1,2.3,62.6,10.7
		c17.7,7.5,27.5,22.7,33.8,39.4l-14.6,4.7l8.6,27l-9.4,3.2l28.1,84.8l49,147.7l68,205h185.7l-38.2-115.1l-21.4-64.4l-103.4-311.7
		l-9.4,2.9l-8.6-27.1l-14.9,4.8c-4.6-12.4-8.9-25.1-12.2-38.1c-1.8-6.4-4.7-12.9-6.9-19.1c-1.6-4.1-3.1-8.3-4.6-12.5
		c-1.7-4.4-3.3-8.8-5-13.1c-10.3-26.1-22.1-51.4-42.6-71.4c-3.1-3.3-4.7-7-6.4-11c-2.5-5.4-4.8-11-8.4-15.9c-1.9-3-3.9-6-5.8-9.1
		c-5.9-9-11.8-18-17.7-27c-5.8-8.9-12.7-15.6-20.9-19.8l-2.6-62.9c7.6,0.1,13.5,0.3,16.6,0.3c0.8,0,1.4,0,1.9,0c0.1,0,0.2,0,0.2,0
		c0.3,0,0.5,0,0.5,0l0.3-8.5c2.2-0.1,4.3-0.3,6.5-0.7c28.2-4.5,50.3-28.3,51.8-57.9l0.7-14.3c1.5-29.5-18-55.2-45.4-62.6
		c-2.1-0.6-4.2-1-6.3-1.4l0.8-10.8c0,0-103.3-8.3-140.1-17.6c-2.4-0.6-4.5-1.2-6.3-1.8l-0.7,9.6c-83.7-20.1-214.1-58.1-281.1-112.3
		c-0.4-7-6-12.7-13.1-13c-7.6-0.4-14.1,5.5-14.5,13.1l-5.8,117.3l-29.4-1.5c-1.7-0.1-3.2,1.2-3.3,3l9.4,54.6L8444,4744.4z"/>
	<path class="st6" d="M9844.4,5250.2c1.7,4.3,4,8.5,7.2,12.5c3.9,5,6.1,11.8,7.7,18.1c11.1,44.4,27,86.3,64.3,115.9
		c2.6,2.1,5.1,4.3,7.4,6.6v-275.4c-6.2,5.6-10.2,12.9-11.2,22.5c-27.3-2.2-45,14.9-46.7,41.4c-0.1,2.5-3,5.9-5.5,6.9
		C9845.3,5207.8,9836.4,5229.7,9844.4,5250.2z"/>
	<path class="st6" d="M8804.1,4971.3c1.5,6.2,0.8,13.3-0.4,19.7c-8,45.1-10.6,89.8,11.3,132c9.6,18.4,11.1,38,9.5,57.2
		c-1.5,17.9-3.2,35.7-5,53.6c-6.6,64.3-15.8,128.3-30.5,191.5c-1.4,6-3,11.8-4.8,19.3l196.3,30.1l7-45.3
		c-6.7-56.9-8.9-113.9-7-170.9c0.8-22.9,2.1-45.8,3.9-68.7c1.1-13.6,5.8-23.7,18.3-31.1c24.3-14.3,47.9-29.8,71.6-45.1
		c22.9-14.7,35.1-35,32.9-63.1c-1.5-18.9-1.8-37.8-2.8-56.7c-0.3-5.1-0.6-10.4-2.1-15.3c-9.8-32.1-18.8-37.6-48.7-33.9
		c-1.7,0.2-3.4,0.2-3.9,0.2c-5.2-12.6-9.5-24.9-15.1-36.5c-4.7-9.8-13.3-15.1-24.2-17.6c-12.4-2.8-22.4,0.1-30,10.8
		c-10.8-9.5-17.5-23-33.6-23c-14.8,0.1-26.8,5.1-34.4,18.2c-24-13.2-47.2-4.8-59.6,18.7c-1.2,2.2-5.2,4.2-7.8,4.1
		C8815.8,4918.5,8797,4942.6,8804.1,4971.3z"/>
	
		<rect x="8881.3" y="5127.1" transform="matrix(0.1518 -0.9884 0.9884 0.1518 2382.0374 13234.709)" class="st6" width="41.1" height="204.8"/>
	<polygon class="st6" points="8726.7,5606 8960.3,5606 8991.8,5401 9012.8,5264 8942.8,5253.3 8784.6,5229 	"/>
	<path class="st6" d="M6667.4,5092.8c4.5,4.5,7.6,10.9,10,17c16.9,42.6,38.1,82,78.9,106.4c17.8,10.7,29.4,26.5,38.1,43.7
		c8.1,16,16.1,32.1,23.9,48.2c28.1,58.2,54,117.5,74.6,179c2,5.8,3.7,11.6,6,18.9l182.8-77.4l-17.9-42.2
		c-35.6-44.8-67.4-92.2-95.7-141.8c-11.4-19.9-22.3-40.1-32.8-60.5c-6.2-12.2-7.5-23.2-0.7-36.1c13.2-24.9,25.1-50.5,37.3-76
		c11.8-24.6,11.5-48.2-5.2-71c-11.2-15.2-21.4-31.2-32.2-46.8c-2.9-4.2-6-8.6-9.8-11.9c-25.2-22.2-35.7-22.1-59.2-3.3
		c-1.3,1.1-2.8,1.9-3.2,2.3c-11-8-21.1-16.2-32-23.1c-9.2-5.9-19.3-5.9-29.8-2.3c-12,4.1-19,11.8-19.9,24.9
		c-14.2-2.5-27-10.4-40.6-1.9c-12.6,7.8-20.2,18.4-19.8,33.6c-27.3,1.4-42.7,20.7-40.9,47.2c0.2,2.5-2.2,6.3-4.5,7.6
		C6649.6,5041.7,6646.2,5072.1,6667.4,5092.8z"/>
	
		<rect x="6865.6" y="5158.8" transform="matrix(-0.3898 -0.9209 0.9209 -0.3898 4725.7817 13653.5635)" class="st6" width="41.1" height="204.8"/>
	<polygon class="st6" points="6786,5322.3 6852.2,5478.9 6906,5606 7156.8,5606 7032.2,5311.7 6998.6,5232.4 6852.2,5294.3 	"/>
	<path class="st6" d="M5584.8,4941.1c-0.3,6.4-3.2,12.9-6.1,18.8c-20.8,40.8-36.4,82.8-27.8,129.6c3.8,20.4-0.5,39.6-7.7,57.5
		c-6.7,16.6-13.5,33.2-20.5,49.8c-25.2,59.6-52.6,118.1-85.2,174.2c-3.1,5.3-6.3,10.4-10.3,17l178.9,86.2l19.9-41.3
		c10.2-56.3,24.8-111.5,43.3-165.5c7.4-21.7,15.4-43.2,23.8-64.6c5-12.7,12.5-21,26.6-24.4c27.4-6.5,54.5-14.5,81.7-22.2
		c26.2-7.4,43.8-23.2,49.9-50.8c4.1-18.5,9.3-36.7,13.9-55c1.2-5,2.5-10.2,2.5-15.2c0-33.6-7-41.4-36.6-46.7
		c-1.7-0.3-3.3-0.8-3.8-0.9c-1.2-13.6-1.8-26.5-3.8-39.3c-1.7-10.7-8.3-18.4-18-23.9c-11-6.3-21.4-6.5-31.9,1.5
		c-7.5-12.3-10-27.2-25.4-31.8c-14.2-4.3-27.2-3-38.3,7.3c-19.1-19.6-43.7-18.4-62.4,0.5c-1.7,1.8-6.2,2.5-8.7,1.6
		C5611.4,4893.9,5586.3,4911.5,5584.8,4941.1z"/>
	
		<rect x="5582.2" y="5114.1" transform="matrix(0.4341 -0.9009 0.9009 0.4341 -1528.7854 7999.3955)" class="st6" width="41.1" height="204.8"/>
	<polygon class="st6" points="5286.4,5606 5542.7,5606 5698.8,5282 5632.9,5250.2 5490.8,5181.8 5397.9,5374.6 5358.5,5456.2 
		5358.5,5456.4 	"/>
	<path class="st6" d="M9117.9,4279.8c35,9.7,68.9,26.2,98.5,51.1c37.1,31.8,37.5,81.8,34.3,125.7c-0.9,10-2.4,20-4.3,29.6
		c-1.9,9.7-4.3,19.1-7,28c-3.5,16.9-7,33.3-9.1,48.6c-0.9,6.5-1.5,13-1.7,19.5c-0.6,19.4,2.4,38.2,11.9,55.5
		c3.6,6.6,8.1,12.9,13.8,19c15.2,17.9,39.4,22.4,62.1,20.6c35.8-2.5,70.1,3,103.8-5.2c31.9-8,42.5-34.3,47.1-65
		c1.2-7.7,1.9-15.6,2.5-23.5c0.7-8.9,0.3-17.9,1.8-26.6c2.1-14.1,4.2-27.6,4.3-42c-1.7-57.6-8.3-113.7-5.2-170.8
		c0.5-11.6-1-24-1.3-35.4c-0.4-7.7-0.8-15.5-1-23.2c-0.4-8.2-0.9-16.3-1.4-24.5c-3.2-48.9-9.4-97.3-32.8-141.5
		c-3.4-7.2-4-14.1-4.9-21.7c-1.3-10.2-2.1-20.8-5.6-30.9c-1.6-6.1-3.2-12.1-4.9-18.2c-4.9-18.2-10.1-36.3-15.1-54.4
		c-9.7-35-30.7-58.6-67.4-66.8c-24.6-5.5-48.8-12.7-73.3-18.8c-6.6-1.7-13.5-3.3-20.3-3.4c-44.8-0.2-55.3,9.1-62.5,48.6
		c-0.4,2.2-1.1,4.4-1.3,5.1c-18.1,1.6-35.4,2.3-52.4,4.8c-14.3,2.1-24.5,11-31.9,23.8c-8.4,14.6-8.8,28.5,1.8,42.5
		c-16.4,9.9-36.3,13.2-42.5,33.7c-5.8,18.9-4.1,36.2,9.6,51.1c-26.2,25.3-24.7,58.2,0.3,83.2c2.3,2.3,3.2,8.3,2.1,11.6
		c-2.7,7.6-3.8,15.2-3.5,22.3c0.3,7.1,2,13.8,4.9,19.8c5.6,12.8,18.5,20.9,31.7,25C9104.6,4278.8,9111,4279.7,9117.9,4279.8z"/>
	
		<rect x="9334.6" y="4305.2" transform="matrix(4.487350e-11 -1 1 4.487350e-11 4920.2114 13803.7998)" class="st6" width="54.8" height="273.2"/>
	<rect x="9207.1" y="4464.6" class="st6" width="307.5" height="1141.4"/>
	<path class="st6" d="M9540.1,3623c-3.2-2-6.4-3.9-9.8-5.6l7-17.5c0,0-167.5-68.7-223.6-103.8c-3.7-2.3-6.9-4.5-9.5-6.4l-6.3,15.6
		c-128.6-78-325.2-210.6-407.9-336.6c3.1-11.8-3.2-24.3-14.8-28.6c-12.4-4.7-26.3,1.6-31,14.1l-72.1,192.1l-48.2-18.2
		c-2.8-1.1-6,0.4-7,3.2l-13.4,95.9l-53.2,80.9c-1.1,2.8,0.4,6,3.2,7l48.4,18.3l-74.7,199.1c-4.7,12.5,1.6,26.3,14.1,31
		c11,4.1,23.2-0.3,29-10c1.3-0.4,2.7-0.8,4-1.1l-0.5,1.4c54-15.5,120.9-21.2,191.2-20.9c116.4,0.9,241.7,18,333.8,33.8l-5.9,16.7
		c3.3,0.3,7.1,0.8,11.4,1.5c20.6,3.5,51.7,11.8,84.6,21.5l-45.7,146.4l-0.1,0.3l-42,134.6l0,0.1l-30.4,97.3
		c-13.2,41.6,2.5,56.8,11.8,60.3l58.5,24.9c18.5,7,46.2,16.3,63-44.1l24.8-90.2l0-0.1l12.1-44l25.4-92.3l0.1-0.3l42.4-154.6
		c12.6,4.3,22.3,7.6,27.5,9.4c1.3,0.5,2.4,0.8,3.1,1.1c0.1,0,0.3,0.1,0.4,0.1c0.6,0.2,0.9,0.3,0.9,0.3l5-14c3.7,1,7.4,1.7,11.1,2.3
		c49.3,7.5,98.8-20.2,117-68.8l8.8-23.5C9600.4,3703.1,9581.7,3650,9540.1,3623z"/>
	<path class="st6" d="M7597,5224.2c-23.2,6.5-45.7,17.4-65.3,33.9c-24.6,21.1-24.9,54.2-22.8,83.4c0.6,6.6,1.6,13.2,2.8,19.7
		c1.3,6.4,2.9,12.7,4.6,18.6c2.3,11.2,4.6,22.1,6,32.2c0.6,4.3,1,8.6,1.1,12.9c0.4,12.8-1.6,25.4-7.9,36.8
		c-2.4,4.4-5.4,8.6-9.1,12.6c-10.1,11.9-26.1,14.9-41.2,13.7c-23.7-1.7-46.5,2-68.8-3.4c-21.2-5.3-28.2-22.8-31.2-43.1
		c-0.8-5.1-1.3-10.4-1.6-15.6c-0.5-5.9-0.2-11.8-1.2-17.6c-1.4-9.4-2.8-18.3-2.8-27.8c1.1-38.2,5.5-75.4,3.4-113.3
		c-0.3-7.7,0.6-15.9,0.9-23.5c0.3-5.1,0.5-10.3,0.7-15.4c0.3-5.4,0.6-10.8,0.9-16.2c2.1-32.4,6.3-64.5,21.8-93.8
		c2.2-4.8,2.7-9.3,3.2-14.4c0.8-6.8,1.4-13.8,3.7-20.5c1.1-4,2.1-8,3.2-12.1c3.3-12,6.7-24.1,10-36.1c6.4-23.2,20.3-38.9,44.7-44.3
		c16.3-3.7,32.4-8.4,48.6-12.5c4.4-1.1,9-2.2,13.5-2.2c29.7-0.1,36.7,6.1,41.4,32.2c0.3,1.5,0.7,2.9,0.8,3.4c12,1,23.5,1.5,34.8,3.2
		c9.5,1.4,16.3,7.3,21.2,15.8c5.6,9.7,5.8,18.9-1.2,28.2c10.9,6.6,24.1,8.8,28.2,22.4c3.8,12.5,2.7,24-6.4,33.9
		c17.4,16.8,16.4,38.6-0.2,55.2c-1.5,1.5-2.2,5.5-1.4,7.7c1.8,5.1,2.5,10,2.3,14.8c-0.2,4.7-1.3,9.2-3.2,13.1
		c-3.7,8.5-12.2,13.9-21,16.6C7605.9,5223.6,7601.6,5224.2,7597,5224.2z"/>
	
		<rect x="7417" y="5241" transform="matrix(4.490459e-11 -1 1 4.490459e-11 2103.4985 12766.7803)" class="st6" width="36.4" height="181.2"/>
	<rect x="7333.5" y="5346.5" class="st6" width="204.2" height="259.5"/>
	<path class="st6" d="M7317,4788.6c2.1-1.3,4.3-2.6,6.5-3.7l-4.7-11.6c0,0,111.1-45.6,148.3-68.9c2.4-1.5,4.5-3,6.3-4.3l4.2,10.3
		c85.3-51.7,215.7-139.7,270.5-223.2c-2.1-7.8,2.1-16.1,9.8-19c8.3-3.1,17.5,1.1,20.6,9.3l47.8,127.4l31.9-12c1.9-0.7,4,0.2,4.7,2.1
		l8.9,63.6l35.3,53.6c0.7,1.9-0.2,4-2.1,4.7l-32.1,12.1l49.6,132c3.1,8.3-1.1,17.5-9.3,20.6c-7.3,2.7-15.4-0.2-19.3-6.7
		c-0.9-0.3-1.8-0.5-2.7-0.7l0.3,0.9c-35.8-10.3-80.2-14.1-126.8-13.9c-77.2,0.6-160.3,11.9-221.4,22.4l3.9,11.1
		c-2.2,0.2-4.7,0.5-7.6,1c-13.7,2.3-34.3,7.8-56.1,14.3l30.3,97.1l0.1,0.2l27.9,89.2l0,0.1l20.2,64.5c8.8,27.6-1.7,37.7-7.8,40
		l-38.8,16.5c-12.3,4.6-30.6,10.8-41.8-29.3l-16.4-59.8l0-0.1l-8-29.2l-16.8-61.2l0-0.2l-28.1-102.5c-8.4,2.8-14.8,5-18.2,6.2
		c-0.9,0.3-1.6,0.5-2.1,0.7c-0.1,0-0.2,0-0.2,0.1c-0.4,0.1-0.6,0.2-0.6,0.2l-3.3-9.3c-2.5,0.7-4.9,1.2-7.4,1.5
		c-32.7,4.9-65.5-13.4-77.6-45.6l-5.8-15.6C7277,4841.7,7289.4,4806.5,7317,4788.6z"/>
	<polygon class="st6" points="9668.9,4227.7 9789.7,4634.3 9799.9,4668.6 9867.4,4648.6 9931,4629.7 9931,4149.8 	"/>
	<path class="st6" d="M8142.7,4988.6c-0.7,5.5-0.3,10.9,1.2,15.8c2.7,10.5,11.5,18.4,21.1,23.3c4.3,2,9.1,3.6,14.3,4.5
		c25.6,12,49.4,29,68.9,51.9c16.7,20.1,19.1,44.3,16.2,68.7l-19.5-3.3l-6.4,37.9l-14.4-2.3l-70.7,420.8h242.2l49.5-294.3l14.6-86.9
		l-12.4-2.2l6.4-38l-21.2-3.6c2.3-18.5,5-36,9-53.7c1.9-8.8,2.4-18.7,3.6-27.4c0.7-6,1.4-11.9,2.2-17.9c0.7-6.3,1.4-12.6,2.1-18.9
		c3.8-37.9,5.3-75.8-6.9-112.7c-1.6-5.9-1.3-11.3-0.9-17.3c0.3-8,1.1-16.2-0.3-24.4c-0.4-4.9-0.9-9.7-1.4-14.6
		c-1.5-14.6-3.1-29.1-4.6-43.7c-2.9-28.1-16-48.9-43.1-59.9c-18.2-7.4-35.8-16-53.8-23.9c-4.9-2.1-9.9-4.3-15.1-5.2
		c-34.3-5.9-43.6-0.1-54.2,29.2c-0.6,1.6-1.4,3.2-1.6,3.7c-14.1-1.1-27.4-2.8-40.8-3.1c-11.3-0.2-20.2,5.3-27.5,14.2
		c-8.4,10.1-10.4,20.7-4.1,32.8c-13.8,5.5-29.5,5.5-37,20.4c-6.9,13.7-7.8,27.2,0.8,40.4c-23.4,16-26.5,41.4-10.5,63.9
		c1.5,2.1,1.4,6.8,0.1,9.1C8145.2,4977.5,8143.4,4983.1,8142.7,4988.6z"/>
	
		<rect x="8223.1" y="4369.5" transform="matrix(-0.9862 -0.1658 0.1658 -0.9862 15623.082 11039.0664)" class="st6" width="98.3" height="996.1"/>
	
		<rect x="7981" y="4002" transform="matrix(-0.9862 -0.1658 0.1658 -0.9862 15940.626 9794.6133)" class="st6" width="796.1" height="460"/>
	<path class="st6" d="M5953,5278.3c1.9,1.7,2.9,6.3,2.1,8.9c-1.7,6.1-2.2,11.9-1.7,17.4c0.5,5.5,2.1,10.6,4.7,15.2
		c1.1,2.2,2.5,4.2,4.2,6c5.5,6.1,13.5,10,21.6,12c4.6,1,9.7,1.4,15,1.2c5.2,1.1,10.3,2.4,15.4,3.9c22.2,6.5,43.7,16.7,63.3,31.2
		c20.8,15.8,28.5,38.9,31.2,63.3l-19.8,1.2l2.3,38.4l-14.6,0.9l7.6,128.2h239.3l-8.5-142.2l-12.6,0.7l-2.3-38.4l-21.4,1.3
		c-1.9-18.5-3.2-36.2-3.3-54.4c-0.2-9-1.9-18.7-2.7-27.5c-0.7-6-1.3-12-1.9-18c-0.4-3.3-0.7-6.5-1.1-9.8c-0.4-3.1-0.7-6.1-1.1-9.2
		c-4.7-37.8-11.8-75-32-108.3c-2.9-5.4-3.8-10.7-4.8-16.6c-1.5-7.9-2.6-16.1-5.8-23.7c-1.5-4.6-3.1-9.3-4.6-13.9
		c-4.7-13.9-9.5-27.7-14.3-41.5c-9.1-26.7-26.5-44.1-55.4-48.8c-19.1-3.1-37.9-7.4-56.9-11.1c-0.3-0.1-0.6-0.1-0.9-0.2
		c-5.2-1-10.7-2-15.9-1.7c-34.8,1.9-42.5,9.6-46.2,40.6c-0.2,1.7-0.7,3.4-0.8,4c-11,1.6-21.6,2.8-31.9,4.5c-2.9,0.5-5.7,1-8.5,1.6
		c-11,2.3-18.5,9.7-23.7,20c-5.9,11.7-5.5,22.5,3.4,32.9c-2.7,1.8-5.5,3.4-8.3,5c-10.1,5.6-20.1,10.5-23.2,23.1
		c-3.6,14.9-1.5,28.3,9.8,39.2C5929.8,5234.6,5932.4,5260,5953,5278.3z"/>
	<polygon class="st6" points="5973.9,4663.3 5999.4,5091.9 6014.4,5342.8 6030,5606 6128.5,5606 6095.1,5044.6 6072.1,4657.5 	"/>
	
		<rect x="5616.2" y="4284.3" transform="matrix(-0.9982 5.944423e-02 -5.944423e-02 -0.9982 12286.2529 8663.0723)" class="st6" width="796.1" height="460"/>
</g>
<g id="Layer_4" class="st7">
	<path class="st8" d="M3268.3,3923.3c-17.4,24.6-24.5,55.1-29.9,84.9c-20.8,113.6-24.5,230.4-10.9,345
		c106.9-33,228.4,16.4,330.6-29.8c22.8-10.3,44.6-26.3,54.5-49.8c6.7-16,7.2-33.9,7.3-51.3c0.3-48.3-1.8-96.7-6.2-144.8
		c-3.6-40-9-80.1-21.8-117.9c-12.8-37.8-33.7-73.6-64.1-98.5c-28.5-23.4-76.1-42.4-113-29.8c-8.5,2.9-16.9,9.7-25,13.8
		c-8.3,4.2-16.6,8.1-25,12.1c-17,7.9-34.1,15.6-50.2,25.3C3296.8,3893.2,3280.4,3906.2,3268.3,3923.3z"/>
	<path class="st9" d="M3078.1,4640.9c27.9-99,33.8-204.1,17-305.5c-12.2-73.8-36.2-148.5-21.5-221.8
		c11.9-59.7,27.5-121.3,52.2-176.9c12.6-28.4,26.3-57.1,48.4-78.8c19.9-19.5,45.4-32.2,67.1-49.7c31.4-25.4,53.8-60.2,83-88.1
		c4.4-4.2,9.7-8.5,15.8-8.1c7.4,0.5,12.4,7.8,15.7,14.5c27.1,55.6,14.1,128-30.7,170.7c-12.6,12-27.4,21.8-38.8,34.9
		c-15.1,17.3-23.6,39.5-27.8,62c-4.2,22.5-4.4,45.6-4.6,68.5c-0.6,77.8,10.8,157.3,15.5,235c35.4-8,72,3.8,105.9,16.7
		c33.9,12.9,62,17.7,98.2,14.7c51.2-4.3,96.4-38.2,147.1-47.2c-8.7,20.1-54.7,60.9-84.3,88.8c-28.6,26.9-58,58.7-74.5,94.3
		c-16.5,35.6-25.1,74.3-32.6,112.8c-14.8,76.1-25.3,153-31.6,230.2c-114.8-11.1-229.2-26.4-342.8-45.8
		C3066.3,4723.5,3067.3,4679.5,3078.1,4640.9z"/>
	<path class="st10" d="M3292.8,3764.2l24.9,23.1c2.1,2,6.5,0,9.6-4.3l20.2-27.7c0,0,15.4-22.6,4.3-38.7c0,0-10-12.7-30.3,2.8
		c0,0-8.1,6.8-20.3,24.8l-6.6,8.8C3291.5,3757.3,3290.7,3762.3,3292.8,3764.2z"/>
	
		<rect x="3371.7" y="2992.7" transform="matrix(0.9894 0.1451 -0.1451 0.9894 581.0933 -467.0277)" class="st11" width="240.8" height="1514.4"/>
	<polygon class="st12" points="4548.6,3165.7 2636.5,2867.3 2746.6,2066.2 4668.3,2294.5 	"/>
	<polygon class="st13" points="4469.3,3077.3 2731.1,2811.6 2822.9,2143.1 4568.4,2355.8 	"/>
	<polygon class="st14" points="4422.1,3025 2780.4,2777.2 2861.8,2184.8 4509.6,2388.3 	"/>
	<path class="st9" d="M3372.1,3954.5l-1.8-4.1c-11.4-25.7,0.3-56,26-67.4l157.2-69.7c25.7-11.4,56,0.3,67.4,26l1.8,4.1
		c11.4,25.7-0.3,56-26,67.4l-157.2,69.7C3413.8,3991.9,3383.5,3980.2,3372.1,3954.5z"/>
	<path class="st9" d="M3364.6,4068.1l-0.1-0.2c-9.6-28,5.6-58.7,33.6-68.3l193.3-65.9c28-9.6,58.7,5.6,68.3,33.6l0.1,0.2
		c9.5,28-5.6,58.7-33.6,68.3l-193.3,65.9C3404.9,4111.2,3374.1,4096.1,3364.6,4068.1z"/>
	<path class="st9" d="M3376.9,4177.8l-1.2-5.6c-5.8-27.4,11.8-54.5,39.1-60.4l198.7-42.4c27.4-5.8,54.5,11.8,60.4,39.1l1.2,5.6
		c5.8,27.4-11.8,54.5-39.1,60.4l-198.7,42.4C3409.9,4222.8,3382.7,4205.1,3376.9,4177.8z"/>
	<path class="st9" d="M3425.3,4281l-1.4-6.6c-4.8-22.3,9.6-44.4,31.9-49.2l153.7-32.8c22.3-4.8,44.4,9.6,49.2,31.9l1.4,6.6
		c4.8,22.3-9.6,44.4-31.9,49.2l-153.7,32.8C3452.2,4317.7,3430.1,4303.3,3425.3,4281z"/>
	<path class="st10" d="M3457.6,3945.1l-21.9-50.6c-1.9-4.3-6.9-6.3-11.2-4.3l-27.4,12.6c0,0-21.2,11.3-12.6,40.5
		c0,0,8.1,24.2,33,25.8c0,0,10-0.1,26.9-9.1l8.9-3.8C3457.4,3954.4,3459.4,3949.4,3457.6,3945.1z"/>
	<path class="st10" d="M3450.3,4066.4l-19.2-51.7c-1.6-4.4-6.6-6.6-11-4.9l-28.1,11.1c0,0-21.7,10.1-14.8,39.7
		c0,0,6.8,24.6,31.6,27.5c0,0,10,0.5,27.3-7.6l9.1-3.3C3449.6,4075.6,3451.9,4070.7,3450.3,4066.4z"/>
	<path class="st10" d="M3456.9,4183.9l-10-52.1c-0.9-4.5-5.2-7.3-9.6-6.4l-28.4,6c0,0-22.2,6.1-20.3,35.3c0,0,2.5,24.4,25.6,31.2
		c0,0,9.4,2,27.1-2.9l9.1-1.7C3454.9,4192.5,3457.8,4188.3,3456.9,4183.9z"/>
	<path class="st10" d="M3498.9,4286.7l-8.4-43.8c-0.7-3.7-4.4-6.2-8.1-5.4l-23.9,5.1c0,0-18.7,5.2-17.1,29.7c0,0,2.1,20.5,21.5,26.2
		c0,0,7.9,1.7,22.8-2.4l7.7-1.4C3497.2,4294,3499.6,4290.4,3498.9,4286.7z"/>
	<path class="st8" d="M1300.6,3821.8c-13.1,28.9-14.2,61.8-13.9,93.7c1.2,121.5,20.8,242.9,57.7,358.4
		c103.7-55.5,239.1-28.7,335.4-96.9c21.5-15.2,40.8-36.1,46.3-62.3c3.7-17.9,0.7-36.5-2.7-54.5c-9.4-50-21.2-99.5-35.3-148.3
		c-11.8-40.5-25.3-80.9-46.1-117.4c-20.8-36.5-49.5-69.2-85.9-88.9c-34.1-18.4-87-28.6-122.6-8.1c-8.2,4.7-15.5,13.4-23,19.3
		c-7.7,6-15.6,11.7-23.4,17.5c-15.9,11.6-32.1,23-46.8,36.2C1324.1,3784.9,1309.7,3801.7,1300.6,3821.8z"/>
	<path class="st9" d="M1247.9,4600.7c9-107.8-6-217.5-43.5-318.9c-27.3-73.8-67-146.1-66.6-224.8c0.4-64,4.2-130.7,18.5-193.1
		c7.3-31.8,15.7-64.2,34.3-91c16.7-24.1,40.5-42.3,59.4-64.7c27.4-32.5,43.5-72.9,68.1-107.5c3.7-5.2,8.3-10.7,14.7-11.5
		c7.8-1,14.3,5.5,19.1,11.8c39.1,52,40.2,129.4,2.5,182.4c-10.6,14.9-23.9,28-33.1,43.8c-12.1,20.8-16.5,45.5-16.3,69.6
		c0.1,24.1,4.6,48,9,71.7c14.9,80.5,42.7,160.3,63,239.5c34.9-15.4,75.1-10.5,112.7-3.9s67.6,5.9,104.3-4.5
		c52-14.7,91.9-58.8,142.4-78.1c-5,22.5-44.3,73.8-69.3,108.5c-24.1,33.5-48.2,72.2-58.1,112.3c-9.9,40.1-11.1,81.7-11.1,123
		c0,81.5,4.5,163,13.4,244c-120.7,11.5-241.9,18.6-363.2,21.3C1252.1,4688.4,1244.3,4642.8,1247.9,4600.7z"/>
	
		<rect x="1373.2" y="2863" transform="matrix(0.9969 -7.903220e-02 7.903220e-02 0.9969 -281.4462 129.3645)" class="st15" width="240.8" height="1514.4"/>
	<path class="st9" d="M1414.1,3833.1l-2.7-3.9c-16.9-24.3-10.9-57.9,13.4-74.8l148.4-103.4c24.3-16.9,57.9-10.9,74.8,13.4l2.7,3.9
		c16.9,24.3,10.9,57.9-13.4,74.8l-148.4,103.4C1464.7,3863.4,1431,3857.4,1414.1,3833.1z"/>
	<path class="st9" d="M1429.1,3952l-0.1-0.2c-15.5-27-6-61.8,21-77.2l186.4-106.7c27-15.5,61.8-6,77.2,21l0.1,0.2
		c15.5,27,6,61.8-21,77.2L1506.3,3973C1479.3,3988.5,1444.5,3979,1429.1,3952z"/>
	<path class="st9" d="M1463.7,4062.8l-2.3-5.5c-11.5-27.1,1.2-58.7,28.3-70.2l196.7-83.6c27.1-11.5,58.7,1.2,70.2,28.3l2.3,5.5
		c11.5,27.1-1.2,58.7-28.3,70.2l-196.7,83.6C1506.8,4102.6,1475.2,4089.8,1463.7,4062.8z"/>
	<path class="st9" d="M1534.3,4159.7l-2.8-6.5c-9.4-22.1,1-47.8,23.1-57.2l152.1-64.6c22.1-9.4,47.8,1,57.2,23.1l2.8,6.5
		c9.4,22.1-1,47.8-23.1,57.2l-152.1,64.6C1569.4,4192.1,1543.7,4181.8,1534.3,4159.7z"/>
	<path class="st10" d="M1500.5,3806.4l-32.8-47.9c-2.8-4.1-8.4-5.1-12.4-2.2l-25.8,18.5c0,0-19.6,15.9-5,44.3c0,0,13.2,23.4,39.3,20
		c0,0,10.3-2.1,25.9-14.7l8.4-5.7C1502.2,3816,1503.2,3810.4,1500.5,3806.4z"/>
	<path class="st10" d="M1517.2,3933.1l-30.2-49.6c-2.6-4.2-8.1-5.5-12.3-2.9l-26.8,17c0,0-20.4,14.8-7.3,44c0,0,11.9,24,38.1,22.1
		c0,0,10.4-1.5,26.7-13.3l8.7-5.2C1518.4,3942.7,1519.7,3937.2,1517.2,3933.1z"/>
	<path class="st10" d="M1547.6,4053l-20.7-51.8c-1.8-4.4-6.8-6.5-11.2-4.7l-28.1,11.9c0,0-21.7,10.8-13.9,40.6c0,0,7.5,24.7,32.7,27
		c0,0,10.2,0.2,27.4-8.4l9.1-3.6C1547.2,4062.4,1549.3,4057.4,1547.6,4053z"/>
	<path class="st10" d="M1611.5,4150.8l-17.4-43.5c-1.5-3.7-5.7-5.5-9.4-3.9l-23.6,10c0,0-18.3,9.1-11.7,34.1c0,0,6.3,20.8,27.4,22.7
		c0,0,8.5,0.2,23.1-7l7.6-3C1611.2,4158.7,1613,4154.5,1611.5,4150.8z"/>
	<path class="st10" d="M1294.1,3652.6l30.4,18.9c2.6,1.6,6.7-1.3,9.1-6.4l15.3-32.7c0,0,11.4-26.4-3.3-40.8c0,0-12.8-11.1-30.7,9
		c0,0-7,8.6-16,29.6l-5.1,10.4C1291.4,3645.6,1291.5,3651,1294.1,3652.6z"/>
	<polygon class="st16" points="2393.4,2815.4 462.9,2950.6 391.7,2145 2315.9,1939.3 	"/>
	<polygon class="st13" points="2296.4,2746.8 542.7,2875.2 483.2,2203 2232.2,2021.4 	"/>
	<polygon class="st14" points="2238.8,2706.4 583.1,2830.7 530.4,2234.9 2182.1,2066.2 	"/>
	<path class="st17" d="M3528.9,4522.5c0,0-9.1,187.1-17.3,477.5h-485.8c-4.7-204.3-10.5-370.4-17.5-472.6
		C3008.4,4527.4,3116.5,4589.9,3528.9,4522.5z"/>
	<path class="st17" d="M1799.1,5000h-541.2c-49.1-196.9-92.9-360.1-127-467c0,0,28.2,8.2,100.2-0.4c73.8-8.9,193.6-35.5,376.1-106.9
		c29.6-11.6,60.9-24.4,93.9-38.4c0,0,24.8,180,72.2,461.9c7.5,44.6,15.6,91.8,24.2,141.3c0.5,2.7,1,5.4,1.4,8.2
		C1798.9,4999,1799,4999.5,1799.1,5000z"/>
	<g class="st18">
		<g>
			<path class="st19" d="M1172.9,2256.5l-118,285l11.5,151.5l-96,7.3l-11.3-149.7L803,2284.5l109.6-8.3l80.7,153.8
				c1.4,2.9,5.6,14.2,12.4,34l1.2-0.1c1.5-14.5,3.7-25.9,6.7-34.3l57.7-165.4L1172.9,2256.5z"/>
			<path class="st19" d="M1508.9,2659.6l-255.5,19.3l-32.3-426.1l245.7-18.6l5.9,78.1l-149.7,11.3l7.2,94.8l139.3-10.6l5.9,77.8
				l-139.3,10.6l7.4,97.5l159.6-12.1L1508.9,2659.6z"/>
			<path class="st19" d="M1556.3,2639.5l-7.2-95.1c18.3,13.2,37.9,22.6,58.6,28.3c20.8,5.7,41.4,7.8,62,6.2
				c12.1-0.9,22.5-2.8,31.4-5.7c8.8-2.9,16.1-6.5,21.9-10.8c5.7-4.3,9.9-9.2,12.5-14.7c2.6-5.5,3.6-11.3,3.2-17.4
				c-0.6-8.3-3.6-15.6-8.8-21.7s-12.2-11.7-20.8-16.7c-8.6-4.9-18.8-9.5-30.5-13.8c-11.7-4.3-24.3-8.6-37.7-13
				c-34.3-11.3-60.4-26.4-78.3-45.2c-17.9-18.8-27.9-42.3-30-70.6c-1.7-22.2,1.3-41.6,9-58.2c7.7-16.6,18.8-30.7,33.4-42.1
				c14.6-11.5,31.8-20.4,51.6-26.8c19.8-6.4,41-10.4,63.6-12.1c22.2-1.7,41.9-1.8,59.3-0.5c17.3,1.4,33.4,4.3,48.3,8.7l6.7,88.8
				c-7.5-4.4-15.6-8.2-24.3-11.3c-8.7-3.1-17.6-5.6-26.7-7.4c-9.1-1.8-18.1-3-27-3.5c-8.9-0.5-17.3-0.5-25.2,0.1
				c-10.9,0.8-20.7,2.6-29.5,5.4c-8.8,2.8-16.1,6.3-21.9,10.5c-5.9,4.2-10.3,9.1-13.2,14.6c-3,5.5-4.2,11.5-3.7,18.1
				c0.5,7.1,2.9,13.4,7.1,18.7c4.2,5.4,9.9,10.3,17.3,14.8c7.3,4.5,16.1,8.8,26.4,12.9c10.3,4.1,21.8,8.3,34.7,12.5
				c17.6,5.8,33.4,12.3,47.6,19.3c14.2,7,26.5,15.2,37,24.5c10.5,9.4,18.8,20.3,24.9,32.9c6.1,12.6,9.9,27.5,11.2,44.7
				c1.8,23.8-1.2,44.1-9,60.9c-7.8,16.8-19,30.8-33.7,42c-14.7,11.2-32.1,19.7-52.3,25.6c-20.2,5.9-41.6,9.7-64.4,11.5
				c-23.4,1.8-45.8,1.5-67.2-0.9C1591.1,2650.8,1572.4,2646.3,1556.3,2639.5z"/>
		</g>
	</g>
	<g class="st18">
		<g>
			<path class="st19" d="M3551.1,2817.4l-96.1-14.1l-135.2-291.2c-7.9-17-13.3-29.8-16.1-38.2l-1.2-0.2c-0.6,15.2-3.2,38.1-7.7,68.7
				l-34.1,232.3l-89.9-13.2l62.1-422.7l102.6,15.1l129.9,282c6,12.7,11.3,25.3,16.2,37.6l1.2,0.2c-0.1-10.1,1.9-29.5,6.2-58.4
				l34.4-233.8l89.9,13.2L3551.1,2817.4z"/>
			<path class="st19" d="M3825.3,2865.2c-60.5-8.9-107-35.8-139.3-80.9c-32.3-45-43.9-99.2-34.6-162.4c9.8-66.8,37.1-118,81.9-153.6
				c44.8-35.6,99.1-48.7,163-39.3c60.3,8.9,106.2,35.8,137.7,80.8c31.4,45,42.4,99.8,32.9,164.5c-9.8,66.4-36.9,117.1-81.5,152.2
				C3940.8,2861.4,3887.4,2874.4,3825.3,2865.2z M3881.7,2510.6c-33.4-4.9-61.8,3.7-85.1,25.9c-23.3,22.2-38,53.9-44.1,95.2
				c-6.2,41.9-1.2,76.4,14.9,103.7c16.1,27.3,40,43.2,71.9,47.9c32.8,4.8,60.6-3.2,83.3-24c22.7-20.9,37.2-52.3,43.4-94.4
				c6.4-43.8,2.1-79.3-13-106.4C3937.8,2531.3,3914.1,2515.4,3881.7,2510.6z"/>
		</g>
	</g>
</g>
</svg>
