<svg xmlns="http://www.w3.org/2000/svg" viewBox="0 0 127.05 127.5"><defs><style>.cls-1{fill:#0071bc;}.cls-2{fill:#ebc8ae;}.cls-3{fill:#fad5ae;}.cls-4{fill:#e1c8ae;}.cls-13,.cls-5{fill:#fff;}.cls-6{font-size:6.31px;fill:gray;font-family:Roboto-Regular, Roboto;letter-spacing:-0.03em;}.cls-7{letter-spacing:-0.16em;}.cls-8{letter-spacing:-0.07em;}.cls-9{letter-spacing:-0.03em;}.cls-10{letter-spacing:-0.04em;}.cls-11{letter-spacing:-0.04em;}.cls-12{letter-spacing:-0.02em;}.cls-13{stroke:gray;stroke-miterlimit:10;stroke-width:0.74px;}</style></defs><title>Recurso 3</title><g id="Capa_2" data-name="Capa 2"><g id="Capa_1-2" data-name="Capa 1"><path class="cls-1" d="M65.83,0C26.91.67-2.69,33.88.19,69.42c2.59,31.89,30.8,59,65,58.06C99.07,126.57,126.41,98.55,127,65,127.69,30.85,100.45,1.66,65.83,0Z"/><polygon class="cls-2" points="26.07 54.9 29.22 100.34 98.64 100.34 101.8 54.9 26.07 54.9"/><path class="cls-3" d="M95.49,31.55H31.75L26.07,54.9H101.8ZM46.26,44.81l.63-4.42H81l.63,4.42Z"/><polygon class="cls-4" points="46.89 40.39 46.26 44.81 81.6 44.81 80.97 40.39 46.89 40.39"/><line x1="27.01" y1="56.48" x2="27.65" y2="65.95"/><polygon class="cls-5" points="27.02 58.06 27.65 66.58 100.22 66.58 100.85 58.38 27.02 58.06"/><text class="cls-6" transform="translate(28.07 64.9)">CONSU<tspan class="cls-7" x="19.83" y="0">L</tspan><tspan class="cls-8" x="22.19" y="0">T</tspan><tspan class="cls-9" x="25.53" y="0">AS CIU</tspan><tspan class="cls-10" x="43.73" y="0">D</tspan><tspan class="cls-9" x="47.61" y="0">A</tspan><tspan class="cls-11" x="51.54" y="0">D</tspan><tspan class="cls-9" x="55.43" y="0">A</tspan><tspan class="cls-12" x="59.35" y="0">N</tspan><tspan class="cls-9" x="63.72" y="0">AS</tspan></text><rect class="cls-5" x="52.57" y="20.19" width="24.3" height="23.67"/><rect class="cls-13" x="55.73" y="23.98" width="2.96" height="2.96"/><rect class="cls-13" x="55.73" y="29.9" width="2.96" height="2.96"/><rect class="cls-13" x="55.73" y="35.82" width="2.96" height="2.96" transform="translate(-0.67 1.05) rotate(-1.04)"/><line class="cls-13" x1="62.67" y1="25.24" x2="73.4" y2="25.24"/><line class="cls-13" x1="62.67" y1="31.55" x2="73.4" y2="31.55"/><line class="cls-13" x1="62.67" y1="37.23" x2="73.4" y2="37.23"/></g></g></svg>