<?xml version="1.0" encoding="utf-8"?>
<!-- Generator: Adobe Illustrator 22.0.0, SVG Export Plug-In . SVG Version: 6.00 Build 0)  -->
<svg version="1.1" id="objects" xmlns="http://www.w3.org/2000/svg" xmlns:xlink="http://www.w3.org/1999/xlink" x="0px" y="0px"
	 viewBox="0 0 738.5 470" style="enable-background:new 0 0 738.5 470;" xml:space="preserve">
<style type="text/css">
	.st0{fill-rule:evenodd;clip-rule:evenodd;fill:#FFDECC;}
	.st1{fill-rule:evenodd;clip-rule:evenodd;fill:#333333;}
	.st2{fill-rule:evenodd;clip-rule:evenodd;fill:#F6C89D;}
	.st3{fill-rule:evenodd;clip-rule:evenodd;fill:#FFFFFF;}
	.st4{opacity:0.2;}
	.st5{fill:#80604A;}
	.st6{opacity:5.000000e-02;}
	.st7{opacity:0.1;fill-rule:evenodd;clip-rule:evenodd;}
	.st8{fill-rule:evenodd;clip-rule:evenodd;fill:#80604A;}
	.st9{fill-rule:evenodd;clip-rule:evenodd;fill:#C93838;}
	.st10{fill-rule:evenodd;clip-rule:evenodd;fill:#F6D1AF;}
	.st11{fill:#343434;}
	.st12{fill-rule:evenodd;clip-rule:evenodd;fill:#EDEDED;}
	.st13{fill-rule:evenodd;clip-rule:evenodd;fill:#F6C8AC;}
	.st14{fill-rule:evenodd;clip-rule:evenodd;fill:#343434;}
	.st15{fill-rule:evenodd;clip-rule:evenodd;fill:#1A1A1A;}
	.st16{fill-rule:evenodd;clip-rule:evenodd;fill:#1B1B1B;}
	.st17{fill-rule:evenodd;clip-rule:evenodd;fill:#268085;}
	.st18{fill:#605343;}
	.st19{fill-rule:evenodd;clip-rule:evenodd;fill:#605343;}
	.st20{fill-rule:evenodd;clip-rule:evenodd;fill:#BF9741;}
	.st21{fill-rule:evenodd;clip-rule:evenodd;fill:#7491A0;}
	.st22{fill-rule:evenodd;clip-rule:evenodd;fill:#F6DBC2;}
	.st23{opacity:0.2;fill-rule:evenodd;clip-rule:evenodd;}
	.st24{fill-rule:evenodd;clip-rule:evenodd;fill:#F6DCB9;}
	.st25{fill-rule:evenodd;clip-rule:evenodd;fill:#DBB18A;}
	.st26{fill-rule:evenodd;clip-rule:evenodd;fill:#F6D9C7;}
	.st27{fill:#BF9741;}
	.st28{fill-rule:evenodd;clip-rule:evenodd;fill:#806049;}
	.st29{fill-rule:evenodd;clip-rule:evenodd;fill:#F5D5C1;}
	.st30{opacity:5.000000e-02;fill-rule:evenodd;clip-rule:evenodd;}
	.st31{fill-rule:evenodd;clip-rule:evenodd;fill:#FFDBBA;}
	.st32{fill-rule:evenodd;clip-rule:evenodd;fill:#605F5B;}
	.st33{fill-rule:evenodd;clip-rule:evenodd;fill:#755A48;}
	.st34{fill:#755A48;}
	.st35{fill-rule:evenodd;clip-rule:evenodd;fill:#F6C5A0;}
	.st36{fill-rule:evenodd;clip-rule:evenodd;fill:#9FBAC4;}
	.st37{fill-rule:evenodd;clip-rule:evenodd;fill:#28A8E3;}
</style>
<g>
	<g>
		<path class="st0" d="M427.5,140.6c-42.9,18.8-55.8,28.8-60.9,33.4c-7.8,6.9-12.2,32.8-16.8,54.8h97.1H544
			c-4.6-22-9-47.8-16.8-54.8c-5.1-4.5-17.5-14.3-60.4-33.1L427.5,140.6z"/>
		<path class="st1" d="M427.5,140.6c-42.9,18.8-55.8,28.8-60.9,33.4c-7.8,6.9-12.2,32.8-16.8,54.8h97.1H544
			c-4.6-22-9-47.8-16.8-54.8c-5.1-4.5-17.5-14.3-60.4-33.1L427.5,140.6z"/>
		<path class="st2" d="M426,103.1V135v15.7c11.5,13.6,30.2,14,41.7,0V135v-31.9C467.7,77.4,426,77.4,426,103.1z"/>
		<path class="st2" d="M403.4,73.2c3.7-1.2,8.3,3,10.4,9.3c2.1,6.3,0.8,12.5-2.9,13.7c-3.7,1.2-8.3-3-10.4-9.3
			C398.4,80.5,399.7,74.4,403.4,73.2z"/>
		<path class="st2" d="M490.2,73.2c-3.7-1.2-8.3,3-10.4,9.3c-2.1,6.3-0.8,12.5,2.9,13.7c3.7,1.2,8.3-3,10.4-9.3
			C495.1,80.5,493.8,74.4,490.2,73.2z"/>
		<path class="st3" d="M426,135l-1.8,7.1l5.1,36.9l17.7-17.9L426,135z"/>
		<path class="st4" d="M426,126.2v1.5c0,0,10.6,12.6,20.8,13.1c10.2,0.5,20.9-12.2,20.9-12.2v-2.3"/>
		<g>
			<path class="st2" d="M446.9,17.7c-64.1,0-39.5,87.8-35.4,94.6c4.6,7.4,25,23.8,35.4,23.8c10.4,0,30.7-16.4,35.4-23.8
				C486.5,105.5,511,17.7,446.9,17.7z"/>
			<path class="st5" d="M492.4,77.9c3.3-16.3,1.2-54.4-11.5-53.1c-11.8-12-53-14.2-64.3-1.3c-25.8,5-13.8,54.6-13.8,54.6
				c0.8,4.8,1.9,9.2,3.1,13c1.7-0.1,3.5-0.2,5.2-0.3c-1.9-3.4-3.4-6.9-4-9.5c-0.3-1.5-1.1-6.8-1-8c0.4-8.9,6.8-34.9,17.9-37
				c4.3-0.8,15.2,9,22.3,8.9c7.5-0.2,16.8-10,21.7-9.4c11.6,1.6,21.4,25.4,21.3,37c0,1.5-1.9,10.3-4.7,16.6c1.9-0.1,3.7-0.2,5.6-0.3
				C490.9,85.7,491.8,81.9,492.4,77.9L492.4,77.9z"/>
		</g>
		<path class="st3" d="M467.7,135l1.4,7l-4.8,37.4L447,161.1L467.7,135z"/>
		<polyline class="st6" points="426,135 447,161.1 467.7,135 467.7,134.4 447,160.3 426,134.4 426,135 		"/>
		<polygon class="st7" points="443,178.5 450.8,178.5 450.8,178.8 442.9,178.8 		"/>
		<g>
			<path class="st8" d="M448.5,101.8c-0.9,0-1.6,1.3-1.6,1.3s-0.7-1.3-1.6-1.3c-3.7,0-18.7,1.5-23.1,7.1c0,0,21.3-0.4,22.5-0.7
				c1.2-0.3,2.2-2.7,2.2-2.7s1,2.3,2.2,2.7c1.2,0.3,22.5,0.7,22.5,0.7C467.2,103.3,452.1,101.9,448.5,101.8z"/>
		</g>
	</g>
	<g>
		<path class="st0" d="M257.5,140.6c-42.9,18.8-55.8,28.8-60.9,33.4c-7.8,6.9-12.2,32.8-16.8,54.8h97.1H374
			c-4.6-22-9-47.8-16.8-54.8c-5.1-4.5-17.5-14.3-60.4-33.1L257.5,140.6z"/>
		<path class="st9" d="M257.5,140.6c-42.9,18.8-55.8,28.8-60.9,33.4c-7.8,6.9-12.2,32.8-16.8,54.8h97.1H374
			c-4.6-22-9-47.8-16.8-54.8c-5.1-4.5-17.5-14.3-60.4-33.1L257.5,140.6z"/>
		<path class="st10" d="M256,103.1V135v15.7c11.5,13.6,30.2,14,41.7,0V135v-31.9C297.7,77.4,256,77.4,256,103.1z"/>
		<path class="st10" d="M233.4,73.2c3.7-1.2,8.3,3,10.4,9.3c2.1,6.3,0.8,12.5-2.9,13.7c-3.7,1.2-8.3-3-10.4-9.3
			C228.4,80.5,229.7,74.4,233.4,73.2z"/>
		<path class="st10" d="M320.2,73.2c-3.7-1.2-8.3,3-10.4,9.3c-2.1,6.3-0.8,12.5,2.9,13.7c3.7,1.2,8.3-3,10.4-9.3
			C325.1,80.5,323.8,74.4,320.2,73.2z"/>
		<path class="st4" d="M256,126.2v1.5c0,0,10.6,12.6,20.8,13.1c10.2,0.5,20.9-12.2,20.9-12.2v-2.3"/>
		<g>
			<path class="st10" d="M276.9,17.7c-64.1,0-39.5,87.8-35.4,94.6c4.6,7.4,25,23.8,35.4,23.8c10.4,0,30.7-16.4,35.4-23.8
				C316.5,105.5,341,17.7,276.9,17.7z"/>
			<path class="st11" d="M305.7,19.7c-21.7-17-55.1-6.9-65.2,7.3c-12.6,17.8-8.2,44.8-5.2,65c0,0,0-0.1,0-0.1c0,0.2,0.1,0.4,0.1,0.6
				c0,0.2,0.4,0.6,0.5,0.8c0.1,0.2,0.9,0,1.2-0.1c0.1,0,0.1-0.2,0.1-0.3c0.1-1.8,0-5.3,0-5.4c-0.2-2.8-0.8-5.5-1.3-8.2
				c2-12.8,8-15.5,11.2-30.9c0.7-1,1.4-2,2.1-3c0.9-1.1,1.7-2.2,2.8-3.2c0.5-0.3,1.1-0.7,1.6-1.1c11.7-4.3,23.7,0.9,34.7,5.3
				c4.2,1.7,4.8-5.8,9.5-6.1c2-0.2,6.1,6.6,7.7,6.4c16.5-1.9,9.6,23.1,12.2,34.7c-0.4,2-0.7,4-0.9,6.1c0,0-0.1,3.6,0,5.4
				c0,0.1,0,0.2,0.1,0.3c0.3,0.1,1,0.3,1.2,0.1c0.1-0.1,0.4-0.6,0.5-0.8c0.2-0.8,0.2-1.4,0.3-2.2c0.1-1,0.3-2.1,0.4-3.2
				C322.6,74.7,328.7,25.1,305.7,19.7z M272.8,36.5c-0.4-0.1-0.7-0.2-1.1-0.3c0.5,0.1,1.1,0.3,1.6,0.4
				C273.2,36.6,273,36.5,272.8,36.5z"/>
		</g>
		<polygon class="st7" points="273,178.5 280.8,178.5 280.8,178.8 272.9,178.8 		"/>
		<path class="st11" d="M289.3,25.7c0,0-18.7-13-35.3-6s-31.3,9.7-35,5c0,0-10.3,21.7,9,33s41.3,2.3,47.7-4.7
			c6.3-7,16.7-18.3,22.3-16S289.3,25.7,289.3,25.7z"/>
	</g>
	<g>
		<path class="st0" d="M162.5,226.6c-42.9,18.8-55.8,28.8-60.9,33.4c-7.8,6.9-12.2,32.8-16.8,54.8h97.1H279
			c-4.6-22-9-47.8-16.8-54.8c-5.1-4.5-17.5-14.3-60.4-33.1L162.5,226.6z"/>
		<path class="st12" d="M162.5,226.6c-42.9,18.8-55.8,28.8-60.9,33.4c-7.8,6.9-12.2,32.8-16.8,54.8h97.1H279
			c-4.6-22-9-47.8-16.8-54.8c-5.1-4.5-17.5-14.3-60.4-33.1L162.5,226.6z"/>
		<path class="st13" d="M161,189.1V221v15.7c11.5,13.6,30.2,14,41.7,0V221v-31.9C202.7,163.4,161,163.4,161,189.1z"/>
		<path class="st13" d="M138.4,159.2c3.7-1.2,8.3,3,10.4,9.3c2.1,6.3,0.8,12.5-2.9,13.7c-3.7,1.2-8.3-3-10.4-9.3
			C133.4,166.5,134.7,160.4,138.4,159.2z"/>
		<path class="st13" d="M225.2,159.2c-3.7-1.2-8.3,3-10.4,9.3c-2.1,6.3-0.8,12.5,2.9,13.7c3.7,1.2,8.3-3,10.4-9.3
			C230.1,166.5,228.8,160.4,225.2,159.2z"/>
		<path class="st14" d="M182,247.1c0,0-29.1,6.9-29.1,8.7c0,1.8,11.1,59,11.1,59h39.5L208,256L182,247.1z"/>
		<polygon class="st15" points="161,227.3 161,236.7 170.1,314.8 154.5,314.8 137.4,280 153.7,269.1 133.8,259.8 152.1,231.3 		"/>
		<polygon class="st16" points="202.7,227.3 202.7,236.7 193.6,314.8 209.1,314.8 226.3,280 209.9,269.1 229.9,259.8 213.6,232.1 		
			"/>
		<path class="st17" d="M172.9,256.7l5,7.8c2.6,0,5.2,0,7.8,0l5.1-7.8l-8.9-9.7L172.9,256.7z"/>
		<polygon class="st17" points="178,264.5 170.8,314.8 193,314.8 185.8,264.5 		"/>
		<path class="st14" d="M161,221l-1.8,7.1l5.1,36.9l17.7-17.9L161,221z"/>
		<path class="st4" d="M161,212.2v1.5c0,0,10.6,12.6,20.8,13.1c10.2,0.5,20.9-12.2,20.9-12.2v-2.3"/>
		<g>
			<path class="st13" d="M181.9,103.7c-64.1,0-39.5,87.8-35.4,94.6c4.6,7.4,25,23.8,35.4,23.8c10.4,0,30.7-16.4,35.4-23.8
				C221.5,191.5,246,103.7,181.9,103.7z"/>
		</g>
		<path class="st14" d="M202.7,221l1.4,7l-4.8,37.4L182,247.1L202.7,221z"/>
		<polyline class="st6" points="161,221 182,247.1 202.7,221 202.7,220.4 182,246.3 161,220.4 161,221 		"/>
		<polygon class="st7" points="178,264.5 185.8,264.5 185.8,264.8 177.9,264.8 		"/>
		<g>
			<path class="st18" d="M223.6,168.7c-0.3,1.2-0.7,2.3-0.7,2.3s-5.8,19.6-10.7,25.6c-9.5,11.7-21.9,19-30.4,19.1
				c-8.3,0-20.6-6.6-30.2-18c-3.8-4.5-10.8-25-10.9-26.7c-0.1-1-0.3-2.1-0.5-3.1c-1.3,0-1.3,8.7-1.3,8.7c1.9,10.2,3.3,16.8,7.3,22.4
				c6.4,8.9,24.3,23,35.3,23c10.9,0,28.9-14.1,35.3-23c4-5.6,5.1-13.1,7.3-23.6C224.1,175.3,224.6,168.8,223.6,168.7z"/>
			<g>
				<path class="st19" d="M201.6,194.9c-1.5-3.1-13.4-7.3-15.6-8.1c-2.2-0.8-3.7,2-3.7,2s-1.5-2.8-3.7-2c-2.2,0.8-14.1,5-15.6,8.1
					c-1.5,3.1-2.2,5.3-2.2,7.4c0,2.1,0,9.7,0,9.7s2.1,0.1,3.3-0.8c1.2-0.9,2.6-3.5,2.6-6.8c0-3.3,2.4-5.9,5.3-6.5
					c3.1-0.6,10.2-1.8,10.2-3.7c0,1.9,7.6,3.3,10.2,3.7c2.9,0.5,5.3,3.2,5.3,6.5c0,3.3,1.4,5.9,2.6,6.8c1.2,0.9,3.3,0.8,3.3,0.8
					s0-7.6,0-9.7C203.8,200.2,203,198.1,201.6,194.9z"/>
			</g>
		</g>
		<path class="st17" d="M202.3,182c0.4,0,0.7,0,1.1-0.1c10.4-0.9,13-5.6,14.2-11.5c1.3-6.5,1.4-8.8,3.1-9.4c1.2-0.4,1.5-1.9,1.5-3.6
			c0-1.7-0.1-1.9-2.1-2.6c-1.6-0.6-10.5-1.4-17.2-0.9l0,1.8c5.3-0.3,10.3,0.3,11.8,1.3c3.3,2.2,2.4,12.6-0.5,17.8
			c-2,3.6-7.1,5.4-11.8,5.5L202.3,182z M182.8,157.4c-2.3,0.1-11.7-2.7-18.4-3.2c-0.5,0-1-0.1-1.5-0.1l0,1.8
			c5.4,0.2,11.1,1.5,13,4.4c3.2,4.8-2.5,16.4-7.7,19c-1.6,0.8-3.6,1.2-5.8,1.2l0,1.7c9,0,12.4-6.5,13.5-8.7c2.1-4.1,1.7-9.7,6.8-9.7
			c5.2,0,4.5,5.5,6.3,9.6c1,2.2,3.9,9,13.3,8.7l0-1.6c-2.3,0-4.5-0.4-6.1-1.2c-5-2.6-10-14.2-6.5-19c2.1-2.9,7.7-4.2,13.1-4.4l0-1.8
			c-0.4,0-0.8,0.1-1.2,0.1C195.5,154.6,188.2,157.2,182.8,157.4z M162.9,154c-6.6-0.4-15.4,0.5-17,1c-2.1,0.7-2.1,0.9-2.3,2.6
			c-0.1,1.7,0.1,3.1,1.3,3.6c1.6,0.6,1.6,2.9,2.5,9.4c0.8,5.9,3.1,10.6,13.5,11.4c0.5,0,1,0.1,1.5,0.1l0-1.7
			c-4.8,0-10.1-1.8-11.9-5.5c-2.5-5.2-2.9-15.6,0.6-17.8c1.5-0.9,6.5-1.6,11.7-1.4L162.9,154z"/>
	</g>
	<g>
		<path class="st20" d="M101.1,209.7c3.9-7.3,35.4-13.7,48.2,12.2c12.8,25.8,6.4,34.9,13.4,44c7.1,9.1-9.6,79.7-49.1,79.5
			c-42.2-0.2-51.5-67.7-43.1-81.4C79,250.2,71.6,209.7,101.1,209.7z"/>
		<path class="st21" d="M132.1,329.8c-0.4,0.6-35.6,1.1-35.9,1.7c-11.1,15.8-34.9,18.7-53.9,22.9c-18.9,4.2-19.6,28.2-19.7,44.2
			h184.2c0-16-0.4-39.9-19.7-44.2C167.8,350.1,142.6,346.3,132.1,329.8z"/>
		<path class="st3" d="M133.1,331.4v8.7l-9,58.6H105l-8.9-57.9v-9.1c0,0,0-0.1,0-0.1c0.4-0.6,35.6-1.1,35.9-1.7
			C132.4,330.4,132.8,330.9,133.1,331.4z"/>
		<path class="st22" d="M96.2,292.1v30.3v14.9c9.2,18.9,25.9,19.4,36.9,0v-14.9v-30.3C133.1,267.7,96.2,267.7,96.2,292.1z"/>
		<path class="st22" d="M163.4,271c-3.7-1.7-8.9,2.4-11.6,9.1c-2.7,6.7-2,13.5,1.7,15.1c3.7,1.7,8.9-2.4,11.6-9.1
			C167.8,279.5,167,272.7,163.4,271z"/>
		<path class="st22" d="M66,271c3.7-1.7,8.9,2.4,11.6,9.1c2.7,6.7,2,13.5-1.7,15.1c-3.7,1.7-8.9-2.4-11.6-9.1
			C61.6,279.5,62.3,272.7,66,271z"/>
		<path class="st23" d="M96.2,314.6v1.3c0,0,11.6,11.6,18.3,11.6c6.7,0,18.6-11.7,18.6-11.7v-1.1H96.2z"/>
		<path class="st22" d="M114.7,323.4c-11.5,0-35.7-18.9-43.2-46C64,250.1,78.2,211,114.7,211c36.5,0,50.7,39.2,43.2,66.5
			C150.4,304.5,126.2,323.4,114.7,323.4z"/>
		<path class="st20" d="M122.1,244.8c9,18.8,12.6,24.3,24.5,19.4c11.9-5,9.6,8.9,7.5,18.8c10.5-13.4,9.3-26.1,6-39
			c-3.6-14.2-21.7-35.7-38.7-35.3c-9.2-1-23.2,0.2-38.1,10.9c-26,18.7-17.3,60.8-10.3,65.7c-6.8-38.9,9.8-31,21.3-51.4
			C98,225,112.4,224.4,122.1,244.8z"/>
		<polygon class="st12" points="105.1,398.6 89.6,398.6 88.5,398.6 72.4,384 88.8,373.1 68.8,363.7 82,343.2 87.2,335.2 96.1,331.2 
			96.1,340.7 105,398.6 		"/>
		<polygon class="st12" points="140.4,372.5 156.7,383.4 140.6,398.6 139.6,398.6 124,398.6 124.2,398.6 133.1,340.1 133.1,330.7 
			144,335.5 148.8,343.6 160.3,363.1 		"/>
	</g>
	<g>
		<path class="st19" d="M491.1,121.9c2.2-7.3,19.5-13.7,26.5,12.2c7.1,25.8,3.5,34.9,7.4,44c3.9,9.1-5.3,79.7-27,79.5
			c-23.2-0.2-28.3-67.7-23.7-81.4C478.9,162.4,474.9,121.8,491.1,121.9z"/>
		<path class="st19" d="M567.5,121.9c-2.2-7.3-19.5-13.7-26.5,12.2c-7.1,25.8-3.5,34.9-7.4,44c-3.9,9.1,5.3,79.7,27,79.5
			c23.2-0.2,28.3-67.7,23.7-81.4C579.7,162.4,583.7,121.8,567.5,121.9z"/>
		<path class="st9" d="M548.1,227.8c-0.4,0.6-35.6,1.1-35.9,1.7c-11.1,15.8-34.9,18.7-53.9,22.9c-18.9,4.2-19.6,28.2-19.7,44.2
			h184.2c0-16-0.4-39.9-19.7-44.2C583.8,248.1,558.6,244.3,548.1,227.8z"/>
		<path class="st9" d="M549.1,229.4v8.7l-9,58.6H521l-8.9-57.9v-9.1c0,0,0-0.1,0-0.1c0.4-0.6,35.6-1.1,35.9-1.7
			C548.4,228.4,548.8,228.9,549.1,229.4z"/>
		<path class="st24" d="M512.2,190.1v30.3v14.9c9.2,18.9,25.9,19.4,36.9,0v-14.9v-30.3C549.1,165.7,512.2,165.7,512.2,190.1z"/>
		<path class="st24" d="M579.4,169c-3.7-1.7-8.9,2.4-11.6,9.1c-2.7,6.7-2,13.5,1.7,15.1c3.7,1.7,8.9-2.4,11.6-9.1
			C583.8,177.5,583,170.7,579.4,169z"/>
		<path class="st24" d="M482,169c3.7-1.7,8.9,2.4,11.6,9.1c2.7,6.7,2,13.5-1.7,15.1c-3.7,1.7-8.9-2.4-11.6-9.1
			C477.6,177.5,478.3,170.7,482,169z"/>
		<path class="st23" d="M512.2,212.6v1.3c0,0,11.6,11.6,18.3,11.6c6.7,0,18.6-11.7,18.6-11.7v-1.1H512.2z"/>
		<path class="st24" d="M530.7,221.4c-11.5,0-35.7-18.9-43.2-46c-7.6-27.3,6.7-66.5,43.2-66.5c36.5,0,50.7,39.2,43.2,66.5
			C566.4,202.5,542.2,221.4,530.7,221.4z"/>
		<path class="st19" d="M576.1,142c-3.6-14.2-21.7-35.7-38.7-35.3c-2.4-0.3-5.2-0.4-8.3-0.2c-3-0.2-5.8-0.1-8.3,0.2
			c-17-0.4-35.1,21.1-38.7,35.3c-2.9,11.4-4.2,22.6,2.8,34.3c1.2,3.5,2.7,6,4.1,7c-1.6-9-1.9-15.4-1.3-20.3c1.3-1.9,3.7-2.5,7.9-0.8
			c11.9,5,15.5-0.6,24.5-19.4c2.7-5.8,4.9-12.6,9-12.5c4.1,0,6.3,6.8,9,12.5c9,18.8,12.6,24.3,24.5,19.4c4.2-1.7,6.6-1.1,7.9,0.8
			c0.6,4.9,0.2,11.4-1.3,20.3c1.4-1,2.9-3.5,4.1-7C580.3,164.6,579,153.4,576.1,142z"/>
		<polygon class="st12" points="521.1,296.6 505.6,296.6 504.5,296.6 488.4,282 504.8,271.1 484.8,261.7 498,241.2 503.2,233.2 
			512.1,229.2 512.1,238.7 521,296.6 		"/>
		<polygon class="st12" points="556.4,270.5 572.7,281.4 556.6,296.6 555.6,296.6 540,296.6 540.2,296.6 549.1,238.1 549.1,228.7 
			560,233.5 564.8,241.6 576.3,261.1 		"/>
	</g>
	<g>
		<path class="st0" d="M594.9,310.6C552,329.5,539.1,339.5,534,344c-7.8,6.9-12.2,32.8-16.8,54.8h97.1h97.1
			c-4.6-22-9-47.8-16.8-54.8c-5.1-4.5-17.5-14.3-60.4-33.1L594.9,310.6z"/>
		<path class="st3" d="M594.9,310.6C552,329.5,539.1,339.5,534,344c-7.8,6.9-12.2,32.8-16.8,54.8h97.1h97.1
			c-4.6-22-9-47.8-16.8-54.8c-5.1-4.5-17.5-14.3-60.4-33.1L594.9,310.6z"/>
		<path class="st25" d="M593.5,273.1V305v15.7c11.5,13.6,30.2,14,41.7,0V305v-31.9C635.2,247.4,593.5,247.4,593.5,273.1z"/>
		<path class="st10" d="M570.9,243.2c3.7-1.2,8.3,3,10.4,9.3c2.1,6.3,0.8,12.5-2.9,13.7c-3.7,1.2-8.3-3-10.4-9.3
			C565.9,250.5,567.2,244.4,570.9,243.2z"/>
		<path class="st10" d="M657.6,243.2c-3.7-1.2-8.3,3-10.4,9.3c-2.1,6.3-0.8,12.5,2.9,13.7c3.7,1.2,8.3-3,10.4-9.3
			C662.6,250.5,661.3,244.4,657.6,243.2z"/>
		<path class="st14" d="M605.4,340.7l5,7.8c2.6,0,5.2,0,7.8,0l5.1-7.8l-8.9-9.7L605.4,340.7z"/>
		<polygon class="st14" points="610.4,348.5 603.2,398.8 625.4,398.8 618.2,348.5 		"/>
		<path class="st12" d="M593.5,305l-1.8,7.1l5.1,36.9l17.7-17.9L593.5,305z"/>
		<path class="st4" d="M593.5,296.2v1.5c0,0,10.6,12.6,20.8,13.1c10.2,0.5,20.9-12.2,20.9-12.2v-2.3"/>
		<g>
			<path class="st25" d="M614.4,187.7c-64.1,0-39.5,87.8-35.4,94.6c4.6,7.4,25,23.8,35.4,23.8c10.4,0,30.7-16.4,35.4-23.8
				C653.9,275.5,678.5,187.7,614.4,187.7z"/>
			<path class="st11" d="M586.4,189.7c21.7-17,64.4-14.6,74.5-0.4c-4.1,14.3-1.1,52.5-4.1,72.8c0,0,0-0.1,0-0.1
				c0,0.2-0.1,0.4-0.1,0.6c0,0.2-0.4,0.6-0.5,0.8c-0.1,0.2-0.9,0-1.2-0.1c-0.1,0-0.1-0.2-0.1-0.3c-0.1-1.8,0-5.3,0-5.4
				c0.2-2.8,0.8-5.5,1.3-8.2c-2-12.8-8-15.5-11.2-30.9c-0.7-1-1.4-2-2.1-3c-0.9-1.1-1.7-2.2-2.8-3.2c-0.5-0.3-1.1-0.7-1.6-1.1
				c-11.7-4.3-11.3-1.1-22.3,3.4c-4.2,1.7-16,5-20.7,4.7c-2-0.2-8.8-0.8-9-2.5c-8.7,13.5-9.6,23.1-12.2,34.7c0.4,2,0.7,4,0.9,6.1
				c0,0,0.1,3.6,0,5.4c0,0.1,0,0.2-0.1,0.3c-0.3,0.1-1,0.3-1.2,0.1c-0.1-0.1-0.4-0.6-0.5-0.8c-0.2-0.8-0.2-1.4-0.3-2.2
				c-0.1-1-0.3-2.1-0.4-3.2C569.5,244.7,563.3,195.1,586.4,189.7z M619.2,206.5c0.4-0.1,0.7-0.2,1.1-0.3c-0.5,0.1-1.1,0.3-1.6,0.4
				C618.9,206.6,619,206.5,619.2,206.5z"/>
		</g>
		<path class="st12" d="M635.2,305l1.4,7l-4.8,37.4l-17.4-18.3L635.2,305z"/>
		<polyline class="st6" points="593.5,305 614.4,331.1 635.2,305 635.2,304.4 614.4,330.3 593.5,304.4 593.5,305 		"/>
		<polygon class="st7" points="610.4,348.5 618.2,348.5 618.3,348.8 610.4,348.8 		"/>
	</g>
	<g>
		<path class="st0" d="M340.9,230.6C298,249.5,285.1,259.5,280,264c-7.8,6.9-12.2,32.8-16.8,54.8h97.1h97.1
			c-4.6-22-9-47.8-16.8-54.8c-5.1-4.5-17.5-14.3-60.4-33.1L340.9,230.6z"/>
		<path class="st21" d="M340.9,230.6C298,249.5,285.1,259.5,280,264c-7.8,6.9-12.2,32.8-16.8,54.8h97.1h97.1
			c-4.6-22-9-47.8-16.8-54.8c-5.1-4.5-17.5-14.3-60.4-33.1L340.9,230.6z"/>
		<path class="st26" d="M339.5,193.1V225v15.7c11.5,13.6,30.2,14,41.7,0V225v-31.9C381.2,167.4,339.5,167.4,339.5,193.1z"/>
		<path class="st26" d="M316.9,163.2c3.7-1.2,8.3,3,10.4,9.3c2.1,6.3,0.8,12.5-2.9,13.7c-3.7,1.2-8.3-3-10.4-9.3
			C311.9,170.5,313.2,164.4,316.9,163.2z"/>
		<path class="st26" d="M403.6,163.2c-3.7-1.2-8.3,3-10.4,9.3c-2.1,6.3-0.8,12.5,2.9,13.7c3.7,1.2,8.3-3,10.4-9.3
			C408.6,170.5,407.3,164.4,403.6,163.2z"/>
		<path class="st14" d="M351.4,260.7l5,7.8c2.6,0,5.2,0,7.8,0l5.1-7.8l-8.9-9.7L351.4,260.7z"/>
		<polygon class="st14" points="356.4,268.5 349.2,318.8 371.4,318.8 364.2,268.5 		"/>
		<path class="st12" d="M339.5,225l-1.8,7.1l5.1,36.9l17.7-17.9L339.5,225z"/>
		<path class="st4" d="M339.5,216.2v1.5c0,0,10.6,12.6,20.8,13.1c10.2,0.5,20.9-12.2,20.9-12.2v-2.3"/>
		<g>
			<path class="st26" d="M360.4,107.7c-64.1,0-39.5,87.8-35.4,94.6c4.6,7.4,25,23.8,35.4,23.8c10.4,0,30.7-16.4,35.4-23.8
				C399.9,195.5,424.5,107.7,360.4,107.7z"/>
			<path class="st27" d="M389.9,109.7c-22.1-19.5-65.4,5.4-75.5,19.6c4.1,14.3,2.1,32.5,5.1,52.8c0,0,0-0.1,0-0.1
				c0,0.2,0.1,0.4,0.1,0.6c0,0.2,0.4,0.6,0.5,0.8c0.1,0.2,0.9,0,1.2-0.1c0.1,0,0.1-0.2,0.1-0.3c0.1-1.8,0-5.3,0-5.4
				c-0.2-2.8,0.2-5.6-0.2-8.4c2-12.8,0.4-13.3,7.4-26.1c0.6-1.1,4.3-5.4,4.8-5.8c11.7-4.3,15.7,2.8,26.7,7.3
				c4.2,1.7,10.5,1.8,15.2,1.8c7.3,0,14.3-8,14.4-9.6c8.7,13.5,9.6,23.1,12.2,34.7c-0.3,2-0.7,4-0.9,6.1c0,0-0.1,3.6,0,5.4
				c0,0.1,0,0.2,0.1,0.3c0.3,0.1,1,0.3,1.2,0.1c0.1-0.1,0.4-0.6,0.5-0.8c0.2-0.8,0.2-1.4,0.3-2.2c0.1-1,0.3-2.1,0.4-3.2
				C406.9,164.7,413,115.1,389.9,109.7z M357.1,126.5c-0.4-0.1-0.7-0.2-1.1-0.3c0.5,0.1,1.1,0.3,1.6,0.4
				C357.5,126.6,357.3,126.5,357.1,126.5z"/>
			<path class="st18" d="M151.9,100.2c22.6-19.5,67,5.4,77.3,19.6c-4.2,14.3-2.1,32.5-5.2,52.8c0,0,0-0.1,0-0.1
				c0,0.2-0.1,0.4-0.1,0.6c0,0.2-0.4,0.6-0.5,0.8c-0.1,0.2-0.9,0-1.2-0.1c-0.1,0-0.1-0.2-0.1-0.3c-0.1-1.8,0-5.3,0-5.4
				c0.2-2.8-0.2-5.6,0.3-8.4c-2.1-12.8-0.4-13.3-7.6-26.1c-0.6-1.1-4.4-5.4-5-5.8c-11.9-4.3-16.1,2.8-27.4,7.3
				c-4.3,1.7-10.8,1.8-15.6,1.8c-7.4,0-14.6-8-14.8-9.6c-8.9,13.5-9.8,23.1-12.5,34.7c0.4,2,0.7,4,0.9,6.1c0,0,0.1,3.6,0,5.4
				c0,0.1,0,0.2-0.1,0.3c-0.3,0.1-1.1,0.3-1.2,0.1c-0.1-0.1-0.4-0.6-0.5-0.8c-0.2-0.8-0.2-1.4-0.3-2.2c-0.1-1-0.3-2.1-0.5-3.2
				C134.5,155.2,128.2,105.6,151.9,100.2z M185.5,116.9c0.4-0.1,0.7-0.2,1.1-0.3c-0.5,0.1-1.1,0.3-1.6,0.4
				C185.1,117,185.3,117,185.5,116.9z"/>
		</g>
		<path class="st12" d="M381.2,225l1.4,7l-4.8,37.4l-17.4-18.3L381.2,225z"/>
		<polyline class="st6" points="339.5,225 360.4,251.1 381.2,225 381.2,224.4 360.4,250.3 339.5,224.4 339.5,225 		"/>
		<polygon class="st7" points="356.4,268.5 364.2,268.5 364.3,268.8 356.4,268.8 		"/>
	</g>
	<g>
		<path class="st28" d="M473.7,240.2c4.5-7.9,40.8-14.9,55.5,13.2c14.8,28.1,7.3,37.9,15.5,47.8c8.2,9.9,0.5,32.6-5.2,34.6
			c-5.7,2-3.4,9.9-0.6,13.2c11.8,14.4-5.3,38.7-50.8,38.5c-48.7-0.3-58.2-28.5-45.7-37.4c4.1-2.9,5.6-8.4,1.2-13.3
			c-4.5-4.9-14.7-23-5-37.9C448.3,284.3,439.8,240.2,473.7,240.2z"/>
		<path class="st17" d="M508.1,355.8c-0.4,0.6-35.6,1.1-35.9,1.7c-11.1,15.8-34.9,22.7-53.9,26.9c-18.9,4.2-19.6,28.2-19.7,44.2
			h184.2c0-16-0.4-39.9-19.7-44.2C543.8,380.1,518.6,372.3,508.1,355.8z"/>
		<path class="st29" d="M472.2,322.1v30.3v14.9c9.2,18.9,25.9,19.4,36.9,0v-14.9v-30.3C509.1,297.7,472.2,297.7,472.2,322.1z"/>
		<path class="st29" d="M539.4,301c-3.7-1.7-8.9,2.4-11.6,9.1c-2.7,6.7-2,13.5,1.7,15.1c3.7,1.7,8.9-2.4,11.6-9.1
			C543.8,309.5,543,302.7,539.4,301z"/>
		<path class="st29" d="M442,301c3.7-1.7,8.9,2.4,11.6,9.1c2.7,6.7,2,13.5-1.7,15.1c-3.7,1.7-8.9-2.4-11.6-9.1
			C437.6,309.5,438.3,302.7,442,301z"/>
		<path class="st23" d="M472.2,344.6v1.3c0,0,11.6,11.6,18.3,11.6c6.7,0,18.6-11.7,18.6-11.7v-1.1H472.2z"/>
		<path class="st29" d="M490.7,353.4c-11.5,0-35.7-18.9-43.2-46c-7.6-27.3,6.7-66.5,43.2-66.5c36.5,0,50.7,39.2,43.2,66.5
			C526.4,334.5,502.2,353.4,490.7,353.4z"/>
		<path class="st8" d="M482.1,274.8c-9,18.8-12.6,24.3-24.5,19.4c-11.9-5-9.6,8.9-7.5,18.8c-10.5-13.4-9.3-26.1-6-39
			c3.6-14.2,21.7-35.7,38.7-35.3c9.2-1,23.2,0.2,38.1,10.9c26,18.7,17.3,60.8,10.3,65.7c6.8-38.9-9.8-31-21.3-51.4
			C506.2,255,491.8,254.4,482.1,274.8z"/>
		<rect x="488.3" y="381.9" class="st3" width="3.8" height="46.7"/>
		<g>
			<polygon class="st3" points="472.2,357.5 459,369.5 475.8,395.5 490.2,381.8 			"/>
			<polygon class="st3" points="509.1,357.4 522.3,369.9 504.7,395.5 490.2,381.8 			"/>
		</g>
		<path class="st17" d="M510.7,321.6c0.4,0,0.7,0,1.1-0.1c10.5-0.9,13.1-5.6,14.2-11.5c1.3-6.5,1.4-8.8,3.1-9.4
			c1.2-0.4,1.5-1.9,1.5-3.6c0-1.7-0.1-1.9-2.1-2.6c-1.6-0.6-10.6-1.4-17.3-1l0,1.8c5.3-0.3,10.4,0.3,11.9,1.3
			c3.4,2.2,2.4,12.7-0.5,17.9c-2,3.6-7.2,5.5-11.9,5.5L510.7,321.6z M491.1,296.9c-2.3,0.1-11.8-2.7-18.5-3.3c-0.5,0-1-0.1-1.5-0.1
			l0,1.8c5.5,0.2,11.1,1.5,13.1,4.4c3.2,4.8-2.5,16.5-7.7,19.1c-1.6,0.8-3.6,1.2-5.8,1.2l0,1.7c9.1,0,12.4-6.5,13.5-8.7
			c2.1-4.1,1.7-9.8,6.9-9.8c5.2,0,4.5,5.5,6.4,9.6c1,2.2,3.9,9,13.3,8.7l0-1.7c-2.3,0-4.5-0.4-6.1-1.2c-5-2.6-10-14.3-6.5-19.1
			c2.1-2.9,7.7-4.2,13.1-4.5l0-1.8c-0.4,0-0.8,0.1-1.2,0.1C503.9,294.1,496.6,296.7,491.1,296.9z M471.2,293.5
			c-6.6-0.4-15.4,0.5-17.1,1c-2.1,0.7-2.2,0.9-2.3,2.6c-0.1,1.7,0.1,3.2,1.3,3.6c1.7,0.6,1.6,2.9,2.5,9.4
			c0.8,5.9,3.1,10.6,13.5,11.5c0.5,0,1,0.1,1.6,0.1l0-1.7c-4.8,0-10.1-1.8-11.9-5.5c-2.5-5.2-2.9-15.7,0.6-17.9
			c1.5-0.9,6.5-1.6,11.7-1.4L471.2,293.5z"/>
		<polygon class="st30" points="472.2,357.5 490.2,381.8 509.1,357.4 509.1,356.9 490.2,381.1 472.2,356.9 		"/>
	</g>
	<g>
		<path class="st0" d="M231,345.1c-42.9,18.8-55.8,28.9-60.9,33.4c-7.8,6.9-12.2,32.8-16.8,54.8h97.1h97.1c-4.6-22-9-47.8-16.8-54.8
			c-5.1-4.5-17.5-14.3-60.4-33.1L231,345.1z"/>
		<path class="st1" d="M231,345.1c-42.9,18.8-55.8,28.9-60.9,33.4c-7.8,6.9-12.2,32.8-16.8,54.8h97.1h97.1c-4.6-22-9-47.8-16.8-54.8
			c-5.1-4.5-17.5-14.3-60.4-33.1L231,345.1z"/>
		<path class="st31" d="M229.6,307.6v31.9v15.7c11.5,13.6,30.2,14,41.7,0v-15.7v-31.9C271.3,281.9,229.6,281.9,229.6,307.6z"/>
		<path class="st31" d="M207,277.7c3.7-1.2,8.3,3,10.4,9.3c2.1,6.3,0.8,12.5-2.9,13.7c-3.7,1.2-8.3-3-10.4-9.3
			C202,285,203.3,278.9,207,277.7z"/>
		<path class="st31" d="M293.7,277.7c-3.7-1.2-8.3,3-10.4,9.3c-2.1,6.3-0.8,12.5,2.9,13.7c3.7,1.2,8.3-3,10.4-9.3
			C298.7,285,297.4,278.9,293.7,277.7z"/>
		<path class="st3" d="M250.5,365.5c0,0-29.1,6.9-29.1,8.7c0,1.8,11.1,59,11.1,59H272l4.5-58.8L250.5,365.5z"/>
		<polygon class="st32" points="229.6,345.7 229.6,355.2 238.6,433.3 223.1,433.3 205.9,398.5 222.3,387.6 202.3,378.2 220.7,349.7 
					"/>
		<polygon class="st32" points="271.3,345.8 271.3,355.2 262.1,433.3 277.7,433.3 294.8,398.5 278.5,387.6 298.5,378.2 282.1,350.6 
					"/>
		<path class="st9" d="M241.5,375.2l5,7.8c2.6,0,5.2,0,7.8,0l5.1-7.8l-8.9-9.7L241.5,375.2z"/>
		<polygon class="st9" points="246.5,383 239.3,433.3 261.5,433.3 254.3,383 		"/>
		<path class="st12" d="M229.6,339.5l-1.8,7.1l5.1,36.9l17.7-17.9L229.6,339.5z"/>
		<path class="st4" d="M229.6,330.6v1.5c0,0,10.6,12.6,20.8,13.1c10.2,0.5,20.9-12.2,20.9-12.2v-2.3"/>
		<g>
			<path class="st33" d="M283.5,225.8c9.5,1.5,14.8,8.1,17.1,16.9c5.9,23.1-6.4,73.2-49,73.8c-22,0.3-37.8-5.3-43.6-23.1
				c-5.8-17.8-8.1-46.4,4.4-62.5C228.1,210.7,261.2,210.6,283.5,225.8z"/>
			<path class="st31" d="M250.5,222.2c-64.1,0-39.5,87.8-35.4,94.6c4.6,7.4,25,23.8,35.4,23.8c10.4,0,30.7-16.4,35.4-23.8
				C290,310,314.6,222.2,250.5,222.2z"/>
			<path class="st33" d="M219.4,249.8c11.4,6.9,20.3-3.4,30.6,1c10.3,4.4,38.2-16.9,44.3,30c9.8-34-5-58.4-42.2-60
				c-39.7-1.7-55.8,34.5-44.8,68.3C206.5,270.8,211,258.8,219.4,249.8z"/>
			<g>
				<g>
					<path class="st34" d="M218.4,246.7c0.3,5.9,10.3,6.8,14.5,7.1c4,0.2,7.9-0.3,11.7-1.5c4.7-1.4,10.6-3,14.4-6.2
						c0.4-0.3,0.2-1-0.3-1.1c-7.4-1.2-14.8,5-22.3,5.5c-5.6,0.4-12.8-0.3-17.2-4.1C218.9,246.2,218.4,246.3,218.4,246.7L218.4,246.7
						z"/>
				</g>
			</g>
		</g>
		<path class="st9" d="M270.3,304c0.4,0,0.7,0,1.1-0.1c10.4-0.9,13-5.6,14.2-11.5c1.3-6.5,1.4-8.8,3.1-9.4c1.2-0.4,1.5-1.9,1.5-3.6
			c0-1.7-0.1-1.9-2.1-2.6c-1.6-0.6-10.5-1.4-17.2-0.9l0,1.8c5.3-0.3,10.3,0.3,11.8,1.3c3.3,2.2,2.4,12.6-0.5,17.8
			c-2,3.6-7.1,5.4-11.8,5.5L270.3,304z M250.8,279.4c-2.3,0.1-11.7-2.7-18.4-3.2c-0.5,0-1-0.1-1.5-0.1l0,1.8
			c5.4,0.2,11.1,1.5,13,4.4c3.2,4.8-2.5,16.4-7.7,19c-1.6,0.8-3.6,1.2-5.8,1.2l0,1.7c9,0,12.4-6.5,13.5-8.7c2.1-4.1,1.7-9.7,6.8-9.7
			c5.2,0,4.5,5.5,6.3,9.6c1,2.2,3.9,9,13.3,8.7l0-1.6c-2.3,0-4.5-0.4-6.1-1.2c-5-2.6-10-14.2-6.5-19c2.1-2.9,7.7-4.2,13.1-4.4l0-1.8
			c-0.4,0-0.8,0.1-1.2,0.1C263.5,276.6,256.2,279.2,250.8,279.4z M230.9,276c-6.6-0.4-15.4,0.5-17,1c-2.1,0.7-2.1,0.9-2.3,2.6
			c-0.1,1.7,0.1,3.1,1.3,3.6c1.6,0.6,1.6,2.9,2.5,9.4c0.8,5.9,3.1,10.6,13.5,11.4c0.5,0,1,0.1,1.5,0.1l0-1.7
			c-4.8,0-10.1-1.8-11.9-5.5c-2.5-5.2-2.9-15.6,0.6-17.8c1.5-0.9,6.5-1.6,11.7-1.4L230.9,276z"/>
		<path class="st12" d="M271.3,339.5l1.4,7l-4.8,37.4l-17.4-18.3L271.3,339.5z"/>
		<polyline class="st6" points="229.6,339.5 250.5,365.5 271.3,339.5 271.3,338.8 250.5,364.8 229.6,338.8 229.6,339.5 		"/>
		<polygon class="st7" points="246.5,383 254.3,383 254.4,383.3 246.5,383.3 		"/>
	</g>
	<g>
		<path class="st0" d="M337.9,370.7c-42.9,18.8-55.8,28.8-60.9,33.4c-7.8,6.9-12.2,32.8-16.8,54.8h97.1h97.1
			c-4.6-22-9-47.8-16.8-54.8c-5.1-4.5-17.5-14.3-60.4-33.1L337.9,370.7z"/>
		<path class="st1" d="M337.9,370.7c-42.9,18.8-55.8,28.8-60.9,33.4c-7.8,6.9-12.2,32.8-16.8,54.8h97.1h97.1
			c-4.6-22-9-47.8-16.8-54.8c-5.1-4.5-17.5-14.3-60.4-33.1L337.9,370.7z"/>
		<path class="st35" d="M336.4,333.1V365v15.7c11.5,13.6,30.2,14,41.7,0V365v-31.9C378.1,307.5,336.4,307.5,336.4,333.1z"/>
		<path class="st35" d="M313.8,303.2c3.7-1.2,8.3,3,10.4,9.3c2.1,6.3,0.8,12.5-2.9,13.7c-3.7,1.2-8.3-3-10.4-9.3
			C308.9,310.6,310.2,304.4,313.8,303.2z"/>
		<path class="st35" d="M400.6,303.2c-3.7-1.2-8.3,3-10.4,9.3c-2.1,6.3-0.8,12.5,2.9,13.7c3.7,1.2,8.3-3,10.4-9.3
			C405.5,310.6,404.2,304.4,400.6,303.2z"/>
		<path class="st36" d="M357.4,391.1c0,0-29.1,6.9-29.1,8.7c0,1.8,11.1,59,11.1,59h39.5l4.5-58.8L357.4,391.1z"/>
		<polygon class="st15" points="336.4,371.3 336.4,380.7 345.5,458.8 329.9,458.8 312.8,424 329.2,413.1 309.2,403.8 327.5,375.3 		
			"/>
		<polygon class="st16" points="378.1,371.3 378.1,380.7 369,458.8 384.6,458.8 401.7,424 385.3,413.1 405.3,403.8 389,376.2 		"/>
		<path class="st37" d="M348.3,400.7l5,7.8c2.6,0,5.2,0,7.8,0l5-7.8l-8.9-9.7L348.3,400.7z"/>
		<polygon class="st37" points="353.4,408.6 346.2,458.8 368.4,458.8 361.2,408.6 		"/>
		<path class="st3" d="M336.4,365l-1.8,7.1l5.1,36.9l17.7-17.9L336.4,365z"/>
		<path class="st4" d="M336.4,356.2v1.5c0,0,10.6,12.6,20.8,13.1c10.2,0.5,20.9-12.2,20.9-12.2v-2.3"/>
		<g>
			<path class="st35" d="M357.3,247.7c-64.1,0-39.5,87.8-35.4,94.6c4.6,7.4,25,23.8,35.4,23.8c10.4,0,30.7-16.4,35.4-23.8
				C396.9,335.6,421.4,247.7,357.3,247.7z"/>
			<path class="st18" d="M386.1,249.8c-21.7-17-55.1-6.9-65.2,7.3c-12.6,17.8-8.2,44.8-5.2,65c0,0,0-0.1,0-0.1
				c0,0.2,0.1,0.4,0.1,0.6c0,0.2,0.4,0.6,0.5,0.8c0.1,0.2,0.9,0,1.2-0.1c0.1,0,0.1-0.2,0.1-0.3c0.1-1.8,0-5.3,0-5.4
				c-0.2-2.8-0.8-5.5-1.3-8.2c2-12.8,8-15.5,11.2-30.9c0.7-1,1.4-2,2.1-3c0.9-1.1,1.7-2.2,2.8-3.2c0.5-0.3,1.1-0.7,1.6-1.1
				c11.7-4.3,23.7,0.9,34.7,5.3c4.2,1.7,8.9,3.7,13.6,3.4c2-0.2,3.5-1.5,3.7-3.1c5.3,15.8,9.6,23.1,12.2,34.7c-0.4,2-0.7,4-0.9,6.1
				c0,0-0.1,3.6,0,5.4c0,0.1,0,0.2,0.1,0.3c0.3,0.1,1,0.3,1.2,0.1c0.1-0.1,0.4-0.6,0.5-0.8c0.2-0.8,0.2-1.4,0.3-2.2
				c0.1-1,0.3-2.1,0.4-3.2C403,304.8,409.2,255.1,386.1,249.8z M353.3,266.5c-0.4-0.1-0.7-0.2-1.1-0.3c0.5,0.1,1.1,0.3,1.6,0.4
				C353.6,266.6,353.4,266.6,353.3,266.5z"/>
		</g>
		<path class="st3" d="M378.1,365l1.4,7l-4.8,37.4l-17.4-18.3L378.1,365z"/>
		<polyline class="st6" points="336.4,365 357.4,391.1 378.1,365 378.1,364.4 357.4,390.3 336.4,364.4 336.4,365 		"/>
		<polygon class="st7" points="353.4,408.6 361.2,408.6 361.2,408.8 353.3,408.8 		"/>
	</g>
</g>
</svg>
