<?xml version="1.0" encoding="utf-8"?>
<!-- Generator: Adobe Illustrator 22.0.0, SVG Export Plug-In . SVG Version: 6.00 Build 0)  -->
<svg version="1.1" xmlns="http://www.w3.org/2000/svg" xmlns:xlink="http://www.w3.org/1999/xlink" x="0px" y="0px"
	 viewBox="0 0 500 500" enable-background="new 0 0 500 500" xml:space="preserve">
<g id="BACKGROUND">
	<rect fill="#ACCEDE" width="500" height="500"/>
</g>
<g id="OBJECTS">
	<g>
		<path fill="#8BB3C4" d="M445.9,137.1c0-0.1,0-0.1,0.1-0.2c0.1-0.3,0.1-0.6,0.2-0.8c0-0.1,0-0.2,0.1-0.4c0-0.3,0.1-0.5,0.1-0.8
			c0-0.2,0-0.3,0-0.5c0-0.2,0-0.5,0-0.7c0-0.2,0-0.4,0-0.6c0-0.2,0-0.4,0-0.7c0-0.2,0-0.4-0.1-0.6c0-0.2,0-0.4-0.1-0.6
			c0-0.2-0.1-0.5-0.1-0.7c0-0.2-0.1-0.4-0.1-0.6c-0.1-0.2-0.1-0.5-0.2-0.7c-0.1-0.2-0.1-0.4-0.2-0.5c-0.1-0.3-0.2-0.6-0.3-0.8
			c-0.1-0.1-0.1-0.3-0.2-0.4c-0.2-0.4-0.4-0.8-0.6-1.2c0,0,0,0,0,0c-2.2-4-4.5-8-6.9-11.8c-3.4-5.5-7.1-10.8-11-15.8
			c1-8.7-1.2-17-6.9-22.9c-0.7-0.7-1.4-1.4-2.1-2c-1.5-1.2-3.1-2.2-4.8-3c-0.4-0.2-0.9-0.4-1.3-0.6c-1.3-0.5-2.7-0.9-4-1.2
			c-0.5-0.1-0.9-0.2-1.4-0.2c-1.4-0.2-2.9-0.3-4.3-0.3c-1.2,0-2.3,0.1-3.5,0.3c-1.8-1.5-3.5-3-5.4-4.4c-1.8-1.4-3.5-2.7-5.3-4.1
			c-5.4-4-11-7.7-16.8-11.1c0,0,0,0,0,0c-0.4-0.2-0.8-0.4-1.2-0.6c-0.1-0.1-0.3-0.1-0.4-0.2c-0.3-0.1-0.5-0.2-0.8-0.3
			c-0.2-0.1-0.3-0.1-0.5-0.2c-0.2-0.1-0.5-0.1-0.7-0.2c-0.2,0-0.4-0.1-0.6-0.1c-0.2,0-0.4-0.1-0.7-0.1c-0.2,0-0.4-0.1-0.6-0.1
			c-0.2,0-0.4,0-0.6-0.1c-0.2,0-0.4,0-0.6,0c-0.2,0-0.4,0-0.5,0c-0.2,0-0.5,0-0.7,0c-0.2,0-0.3,0-0.4,0.1c-0.2,0-0.5,0.1-0.7,0.1
			c-0.1,0-0.2,0-0.3,0.1c-0.3,0.1-0.5,0.1-0.8,0.2c-0.1,0-0.1,0-0.2,0.1c-2.4,0.8-4.5,2.3-5.8,4.4l0,0h0c-0.3,0.5-0.6,0.9-0.8,1.4v0
			c-2.7,6.1,0,13.4,5.7,16.7c1.1,0.6,2.2,1.3,3.3,2c-17.3,2-37.1,10.3-60.6,22c-0.5,0.3-1,0.5-1.5,0.8c-0.1,0.1-0.2,0.1-0.3,0.2
			c-1,0.6-2,1.2-3,1.9c-0.1,0-0.1,0.1-0.2,0.1c-1,0.7-1.9,1.5-2.7,2.4c0,0,0,0.1-0.1,0.1c-0.8,0.9-1.6,2-2.3,3.1c0,0,0,0,0,0
			c-0.3,0.6-0.6,1.2-0.9,1.8l0,0l0,0c-0.7,1.6-1.1,3.4-1.4,5.5c0,0.4-0.1,1.3,0,2.5c-22.4-6.3-46-6.6-68.5-0.8
			c-1.6-4.9-2.9-8.5-3.3-9.6c-1.4-3.7-2.9-6.8-4.6-9.3c0,0,0-0.1-0.1-0.1c-0.7-0.9-1.4-1.8-2.1-2.6c0,0-0.1-0.1-0.1-0.1
			c-0.3-0.3-0.7-0.7-1-1c-0.1-0.1-0.1-0.1-0.2-0.2c-0.4-0.3-0.8-0.7-1.2-1c-0.1,0-0.1-0.1-0.2-0.1c-0.4-0.3-0.7-0.5-1.1-0.7
			c-0.1-0.1-0.2-0.1-0.3-0.2c-0.5-0.3-0.9-0.5-1.4-0.8C182,74.7,162.8,65.9,145.7,64c3.7-3.8,5.1-9.5,2.9-14.5h0
			c-1.3-2.9-3.7-4.9-6.6-5.9c-0.1,0-0.1,0-0.2-0.1c-0.3-0.1-0.5-0.1-0.8-0.2c-0.1,0-0.2-0.1-0.3-0.1c-0.2,0-0.5-0.1-0.7-0.1
			c-0.1,0-0.3,0-0.4-0.1c-0.2,0-0.5,0-0.7,0c-0.2,0-0.4,0-0.5,0c-0.2,0-0.4,0-0.6,0c-0.2,0-0.4,0-0.6,0.1c-0.2,0-0.4,0-0.6,0.1
			c-0.2,0-0.4,0.1-0.6,0.1c-0.2,0-0.4,0.1-0.6,0.1c-0.2,0.1-0.5,0.1-0.7,0.2c-0.2,0.1-0.3,0.1-0.5,0.2c-0.3,0.1-0.5,0.2-0.8,0.3
			c-0.1,0.1-0.3,0.1-0.4,0.2c-0.4,0.2-0.8,0.4-1.2,0.6c0,0,0,0,0,0c-11.1,6.5-21.5,14.1-31,22.7c-0.8-1.8-1.9-3.3-3.1-4.6
			c0,0-0.1-0.1-0.1-0.1c0,0-0.1-0.1-0.1-0.1c-5.2-5.4-11.7-3.4-16.9,2.1s-7.2,12.2-2,17.7c0,0,0.1,0.1,0.1,0.1
			c0,0.1,0.1,0.1,0.1,0.2c1.2,1.2,2.6,2.2,4.1,3.1c-2.2,2.5-4.3,5.1-6.3,7.7c-2.8,3.6-5.4,7.2-8,11C64.6,110.1,61,116,57.8,122
			c-0.2,0.4-0.4,0.8-0.6,1.3c-0.1,0.1-0.1,0.3-0.2,0.4c-0.1,0.3-0.2,0.6-0.3,0.8c-0.1,0.2-0.1,0.4-0.2,0.5c-0.1,0.2-0.1,0.5-0.2,0.7
			c0,0.2-0.1,0.4-0.1,0.6c0,0.2-0.1,0.5-0.1,0.7c0,0.2-0.1,0.4-0.1,0.6c0,0.2,0,0.4-0.1,0.6c0,0.2,0,0.4,0,0.7c0,0.2,0,0.4,0,0.6
			c0,0.2,0,0.5,0,0.7c0,0.2,0,0.3,0,0.5c0,0.3,0.1,0.5,0.1,0.8c0,0.1,0,0.2,0.1,0.4c0.1,0.3,0.1,0.6,0.2,0.8c0,0.1,0,0.1,0.1,0.2
			c0.9,3.1,2.8,5.6,5.6,6.9l0,0c3.9,1.9,8.4,1.2,11.8-1.2c0,0,0,0.1,0,0.1c0,0.3,0.1,0.5,0.1,0.8c0,0.3,0.1,0.6,0.1,0.9
			c0,0.1,0,0.2,0,0.3c0,0.1,0,0.2,0,0.2c0.1,1,0.3,1.9,0.4,2.9c0,0.1,0,0.3,0.1,0.4c0.2,1,0.4,2,0.6,3c0,0.1,0.1,0.2,0.1,0.4
			c0.2,1,0.4,2,0.7,3.1c0,0.1,0,0.2,0.1,0.3c0.3,1.1,0.5,2.1,0.8,3.2c0,0,0,0.1,0,0.1c0.3,1.1,0.6,2.2,1,3.4c0,0,0,0,0,0.1
			c0.3,1.1,0.7,2.3,1.1,3.4c0,0.1,0.1,0.2,0.1,0.2c0.4,1.1,0.7,2.2,1.1,3.3c0,0.1,0.1,0.2,0.1,0.4c0.4,1.1,0.8,2.2,1.2,3.3
			c0.1,0.1,0.1,0.3,0.2,0.4c0.4,1.1,0.8,2.2,1.3,3.3c0.1,0.2,0.1,0.3,0.2,0.5c0.4,1.1,0.9,2.2,1.3,3.4c0.1,0.2,0.1,0.4,0.2,0.5
			c0.5,1.1,0.9,2.3,1.4,3.4c0.1,0.2,0.2,0.4,0.2,0.5c0.5,1.2,1,2.3,1.5,3.5c0.1,0.2,0.1,0.3,0.2,0.5c0.5,1.2,1,2.4,1.6,3.6
			c0.1,0.2,0.1,0.3,0.2,0.5c0.5,1.2,1.1,2.5,1.7,3.8c0.1,0.1,0.1,0.3,0.2,0.4c0.6,1.3,1.2,2.6,1.8,4c0,0.1,0.1,0.2,0.1,0.3
			c0.6,1.4,1.3,2.8,1.9,4.2c0.2,0.5,0.5,1,0.7,1.5c0.1,0.1,0.1,0.2,0.2,0.4c0.2,0.4,0.5,0.8,0.7,1.2c0,0.1,0.1,0.1,0.1,0.2
			c0.3,0.4,0.6,0.9,0.9,1.3c0.1,0.1,0.1,0.1,0.2,0.2c0.3,0.4,0.6,0.7,0.9,1.1c0,0,0.1,0.1,0.1,0.1c0.7,0.8,1.6,1.5,2.4,2.2
			c0,0,0.1,0,0.1,0.1c2.4,1.8,5.3,3.4,8.9,4.8c1,0.4,4.5,1.7,9.1,3.4c-5.1,22-5.2,44.9-0.3,67c-4.7,1.7-8.2,3-9.2,3.4
			c-2.2,0.9-4.1,1.8-5.8,2.8c-0.1,0.1-0.2,0.1-0.3,0.2c-0.5,0.3-1.1,0.6-1.6,1c-0.1,0.1-0.2,0.1-0.2,0.2c-0.5,0.3-0.9,0.7-1.4,1
			c0,0-0.1,0-0.1,0.1c-0.5,0.4-0.9,0.8-1.3,1.2c-0.1,0.1-0.2,0.2-0.2,0.2c-0.4,0.4-0.8,0.8-1.2,1.2c0,0.1-0.1,0.1-0.1,0.2
			c-0.3,0.4-0.7,0.8-1,1.3c-0.1,0.1-0.1,0.2-0.2,0.2c-0.3,0.5-0.6,1-0.9,1.5c-0.1,0.1-0.1,0.2-0.2,0.3c-0.3,0.5-0.6,1.1-0.8,1.7
			c-1.8,3.9-3.5,7.7-5.1,11.3c-8.7,19.8-15,36.5-16.5,51.7c-3.6-3.8-9.1-5.2-13.9-3c-2.8,1.3-4.7,3.9-5.6,6.9c0,0.1,0,0.1-0.1,0.2
			c-0.1,0.3-0.1,0.6-0.2,0.8c0,0.1,0,0.2-0.1,0.4c0,0.3-0.1,0.5-0.1,0.8c0,0.2,0,0.3,0,0.5c0,0.2,0,0.5,0,0.7c0,0.2,0,0.4,0,0.6
			c0,0.2,0,0.4,0,0.7c0,0.2,0,0.4,0.1,0.6c0,0.2,0,0.4,0.1,0.6c0,0.2,0.1,0.5,0.1,0.7c0,0.2,0.1,0.4,0.1,0.6
			c0.1,0.2,0.1,0.5,0.2,0.7c0.1,0.2,0.1,0.4,0.2,0.5c0.1,0.3,0.2,0.6,0.3,0.8c0.1,0.1,0.1,0.3,0.2,0.4c0.2,0.4,0.4,0.8,0.6,1.2
			c0,0,0,0,0,0c5.4,10.1,11.6,19.6,18.5,28.6c0.6,0.7,1.1,1.4,1.7,2.1c0.2,2.6,0.8,5.1,1.8,7.5l-1,1c-1.2,1.3-1.3,3.2-0.3,4.6
			c-1.2,2.2-2,4.9-1.8,8.3c0.7,12.2-15.4,8.4-15.4,8.4s10.5,17.8,20.4,8.3c7.6-7.3,1.5-11.2,4-17.5c0,0,0,0,0-0.1
			c1.3,1,3.2,0.9,4.5-0.3l0.4-0.4c2.8,1.7,5.9,2.7,9.2,3.1c9.8,8.9,20.4,16.7,31.8,23.4c0.4,0.2,0.8,0.4,1.2,0.6
			c0.1,0.1,0.3,0.1,0.4,0.2c0.3,0.1,0.5,0.2,0.8,0.3c0.2,0.1,0.3,0.1,0.5,0.2c0.2,0.1,0.5,0.1,0.7,0.2c0.2,0,0.4,0.1,0.6,0.1
			c0.2,0,0.4,0.1,0.7,0.1c0.2,0,0.4,0.1,0.6,0.1c0.2,0,0.4,0,0.6,0.1c0.2,0,0.4,0,0.6,0c0.2,0,0.4,0,0.5,0c0.2,0,0.5,0,0.7,0
			c0.2,0,0.3,0,0.4-0.1c0.2,0,0.5-0.1,0.7-0.1c0.1,0,0.2,0,0.3-0.1c0.3-0.1,0.5-0.1,0.8-0.2c0.1,0,0.1,0,0.2-0.1
			c2.9-0.9,5.4-2.9,6.6-5.9c2.1-4.8,0.9-10.3-2.4-14c1.8-0.1,3.6-0.3,5.3-0.6c1.7-0.3,3.8-0.7,6.3-1.3c0.6-0.1,1.2-0.3,1.9-0.4
			c0.4-0.1,0.8-0.2,1.2-0.3c1.2-0.3,2.4-0.6,3.7-0.9c0.2,0,0.3-0.1,0.5-0.1c0.9-0.2,1.8-0.5,2.7-0.7c0.2,0,0.3-0.1,0.5-0.1
			c0.5-0.1,1.1-0.3,1.6-0.4c0.2,0,0.3-0.1,0.5-0.1c1-0.3,2.1-0.6,3.1-0.9c0.4-0.1,0.8-0.2,1.1-0.3c0.7-0.2,1.3-0.4,2-0.6
			c0.2-0.1,0.4-0.1,0.6-0.2c0.9-0.3,1.9-0.5,2.8-0.8c0.2,0,0.3-0.1,0.5-0.1c0.6-0.2,1.2-0.3,1.8-0.5c0.2-0.1,0.4-0.1,0.5-0.2
			c0.5-0.2,1.1-0.3,1.6-0.5c0.2-0.1,0.4-0.1,0.6-0.2c2.3-0.7,4.6-1.3,6.7-2c0.2-0.1,0.4-0.1,0.6-0.2c3.7-1.1,6.9-2.1,9.2-2.8
			c0.1,0,0.2-0.1,0.3-0.1c2.3-0.7,3.6-1.1,3.6-1.1c0.5-0.1,1-0.3,1.4-0.5c0.6-0.3,1.2-0.7,1.7-1.1c0.1-0.1,0.1-0.1,0.2-0.2
			c0.5-0.4,0.9-0.9,1.2-1.4c0.2-0.3,0.4-0.6,0.6-0.9c0.9-1.5,1.3-3.3,1.2-5.2l-1.7-25c24.1,9,50.2,10.7,75.1,5.2l0.3,1.3
			c-0.1,0.2-0.3,0.3-0.4,0.5c-2.7,3.6-0.2,9,2,11.3c0.8,0.8,3.6,3.1,4.3,1.6c0.5,0.5,1.2,0.9,2,1.3c0,0,0,0,0,0
			c0.2,0.1,0.4,0.2,0.6,0.2c0,0,0.1,0,0.1,0c0.2,0.1,0.4,0.1,0.6,0.2c0.1,0,0.2,0.1,0.3,0.1c0.2,0,0.3,0.1,0.5,0.1
			c0.3,0.1,0.5,0.2,0.8,0.2c0.2,0,0.3,0.1,0.6,0.2c0.2,0.1,0.5,0.1,0.8,0.2c0.3,0.1,0.6,0.2,1,0.3c0.4,0.1,0.8,0.2,1.2,0.3
			c19.1,5.4,38.9,11.7,58,9.7c-2,1.3-4,2.5-6.1,3.7c-5.7,3.3-8.3,10.6-5.7,16.7h0c1.3,2.9,3.7,4.9,6.6,5.9c0.1,0,0.1,0,0.2,0.1
			c0.3,0.1,0.5,0.1,0.8,0.2c0.1,0,0.2,0.1,0.3,0.1c0.2,0,0.5,0.1,0.7,0.1c0.1,0,0.3,0,0.4,0.1c0.2,0,0.5,0,0.7,0c0.2,0,0.4,0,0.5,0
			c0.2,0,0.4,0,0.6,0c0.2,0,0.4,0,0.6-0.1c0.2,0,0.4,0,0.6-0.1c0.2,0,0.4-0.1,0.6-0.1c0.2,0,0.4-0.1,0.6-0.1
			c0.2-0.1,0.5-0.1,0.7-0.2c0.2-0.1,0.3-0.1,0.5-0.2c0.3-0.1,0.5-0.2,0.8-0.3c0.1-0.1,0.3-0.1,0.4-0.2c0.4-0.2,0.8-0.4,1.2-0.6
			c0,0,0,0,0,0c5.8-3.4,11.4-7.1,16.8-11.1c1.8-1.3,3.6-2.7,5.3-4.1c3.2-2.5,6.3-5.2,9.4-7.9c2.2-0.4,4.4-1.2,6.5-2.3
			c5.8-3.2,9.8-8.8,11.8-15.5c0.1-0.5,0.3-1,0.4-1.5c0.2-0.3,0.5-0.6,0.8-0.9c8.7-10.4,16.3-21.7,22.8-33.8c0,0,0,0,0,0
			c0.2-0.4,0.4-0.8,0.6-1.2c0.1-0.1,0.1-0.3,0.2-0.4c0.1-0.3,0.2-0.6,0.3-0.8c0.1-0.2,0.1-0.4,0.2-0.5c0.1-0.2,0.1-0.5,0.2-0.7
			c0-0.2,0.1-0.4,0.1-0.6c0-0.2,0.1-0.5,0.1-0.7c0-0.2,0.1-0.4,0.1-0.6c0-0.2,0-0.4,0.1-0.6c0-0.2,0-0.4,0-0.7c0-0.2,0-0.4,0-0.6
			c0-0.2,0-0.5,0-0.7c0-0.2,0-0.3,0-0.5c0-0.3-0.1-0.5-0.1-0.8c0-0.1,0-0.2-0.1-0.4c-0.1-0.3-0.1-0.6-0.2-0.8c0-0.1,0-0.1-0.1-0.2
			c-0.7-2.5-2.2-4.7-4.2-6.1l0,0v0c-0.4-0.3-0.9-0.6-1.4-0.8v0c-5.5-2.6-11.9-0.3-15.3,4.8c1.2-18.4-3.8-37-7.9-55.7
			c0-0.2-0.1-0.3-0.1-0.5c0,0,0-0.1,0-0.1c-0.1-0.4-0.2-0.8-0.2-1.1c0-0.1,0-0.2-0.1-0.3c0-0.1,0-0.2-0.1-0.3c0-0.1,0-0.2-0.1-0.3
			c0-0.1,0-0.2-0.1-0.3c0-0.1,0-0.2-0.1-0.3c0-0.1,0-0.2-0.1-0.3c0-0.1,0-0.2-0.1-0.3c0-0.1,0-0.2-0.1-0.3c0-0.1,0-0.2-0.1-0.3
			c0-0.1-0.1-0.2-0.1-0.3c0-0.1,0-0.2-0.1-0.3c0-0.1-0.1-0.2-0.1-0.3c0-0.1,0-0.2-0.1-0.3c0-0.1-0.1-0.2-0.1-0.3
			c0-0.1,0-0.2-0.1-0.3c0-0.1-0.1-0.2-0.1-0.3c0-0.1-0.1-0.2-0.1-0.2c0-0.1-0.1-0.2-0.1-0.3c0-0.1-0.1-0.2-0.1-0.2
			c0-0.1-0.1-0.2-0.1-0.3c0-0.1,0-0.1-0.1-0.2c0-0.1-0.1-0.2-0.1-0.3c0,0,0-0.1,0-0.1c-0.2-0.4-0.3-0.9-0.5-1.2c0,0,0-0.1-0.1-0.1
			c0-0.1-0.1-0.2-0.2-0.3c0,0,0-0.1-0.1-0.1c1.4-0.8-0.8-3.7-1.6-4.5c-2.2-2.3-7.4-4.9-10.8-2.1c-0.2,0.2-0.4,0.4-0.6,0.5l-2.5-0.3
			c4.8-22.7,4.3-46.4-1.4-68.9c2.7-1.1,4.6-1.9,5.3-2.2c3.5-1.5,6.5-3,8.9-4.8c0,0,0.1,0,0.1-0.1c0.9-0.7,1.7-1.4,2.5-2.2
			c0,0,0.1-0.1,0.1-0.1c0.3-0.3,0.6-0.7,0.9-1.1c0.1-0.1,0.1-0.1,0.2-0.2c0.3-0.4,0.6-0.8,0.9-1.3c0-0.1,0.1-0.1,0.1-0.2
			c0.2-0.4,0.5-0.8,0.7-1.2c0.1-0.1,0.1-0.2,0.2-0.4c0.3-0.5,0.5-1,0.7-1.5c10.3-22.6,17.6-41.1,19.8-57.3c3.6,3.1,8.6,4.2,13,2.1h0
			c0.5-0.2,0.9-0.5,1.4-0.8l0,0v0C443.7,141.8,445.2,139.7,445.9,137.1z M185.8,402c0.1,0.9-0.5,1.7-1.3,1.9c0,0-15.7,5.5-23.4,7.7
			c6.6-3.3,12.7-7.5,17.4-12.5c2.8-2.9,4.9-5.9,6.6-8.9L185.8,402z M313,116.8c0.4-0.1,0.8-0.2,1.2-0.3c-0.4,0.8-0.8,1.6-1.1,2.4
			C313,117.5,313,116.8,313,116.8z M381.4,306.7c0.8,0.8,1.7,1.5,2.1,1.8c0.6,0.4,1.3,0.7,1.9,0.5c2.6,8,4.4,15.2,5.6,20.1
			c-1.3-1.7-2.7-3.4-4.1-4.9c-3.2-3.3-6.5-5.8-9.8-7.7C378.6,313.4,380.1,310.1,381.4,306.7z M306.4,386.8c-0.2-0.3-0.5-0.7-0.8-1.1
			c1.4-0.6,2.8-1.2,4.2-1.9c1.3,3.2,3.2,6.3,5.6,9.4c-3.3-0.9-6.3-2-8.4-3c-0.2-0.1-0.5-0.2-0.7-0.3c0,0,0,0,0,0
			C307.7,389.2,307,387.7,306.4,386.8z M191.8,123.3c-0.7-6.3-3.2-12.4-7.9-18.3c3.3,1.4,6.7,2.7,9.9,3.6c0.5,0.2,0.9,0.5,1.2,1.1
			c0.6,1.6,2.1,5.2,4,10.1C196.6,120.8,194.2,122,191.8,123.3z M117.7,190.5c-0.5-0.2-0.9-0.7-1-1.2c-1.6-5.9-4.1-12.3-6.6-18.1
			c0.7,0.8,1.4,1.6,2.2,2.4c6.2,6.5,12.9,10,19.7,11.1c-1.7,3.3-3.2,6.6-4.6,10C122.7,192.7,119.2,191.1,117.7,190.5z M117.3,312.2
			c1.5-0.7,4.9-2.2,9.4-4.1c1.1,2.7,2.2,5.4,3.5,8c-6.1,0.8-12,3.5-17.7,8.4c1.4-3.7,2.8-7.5,3.7-11.1
			C116.5,312.8,116.8,312.4,117.3,312.2z M388.6,190.5c0,0-3.3,1.5-8.4,3.7c-1-2.3-2-4.6-3.1-6.9c4.6-1.8,9-4.9,13.2-9.3
			c1.7-1.8,3.3-3.8,4.9-5.9C392.7,178,390.1,184.6,388.6,190.5z"/>
		<g>
			<g>
				<g>
					<path fill="#172736" d="M129.1,447c-30.9-17.3-56.4-42.8-73.7-73.7c-3.7-6.6-1.5-14.4,4.3-17l0,0c5.9-2.7,12.8,0,16,5.7
						c15.2,27.2,37.6,49.6,64.8,64.8c5.7,3.2,8.3,10.1,5.7,16l0,0C143.5,448.5,135.8,450.7,129.1,447z"/>
					<path fill="#18354F" d="M131.9,444.2c-30.9-17.3-56.4-42.8-73.7-73.7c-2.6-4.6-2.3-9.8,0.1-13.5c-4.8,3.2-6.3,10.2-2.9,16.3
						c17.3,30.9,42.8,56.4,73.7,73.7c6.1,3.4,13.1,1.9,16.3-2.9C141.8,446.5,136.6,446.8,131.9,444.2z"/>
				</g>
				<path fill="#172736" d="M178.5,392.5c-19,19-57.6,26.8-76.6,7.8c-19-19-11.2-57.6,7.8-76.6c19-19,42-11.2,61,7.8
					C189.7,350.5,197.5,373.5,178.5,392.5z"/>
			</g>
			<g>
				<g>
					<path fill="#172736" d="M57.8,127.5c17.3-30.9,42.8-56.4,73.7-73.7c6.6-3.7,14.4-1.5,17,4.3h0c2.7,5.9,0,12.8-5.7,16
						c-27.2,15.2-49.6,37.6-64.8,64.8c-3.2,5.7-10.1,8.3-16,5.7l0,0C56.3,141.9,54.1,134.1,57.8,127.5z"/>
					<path fill="#18354F" d="M60.6,130.3c17.3-30.9,42.8-56.4,73.7-73.7c4.6-2.6,9.8-2.3,13.5,0.1c-3.2-4.8-10.2-6.3-16.3-2.9
						C100.6,71,75.1,96.6,57.8,127.5c-3.4,6.1-1.9,13.1,2.9,16.3C58.3,140.1,58,134.9,60.6,130.3z"/>
				</g>
				<path fill="#172736" d="M112.2,176.8c-19-19-26.8-57.6-7.8-76.6c19-19,57.6-11.2,76.6,7.8c19,19,11.2,42-7.8,61
					C154.2,188,131.2,195.8,112.2,176.8z"/>
			</g>
			<g>
				<g>
					<path fill="#172736" d="M370.9,57.8c30.9,17.3,56.4,42.8,73.7,73.7c3.7,6.6,1.5,14.4-4.3,17v0c-5.9,2.7-12.8,0-16-5.7
						c-15.2-27.2-37.6-49.6-64.8-64.8c-5.7-3.2-8.3-10.1-5.7-16l0,0C356.5,56.2,364.2,54.1,370.9,57.8z"/>
					<path fill="#18354F" d="M368.1,60.6c30.9,17.3,56.4,42.8,73.7,73.7c2.6,4.6,2.3,9.8-0.1,13.5c4.8-3.2,6.3-10.2,2.9-16.3
						c-17.3-30.9-42.8-56.4-73.7-73.7c-6.1-3.4-13.1-1.9-16.3,2.9C358.2,58.3,363.4,58,368.1,60.6z"/>
				</g>
				<path fill="#172736" d="M321.5,112.2c19-19,57.6-26.8,76.6-7.8c19,19,11.2,57.6-7.8,76.6c-19,19-42,11.2-61-7.8
					C310.3,154.2,302.5,131.2,321.5,112.2z"/>
			</g>
			<g>
				<g>
					<path fill="#172736" d="M434.2,363.3c-17.3,30.9-42.8,56.4-73.7,73.7c-6.6,3.7-14.4,1.5-17-4.3h0c-2.7-5.9,0-12.8,5.7-16
						c27.2-15.2,49.6-37.6,64.8-64.8c3.2-5.7,10.1-8.3,16-5.7l0,0C435.8,348.9,438,356.6,434.2,363.3z"/>
					<path fill="#18354F" d="M431.5,360.5c-17.3,30.9-42.8,56.4-73.7,73.7c-4.6,2.6-9.8,2.3-13.5-0.1c3.2,4.8,10.2,6.3,16.3,2.9
						c30.9-17.3,56.4-42.8,73.7-73.7c3.4-6.1,1.9-13.1-2.9-16.3C433.8,350.6,434.1,355.8,431.5,360.5z"/>
				</g>
				<path fill="#172736" d="M386.9,321c19,19,26.8,57.6,7.8,76.6c-19,19-57.6,11.2-76.6-7.8c-19-19-11.2-42,7.8-61
					C344.9,309.8,367.9,302,386.9,321z"/>
			</g>
			<g>
				<polygon fill="#5E4221" points="140.2,185.7 188.1,137.8 150.4,87 89.4,148 				"/>
				<polygon fill="#453017" points="188.1,137.8 150.4,87 145.7,91.7 183.4,142.4 				"/>
				<polygon fill="#453017" points="140.2,185.7 148,177.9 97.2,140.2 89.4,148 				"/>
				<polygon fill="#453017" points="162.1,163.8 166.2,159.7 122.5,114.9 117.3,120.1 				"/>
			</g>
			<g>
				<polygon fill="#292725" points="317.8,138.5 365.7,186.4 416.4,148.7 355.5,87.8 				"/>
				<polygon fill="#1F1D1B" points="365.7,186.4 416.4,148.7 411.8,144.1 361,181.8 				"/>
				<polygon fill="#1F1D1B" points="317.8,138.5 325.6,146.3 363.3,95.6 355.5,87.8 				"/>
				<polygon fill="#1F1D1B" points="339.7,160.5 343.7,164.5 388.5,120.8 383.4,115.7 				"/>
			</g>
			<g>
				<polygon fill="#297F87" points="351.8,302.6 303.9,350.5 341.6,401.3 402.6,340.3 				"/>
				<polygon fill="#21676E" points="303.9,350.5 341.6,401.3 346.3,396.6 308.5,345.9 				"/>
				<polygon fill="#21676E" points="351.8,302.6 344,310.4 394.8,348.1 402.6,340.3 				"/>
				<polygon fill="#21676E" points="329.9,324.5 325.8,328.6 369.5,373.4 374.7,368.2 				"/>
			</g>
			<g>
				<polygon fill="#0F4A69" points="186.9,363.2 139,315.3 88.2,353 149.2,414 				"/>
				<polygon fill="#0C3F59" points="139,315.3 88.2,353 92.9,357.7 143.6,320 				"/>
				<polygon fill="#0C3F59" points="186.9,363.2 179.1,355.4 141.4,406.2 149.2,414 				"/>
				<polygon fill="#0C3F59" points="165,341.3 160.9,337.3 116.1,381 121.3,386.1 				"/>
			</g>
			<circle fill="#3F6578" cx="253.8" cy="251.8" r="137.9"/>
			<path fill="#44BD74" d="M278.2,209.6c1.4-3.3,0.3-7.3-2.7-9.3c-1.7-1.2-3.7-1.6-5.6-1.3c-0.6,0.1-1.2,0-1.7-0.3l-1.4-0.8
				l9.1-15.9l-41.5-23.6l-23.6,41.5l16,9.1l-0.8,1.4c-0.3,0.5-0.7,0.9-1.3,1.1c-1.8,0.7-3.3,2.1-4.2,4c-1.5,3.3-0.4,7.3,2.5,9.4
				c3.8,2.7,9,1.5,11.2-2.4c0.9-1.6,1.2-3.3,0.9-5c-0.1-0.6,0-1.2,0.3-1.7l0.8-1.4l16,9.1l9.2-16.1l1.4,0.8c0.5,0.3,0.9,0.7,1.1,1.3
				c0.6,1.6,1.8,2.9,3.3,3.8C271.3,215.5,276.4,213.9,278.2,209.6z"/>
			<path fill="#4CCEE0" d="M296.4,258.8l44-18.6l-18.6-44l-16.9,7.1l0.6,1.5c0.2,0.5,0.6,1,1.1,1.2c1.7,0.9,3,2.4,3.7,4.5
				c1.1,3.4-0.4,7.3-3.6,9c-4.1,2.3-9.1,0.5-10.9-3.7c-0.7-1.7-0.8-3.5-0.3-5.1c0.2-0.6,0.1-1.2-0.1-1.7l-0.6-1.5l-17.1,7.2l7.2,17
				l-1.5,0.6c-0.5,0.2-1.1,0.3-1.7,0.1c-1.8-0.5-3.9-0.4-5.7,0.6c-3.2,1.7-4.8,5.5-3.7,8.9c1.3,4.5,6.2,6.7,10.4,4.9
				c1.7-0.7,3-1.9,3.8-3.4c0.3-0.5,0.7-0.9,1.2-1.1l1.5-0.6L296.4,258.8z"/>
			<path fill="#DE5C3D" d="M296.8,303.3l-1.4,0.8c-0.5,0.3-0.9,0.8-1.1,1.3c-0.6,1.6-1.7,3-3.3,3.9c-3.9,2.3-9,0.8-10.9-3.5
				c-1.5-3.3-0.4-7.3,2.5-9.4c1.7-1.2,3.7-1.7,5.6-1.4c0.6,0.1,1.2,0,1.6-0.3l1.4-0.8l-9.4-15.8l-17.2,10.2l-0.8-1.4
				c-0.3-0.5-0.4-1.1-0.3-1.6c0.3-1.9-0.2-3.9-1.4-5.6c-2.1-2.9-6.1-4-9.4-2.5c-4.2,1.9-5.8,7-3.5,10.9c0.9,1.6,2.3,2.7,3.9,3.3
				c0.5,0.2,1,0.6,1.3,1.1l0.8,1.4l-14.5,8.6l24.4,41l41-24.4L296.8,303.3z"/>
			<path fill="#F2A135" d="M223.5,271.7c1.9,0.9,3.2,2.5,3.9,4.3c0.2,0.5,0.6,1,1.1,1.3l1.4,0.8l10.2-17.2l-15.9-9.4l-0.8,1.4
				c-0.3,0.5-0.4,1.1-0.3,1.7c0.2,1.7-0.1,3.4-1,5c-2.3,3.9-7.5,5-11.3,2.2c-2.9-2.2-3.8-6.2-2.3-9.4c0.9-1.9,2.5-3.2,4.3-3.9
				c0.5-0.2,1-0.6,1.3-1.1l0.8-1.4l-15.8-9.4l-24.4,41l41,24.4l8.6-14.5l-1.4-0.8c-0.5-0.3-1.1-0.4-1.7-0.3c-1.7,0.2-3.4-0.1-5-1
				c-3.9-2.3-5-7.5-2.2-11.3C216.3,271.2,220.3,270.2,223.5,271.7z"/>
			<g>
				<path fill="#FFD48F" d="M196.1,258.2c0.4,1.1-0.6,2.1-1.9,2.6c-2.4,0.9-9.5,3.1-9.2,4c0.3,0.9,9.8-2.4,12.9-3.6
					c1.4-0.5,3-0.4,3.4,0.8c0.4,1.3-0.6,2.3-1.9,2.7c-3.2,1.1-12.7,4.7-12.4,5.6c0.3,0.7,13.1-3.8,14.8-4.4c1.7-0.6,3.1-0.3,3.5,0.8
					c0.5,1.2-0.6,2.2-2.3,2.9c-3.7,1.5-14.7,4.8-14.4,5.7c0.3,0.8,9.5-1.9,12.7-2.8c1.6-0.4,2.9-0.3,3.3,0.8
					c0.5,1.4-0.7,2.2-2.6,2.9c-3.9,1.4-15.3,4.6-15.5,5.5c-0.1,0.7,3.5,1.6,5,2.4c1.1,0.6,2.3,1.5,2.2,2.5c-0.1,1.1-1.3,1.6-2.7,1.3
					c-3.3-0.9-7.3-1-9.9-1.9c-3.3-1.1-11.8,0.4-14.7-7.6c-1.5-4.1-0.5-7.6,3.3-11c4.3-3.8,16.6-8,22.7-9.8
					C194.4,257.1,195.6,257,196.1,258.2z"/>
				<path fill="#FFD48F" d="M202.4,316.4c-1.2-0.1-1.9,1.2-2,2.6c-0.2,2.5-0.1,9.6-0.6,9.6c-0.9-0.1-0.5-9.4-0.6-12.9
					c0-1.5-0.8-3.4-2.1-3.4c-1.4,0-2,1.3-2,2.6c-0.2,3.4-0.2,13.4-0.2,13.4c-0.8,0-1.4-13.3-1.3-15.1c0.1-1.8-0.6-3-1.8-3.1
					c-1.2-0.1-2,1.2-2.1,3c-0.3,4-0.1,15.1-0.1,15.1c-0.8,0-1-9.6-1-12.9c0-1.6-0.5-2.9-1.7-2.9c-1.5-0.1-1.9,1.3-2,3.3
					c-0.2,4.1,0,16-0.7,16.4c-0.7,0.3-2.5-2.9-3.8-4.1c-0.9-0.9-2.1-1.8-3.1-1.4c-1,0.4-1.2,1.7-0.4,2.9c1.8,2.9,3.1,6.7,4.7,9
					c2,2.8,3.1,11.4,11.5,11.8c4.4,0.2,7.4-1.7,9.6-6.4c2.4-5.2,1.3-17.8,1.3-24.2C204,317.8,203.7,316.5,202.4,316.4z"/>
				<g>
					<path fill="#E04A6F" d="M209.3,405.6l-4.3-60.3c-0.1-1-1-1.8-2-1.7l-18.4,1.9c-1,0.1-1.7,0.9-1.6,1.9l2.9,47.8
						c0.1,0.8-0.5,1.6-1.3,1.8c0,0-27.8,9.4-27.7,8.1c0.6-5,7.5-19.3,1.1-31.8c-2.8-5.5-12.7-11.5-15.9-14.7
						c-3.5-3.5-7.6-12.3-12.5-14.8c-15.2-8-27.3,1.4-26.9-0.3c0.8-3.6,9.8-19.6,13.6-33.1c0.1-0.5,0.5-0.9,1-1.2
						c5.5-2.3,38.2-16.2,54.9-21.1c0.9-0.3,1.5-1.3,1.2-2.2c-1.1-4-3.8-13.7-4.9-17.7c-0.3-1-1.3-1.6-2.3-1.2
						c-9.3,3.2-51.7,17.8-55.8,19.4c-7.7,3-12.4,6.3-15.3,12.4c-22.5,47.5-34,77.1-2.8,108.4c18.1,18.1,37.6,24.5,56.8,21.5
						c13.7-2.2,53.8-14.1,53.8-14.1C206.9,413.5,209.6,409.7,209.3,405.6z"/>
					<path fill="#D6476A" d="M209.3,405.6l-0.1-1.3c-11.5,3.3-37.7,10.8-48.3,12.5c-19.2,3.1-38.6-3.3-56.8-21.5
						c-31-31-20-60.4,2.2-107.2c-5.3,2.6-8.9,5.7-11.2,10.6c-22.5,47.5-34,77.1-2.8,108.4c18.1,18.1,37.6,24.5,56.8,21.5
						c13.7-2.2,53.8-14.1,53.8-14.1C206.9,413.5,209.6,409.7,209.3,405.6z"/>
					<path fill="#FFFFFF" d="M142.1,358.7c-2.2-2.2-4.7-6.5-7.4-10l-36.3,21.8l15.9,15.9l15.9,15.9l21.6-35.9
						C148.1,363.4,143.9,360.6,142.1,358.7z"/>
					<path opacity="0.1" d="M110,421c8.1-1.8,17.1-7,26.4-16.3c14.5-14.5,13.2-31.5,1.8-42.9c-11.3-11.3-28.3-12.7-42.9,1.8
						c-9.1,9.1-14.2,18.2-16.1,26.4c3,5.7,7.3,11.4,13,17.1C98.1,412.9,104,417.5,110,421z"/>
					<g>
						<g>
							<path fill="#D8A32B" d="M74.3,423.1c0.7,11.7-15.4,8.1-15.4,8.1s10.5,17.1,20.4,8c7.6-7,1.5-10.7,4-16.7
								c2.2-5.2,6.9-9.5,6.9-9.5l-4.8-4.8C85.4,408.1,73.6,411.4,74.3,423.1z"/>
							<path fill="#0F4A69" d="M82.9,422l-6.5-6.5c-1.3-1.3-1.3-3.5,0-4.9l1.9-1.9l11.3,11.3l-1.9,1.9
								C86.4,423.3,84.2,423.3,82.9,422z"/>
						</g>
						<g>
							<path fill="#E7B83E" d="M133.4,407.7c-20.3,20.3-39.4,21.1-50.8,9.7c-11.3-11.3-9.9-31.1,9.7-50.8
								c14.5-14.5,31.5-13.2,42.9-1.8C146.6,376.2,147.9,393.2,133.4,407.7z"/>
							<path fill="#D8A32B" d="M89.2,410.9c-10.6-10.6-10-28.6,6.1-46.9c-1,0.8-1.9,1.7-2.9,2.6c-19.6,19.6-21.1,39.4-9.7,50.8
								c11.3,11.3,30.4,10.6,50.8-9.7c0.9-0.9,1.8-1.9,2.6-2.8C117.2,421.6,99.8,421.6,89.2,410.9z"/>
						</g>
					</g>
				</g>
			</g>
			<g>
				<path fill="#FFD48F" d="M294,212.3c1.2,0.1,1.9-1.1,2.1-2.5c0.2-2.5,0.5-10,1.4-9.9c1,0.1,0.2,10-0.1,13.4
					c-0.2,1.4,0.4,3,1.7,3.1c1.4,0.1,2-1.2,2.1-2.5c0.3-3.4,1.2-13.5,2.2-13.4c0.7,0.1-0.3,13.7-0.4,15.5c-0.1,1.8,0.5,3.1,1.7,3.2
					c1.2,0.1,2-1.1,2.2-3c0.5-3.9,0.8-15.5,1.8-15.4c0.8,0.1,0.6,9.7,0.6,12.9c0,1.6,0.4,2.9,1.6,3c1.5,0.1,2-1.3,2.1-3.3
					c0.3-4.1,0.5-16,1.3-16.4c0.7-0.3,2.4,3,3.6,4.2c0.9,0.9,2,1.9,3,1.5c1-0.4,1.2-1.6,0.5-2.9c-1.7-3-2.8-6.8-4.4-9.1
					c-1.9-2.9-2.7-11.5-11.1-12.2c-4.4-0.4-7.5,1.5-9.8,6.1c-2.6,5.2-3.4,18.1-3.6,24.5C292.5,210.9,292.7,212.1,294,212.3z"/>
				<polygon fill="#FFFFFF" points="315.6,184.6 294.3,187.5 294,182 314,178.7 				"/>
				<path fill="#FFD48F" d="M309,244.4c-0.4-1.1,0.6-2.1,1.9-2.6c2.4-0.9,9.5-3.1,9.2-4c-0.3-0.9-9.8,2.4-12.9,3.6
					c-1.4,0.5-3,0.4-3.4-0.8c-0.4-1.3,0.6-2.3,1.9-2.7c3.2-1.1,12.7-4.7,12.4-5.6c-0.3-0.7-13.1,3.8-14.8,4.4
					c-1.7,0.6-3.1,0.3-3.5-0.8c-0.5-1.2,0.6-2.2,2.3-2.9c3.7-1.5,14.7-4.8,14.4-5.7c-0.3-0.8-9.5,1.9-12.7,2.8
					c-1.6,0.4-2.9,0.3-3.3-0.8c-0.5-1.4,0.7-2.2,2.6-2.9c3.9-1.4,15.3-4.6,15.5-5.5c0.1-0.7-3.5-1.6-5-2.4c-1.1-0.6-2.3-1.5-2.2-2.5
					c0.1-1.1,1.3-1.6,2.7-1.3c3.3,0.9,7.3,1,9.9,1.9c3.3,1.1,11.8-0.4,14.7,7.6c1.5,4.1,0.5,7.6-3.3,11c-4.3,3.8-16.6,8-22.7,9.8
					C310.7,245.5,309.5,245.6,309,244.4z"/>
				<polygon fill="#FFFFFF" points="334.6,236.2 329.2,215.9 334.9,214.5 340.9,233.9 				"/>
				<path fill="#393735" d="M407.6,201.4c22.5-47.5,28.6-73.3-0.8-102.7c-27.6-27.6-57.2-20.2-104.7,2.3c-6.1,2.9-11.4,7-12.4,15.3
					c-0.6,4.9,3.9,68.4,3.7,68.9c0,0,22.1-3.2,22.1-3.2c-1.2-23.1-2.6-59.5-2.6-59.5c13.6-3.7,30.6-12.8,34.2-13.6
					c1.7-0.4-2.3,11.7,17.4,31.3c20.8,20.8,38.3,17.2,37.9,18.9c-0.8,3.6-10.2,20.3-13.9,33.9c0,0-39.9,17.2-57.3,21.9
					c0,0,5.8,21.3,5.9,21.3c0.5-0.1,50.6-20.6,55.2-22.5C399.9,210.8,404.7,207.5,407.6,201.4z"/>
				<path fill="#2E2C2A" d="M293,110.1c47.5-22.5,78.3-30.9,105.8-3.4c29.3,29.3,22.2,56.2-0.3,103.8c-0.1,0.2-0.2,0.4-0.3,0.5
					c4.3-2.4,7.3-5.3,9.4-9.7c22.5-47.5,31-75.7,1.7-105c-27.6-27.6-59.6-17.9-107.1,4.6c-4.7,2.2-8.8,5.1-11,10.1
					C291.7,110.8,292.3,110.4,293,110.1z"/>
				<path fill="#FFFFFF" d="M399.5,129.9L387.6,118l-11.9-11.9l-24.4,16.6c2.3,4.8,6.3,10.7,13.2,17.5c6.8,6.8,13.2,11,18.8,13.6
					L399.5,129.9z"/>
				<path fill="#42403F" d="M383.3,153.8c0,0,9.2,1.3,13.3-7.5c3.1-6.8,3.6-17.2,3.6-17.2L383.3,153.8z"/>
				<path fill="#42403F" d="M351.4,122.6c0,0-1.3-9.2,7.5-13.3c6.8-3.1,17.2-3.6,17.2-3.6L351.4,122.6z"/>
				<path fill="#992424" d="M364.5,140.2c1.5,1.5,2.9,2.8,4.3,4l12-17.1l-1.9-1.9l-0.2-0.2l-1.9-1.9l-17.1,12
					C361.2,136.7,362.7,138.4,364.5,140.2z"/>
				<polygon fill="#2E2C2A" points="335.4,230 354.7,223.2 355.2,225 336,232.1 				"/>
				<polygon fill="#2E2C2A" points="300.6,184.2 298.2,165.4 296.3,166.2 298.5,184.5 				"/>
				<path opacity="0.1" d="M410.6,134.9c0.5-0.4,1-0.9,1.5-1.3c0,0,0,0,0,0c0.5-0.5,1-1,1.5-1.5c0.1-0.1,0.2-0.3,0.4-0.4
					c0.5-0.5,1-1.1,1.5-1.7c0,0,0,0,0,0c1.5-1.8,2.9-3.7,4-5.6c0.3-0.5,0.6-1,0.9-1.4c1.4-2.4,2.5-4.9,3.3-7.4
					c0.5-1.5,0.9-3,1.2-4.5c0.2-1,0.4-2,0.5-3c0.1-0.5,0.1-1,0.1-1.5c0.1-1,0.1-1.9,0.1-2.9c0-0.5,0-1-0.1-1.4
					c-0.1-0.9-0.2-1.9-0.3-2.8c-0.8-5.1-3.1-9.7-6.8-13.4c-10.8-10.8-30.3-8.7-43.7,4.7c-0.7,0.7-1.3,1.3-1.9,2
					c-0.1,0.1-0.2,0.2-0.3,0.3c-0.6,0.7-1.2,1.4-1.7,2.1l0,0l0,0c-10.9,13.7-11.3,29.4-7,39.3c5.3,12.2,12.6,15.4,12.6,15.4
					s-7.7-12.3-7.7-16.9c0-0.9,0.7,2.5,3.8,6.7c8,10.8,13.4,11.3,13.4,11.3s-0.1-0.1-0.1-0.2c0,0,0-0.1-0.1-0.1
					c0-0.1-0.1-0.1-0.1-0.2c0-0.1-0.1-0.1-0.1-0.2c-0.1-0.1-0.1-0.2-0.2-0.4l0,0c-1.7-3-6-10.8-4.7-9.5c0.9,0.9,2.6,4.8,6.6,6.9
					c5.4,2.8,10-1.4,10-1.4s-4.5,0.1-7.6-2.6c-2.6-2.2-1.6-2.2-0.5-1.8c1.4,0.5,10.1,1.9,19.6-5.1l0,0l0,0c0.5-0.4,1-0.8,1.5-1.2
					C410.4,135,410.5,134.9,410.6,134.9z"/>
				<g>
					<path fill="#2E241F" d="M365.2,131.5c5.3,12.2,12.5,15.4,12.5,15.4S370,134.6,370,130c0-0.9,0.7,2.5,3.8,6.7
						c8,10.8,13.4,11.3,13.4,11.3s-7-12.2-5.3-10.6c0.9,0.9,2.6,4.8,6.6,6.9c5.4,2.8,10-1.4,10-1.4s-4.5,0.1-7.6-2.6
						c-2.6-2.2-1.6-2.2-0.5-1.8c1.7,0.6,14.6,2.6,26.3-11.5c12.1-14.5,13.8-33.2,3-43.9c-10.8-10.8-30.3-8.7-43.7,4.7
						C361.4,102.4,360.4,120.5,365.2,131.5z"/>
					<g>
						<path fill="#1F1814" d="M411.8,91.1c10.4,10.4,9.1,28.1-1.8,42.4c2.2-1.6,4.5-3.7,6.7-6.4c12.1-14.5,13.8-33.2,3-43.9
							c-10.8-10.8-30.3-8.7-43.7,4.7c-1.4,1.4-2.7,2.9-3.9,4.4C385.2,82.1,402.1,81.3,411.8,91.1z"/>
						<path fill="#1F1814" d="M384.1,146.8c2,1.1,3.1,1.2,3.1,1.2s-0.2-0.4-0.6-1.1C385.6,146.9,384.8,146.9,384.1,146.8z"/>
					</g>
				</g>
			</g>
			<path fill="#FFFFFF" d="M376.3,400.2l13.9-13.9l13.9-13.9l-19.4-28.5c-5.6,2.7-12.5,7.4-20.5,15.4c-7.9,7.9-12.8,15.5-15.9,22
				L376.3,400.2z"/>
			<path fill="#474543" d="M348.4,381.2c0,0-1.5,10.7,8.8,15.5c8,3.7,20.1,4.2,20.1,4.2L348.4,381.2z"/>
			<path fill="#474543" d="M384.8,343.9c0,0,10.7-1.5,15.5,8.8c3.7,8,4.2,20.1,4.2,20.1L384.8,343.9z"/>
			<path fill="#992424" d="M364.3,359.2c-1.7,1.7-3.2,3.4-4.7,5.1l20,14l2.2-2.2l0.3-0.3l2.2-2.2l-14-19.9
				C368.3,355.3,366.3,357.2,364.3,359.2z"/>
			<g>
				<path fill="#FFD48F" d="M308,292.7c3.9,0,15.2-0.5,15.6,0.2c0.3,0.6-2.7,2.5-3.8,3.7c-0.8,0.9-1.6,2-1.2,3
					c0.4,0.9,1.6,1,2.8,0.3c2.7-1.8,6.3-3.1,8.4-4.7c1.3-1,3.9-1.8,6.2-3.3l49.8,8.3l14-14l-5.6-3.6l-57.1-6
					c-0.8-0.6-1.7-1.1-2.8-1.5c-5.1-2.1-17.4-2.1-23.5-1.8c-1.8,0.1-3,0.4-3.1,1.6c0,1.1,1.2,1.8,2.5,1.8c2.4,0.1,9.5-0.1,9.5,0.7
					c0,0.9-9.5,0.9-12.7,0.7c-1.4-0.1-2.8,0.6-2.8,1.8c0,1.3,1.2,1.8,2.5,1.9c3.2,0,12.9,0.3,12.9,1.2c0,0.7-13,0.6-14.7,0.6
					c-1.7,0-2.9,0.7-2.9,1.8c-0.1,1.2,1.2,1.8,2.9,1.9c3.8,0.2,14.7-0.2,14.7,0.7c0,0.8-9.1,1.2-12.2,1.4c-1.5,0.1-2.7,0.6-2.7,1.7
					C304.8,292.3,306.2,292.7,308,292.7z"/>
				<path fill="#FFD48F" d="M285.5,397.4l16.1-13.1l-15.7-40.9c1.8-3.2,1.7-7.2,2.5-9.1c1-2.4,1.4-6.2,2.4-9.3c0.4-1.3,0-2.4-1-2.6
					c-1-0.2-1.9,0.9-2.5,1.9c-0.9,1.3-1.9,4.8-2.6,4.6c-0.8-0.2-3.1-11.3-4.2-15c-0.5-1.8-1.2-3-2.6-2.6c-1.1,0.3-1.3,1.6-1,3.1
					c0.6,3.1,2.6,12,1.8,12.2c-0.9,0.3-3.3-10.4-4.5-14c-0.5-1.7-1.5-2.7-2.6-2.3c-1.1,0.4-1.5,1.7-1,3.3c0.4,1.6,3.9,14.1,3.3,14.3
					c-0.9,0.3-3.6-9-4.5-12.1c-0.3-1.2-1.2-2.3-2.4-2c-1.2,0.3-1.4,1.8-1,3.2c1,3,3.5,12.2,2.6,12.4c-0.8,0.2-2.5-6.7-3.2-9
					c-0.4-1.3-1.3-2.3-2.4-1.9c-1.2,0.4-1.1,1.6-0.7,3.4c1.4,6,4.5,17.8,7.9,22.2c0.5,0.6,0.9,1.1,1.4,1.5L285.5,397.4z"/>
				<path fill="#DB8C3D" d="M385.8,300c0,0-1.7,2.6-0.7,5.3c4.6,13.3,6.9,24.3,7.3,26.5c0.3,1.6-16-5.1-39.7,18.6
					c-20.9,20.9-18.7,40.6-20.9,40.1c-2.7-0.6-18.4-3.6-24.8-6.7c-3.2-1.5-5.8-0.9-5.8-0.9l-13.2,13.8c-0.7,3.5,1.3,4.8,5.8,6
					c0.6,0.2,1.9,0.5,3.5,0.9c32.5,8.8,67,20.1,96.7-9.5c31.2-31.2,20.3-63.9,12.8-96.8c-1.2-5.1-2.7-14.5-8.4-11.7L385.8,300z"/>
				<path fill="#BD7835" d="M399.4,285.4c0.7,2.1,1.1,4.4,1.5,6.2c7.5,32.8,18.4,65.6-12.8,96.8c-29.7,29.7-64.1,18.3-96.7,9.5
					c-1.6-0.4-2.9-0.8-3.5-0.9c-0.6,3.4,1.4,4.7,5.8,5.8c0.6,0.2,1.9,0.5,3.5,0.9c32.5,8.8,67,20.1,96.7-9.5
					c31.2-31.2,20.3-63.9,12.8-96.8C405.7,292.7,404.2,284.1,399.4,285.4z"/>
				<path fill="#EBEBEB" d="M379.5,301.6c-1-5.5,7-16.1,12-20c3.4-2.7,8.6-0.2,10.8,2c0.8,0.8,3.1,3.8,1.4,4.4
					c-3.6,1.3-14.9,12.1-17.4,17.6c-0.6,1.4-1.9,0.9-2.7,0.3C382.6,305.2,379.8,303,379.5,301.6z"/>
				<path fill="#EBEBEB" d="M301.1,376.8c-5.6-0.1-14.6,6.6-18.5,11.6c-2.7,3.4-0.2,8.6,2,10.8c0.8,0.8,3.8,3.1,4.4,1.4
					c1.3-3.6,11.9-14.5,17.4-17c1.4-0.6,0.7-2,0.1-2.9C305.7,379.7,303.5,376.9,301.1,376.8z"/>
			</g>
			<path fill="#BD7835" d="M409.3,382.4c-0.1-1-0.2-2.1-0.3-3.1c-0.1-1-0.3-1.9-0.6-2.9c-0.1-0.6-0.3-1.2-0.5-1.9
				c-0.2-0.5-0.3-1.1-0.5-1.6c-0.3-1.1-0.7-2.1-1.2-3.2s-0.9-2.1-1.5-3.1c-0.1-0.2-0.2-0.5-0.3-0.7c-2.7-5.6-6.9-17.6-23.1-22.5
				c-10.6-3.2-15.8-0.3-17,1.2c3.5-1.4,8-0.2,9.6,0.8c-3.2-0.8-7.9-1-12.1,0.9c-7.3,3.2-9.6,11-9.6,11s2.1-2.2,4.7-3.1
				c-1.3,0.9-4.2,3.9-5.5,8c-1.3,4.1-2.2,9.3-2.2,9.3s1.8-0.9,2.9-1c0.5,5.3,1.3,13.8,3.3,19.2c0,0.1,0,0.1,0.1,0.2
				c0.1,0.3,0.2,0.6,0.4,0.9c0.2,0.3,0.3,0.7,0.5,1c8.6,16.5,26.4,24.3,39.8,17.3c2.5-1.3,4.7-3,6.5-5.1c0.6-0.7,1.2-1.4,1.7-2.2
				c0.3-0.4,0.5-0.8,0.8-1.2c0.7-1.2,1.4-2.4,1.9-3.7c0.5-1.3,1-2.7,1.3-4.1c0.4-1.4,0.6-2.9,0.8-4.4c0.1-1,0.2-2,0.2-3
				C409.4,384.4,409.3,383.4,409.3,382.4z"/>
			<g>
				<g>
					<path fill="#662725" d="M383.6,347c-10.6-3.2-15.8-0.3-17,1.2c3.5-1.4,8-0.2,9.6,0.8c-3.2-0.8-7.9-1-12.1,0.9
						c-7.3,3.2-9.6,11-9.6,11s2.1-2.2,4.7-3.1c-1.3,0.9-4.2,3.9-5.5,8c-1.3,4.1-2.2,9.3-2.2,9.3s1.8-0.9,2.9-1
						c0.6,6,1.6,16.3,4.2,21.3c8.6,16.5,26.4,24.3,39.8,17.3c13.3-7,17.2-26,8.5-42.5C404.3,365,400.5,352.1,383.6,347z"/>
				</g>
				<path fill="#421917" d="M407,370.2c-0.6-1.2-1.4-2.8-2.3-4.7c6.2,15.5,2,32.2-10.3,38.6c-12.2,6.4-28.1,0.4-37.4-13.3
					c0.5,1.7,1,3.3,1.7,4.5c8.6,16.5,26.4,24.3,39.8,17.3C411.8,405.8,415.7,386.7,407,370.2z"/>
			</g>
			<path opacity="0.1" d="M83.3,108.3c1.8,8.1,7,17.1,16.3,26.4c14.5,14.5,31.5,13.2,42.9,1.8c11.3-11.3,12.7-28.3-1.8-42.9
				c-9.1-9.1-18.2-14.2-26.4-16.1c-5.7,3-11.4,7.3-17.1,13C91.4,96.4,86.8,102.4,83.3,108.3z"/>
			<g>
				<g>
					<path fill="#FFD48F" d="M190.6,241.4c0.7-1.7-0.1-1.9,0.1-2.4c0.1-0.4,1.8-0.6,2.3-1.9c0.7-1.6,0-2.8,0.2-3.2
						c0.2-0.4,1.6-0.3,2.3-2.1c0.6-1.5-0.4-2.4-0.3-3c0.1-0.7,7.3,1.7,13.8,3.3c2.5,0.6,3.5,0.3,4.1-0.9c0.7-1.6-1.6-3-3.8-3.6
						c-4.6-1.3-11.4-4-15-5.8c-0.6-0.3,0.8-2.4,0-3.7c-0.9-1.4-4.2-1.9-7.2-1.6c-4,0.5-13.2-2.5-17.3,6.4c-2.1,4.6-1.4,8.7,2.8,13.1
						c2.7,2.8,7.9,4.7,11.8,6.2C187.2,243.3,190,242.9,190.6,241.4z"/>
					<path fill="#FFD48F" d="M247.3,196.6c-1.1,0.4-2.1-0.6-2.6-1.9c-0.9-2.4-3.1-9.5-4-9.2c-0.9,0.3,2.4,9.8,3.6,12.9
						c0.5,1.4,0.4,3-0.8,3.4c-1.3,0.4-2.3-0.6-2.7-1.9c-1.1-3.2-4.7-12.7-5.6-12.4c-0.7,0.3,3.8,13.1,4.4,14.8
						c0.6,1.7,0.3,3.1-0.8,3.5c-1.2,0.5-2.2-0.6-2.9-2.3c-1.5-3.7-4.8-14.7-5.7-14.4c-0.8,0.3,1.9,9.5,2.8,12.7
						c0.4,1.6,0.3,2.9-0.8,3.3c-1.4,0.5-2.2-0.7-2.9-2.6c-1.4-3.9-4.6-15.3-5.5-15.5c-0.7-0.1-1.6,3.5-2.4,5
						c-0.6,1.1-1.5,2.3-2.5,2.2c-1.1-0.1-1.6-1.3-1.3-2.7c0.9-3.3,1-7.3,1.9-9.9c1.1-3.3-0.4-11.8,7.6-14.7c4.1-1.5,7.6-0.5,11,3.3
						c3.8,4.3,8,16.6,9.8,22.7C248.4,194.9,248.5,196.2,247.3,196.6z"/>
					<polygon fill="#FFFFFF" points="238.3,169 217.4,174.4 216.5,169 236,163.3 					"/>
					<polygon fill="#FFFFFF" points="176.8,215.2 170.9,236.7 166.4,234.3 170.7,214.4 					"/>
					<path fill="#C24D29" d="M173.8,216.3c0.3-1-0.3-1.9-1.2-2.2c-16.6-4.9-49.4-18.8-54.9-21.1c-0.5-0.2-0.9-0.6-1-1.2
						c-3.8-13.5-12.9-29.6-13.6-33.1c-0.4-1.7,11.7,7.7,26.9-0.3c4.8-2.5,10.4-13.5,13.7-16.8c3.9-3.9,14.3-8.8,16.8-13.7
						c8-15.2-1.4-27.3,0.3-26.9c3.6,0.8,19.6,9.8,33.1,13.6c0.5,0.1,0.9,0.5,1.2,1c2.3,5.5,16.2,38.2,21.1,54.9
						c0.3,0.9,1.3,1.5,2.2,1.2c4-1.1,13.7-3.8,17.7-4.9c1-0.3,1.6-1.3,1.2-2.3c-3.2-9.3-17.8-51.7-19.4-55.8
						c-3-7.7-6.3-12.4-12.4-15.3c-47.5-22.5-77.1-34-108.4-2.8c-0.8,0.8-1.5,1.5-2.2,2.3c-0.8,0.7-1.5,1.4-2.3,2.2
						c-31.2,31.2-19.8,60.8,2.8,108.4c2.9,6.1,7.6,9.4,15.3,12.4c4.1,1.6,46.5,16.2,55.8,19.4c1,0.3,2-0.2,2.3-1.2
						C170,229.9,172.7,220.2,173.8,216.3z"/>
					<path fill="#A84324" d="M74.2,145.5c2.3,16.7,10.5,35.3,21.3,58c2.1,4.3,5.1,7.2,9.4,9.6c-0.1-0.2-0.2-0.4-0.3-0.5
						c-22.5-47.5-34-77.1-2.8-108.4c0.8-0.8,1.5-1.5,2.3-2.2c0.7-0.8,1.4-1.5,2.2-2.3c31.2-31.2,60.8-19.8,108.4,2.8
						c0.2,0.1,0.4,0.2,0.5,0.3c-2.4-4.3-5.3-7.3-9.6-9.4c-47.5-22.5-77.1-34-108.4-2.8c-0.8,0.8-1.5,1.5-2.2,2.3
						c-0.8,0.7-1.5,1.4-2.3,2.2C76.4,111.4,71.7,127.3,74.2,145.5z"/>
					<g>
						<path fill="#943B1F" d="M147.2,106.2c0,0,6.1,13.5-0.6,27.5c-1.8,3.7-7.1-0.1-7.1-0.1L147.2,106.2z"/>
						<path fill="#943B1F" d="M112,141.3c0,0,13.5,6.1,27.5-0.6c3.7-1.8-0.1-7.1-0.1-7.1L112,141.3z"/>
					</g>
				</g>
				<path opacity="0.1" d="M143.9,138c11.3-11.3,13.2-27.8-0.3-41.3c-10-10-20.3-14.7-29.4-15.1c-4.9,2.9-9.7,6.7-14.6,11.6
					c-0.8,0.8-1.5,1.5-2.2,2.3c-0.8,0.7-1.5,1.4-2.3,2.2c-3.1,3.1-5.7,6.1-8,9.2c-0.2,9.3,4.5,20,15.3,30.9
					C116.1,151.3,132.6,149.4,143.9,138z"/>
				<g>
					<path fill="#1B2A2E" d="M104.8,134.9c-18.9-18.9-19-37.3-7.6-48.7c11.3-11.3,30.4-10.6,48.7,7.6c13.5,13.5,11.6,30,0.3,41.3
						C134.8,146.5,118.3,148.4,104.8,134.9z"/>
					<path fill="#182529" d="M108.2,97.3c9.9-9.9,25.8-10.6,41.9,1.7c-1.2-1.7-2.6-3.4-4.3-5.1c-18.3-18.3-37.3-19-48.7-7.6
						c-11.3,11.3-11.3,29.7,7.6,48.7c1.6,1.6,3.3,3,5,4.2C97,122.7,98.2,107.2,108.2,97.3z"/>
					<path fill="#182529" d="M78.5,89.9c-5.2-5.2-3.2-11.7,2-16.9c5.2-5.2,11.7-7.2,16.9-2s7.2,15.6,2,20.8
						C94.2,97,83.7,95.1,78.5,89.9z"/>
					<path fill="#121C1F" d="M84.3,76.8c4.5-4.5,10-6.6,14.7-3.7c-0.6-0.9-1.2-1.7-1.9-2.4c-5.2-5.2-11.7-3.2-16.9,2
						s-7.2,11.7-2,16.9c0.7,0.7,1.5,1.3,2.4,1.9C77.8,86.8,79.8,81.3,84.3,76.8z"/>
				</g>
			</g>
		</g>
	</g>
</g>
<g id="DESIGNED_BY_FREEPIK">
</g>
</svg>
