<svg xmlns="http://www.w3.org/2000/svg" xmlns:xlink="http://www.w3.org/1999/xlink" viewBox="0 0 418.29 394.58"><defs><style>.cls-1{fill:none;}.cls-2{clip-path:url(#clip-path);}.cls-3{clip-path:url(#clip-path-2);}.cls-4{clip-path:url(#clip-path-3);}.cls-5{fill:#e1f0f3;}.cls-6{fill:#c3d7d6;}.cls-40,.cls-7{fill:#fff;}.cls-8{fill:#dfedec;}.cls-9{fill:#abc6c4;}.cls-10{fill:#8eadaa;}.cls-11{opacity:0.23;}.cls-12{fill:#ca8c7a;}.cls-13{fill:#cef4f2;}.cls-14{fill:#a15b48;}.cls-15{fill:#603016;}.cls-16{fill:#c42a2a;}.cls-17{fill:#f9f7f6;}.cls-18{fill:#fbc3ae;}.cls-19{fill:#333e40;}.cls-20{fill:#e58d7c;}.cls-21{fill:#c1843d;}.cls-22{fill:#d39747;}.cls-23{fill:#ffd7c7;}.cls-24{fill:#561305;}.cls-25{fill:#cc97ce;}.cls-26{opacity:0.8;}.cls-27{fill:#bff7ee;}.cls-28{fill:#fb9a80;}.cls-29{fill:#681609;}.cls-30{fill:#f99;}.cls-31{fill:#c04949;}.cls-32{fill:#ff72b0;}.cls-33{fill:#ae6958;}.cls-34{fill:#ffa4d0;}.cls-35{fill:#914f40;}.cls-36{fill:#003966;}.cls-37{fill:#004c88;}.cls-38{fill:#005fb0;}.cls-39{fill:#0d5186;}.cls-40{font-size:19.9px;font-family:CabinSketch-Regular, Cabin Sketch;}.cls-41{letter-spacing:-0.02em;}.cls-42{letter-spacing:-0.01em;}.cls-43{letter-spacing:0em;}.cls-44{letter-spacing:-0.02em;}.cls-45{letter-spacing:-0.01em;}</style><clipPath id="clip-path"><ellipse class="cls-1" cx="208.31" cy="196.46" rx="154" ry="144.5"/></clipPath><clipPath id="clip-path-2"><rect class="cls-1" x="59.31" y="47.96" width="300" height="290.95"/></clipPath><clipPath id="clip-path-3"><rect class="cls-1" x="59.31" y="38.91" width="300" height="300"/></clipPath></defs><title>Recurso 6</title><g id="Capa_2" data-name="Capa 2"><g id="OBJECTS"><g class="cls-2"><g class="cls-3"><g class="cls-4"><path class="cls-5" d="M359.31,132.48v28.7h-300V130h.39V146h1V130.17h1.47l2-3.36h1.35l0-1.59h3v1.58h1.07l2,3.43H73v16.58h.73v-1.66h.74V114h2v-1.41l2.94-2.45V108h2.18v-2.76H83v-4.52h1v4.52h1.34l0,2.74h2.14v2L90.94,113v1h1.69V123h4.85v5.39h1.91v7.34h4.19v-16.1h1.35V113h2V91.23l1.71,0v-.67h2.53l0-3.88.77,0v3.86h9.11v.81l1.75,0v19.11l1.39,1.16h3.69V100.3L133.05,96h8.52v3.31h2.06v12.43h2.5v-5.27h5.73V113h1.47V90.5h1v-.91h3.59v-2.2h3.51v2.2H165v.91h1.07v26h2.71V72.74h1.34V65.37l1.61,0,0,7.4h9.47V57.54l1.62,0V72.74h1.41V129.2h2.2V93.57h1.05V92.28H189v1.29h1.44v-.38h1.13v.38h1.28v-.38h1.6v.38h1.76v-.95h1.2v.95h.56v-.38h1.12v.38h1.5l.07,32.91v2.69H201l1.9,0V90.19h5.07V88h2.31v2.18H212v-.34h1.71v.34h1.71v-.34h.86v.34h1v36.68H219l3.17,4.33.42.59V98.28h.92V96.87h.9v.69h.6v.72h5.08v-.45h1.5v.45h1.2V95.05h.59v3.24h4.49v-.65h.7v.65H239v34.6h6.76V82.24l7.69-1.47.23-5.87a1.81,1.81,0,0,1-1.29-1.57,1.88,1.88,0,0,1,1.46-1.63l.64-11.77.66-12,.32,12L256,71.72a1.85,1.85,0,0,1,1.42,1.61,1.8,1.8,0,0,1-1.27,1.56l.32,5.93,7,1.3V131.7h5.22V102.14h4.74l0-3.19h1.61V96.61H278V99h1.15v3.17h9.28v1.92h2.63v8h.86l4.74,3.53V127h3.5v-.92h4.29l0,.92h4.79v-3.08h2.13v-2.37h2.72v2.37H315v9.25h2.43v4.05h2.35l0-8.11h2.58v-2.2h5.07v3.49H329l0,7.1h4.42v-1.22h.51v-1.21H336v-1.46h3.92v1.46h2.28v1.21h3.28v1.41h3.7v-3.13h2.86v2.27h2.36v-4.35Z"/><polygon class="cls-6" points="359.31 148.32 359.31 338.91 59.31 338.91 59.31 154.92 59.34 154.92 59.31 140.48 62.61 140.49 62.61 143.74 64.71 143.74 64.71 142.02 67.17 142.02 67.17 144.38 69.45 144.38 69.45 143.31 73.29 143.31 73.29 141.29 77.91 141.29 77.91 143.31 78.39 143.31 78.39 144.25 82.71 144.25 82.71 143.74 84.45 143.74 84.45 142.97 86.19 142.97 86.19 140.35 90.63 140.35 90.63 141.98 92.91 141.98 92.91 144.04 94.95 144.04 94.95 141 97.05 141 97.05 134.09 97.83 134.09 97.83 132.29 100.23 132.29 100.23 134.09 102.09 134.09 102.09 136.37 113.07 136.37 113.07 128.16 117.22 125.18 119.55 125.18 119.55 124.71 124.41 124.71 124.41 125.18 128.25 125.18 128.25 124.62 129.27 124.62 129.27 125.18 130.77 125.18 130.77 130.41 133.95 130.41 133.95 134.01 142.05 134.01 142.05 102.81 147.67 102.78 147.69 85.58 151.95 85.58 151.97 102.92 157.53 102.9 157.53 137.91 163.47 137.91 163.47 114.89 166.71 114.89 166.71 113.61 174.69 113.61 174.69 114.89 177.87 114.89 177.87 137.09 180.87 134.95 182.49 134.95 182.49 104.18 183.93 104.18 183.93 103.67 187.23 103.67 187.23 104.18 190.47 104.18 190.47 103.62 194.67 103.62 194.67 104.22 198.16 104.22 198.22 142.53 199.89 142.53 199.89 95.78 201.99 95.78 201.99 94.88 208.65 94.88 208.65 95.81 214.53 95.8 214.53 94.8 220.83 94.8 220.83 95.78 222.93 95.78 222.99 136.75 224.73 136.75 224.73 109.07 227.55 109.07 227.55 108.68 229.53 108.68 229.53 106.45 233.22 106.46 233.2 108.68 235.59 108.68 235.59 109.07 238.35 109.07 238.35 128.31 239.61 128.31 239.61 121.02 240.21 121.02 240.21 120.51 243.21 120.52 243.21 120.96 244.98 120.97 244.96 132.85 246.75 132.85 246.75 115.67 248.61 115.67 248.61 113.18 256.07 113.18 260.55 116.41 260.55 127.32 263.79 127.32 264.99 126.46 264.99 109.76 266.06 109.75 267.7 107.4 268.77 107.39 275.97 107.38 277.76 109.64 278.91 109.63 278.91 125.95 280.65 125.95 280.65 130.84 281.85 130.84 281.85 142.88 285.51 142.88 285.51 137.4 287.13 137.4 287.13 133.37 291.39 133.37 291.39 126.68 292.89 126.68 292.89 125.89 295.95 123.69 295.95 122.18 302.91 122.18 302.91 123.74 305.43 125.57 305.43 126.64 307.23 126.64 307.23 151.24 308.55 151.24 308.55 140.04 310.02 139.12 311.62 136.24 315.8 136.24 318.04 138.77 319.33 138.77 325.17 138.76 325.17 145.58 327.27 145.58 327.27 149.18 329.37 149.18 329.37 146.57 331.59 146.57 331.59 144.94 336.03 144.94 336.03 147.55 337.77 147.55 337.77 148.32 339.51 148.32 339.51 148.84 343.89 148.84 343.89 147.9 344.31 147.9 344.31 145.84 348.93 145.84 348.93 147.9 352.77 147.9 352.77 148.97 355.05 148.97 355.05 146.61 357.57 146.61 357.57 148.32 359.31 148.32"/><rect class="cls-7" x="62.16" y="162.92" width="2.58" height="2.58"/><rect class="cls-7" x="89.53" y="161.12" width="1.08" height="1.08"/><rect class="cls-7" x="92.95" y="161.12" width="1.08" height="1.08"/><rect class="cls-7" x="87.82" y="162.78" width="1.08" height="1.08"/><rect class="cls-7" x="91.24" y="162.78" width="1.08" height="1.08"/><rect class="cls-7" x="92.95" y="162.78" width="1.08" height="1.08"/><rect class="cls-7" x="87.82" y="164.44" width="1.08" height="1.08"/><rect class="cls-7" x="89.53" y="164.44" width="1.08" height="1.08"/><rect class="cls-7" x="87.82" y="166.1" width="1.08" height="1.08"/><rect class="cls-7" x="92.95" y="166.1" width="1.08" height="1.08"/><rect class="cls-7" x="91.24" y="167.76" width="1.08" height="1.08"/><rect class="cls-7" x="92.95" y="167.76" width="1.08" height="1.08"/><rect class="cls-7" x="87.82" y="169.42" width="1.08" height="1.08"/><rect class="cls-7" x="89.53" y="169.42" width="1.08" height="1.08"/><rect class="cls-7" x="91.24" y="169.42" width="1.08" height="1.08"/><rect class="cls-7" x="89.53" y="171.08" width="1.08" height="1.08"/><rect class="cls-7" x="92.95" y="171.08" width="1.08" height="1.08"/><rect class="cls-7" x="87.82" y="172.74" width="1.08" height="1.08"/><rect class="cls-7" x="89.53" y="172.74" width="1.08" height="1.08"/><rect class="cls-7" x="91.24" y="172.74" width="1.08" height="1.08"/><rect class="cls-7" x="87.82" y="174.4" width="1.08" height="1.08"/><rect class="cls-7" x="89.53" y="176.06" width="1.08" height="1.08"/><rect class="cls-7" x="91.24" y="176.06" width="1.08" height="1.08"/><rect class="cls-7" x="333.3" y="170.83" width="1.08" height="1.08"/><rect class="cls-7" x="336.72" y="170.83" width="1.08" height="1.08"/><rect class="cls-7" x="331.59" y="172.49" width="1.08" height="1.08"/><rect class="cls-7" x="335.01" y="172.49" width="1.08" height="1.08"/><rect class="cls-7" x="336.72" y="172.49" width="1.08" height="1.08"/><rect class="cls-7" x="331.59" y="174.15" width="1.08" height="1.08"/><rect class="cls-7" x="333.3" y="174.15" width="1.08" height="1.08"/><rect class="cls-7" x="331.59" y="175.81" width="1.08" height="1.08"/><rect class="cls-7" x="336.72" y="175.81" width="1.08" height="1.08"/><rect class="cls-7" x="335.01" y="177.47" width="1.08" height="1.08"/><rect class="cls-7" x="336.72" y="177.47" width="1.08" height="1.08"/><rect class="cls-7" x="331.59" y="179.13" width="1.08" height="1.08"/><rect class="cls-7" x="333.3" y="179.13" width="1.08" height="1.08"/><rect class="cls-7" x="335.01" y="179.13" width="1.08" height="1.08"/><rect class="cls-7" x="333.3" y="180.79" width="1.08" height="1.08"/><rect class="cls-7" x="336.72" y="180.79" width="1.08" height="1.08"/><rect class="cls-7" x="331.59" y="182.45" width="1.08" height="1.08"/><rect class="cls-7" x="333.3" y="182.45" width="1.08" height="1.08"/><rect class="cls-7" x="335.01" y="182.45" width="1.08" height="1.08"/><rect class="cls-7" x="331.26" y="169.47" width="1.08" height="1.08"/><rect class="cls-7" x="333.3" y="167.62" width="1.08" height="1.08"/><rect class="cls-7" x="335.01" y="167.62" width="1.08" height="1.08"/><rect class="cls-7" x="172.22" y="127.02" width="1.97" height="1.97"/><rect class="cls-7" x="165.99" y="127.02" width="1.97" height="1.97"/><rect class="cls-7" x="175.34" y="130.04" width="1.97" height="1.97"/><rect class="cls-7" x="169.11" y="130.04" width="1.97" height="1.97"/><rect class="cls-7" x="165.99" y="130.04" width="1.97" height="1.97"/><rect class="cls-7" x="175.34" y="133.07" width="1.97" height="1.97"/><rect class="cls-7" x="172.22" y="133.07" width="1.97" height="1.97"/><rect class="cls-7" x="175.34" y="136.09" width="1.97" height="1.97"/><rect class="cls-7" x="165.99" y="136.09" width="1.97" height="1.97"/><rect class="cls-7" x="169.11" y="139.11" width="1.97" height="1.97"/><rect class="cls-7" x="165.99" y="139.11" width="1.97" height="1.97"/><rect class="cls-7" x="175.34" y="142.14" width="1.97" height="1.97"/><rect class="cls-7" x="172.22" y="142.14" width="1.97" height="1.97"/><rect class="cls-7" x="169.11" y="142.14" width="1.97" height="1.97"/><rect class="cls-7" x="172.22" y="145.16" width="1.97" height="1.97"/><rect class="cls-7" x="165.99" y="145.16" width="1.97" height="1.97"/><rect class="cls-7" x="175.34" y="148.18" width="1.97" height="1.97"/><rect class="cls-7" x="172.22" y="148.18" width="1.97" height="1.97"/><rect class="cls-7" x="169.11" y="148.18" width="1.97" height="1.97"/><rect class="cls-7" x="175.34" y="151.21" width="1.97" height="1.97"/><rect class="cls-7" x="172.22" y="154.23" width="1.97" height="1.97"/><rect class="cls-7" x="169.11" y="154.23" width="1.97" height="1.97"/><rect class="cls-7" x="321.67" y="159.41" width="1.97" height="1.97"/><rect class="cls-7" x="318.55" y="159.41" width="1.97" height="1.97"/><rect class="cls-7" x="315.44" y="159.41" width="1.97" height="1.97"/><rect class="cls-7" x="321.67" y="162.43" width="1.97" height="1.97"/><rect class="cls-7" x="353.44" y="171.86" width="1.97" height="1.97"/><rect class="cls-7" x="356.56" y="171.86" width="1.97" height="1.97"/><rect class="cls-7" x="350.33" y="174.88" width="1.97" height="1.97"/><rect class="cls-7" x="318.55" y="165.45" width="1.97" height="1.97"/><rect class="cls-7" x="315.44" y="165.45" width="1.97" height="1.97"/><rect class="cls-7" x="66.69" y="162.92" width="2.58" height="2.58"/><rect class="cls-7" x="71.22" y="162.92" width="2.58" height="2.58"/><rect class="cls-7" x="75.75" y="162.92" width="2.58" height="2.58"/><rect class="cls-7" x="115.81" y="141.2" width="2.58" height="2.58"/><rect class="cls-7" x="120.34" y="141.2" width="2.58" height="2.58"/><rect class="cls-7" x="124.87" y="141.2" width="2.58" height="2.58"/><rect class="cls-7" x="115.81" y="148.08" width="2.58" height="2.58"/><rect class="cls-7" x="120.34" y="148.08" width="2.58" height="2.58"/><rect class="cls-7" x="124.87" y="148.08" width="2.58" height="2.58"/><rect class="cls-7" x="115.81" y="154.96" width="2.58" height="2.58"/><rect class="cls-7" x="120.34" y="154.96" width="2.58" height="2.58"/><rect class="cls-7" x="124.87" y="154.96" width="2.58" height="2.58"/><rect class="cls-7" x="115.81" y="161.84" width="2.58" height="2.58"/><rect class="cls-7" x="120.34" y="161.84" width="2.58" height="2.58"/><rect class="cls-7" x="124.87" y="161.84" width="2.58" height="2.58"/><rect class="cls-7" x="115.81" y="168.72" width="2.58" height="2.58"/><rect class="cls-7" x="120.34" y="168.72" width="2.58" height="2.58"/><rect class="cls-7" x="124.87" y="168.72" width="2.58" height="2.58"/><rect class="cls-7" x="115.81" y="175.6" width="2.58" height="2.58"/><rect class="cls-7" x="120.34" y="175.6" width="2.58" height="2.58"/><rect class="cls-7" x="124.87" y="175.6" width="2.58" height="2.58"/><rect class="cls-7" x="266.86" y="119.11" width="2.58" height="2.58"/><rect class="cls-7" x="271.39" y="119.11" width="2.58" height="2.58"/><rect class="cls-7" x="275.92" y="119.11" width="2.58" height="2.58"/><rect class="cls-7" x="271.39" y="125.99" width="2.58" height="2.58"/><rect class="cls-7" x="275.92" y="125.99" width="2.58" height="2.58"/><rect class="cls-7" x="266.86" y="132.87" width="2.58" height="2.58"/><rect class="cls-7" x="271.39" y="132.87" width="2.58" height="2.58"/><rect class="cls-7" x="268.42" y="139.75" width="2.58" height="2.58"/><rect class="cls-7" x="275.92" y="139.75" width="2.58" height="2.58"/><rect class="cls-7" x="267.76" y="146.63" width="2.58" height="2.58"/><rect class="cls-7" x="272.68" y="146.63" width="2.58" height="2.58"/><rect class="cls-7" x="241.7" y="135.65" width="2.58" height="2.58"/><rect class="cls-7" x="241.7" y="143.69" width="2.58" height="2.58"/><rect class="cls-7" x="241.7" y="151.74" width="2.58" height="2.58"/><rect class="cls-7" x="241.7" y="159.79" width="2.58" height="2.58"/><rect class="cls-7" x="241.7" y="167.84" width="2.58" height="2.58"/><rect class="cls-7" x="269.44" y="153.51" width="2.58" height="2.58"/><rect class="cls-7" x="275.92" y="153.51" width="2.58" height="2.58"/><rect class="cls-7" x="204.34" y="100.38" width="2.58" height="2.58"/><rect class="cls-7" x="208.87" y="100.38" width="2.58" height="2.58"/><rect class="cls-7" x="213.4" y="100.38" width="2.58" height="2.58"/><rect class="cls-7" x="204.34" y="107.26" width="2.58" height="2.58"/><rect class="cls-7" x="213.4" y="107.26" width="2.58" height="2.58"/><rect class="cls-7" x="204.34" y="114.14" width="2.58" height="2.58"/><rect class="cls-7" x="208.87" y="114.14" width="2.58" height="2.58"/><rect class="cls-7" x="213.4" y="114.14" width="2.58" height="2.58"/><rect class="cls-7" x="204.34" y="121.02" width="2.58" height="2.58"/><rect class="cls-7" x="208.87" y="121.02" width="2.58" height="2.58"/><rect class="cls-7" x="213.4" y="121.02" width="2.58" height="2.58"/><rect class="cls-7" x="204.34" y="127.9" width="2.58" height="2.58"/><rect class="cls-7" x="208.87" y="127.9" width="2.58" height="2.58"/><rect class="cls-7" x="204.34" y="134.78" width="2.58" height="2.58"/><rect class="cls-7" x="213.4" y="134.78" width="2.58" height="2.58"/><rect class="cls-7" x="217.93" y="107.26" width="2.58" height="2.58"/><rect class="cls-7" x="217.93" y="114.14" width="2.58" height="2.58"/><rect class="cls-7" x="217.93" y="121.02" width="2.58" height="2.58"/><rect class="cls-7" x="217.93" y="127.9" width="2.58" height="2.58"/><rect class="cls-7" x="217.93" y="134.78" width="2.58" height="2.58"/><rect class="cls-7" x="144.61" y="109.45" width="4.16" height="4.16"/><rect class="cls-7" x="152.41" y="116.61" width="4.16" height="4.16"/><rect class="cls-7" x="226.96" y="121.58" width="2.02" height="2.02"/><rect class="cls-7" x="229.56" y="121.58" width="2.02" height="2.02"/><rect class="cls-7" x="232.16" y="121.58" width="2.02" height="2.02"/><rect class="cls-7" x="234.76" y="121.58" width="2.02" height="2.02"/><rect class="cls-7" x="226.96" y="124.14" width="2.02" height="2.02"/><rect class="cls-7" x="229.56" y="124.14" width="2.02" height="2.02"/><rect class="cls-7" x="232.16" y="124.14" width="2.02" height="2.02"/><rect class="cls-7" x="234.76" y="124.14" width="2.02" height="2.02"/><rect class="cls-7" x="226.96" y="126.7" width="2.02" height="2.02"/><rect class="cls-7" x="229.56" y="126.7" width="2.02" height="2.02"/><rect class="cls-7" x="232.16" y="126.7" width="2.02" height="2.02"/><rect class="cls-7" x="234.76" y="126.7" width="2.02" height="2.02"/><rect class="cls-7" x="226.96" y="129.26" width="2.02" height="2.02"/><rect class="cls-7" x="229.56" y="129.26" width="2.02" height="2.02"/><rect class="cls-7" x="232.16" y="129.26" width="2.02" height="2.02"/><rect class="cls-7" x="234.76" y="129.26" width="2.02" height="2.02"/><rect class="cls-7" x="226.96" y="131.82" width="2.02" height="2.02"/><rect class="cls-7" x="229.56" y="131.82" width="2.02" height="2.02"/><rect class="cls-7" x="232.16" y="131.82" width="2.02" height="2.02"/><rect class="cls-7" x="234.76" y="131.82" width="2.02" height="2.02"/><rect class="cls-7" x="226.96" y="134.38" width="2.02" height="2.02"/><rect class="cls-7" x="229.56" y="134.38" width="2.02" height="2.02"/><rect class="cls-7" x="232.16" y="134.38" width="2.02" height="2.02"/><rect class="cls-7" x="234.76" y="134.38" width="2.02" height="2.02"/><rect class="cls-7" x="226.96" y="136.94" width="2.02" height="2.02"/><rect class="cls-7" x="229.56" y="136.94" width="2.02" height="2.02"/><rect class="cls-7" x="232.16" y="136.94" width="2.02" height="2.02"/><rect class="cls-7" x="234.76" y="136.94" width="2.02" height="2.02"/><rect class="cls-7" x="226.96" y="139.5" width="2.02" height="2.02"/><rect class="cls-7" x="229.56" y="139.5" width="2.02" height="2.02"/><rect class="cls-7" x="232.16" y="139.5" width="2.02" height="2.02"/><rect class="cls-7" x="234.76" y="139.5" width="2.02" height="2.02"/><rect class="cls-7" x="226.96" y="142.06" width="2.02" height="2.02"/><rect class="cls-7" x="229.56" y="142.06" width="2.02" height="2.02"/><rect class="cls-7" x="232.16" y="142.06" width="2.02" height="2.02"/><rect class="cls-7" x="234.76" y="142.06" width="2.02" height="2.02"/><rect class="cls-7" x="226.96" y="144.62" width="2.02" height="2.02"/><rect class="cls-7" x="229.56" y="144.62" width="2.02" height="2.02"/><rect class="cls-7" x="232.16" y="144.62" width="2.02" height="2.02"/><rect class="cls-7" x="234.76" y="144.62" width="2.02" height="2.02"/><rect class="cls-7" x="185.17" y="111.95" width="12.1" height="1.17"/><rect class="cls-7" x="185.17" y="120.53" width="12.1" height="1.17"/><rect class="cls-7" x="185.17" y="129.11" width="12.1" height="1.17"/><rect class="cls-7" x="185.17" y="137.69" width="12.1" height="1.17"/><rect class="cls-7" x="185.17" y="146.27" width="12.1" height="1.17"/><rect class="cls-7" x="185.17" y="114.85" width="5.28" height="1.17"/><rect class="cls-7" x="185.17" y="117.69" width="5.28" height="1.17"/><rect class="cls-7" x="293.95" y="142.33" width="3.29" height="0.97"/><rect class="cls-7" x="294" y="149.4" width="11.95" height="0.97"/><rect class="cls-7" x="289.73" y="151.96" width="16.23" height="0.97"/><rect class="cls-7" x="289.73" y="154.51" width="16.23" height="0.97"/><rect class="cls-7" x="289.73" y="157.06" width="16.23" height="0.97"/><rect class="cls-7" x="289.73" y="159.61" width="5.31" height="0.97"/><rect class="cls-7" x="293.95" y="144.72" width="7.22" height="0.97"/><rect class="cls-7" x="293.95" y="147.06" width="2.18" height="0.97"/><rect class="cls-7" x="152.41" y="124.61" width="4.16" height="4.16"/><rect class="cls-7" x="144.61" y="135.23" width="4.16" height="4.16"/><rect class="cls-7" x="144.61" y="147.59" width="4.16" height="4.16"/><rect class="cls-7" x="256.32" y="126.7" width="3.8" height="3.8"/><rect class="cls-7" x="249.2" y="133.23" width="3.8" height="3.8"/><rect class="cls-7" x="249.2" y="140.54" width="3.8" height="3.8"/><rect class="cls-7" x="256.32" y="150.24" width="3.8" height="3.8"/><rect class="cls-7" x="204.34" y="140.32" width="2.25" height="2.25"/><rect class="cls-7" x="217.93" y="145.53" width="2.58" height="2.58"/><rect class="cls-7" x="213.4" y="145.53" width="2.58" height="2.58"/><rect class="cls-7" x="208.87" y="145.53" width="2.58" height="2.58"/><rect class="cls-7" x="217.93" y="152.41" width="2.58" height="2.58"/><rect class="cls-7" x="208.87" y="152.41" width="2.58" height="2.58"/><rect class="cls-7" x="217.93" y="159.29" width="2.58" height="2.58"/><rect class="cls-7" x="213.4" y="159.29" width="2.58" height="2.58"/><rect class="cls-7" x="217.93" y="166.17" width="2.58" height="2.58"/><rect class="cls-7" x="208.87" y="166.17" width="2.58" height="2.58"/><rect class="cls-7" x="204.34" y="152.41" width="2.58" height="2.58"/><rect class="cls-7" x="204.34" y="159.29" width="2.58" height="2.58"/><rect class="cls-7" x="66.69" y="168.86" width="2.58" height="2.58"/><rect class="cls-7" x="71.22" y="168.86" width="2.58" height="2.58"/><rect class="cls-7" x="75.75" y="168.86" width="2.58" height="2.58"/><rect class="cls-7" x="62.16" y="174.8" width="2.58" height="2.58"/><rect class="cls-7" x="66.69" y="174.8" width="2.58" height="2.58"/><rect class="cls-7" x="75.75" y="174.8" width="2.58" height="2.58"/><rect class="cls-7" x="62.16" y="180.74" width="2.58" height="2.58"/><rect class="cls-7" x="71.22" y="180.74" width="2.58" height="2.58"/><rect class="cls-7" x="75.75" y="180.74" width="2.58" height="2.58"/></g><g class="cls-4"><path class="cls-8" d="M338.9,338.91h-12c-.57-2.2-1.24-4.41-1.95-6.58v0c-.34-1-.69-2-1-3.05a6.16,6.16,0,0,0-1.92-2.9c-2.24-1.77-3.19-4.29-3.86-7a2.94,2.94,0,0,0-.46-1.09,2.73,2.73,0,0,1-.43-.75,2.33,2.33,0,0,1,1.39-3.09.61.61,0,0,0,.33-.41,2.46,2.46,0,0,1,2.8-2.49,2.22,2.22,0,0,1,1.44-1.84c.88-.4,1.58.18,2.4.43a1.59,1.59,0,0,1,1.38-1.32,2.61,2.61,0,0,1,.78,0,1.82,1.82,0,0,1,1,.42c.59.5,1.13,1.06,1.72,1.62l.21-.1c1.54-.93,2.17-.86,3.5.66a4.2,4.2,0,0,1,.49.79c.52,1,1,2,1.54,3a3.88,3.88,0,0,1-.25,4.27c-.93,1.41-1.83,2.84-2.82,4.22a2.14,2.14,0,0,0-.24,2.15c.46,1.3.95,2.59,1.47,3.86,0,0,0,0,0,0h0a68,68,0,0,0,4.56,9.16v0"/><polyline class="cls-8" points="338.9 338.9 338.9 338.9 338.9 338.9 338.9 338.9"/><rect class="cls-8" x="323.17" y="328.81" width="12.29" height="2.47" transform="translate(-75.81 99.29) rotate(-15.4)"/><polygon class="cls-8" points="338.9 338.91 324.52 338.91 322.87 332.9 324.91 332.33 324.92 332.33 329.86 330.96 333.65 329.93 333.66 329.92 334.33 329.73 334.33 329.73 336.23 329.21 338.89 338.89 338.9 338.91"/><path class="cls-8" d="M254.78,300.83a3.13,3.13,0,0,1,0,1.18c-.48,2.7-.64,5.39.67,7.92a6.08,6.08,0,0,1,.57,3.43c-.09,1.07-.19,2.15-.3,3.22a90.82,90.82,0,0,1-1.83,11.48c-.08.36-.18.71-.29,1.16L265.36,331l.41-2.72a68.88,68.88,0,0,1-.42-10.25c0-1.38.13-2.75.24-4.13a2.12,2.12,0,0,1,1.1-1.86c1.46-.85,2.87-1.79,4.3-2.7a3.88,3.88,0,0,0,2-3.79c-.09-1.13-.11-2.27-.17-3.4a4,4,0,0,0-.13-.92c-.59-1.93-1.13-2.26-2.92-2h-.23c-.31-.75-.57-1.49-.91-2.18a2,2,0,0,0-1.45-1.06,1.6,1.6,0,0,0-1.8.65c-.64-.57-1.05-1.38-2-1.38a2.19,2.19,0,0,0-2.07,1.09,2.46,2.46,0,0,0-3.57,1.12.65.65,0,0,1-.47.25,2.38,2.38,0,0,0-2.45,3.11"/><rect class="cls-8" x="259.41" y="310.17" width="2.47" height="12.29" transform="translate(-91.56 525.94) rotate(-81.27)"/><polygon class="cls-8" points="267.3 318.39 264.15 338.91 250.13 338.91 253.6 316.29 259.72 317.23 267.3 318.39"/><path class="cls-8" d="M126.58,308.11a3.16,3.16,0,0,1,.6,1c1,2.55,2.29,4.92,4.73,6.39a6.14,6.14,0,0,1,2.29,2.62c.49,1,1,1.92,1.43,2.89a92.5,92.5,0,0,1,4.48,10.74l.36,1.14,11-4.65-1.07-2.53a67.43,67.43,0,0,1-5.75-8.5c-.68-1.2-1.33-2.41-2-3.64a2.12,2.12,0,0,1,0-2.16c.79-1.5,1.5-3,2.23-4.56a3.85,3.85,0,0,0-.31-4.26c-.67-.91-1.28-1.87-1.93-2.81a3.65,3.65,0,0,0-.59-.71c-1.51-1.33-2.14-1.33-3.55-.2l-.19.13c-.67-.48-1.27-1-1.92-1.38a2,2,0,0,0-1.79-.14,1.6,1.6,0,0,0-1.2,1.5c-.84-.15-1.62-.63-2.43-.12a2.21,2.21,0,0,0-1.19,2,2.45,2.45,0,0,0-2.45,2.83.62.62,0,0,1-.27.45,2.38,2.38,0,0,0-.45,3.93"/><rect class="cls-8" x="133.56" y="316.98" width="12.29" height="2.47" transform="translate(-113 79.64) rotate(-22.94)"/><polygon class="cls-8" points="155.94 338.91 140.89 338.91 133.69 321.89 146.45 316.49 148.46 321.25 155.94 338.91"/><path class="cls-8" d="M78.59,304.65a4.1,4.1,0,0,1-.14.92c-.28,1.1-.59,2.19-.84,3.3a3.86,3.86,0,0,1-3,3c-1.63.46-3.26.94-4.9,1.33a2.15,2.15,0,0,0-1.6,1.47c-.23.58-.45,1.16-.67,1.75s-.52,1.41-.76,2.12v0l-.06.19a67.25,67.25,0,0,0-2.53,9.71L62.9,331l-3.59-1.74v-18.4a5.81,5.81,0,0,0,.27-2.94c-.52-2.81.42-5.33,1.67-7.78a2.85,2.85,0,0,0,.37-1.12,2.37,2.37,0,0,1,3.24-2.26.62.62,0,0,0,.52-.09,2.46,2.46,0,0,1,3.75,0,2.2,2.2,0,0,1,2.3-.44c.92.28,1.07,1.17,1.52,1.9a1.61,1.61,0,0,1,1.91-.09,2,2,0,0,1,1.08,1.44c.12.76.15,1.54.23,2.35l.23.06c1.77.32,2.19.79,2.19,2.8"/><polygon class="cls-8" points="68.77 317.1 67.78 319.14 67.7 319.32 66.62 318.8 59.31 315.27 59.31 312.54 67.45 316.46 68.77 317.1"/><polygon class="cls-8" points="68.46 319.46 59.31 338.46 59.31 315.06 64.5 317.56 66.68 318.61 67.78 319.14 68.46 319.46"/><path class="cls-8" d="M359.31,305.84v33.07h-2.83l-6.19-20.83.84-.25-.66-2.22,1.14-.34a5.18,5.18,0,0,0-2.68-3.27,11.85,11.85,0,0,0-2.33-.73,12.89,12.89,0,0,0-2.76-.25,3.51,3.51,0,0,1-.89.14,2.31,2.31,0,0,1-1.75-.7,2.4,2.4,0,0,1-.48-.82,2.73,2.73,0,0,1-.14-1,.6.6,0,0,0-.25-.49,2.55,2.55,0,0,1-1.11-3.72,2.28,2.28,0,0,1-1.11-2.16c0-1,.85-1.41,1.45-2.07a1.64,1.64,0,0,1-.64-1.88,2.32,2.32,0,0,1,.47-1,1.85,1.85,0,0,1,.64-.49c.36-.17.73-.32,1.11-.46l1.17-.45s0-.14,0-.24a5,5,0,0,1,0-1.2,1.5,1.5,0,0,1,.72-1.2,5.33,5.33,0,0,1,1.45-.61,4.42,4.42,0,0,1,1-.11c1.17-.06,2.35-.06,3.52-.14a4,4,0,0,1,3.91,2.09c.46.75.93,1.49,1.4,2.24l.12.19c.11.19.22.37.34.55a7.66,7.66,0,0,1,.66,1.31,3.21,3.21,0,0,0,.49.91s.11.08.11.12h0a16.31,16.31,0,0,1,3.24,5.77l.12.28"/><path class="cls-8" d="M273.6,259.33a15.58,15.58,0,0,1,5.91,3.07c2.23,1.91,2.25,4.9,2.06,7.54a17.33,17.33,0,0,1-.25,1.78q-.18.87-.42,1.68c-.22,1-.42,2-.55,2.92a11.54,11.54,0,0,0-.1,1.17,6.28,6.28,0,0,0,.71,3.32,5.52,5.52,0,0,0,.83,1.14,4.28,4.28,0,0,0,3.73,1.24c2.15-.15,4.2.18,6.22-.31s2.55-2.06,2.83-3.9c.07-.46.11-.93.15-1.41a14,14,0,0,1,.11-1.59,17.78,17.78,0,0,0,.25-2.52c-.1-3.46-.49-6.82-.31-10.25,0-.69-.06-1.44-.08-2.12,0-.46-.05-.93-.06-1.39s-.05-1-.09-1.47a20.46,20.46,0,0,0-2-8.49,4,4,0,0,1-.29-1.3,9.19,9.19,0,0,0-.33-1.86l-.3-1.09c-.29-1.09-.6-2.17-.9-3.26a5.17,5.17,0,0,0-4.05-4c-1.48-.33-2.93-.76-4.4-1.13a5.1,5.1,0,0,0-1.22-.2c-2.69,0-3.31.54-3.75,2.91,0,.13-.06.26-.07.31-1.09.09-2.13.13-3.15.29a2.6,2.6,0,0,0-1.91,1.43,2.1,2.1,0,0,0,.11,2.55c-1,.59-2.18.79-2.55,2a2.93,2.93,0,0,0,.57,3.06,3.29,3.29,0,0,0,0,5,.79.79,0,0,1,.12.69,3.57,3.57,0,0,0-.21,1.34,3.16,3.16,0,0,0,.29,1.19,3,3,0,0,0,1.9,1.5,4.26,4.26,0,0,0,1.15.15"/><rect class="cls-8" x="280.06" y="267.41" width="16.39" height="3.29"/><rect class="cls-8" x="278.96" y="270.42" width="18.45" height="68.48"/><path class="cls-8" d="M298.94,219.93c-.19-.12-.39-.24-.59-.34l.42-1.05s-10-4.12-13.42-6.23q-.33-.21-.57-.39l-.38.94c-7.71-4.68-19.51-12.64-24.47-20.19a1.45,1.45,0,0,0-2.75-.88l-4.33,11.53L250,202.23a.33.33,0,0,0-.42.19l-.8,5.75-3.2,4.86a.33.33,0,0,0,.19.42l2.91,1.09-4.49,12a1.45,1.45,0,0,0,2.59,1.26l.24-.07,0,.08a42.3,42.3,0,0,1,11.47-1.25,129.32,129.32,0,0,1,20,2l-.35,1,.68.09a51.22,51.22,0,0,1,5.08,1.29l-2.75,8.79v0l-2.52,8.07h0l-1.82,5.84c-.79,2.49.15,3.41.71,3.62l3.51,1.49c1.11.42,2.77,1,3.78-2.65l1.48-5.41h0l.73-2.64,1.52-5.54v0l2.55-9.27,1.65.56.19.07H293l.3-.84a5,5,0,0,0,.67.14,6.47,6.47,0,0,0,7-4.13l.53-1.41a6.47,6.47,0,0,0-2.53-7.7"/><path class="cls-8" d="M182.35,316a10.29,10.29,0,0,0-3.92,2c-1.47,1.27-1.49,3.25-1.36,5a9.06,9.06,0,0,0,.17,1.18c.08.39.17.76.28,1.12.14.67.28,1.32.36,1.93a6.85,6.85,0,0,1,.07.78,4.2,4.2,0,0,1-.48,2.2,3.52,3.52,0,0,1-.54.76,2.88,2.88,0,0,1-2.48.82,25.52,25.52,0,0,1-4.13-.2c-1.27-.32-1.69-1.37-1.87-2.59,0-.31-.08-.62-.1-.94s0-.71-.07-1a10.51,10.51,0,0,1-.17-1.67c.06-2.3.33-4.53.2-6.8,0-.46,0-1,.06-1.41s0-.61,0-.92,0-.65.05-1a13.74,13.74,0,0,1,1.31-5.63,2.84,2.84,0,0,0,.2-.86,5.78,5.78,0,0,1,.22-1.23c.06-.24.13-.48.19-.72l.6-2.17a3.44,3.44,0,0,1,2.69-2.66c1-.22,1.94-.5,2.92-.75a3.61,3.61,0,0,1,.8-.13c1.79,0,2.2.36,2.49,1.93a1.82,1.82,0,0,0,.05.2c.72.07,1.41.1,2.09.2a1.74,1.74,0,0,1,1.27.94,1.43,1.43,0,0,1-.08,1.7c.66.39,1.45.52,1.7,1.34a2,2,0,0,1-.38,2,2.17,2.17,0,0,1,0,3.31.57.57,0,0,0-.08.46,2.39,2.39,0,0,1,.14.89,2.08,2.08,0,0,1-.19.79,2,2,0,0,1-1.26,1,3.11,3.11,0,0,1-.77.11"/><rect class="cls-8" x="167.2" y="321.35" width="10.87" height="2.18"/><rect class="cls-8" x="166.54" y="323.33" width="12.25" height="15.57"/><path class="cls-8" d="M165.55,289.86a3.84,3.84,0,0,1,.39-.22l-.28-.7a93.08,93.08,0,0,0,8.9-4.13c.15-.09.27-.18.38-.26l.25.62c5.12-3.1,12.94-8.38,16.23-13.39a1,1,0,0,1,1.83-.58l2.87,7.65,1.91-.73a.22.22,0,0,1,.28.13l.54,3.82,2.12,3.21a.22.22,0,0,1-.13.28l-1.93.73,3,7.92a1,1,0,0,1-1.72.84L200,295l0,.06a27.69,27.69,0,0,0-7.61-.83,85.44,85.44,0,0,0-13.28,1.34l.23.67-.45.06c-.82.14-2.06.47-3.37.85l1.82,5.83h0l1.67,5.36h0l1.21,3.87c.53,1.66-.1,2.27-.47,2.41l-2.33,1c-.73.27-1.83.64-2.5-1.76l-1-3.59h0l-.48-1.75-1-3.67h0l-1.69-6.15-1.1.37-.12,0h0l-.2-.56a3.12,3.12,0,0,1-.44.09,4.3,4.3,0,0,1-4.66-2.73l-.35-.94a4.3,4.3,0,0,1,1.68-5.11"/><rect class="cls-8" x="341.55" y="269.81" width="5.9" height="59.76" transform="matrix(0.96, -0.28, 0.28, 0.96, -71.11, 110.58)"/><polygon class="cls-8" points="359.31 265.67 359.31 269.35 314.52 282.66 306.66 256.21 352.45 242.6 359.31 265.67"/><polygon class="cls-8" points="74.41 220.93 66.54 247.38 59.31 245.23 59.31 216.44 74.41 220.93"/><path class="cls-8" d="M234.11,316l-.87,5.22-3,17.66H215.74L220,313.66l.86.13.39-2.27,1.17.19a5.18,5.18,0,0,0-1-4.12,12.15,12.15,0,0,0-4.13-3.11,3.61,3.61,0,0,1-.86-.27,2.31,2.31,0,0,1-1.27-1.4,2.5,2.5,0,0,1-.07-.95,2.9,2.9,0,0,1,.34-1,.6.6,0,0,0,0-.54,2.56,2.56,0,0,1,.63-3.84,2.27,2.27,0,0,1,0-2.42c.44-.89,1.38-.89,2.21-1.22a1.65,1.65,0,0,1,.25-2,2.06,2.06,0,0,1,1.65-.85c.8,0,1.6.12,2.45.18,0,0,.06-.12.1-.22.63-1.76,1.19-2.11,3.25-1.75a3.69,3.69,0,0,1,.9.31c1.08.47,2.14,1,3.23,1.43a4,4,0,0,1,2.59,3.6l.27,2.62.09.87a7.23,7.23,0,0,1,0,1.47,3,3,0,0,0,.06,1,16,16,0,0,1,.42,6.77c0,.38-.08.76-.13,1.13s-.09.72-.13,1.08c-.07.53-.1,1.12-.21,1.65-.24,1.06-.4,2.11-.54,3.22l1.27.22-.38,2.27Z"/><rect class="cls-8" x="192.99" y="291.64" width="59.76" height="5.9" transform="translate(-104.6 465.53) rotate(-80.46)"/><rect class="cls-8" x="215.48" y="232.58" width="27.6" height="47.77" transform="translate(-61.65 440.05) rotate(-80.46)"/><path class="cls-8" d="M106,338.91H91.6l-.46-7.69.88-.06-.14-2.3,1.18-.07a5.18,5.18,0,0,0-1.87-3.8,11.84,11.84,0,0,0-3.8-1.88c-.31-.09-.61-.16-.92-.23a3.26,3.26,0,0,1-.9-.07,2.54,2.54,0,0,1-1.3-.72,1.78,1.78,0,0,1-.25-.36,2.31,2.31,0,0,1-.28-.91,2.9,2.9,0,0,1,.1-1,.64.64,0,0,0-.13-.54,2.55,2.55,0,0,1-.24-3.87,2.28,2.28,0,0,1-.59-2.35c.18-.76.79-1.06,1.39-1.39.17-.1.34-.19.5-.3a1.66,1.66,0,0,1-.21-2A2.07,2.07,0,0,1,86,308.16l.52-.1c.62-.11,1.25-.18,1.91-.27l0-.24c.22-1.86.68-2.32,2.77-2.44a3.92,3.92,0,0,1,1,.1h0c1.14.22,2.27.48,3.41.66A4,4,0,0,1,99,308.81l.85,2.49c.1.28.19.56.28.83a7.11,7.11,0,0,1,.35,1.43,3.12,3.12,0,0,0,.28,1,15.84,15.84,0,0,1,1.92,6.5c0,.18,0,.37.07.55s0,.39.07.59c0,.36.07.72.11,1.08,0,.52.15,1.11.16,1.65,0,1.09.09,2.15.2,3.26l.74,0,.55,0,.13,2.3.76,0Z"/><polygon class="cls-8" points="94.24 338.91 88.33 338.91 87.39 323.12 86.5 308.06 84.96 282.35 90.85 281.99 92.24 305.22 94.24 338.91"/><rect class="cls-8" x="63.5" y="259.6" width="47.77" height="27.6" transform="translate(-16.1 5.68) rotate(-3.41)"/><path class="cls-9" d="M83.25,332.2a1.56,1.56,0,0,1,0,.68,1.69,1.69,0,0,1-.89,1,2.37,2.37,0,0,1-.62.2l-.6.32a8.51,8.51,0,0,0-2.33,2,3.5,3.5,0,0,0-.7,2.53H70.59c0-.2-.08-.36-.12-.54-.09-.38-.12-.8-.17-1.18s-.07-.51-.11-.77-.07-.54-.1-.81a11.6,11.6,0,0,1,.22-4.87,2,2,0,0,0,0-.74,5.26,5.26,0,0,1,0-1.05c0-.21,0-.42,0-.63,0-.63.11-1.26.17-1.89a2.88,2.88,0,0,1,1.82-2.61c.76-.32,1.51-.7,2.27-1.05h0a3.19,3.19,0,0,1,.65-.24c1.47-.27,1.88,0,2.35,1.23l.07.16c.48-.05.94-.11,1.39-.14l.37,0a1.45,1.45,0,0,1,1.2.59,1.18,1.18,0,0,1,.19,1.41c.6.23,1.28.22,1.61.85a1.63,1.63,0,0,1,0,1.75,1.83,1.83,0,0,1,.5,2.74.44.44,0,0,0,0,.39,1.88,1.88,0,0,1,.25.72"/><polygon class="cls-9" points="81.92 338.91 77.61 338.91 74.64 322.77 70.51 300.26 74.67 299.49 79.14 323.77 81.1 334.42 81.92 338.91"/><polygon class="cls-9" points="95.99 295.57 59.31 302.32 59.31 282.16 63.12 281.49 63.12 281.49 67.79 280.62 92.4 276.08 95.99 295.57"/><path class="cls-9" d="M188.1,338.36l1.27.23-.06.32H175.75l.08-.45.86.16.42-2.28,1.13.2a5.07,5.07,0,0,0-.89-4.05,11.67,11.67,0,0,0-3.18-2.67c-.27-.16-.55-.3-.83-.44a3.07,3.07,0,0,1-.84-.28,2.13,2.13,0,0,1-1.27-2.32,2.69,2.69,0,0,1,.34-1,.6.6,0,0,0,0-.54,2.82,2.82,0,0,1-.54-1.95,2.61,2.61,0,0,1,1.22-1.79,2.22,2.22,0,0,1,0-2.38c.45-.87,1.37-.85,2.19-1.16a1.62,1.62,0,0,1,.27-1.93,2,2,0,0,1,1.63-.81l.51,0c.62,0,1.24.13,1.89.19a1.72,1.72,0,0,0,.1-.22c.65-1.71,1.2-2.05,3.21-1.67a4.12,4.12,0,0,1,.89.32l0,0c1,.48,2.05,1,3.1,1.43a3.94,3.94,0,0,1,2.48,3.57c.08.86.16,1.71.23,2.57,0,.29.05.57.07.86a7.59,7.59,0,0,1,0,1.43,2.92,2.92,0,0,0,0,1,15.66,15.66,0,0,1,.31,6.64c0,.37-.09.74-.14,1.11s-.1.7-.14,1.05c-.08.52-.12,1.09-.24,1.61-.25,1-.42,2.09-.57,3.15"/><polygon class="cls-9" points="188.62 283.2 182.97 313.92 178.77 336.79 178.38 338.91 172.5 338.91 174.17 329.82 175.36 323.32 176.84 315.28 182.93 282.15 188.62 283.2"/><rect class="cls-9" x="172.85" y="234.69" width="31.57" height="64.94" transform="translate(-108.23 404.37) rotate(-79.58)"/><path class="cls-9" d="M266.92,290.62a3.07,3.07,0,0,1,.18,1.13,2.64,2.64,0,0,1-.25,1,2.53,2.53,0,0,1-1.62,1.28,3.81,3.81,0,0,1-1,.13,13.38,13.38,0,0,0-5,2.62,5.65,5.65,0,0,0-1.8,4.28h1.32v2.53h1v35.3H244.06v-35.3h.82v-2.53h1.36a35.82,35.82,0,0,0,0-3.59c0-.59,0-1.24.07-1.82,0-.39,0-.79.05-1.18s0-.84.08-1.25a17.55,17.55,0,0,1,1.67-7.23,3,3,0,0,0,.25-1.11,7.75,7.75,0,0,1,.29-1.57c.08-.31.16-.62.25-.93.25-.93.51-1.85.77-2.78a4.39,4.39,0,0,1,3.44-3.41c1.26-.28,2.5-.65,3.74-1a4.7,4.7,0,0,1,1-.17c2.29,0,2.82.46,3.19,2.48,0,.11.06.22.07.26.92.08,1.8.11,2.67.24a2.25,2.25,0,0,1,1.63,1.22,1.8,1.8,0,0,1-.09,2.17c.83.51,1.85.67,2.17,1.72a2.52,2.52,0,0,1-.49,2.61,2.8,2.8,0,0,1,0,4.25.68.68,0,0,0-.11.59"/><rect class="cls-9" x="256.8" y="240.39" width="6.46" height="65.4"/><rect class="cls-9" x="223.79" y="210.19" width="72.48" height="39.93"/><path class="cls-9" d="M357.52,293.93l-.69,1a5.09,5.09,0,0,1-1.81,1.65,4.49,4.49,0,0,1-.67.31,5.28,5.28,0,0,1-3.83,0,4.59,4.59,0,0,1-.5-.24l-.4.61,0,0h0l-.13-.09-1.2-.76L345.66,301a4.74,4.74,0,0,1,.64,2.36c0,.92.07,1.83.1,2.75,0,.3,0,.61,0,.91a7,7,0,0,1-.09,1.52,3.32,3.32,0,0,0,0,1.09,11.07,11.07,0,0,1,.28,1.61,19.6,19.6,0,0,1-.34,5.45l-.21,1.17c-.08.37-.15.74-.22,1.11-.11.54-.18,1.15-.34,1.69-.33,1.09-.57,2.2-.79,3.3l1.29.31-.56,2.35.82.2-2.91,12.06H328l1.91-8L331.3,325l.4-1.67.82.19.56-2.35,1.26.31a5.45,5.45,0,0,0-.71-4.35,12.73,12.73,0,0,0-4.08-3.54,3.36,3.36,0,0,1-.87-.34,2.37,2.37,0,0,1-1.21-1.54,2.2,2.2,0,0,1,0-1,3.15,3.15,0,0,1,.42-1,.64.64,0,0,0,0-.57,3.13,3.13,0,0,1-.19-.36,2.6,2.6,0,0,1,1.13-3.57,2.39,2.39,0,0,1,.13-2.53c.53-.89,1.5-.82,2.39-1.1a1.71,1.71,0,0,1,.4-2,2.12,2.12,0,0,1,1.78-.77c.83.08,1.66.24,2.53.37l.12-.22c.75-1.69,1.33-2.07,3.19-1.66l.31.07a4.22,4.22,0,0,1,.67.26l.77-1.28,1.13-1.89.72-1.2,0-.06c-1.45-.83-2.82-1.58-3.75-2-.2-.08-.37-.15-.53-.2l.48-.72a105.67,105.67,0,0,0-15.4-5.4,34,34,0,0,0-9.27-1.19l0-.06h-.2a1.17,1.17,0,0,1-1.8-1.49l5.8-8.55-2.08-1.42a.26.26,0,0,1-.07-.37l3.43-3.21,1.73-4.38a.27.27,0,0,1,.37-.07l2.07,1.4,5.59-8.25a1.17,1.17,0,0,1,2,1.21c1.43,4,4.64,8.5,8.09,12.61,1.41,1.67,2.86,3.28,4.25,4.75,1.09,1.16,2.14,2.23,3.11,3.19l.48-.67a4.27,4.27,0,0,0,.37.41,45.3,45.3,0,0,0,3.91,3.33c2.65,2.09,5.48,4.13,5.48,4.13l-.53.74c.14.12.27.25.4.38a5.27,5.27,0,0,1,.53,6.55"/><path class="cls-9" d="M148.53,287.21a.19.19,0,0,1-.18.2l-1.77.09.36,7.29a.83.83,0,0,1-1.63.24l-.12-.08V295a24.51,24.51,0,0,0-6-2.69,74.4,74.4,0,0,0-11.27-2.38l0,.61a3.08,3.08,0,0,0-.39-.07,26.94,26.94,0,0,0-3-.19l0,3.65a2.75,2.75,0,0,1,.5.09c1.47.46,1.71.88,1.53,2.24a1.53,1.53,0,0,0,0,.18c.58.24,1.14.45,1.67.71a1.52,1.52,0,0,1,.79,1.11,1.21,1.21,0,0,1-.5,1.37c.43.5,1,.82,1,1.55a1.66,1.66,0,0,1-.84,1.57,1.88,1.88,0,0,1-.88,2.72.45.45,0,0,0-.19.36,2.06,2.06,0,0,1-.12.76,1.6,1.6,0,0,1-.37.6,1.71,1.71,0,0,1-1.3.49,2.56,2.56,0,0,1-.65-.12,9,9,0,0,0-3.76.64,3.81,3.81,0,0,0-2,2.37l.87.28-.52,1.62.57.19-1.69,5.08-2.94,8.86-4.08,12.31H100.44l2.29-6.91,1.28-3.86,6.21-18.71.56.18.52-1.62.9.28c.27-.74.53-1.51.73-2.28.11-.39.28-.78.41-1.15s.19-.5.28-.75l.3-.78a11.79,11.79,0,0,1,2.56-4.29,2.45,2.45,0,0,0,.39-.66,5.07,5.07,0,0,1,.5-.95c.12-.18.24-.36.35-.54l1.07-1.62a3.29,3.29,0,0,1,1.25-1.19l.16-3.78-1,0H119v-.52a2.45,2.45,0,0,1-.39,0,3.7,3.7,0,0,1-3.11-3.47l0-.86a3.7,3.7,0,0,1,2.72-3.76,2.62,2.62,0,0,1,.38-.09l0-.64a82.39,82.39,0,0,0,8.41-1.06,2.9,2.9,0,0,0,.38-.11l0,.58c5-1.21,12.84-3.49,16.87-6.74a.83.83,0,0,1,1.65,0l.35,7,1.76-.09a.2.2,0,0,1,.2.18l-.56,3.28Z"/><path class="cls-10" d="M64.5,317.56a3,3,0,0,1-.43.75,2.94,2.94,0,0,0-.46,1.09c-.67,2.66-1.62,5.18-3.86,7a4.21,4.21,0,0,0-.44.39V310.22a2.06,2.06,0,0,1,.67,1.35,2.46,2.46,0,0,1,2.8,2.49.61.61,0,0,0,.33.41,2.33,2.33,0,0,1,1.39,3.09"/><path class="cls-10" d="M126.92,300.83a2.94,2.94,0,0,0,0,1.18c.48,2.7.64,5.39-.68,7.92a6.15,6.15,0,0,0-.56,3.43c.09,1.07.19,2.15.3,3.22a89.06,89.06,0,0,0,1.83,11.48c.08.36.17.71.29,1.16L116.34,331l-.42-2.72a66.29,66.29,0,0,0,.42-10.25c0-1.38-.12-2.75-.23-4.13a2.14,2.14,0,0,0-1.1-1.86c-1.46-.85-2.87-1.79-4.3-2.7a3.88,3.88,0,0,1-2-3.79c.09-1.13.11-2.27.17-3.4a4.63,4.63,0,0,1,.12-.92c.59-1.93,1.13-2.26,2.92-2h.24c.31-.75.57-1.49.91-2.18a2,2,0,0,1,1.45-1.06,1.6,1.6,0,0,1,1.8.65c.64-.57,1.05-1.38,2-1.38a2.2,2.2,0,0,1,2.07,1.09,2.46,2.46,0,0,1,3.57,1.12.63.63,0,0,0,.47.25,2.38,2.38,0,0,1,2.45,3.11"/><rect class="cls-10" x="114.91" y="315.08" width="12.29" height="2.47" transform="translate(-46.6 22.03) rotate(-8.73)"/><polygon class="cls-10" points="131.56 338.91 117.55 338.91 115.66 326.6 114.4 318.39 118.6 317.74 128.09 316.29 131.56 338.91"/><path class="cls-10" d="M255.12,308.11a3,3,0,0,0-.6,1c-1,2.55-2.29,4.92-4.74,6.39a6.12,6.12,0,0,0-2.28,2.62c-.49,1-1,1.92-1.43,2.89a92.5,92.5,0,0,0-4.48,10.74c-.12.35-.22.7-.36,1.14l-11-4.65,1.07-2.53a67.36,67.36,0,0,0,5.74-8.5c.69-1.2,1.34-2.41,2-3.64a2.14,2.14,0,0,0,0-2.16c-.79-1.5-1.5-3-2.24-4.56a3.87,3.87,0,0,1,.32-4.26c.67-.91,1.28-1.87,1.93-2.81a3.6,3.6,0,0,1,.58-.71c1.52-1.33,2.15-1.33,3.56-.2l.19.13c.66-.48,1.27-1,1.92-1.38a2,2,0,0,1,1.79-.14,1.58,1.58,0,0,1,1.19,1.5c.85-.15,1.62-.63,2.44-.12a2.21,2.21,0,0,1,1.19,2,2.45,2.45,0,0,1,2.45,2.83.59.59,0,0,0,.27.45,2.38,2.38,0,0,1,.45,3.93"/><rect class="cls-10" x="240.76" y="312.07" width="2.47" height="12.29" transform="translate(-145.38 417.01) rotate(-67.06)"/><polygon class="cls-10" points="248.01 321.89 244.03 331.28 240.81 338.91 225.76 338.91 233.24 321.25 235.25 316.49 244.03 320.2 248.01 321.89"/><path class="cls-10" d="M320.08,299a2.85,2.85,0,0,0,.37,1.12c1.25,2.45,2.18,5,1.67,7.78a6.13,6.13,0,0,0,.46,3.45c.4,1,.81,2,1.22,3a91.78,91.78,0,0,0,5.11,10.45l.62,1L318.8,331l-1.2-2.48a67.72,67.72,0,0,0-2.59-9.93c-.45-1.3-.93-2.59-1.43-3.87a2.15,2.15,0,0,0-1.6-1.47c-1.65-.39-3.27-.87-4.9-1.33a3.86,3.86,0,0,1-3-3c-.25-1.11-.56-2.2-.84-3.3a4.1,4.1,0,0,1-.14-.92c0-2,.42-2.48,2.19-2.8l.23-.06c.08-.81.11-1.59.23-2.35a2,2,0,0,1,1.08-1.43,1.58,1.58,0,0,1,1.91.09c.45-.74.6-1.63,1.52-1.91a2.2,2.2,0,0,1,2.3.44,2.45,2.45,0,0,1,3.74,0,.63.63,0,0,0,.52.09,2.38,2.38,0,0,1,3.25,2.26"/><rect class="cls-10" x="312.86" y="314.3" width="12.29" height="2.47" transform="translate(-105.35 169.75) rotate(-25.73)"/><polygon class="cls-10" points="337.99 338.91 322.61 338.91 313.24 319.46 317.19 317.56 325.72 313.45 331.3 325.02 333.65 329.92 333.66 329.93 337.99 338.91"/><path class="cls-10" d="M108.09,259.33a15.54,15.54,0,0,0-5.9,3.07c-2.23,1.91-2.25,4.9-2.06,7.54a17.33,17.33,0,0,0,.25,1.78q.18.87.42,1.68c.21,1,.42,2,.55,2.92a11.54,11.54,0,0,1,.1,1.17,6.37,6.37,0,0,1-.71,3.32,5.52,5.52,0,0,1-.83,1.14,4.28,4.28,0,0,1-3.73,1.24C94,283,92,283.37,90,282.88s-2.55-2.06-2.83-3.9c-.07-.46-.11-.93-.15-1.41a14,14,0,0,0-.11-1.59,17.78,17.78,0,0,1-.25-2.52c.1-3.46.49-6.82.31-10.25,0-.69,0-1.44.08-2.12l.06-1.39c0-.49.05-1,.08-1.47a20.78,20.78,0,0,1,2-8.49,4.24,4.24,0,0,0,.3-1.3,8.55,8.55,0,0,1,.33-1.86c.1-.36.2-.72.29-1.09.3-1.09.61-2.17.91-3.26a5.16,5.16,0,0,1,4-4c1.47-.33,2.93-.76,4.4-1.13a5.1,5.1,0,0,1,1.22-.2c2.68,0,3.31.54,3.74,2.91,0,.13.07.26.08.31,1.09.09,2.13.13,3.15.29a2.6,2.6,0,0,1,1.91,1.43,2.1,2.1,0,0,1-.11,2.55c1,.59,2.18.79,2.55,2a2.93,2.93,0,0,1-.57,3.06,3.29,3.29,0,0,1,0,5,.79.79,0,0,0-.12.69,3.78,3.78,0,0,1,.21,1.34,3,3,0,0,1-.3,1.19,3,3,0,0,1-1.9,1.5,4.21,4.21,0,0,1-1.15.15"/><rect class="cls-10" x="85.25" y="267.41" width="16.39" height="3.29"/><rect class="cls-10" x="84.29" y="270.42" width="18.45" height="68.48"/><path class="cls-10" d="M82.76,219.93a5.66,5.66,0,0,1,.59-.34l-.42-1.05s10-4.12,13.42-6.23a6.55,6.55,0,0,0,.56-.39l.38.94c7.72-4.68,19.51-12.64,24.48-20.19a1.45,1.45,0,0,1,2.75-.88l4.33,11.53,2.88-1.09a.34.34,0,0,1,.43.19l.8,5.75,3.2,4.86a.34.34,0,0,1-.19.42l-2.91,1.09,4.48,12a1.44,1.44,0,0,1-2.58,1.26l-.25-.07,0,.08a42.39,42.39,0,0,0-11.47-1.25,129.32,129.32,0,0,0-20,2l.35,1-.68.09a51.22,51.22,0,0,0-5.08,1.29l2.75,8.79v0l2.52,8.07h0l1.83,5.84c.79,2.49-.15,3.41-.71,3.62l-3.51,1.49c-1.11.42-2.77,1-3.78-2.65l-1.48-5.41h0l-.72-2.64-1.52-5.54v0l-2.54-9.27-1.65.56-.19.07h-.07l-.3-.84a5.72,5.72,0,0,1-.67.14,6.47,6.47,0,0,1-7-4.13l-.53-1.41a6.47,6.47,0,0,1,2.53-7.7"/><path class="cls-10" d="M199.35,316a10.18,10.18,0,0,1,3.91,2c1.48,1.27,1.5,3.25,1.37,5a11.17,11.17,0,0,1-.17,1.18c-.08.39-.17.76-.28,1.12-.14.67-.28,1.32-.36,1.93a6.85,6.85,0,0,0-.07.78,4.29,4.29,0,0,0,.47,2.2,4,4,0,0,0,.55.76,2.88,2.88,0,0,0,2.48.82,25.52,25.52,0,0,0,4.13-.2c1.27-.32,1.69-1.37,1.87-2.59,0-.31.08-.62.1-.94s0-.71.07-1a11.82,11.82,0,0,0,.17-1.67c-.07-2.3-.33-4.53-.21-6.8,0-.46,0-1,0-1.41s0-.61,0-.92l-.06-1a13.57,13.57,0,0,0-1.3-5.63,2.57,2.57,0,0,1-.2-.86,5.78,5.78,0,0,0-.22-1.23c-.06-.24-.13-.48-.19-.72-.2-.73-.41-1.45-.61-2.17A3.42,3.42,0,0,0,208,302c-1-.22-1.94-.5-2.92-.75a3.7,3.7,0,0,0-.81-.13c-1.78,0-2.19.36-2.48,1.93a1.82,1.82,0,0,1,0,.2c-.72.07-1.41.1-2.09.2a1.74,1.74,0,0,0-1.27.94,1.43,1.43,0,0,0,.07,1.7c-.65.39-1.44.52-1.69,1.34a2,2,0,0,0,.38,2,2.18,2.18,0,0,0,0,3.31.54.54,0,0,1,.09.46,2.39,2.39,0,0,0-.14.89,1.91,1.91,0,0,0,.19.79,1.94,1.94,0,0,0,1.26,1,3.11,3.11,0,0,0,.77.11"/><rect class="cls-10" x="203.62" y="321.35" width="10.87" height="2.18"/><rect class="cls-10" x="202.91" y="323.33" width="12.25" height="15.57"/><path class="cls-10" d="M216.15,289.86a3.84,3.84,0,0,0-.39-.22l.28-.7a93.08,93.08,0,0,1-8.9-4.13,3.52,3.52,0,0,1-.38-.26l-.25.62c-5.12-3.1-12.94-8.38-16.23-13.39a1,1,0,0,0-1.83-.58l-2.87,7.65-1.92-.73a.23.23,0,0,0-.28.13l-.53,3.82-2.12,3.21a.22.22,0,0,0,.13.28l1.93.73-3,7.92a1,1,0,0,0,1.72.84l.16-.05,0,.06a27.69,27.69,0,0,1,7.61-.83,85.56,85.56,0,0,1,13.28,1.34l-.24.67.46.06c.82.14,2.05.47,3.36.85L204.32,303h0l-1.67,5.36h0l-1.21,3.87c-.53,1.66.1,2.27.47,2.41l2.32,1c.74.27,1.84.64,2.51-1.76l1-3.59h0l.48-1.75,1-3.67h0l1.69-6.15,1.09.37.13,0h.05l.2-.56a3.12,3.12,0,0,0,.44.09,4.28,4.28,0,0,0,4.65-2.73l.36-.94a4.3,4.3,0,0,0-1.68-5.11"/><polygon class="cls-10" points="75.04 256.21 67.79 280.6 67.17 282.66 63.12 281.46 59.31 280.32 59.31 251.53 75.04 256.21"/><path class="cls-10" d="M359.31,268.93V311L356,299.79h0l-.94-3.2-4.09-13.79.84-.25-.12-.42-.54-1.8,1.14-.34a5.18,5.18,0,0,0-2.68-3.27,12.17,12.17,0,0,0-5.09-1,3.58,3.58,0,0,1-.7.13h-.19a2.34,2.34,0,0,1-1.75-.7,2.4,2.4,0,0,1-.48-.82,2.76,2.76,0,0,1-.14-1.05.63.63,0,0,0-.25-.49,2.76,2.76,0,0,1-1.44-1.7,2.65,2.65,0,0,1,.33-2,2.3,2.3,0,0,1-1.11-2.16c0-1,.85-1.41,1.45-2.07a1.64,1.64,0,0,1-.64-1.88,2,2,0,0,1,1.11-1.49c.72-.34,1.49-.6,2.28-.91,0,0,0-.14,0-.25-.21-1.85.14-2.41,2.14-3a4.43,4.43,0,0,1,1-.12c1.17-.05,2.35-.05,3.53-.13a4,4,0,0,1,3.9,2.09c.46.75.93,1.49,1.4,2.23l.46.75a7.66,7.66,0,0,1,.66,1.31,3.24,3.24,0,0,0,.5.91,13.87,13.87,0,0,1,2.83,4.54"/><rect class="cls-10" x="342.18" y="234.53" width="5.9" height="59.76" transform="translate(-61.03 109.29) rotate(-16.55)"/><polygon class="cls-10" points="359.31 228.26 359.31 234.26 315.16 247.38 307.29 220.93 353.08 207.32 359.31 228.26"/><path class="cls-10" d="M166.61,301.86a2.32,2.32,0,0,1-.08.95,2.29,2.29,0,0,1-1.26,1.4,3.76,3.76,0,0,1-.86.27,12.18,12.18,0,0,0-4.14,3.11,5.22,5.22,0,0,0-1,4.12l1.17-.19.38,2.27.87-.13L166,338.91H151.43l-3-17.66-.87-5.22.74-.13-.38-2.27,1.27-.22c-.14-1.11-.3-2.16-.54-3.22-.11-.53-.14-1.12-.21-1.65,0-.36-.09-.72-.13-1.08s-.09-.75-.13-1.13a16,16,0,0,1,.42-6.77,3,3,0,0,0,.05-1,7.23,7.23,0,0,1,0-1.47l.09-.87c.08-.87.18-1.75.27-2.62a4,4,0,0,1,2.59-3.6c1.09-.44,2.15-1,3.22-1.43a3.92,3.92,0,0,1,.91-.31c2.06-.36,2.61,0,3.25,1.75a1.72,1.72,0,0,0,.1.22c.84-.06,1.65-.16,2.45-.18a2.07,2.07,0,0,1,1.65.85,1.64,1.64,0,0,1,.24,2c.83.33,1.78.33,2.22,1.22a2.29,2.29,0,0,1,0,2.42,2.57,2.57,0,0,1,.63,3.84.6.6,0,0,0,0,.54,3.12,3.12,0,0,1,.34,1"/><rect class="cls-10" x="155.88" y="264.71" width="5.9" height="59.76" transform="translate(-46.64 30.41) rotate(-9.54)"/><rect class="cls-10" x="128.54" y="242.67" width="47.77" height="27.6" transform="translate(-40.41 28.82) rotate(-9.54)"/><path class="cls-10" d="M298,319.24a.61.61,0,0,0-.13.54,2.9,2.9,0,0,1,.1,1,2.31,2.31,0,0,1-.28.91,1.78,1.78,0,0,1-.25.36,2.54,2.54,0,0,1-1.3.72,3.29,3.29,0,0,1-.9.07c-.31.07-.62.14-.92.23a11.74,11.74,0,0,0-3.8,1.88,5.19,5.19,0,0,0-1.88,3.8l1.19.07-.14,2.3.88.06-.46,7.69H275.74l.51-8.54.76,0,.13-2.3,1.29.07c.11-1.11.19-2.17.2-3.26,0-.54.11-1.13.16-1.65,0-.36.08-.72.11-1.08,0-.2,0-.39.07-.59l.06-.55a16.15,16.15,0,0,1,1.92-6.5,2.89,2.89,0,0,0,.29-1,7.11,7.11,0,0,1,.35-1.43c.09-.27.18-.55.28-.83l.85-2.49a4,4,0,0,1,3.33-2.93c1.14-.18,2.27-.44,3.41-.66h.05a3.92,3.92,0,0,1,1-.1c2.08.12,2.55.58,2.77,2.44a1.59,1.59,0,0,0,.05.24c.65.09,1.29.16,1.91.27l.51.1a2,2,0,0,1,1.42,1.19,1.64,1.64,0,0,1-.2,2c.16.11.33.2.5.3.6.33,1.2.63,1.39,1.39a2.28,2.28,0,0,1-.59,2.35,2.55,2.55,0,0,1-.24,3.87"/><polygon class="cls-10" points="296.73 282.35 295.2 308.06 294.31 323.12 293.37 338.91 287.46 338.91 289.46 305.22 290.84 281.99 296.73 282.35"/><rect class="cls-10" x="280.51" y="249.52" width="27.6" height="47.77" transform="translate(3.9 550.94) rotate(-86.59)"/></g></g></g><path class="cls-12" d="M89.05,296.36a7.72,7.72,0,0,0,5.4,4.66c-.71,1.8,2.1,2.1,3.57,2.14-.31.25-.59.68-.9.93,2.55,1.63,5.42,1.38,8.16,2.24,4.37,1.6,38.82,28.83,55.3,30.2,0,0,0-10,1-12.62-25.32-7.14-46.43-21.71-47.35-23-4.3-6-3.69-5-7-7.81-1.08-.94-2.29-5.52-4.47-3.77-1.86,1.5,1.24,4.84-.1,6.23-1.52,1.43-12.67-.66-14.81-1.29Z"/><path class="cls-12" d="M323.88,308.54a7.8,7.8,0,0,1-5.39,4.68c.71,1.79-2.1,2.1-3.57,2.14.31.25.59.68.9.93-2.55,1.64-5.41,1.39-8.15,2.25-4.37,1.62-29.91,22.33-52.65,27.78,0,0-2.35-9.49-3.43-12.1,4.28-2.91,28.07-6.78,47.07-21.07,5.9-4.45,3.67-5,6.93-7.83,1.09-.94,2.29-5.53,4.47-3.78,1.87,1.5-1.23,4.84.11,6.23,1.52,1.42,11,0,13.1-.64Z"/><path d="M219.06,321.72c1.38-3.73,4.83-13,8.87-14.52,9.19-4.31,6.16,11.82,4.14,16.93Z"/><path d="M195.74,317.34c2.59-1.51,4.89-1.17,4.6-4.54-.35-4.09-1.85-9.69-6.49-10.73-8.4-1.88-7.06,11.42-6.19,18.17C187.66,320.24,193.24,318.79,195.74,317.34Z"/><path class="cls-13" d="M181.27,354.11a294.53,294.53,0,0,0-26.46-13c.47-4.29,4.06-18.06,7.59-21.14,0,0,15.06,7.15,15.19,5.54.16-1.93,17.67-11.09,26.41-11.57,7-.39,16.15,2.36,22.54,4.81,7.5,2.85,13.12,15.16,13.12,15.16,5.82-.2,12.07-4.83,12.07-4.83,3.32,5.89,9.26,14,9.77,19.88-9.59,3-25.08,9.26-35.21,9.3Z"/><path class="cls-12" d="M184.24,378.42a16.77,16.77,0,0,0,7.35,7.5,28.92,28.92,0,0,0,18.15,2.66c5.45-.84,12-3.23,15.91-7.12s5.64-10.19,6.76-15.37c.8-4-.28-9.36,1.22-10.52,1.75-1.38,4-1.52,4.41-3.59.94-4.88,0-8.42-2.89-10.63-.32-.24-4.88.08-5.22-.15s-2.14-7.46-5-11.06c-4.87-6.13-11.08-7.39-16.31-8-7.72-.83-19,4.9-21.77,13.7-.72,2.3-1.6,4.38-2.18,6.89a1.11,1.11,0,0,1-.73.89,15.51,15.51,0,0,1-2.37,0c-2.95.42-5.7,2.34-6.21,8.74-.34,4.19,2.61,4,5.62,5.85C179.5,363.18,183,376.17,184.24,378.42Z"/><path class="cls-14" d="M208.23,358.5l-.88-.37a5.49,5.49,0,0,1-.94-.6,6.94,6.94,0,0,1-1.08-1,9.77,9.77,0,0,1-1-1.41,11.21,11.21,0,0,1-.84-1.74,17,17,0,0,1-.64-1.94c-.18-.64-.42-1.25-.65-1.91a14,14,0,0,1-.57-2.07l-.07-.56a5,5,0,0,1,.07-.65,1.94,1.94,0,0,1,.26-.54,2.08,2.08,0,0,1,.44-.48,4.68,4.68,0,0,1,1.87-.81,10.06,10.06,0,0,1,1.72-.21,15.47,15.47,0,0,1,2.53.09,9.16,9.16,0,0,1,1,.15l-1,.05a21.82,21.82,0,0,0-2.47.28,11.64,11.64,0,0,0-1.59.37,4.14,4.14,0,0,0-1.48.75,1.5,1.5,0,0,0-.22.24s-.07.11-.1.19l-.05.11,0,.06v0h0c.05-.11,0,0,0-.05h0c0,.13,0,.23,0,.36l.06.44a15.1,15.1,0,0,0,.56,1.91c.21.64.47,1.33.65,2q.12.5.24,1c.1.31.19.62.28.92a14.51,14.51,0,0,0,.68,1.69,12.41,12.41,0,0,0,.79,1.41,10.09,10.09,0,0,0,.87,1.06,6.07,6.07,0,0,0,.79.71C208,358.29,208.23,358.5,208.23,358.5Z"/><path d="M194.15,356.09c.13.93-.07,2,1.27,2.42,2,.67,2.37-1.62,2.42-3,0-3.76-3.16-5.1-3.52-.82Z"/><path d="M218.28,358.33c-.12.93.1,2-1.25,2.44-2,.69-2.38-1.6-2.44-3,0-3.76,3.11-5.14,3.51-.86Z"/><path class="cls-15" d="M191.15,365.3a1.65,1.65,0,0,1,.19.25l.24.2c.11.06.21.14.34.21a7,7,0,0,0,.94.39,7.64,7.64,0,0,0,1.12.25,4.75,4.75,0,0,0,1.12.07,3.44,3.44,0,0,0,1-.16,1.88,1.88,0,0,0,.38-.15,1.11,1.11,0,0,0,.29-.16L197,366s0,.1-.11.29a1,1,0,0,1-.19.32,1.43,1.43,0,0,1-.34.36,2.66,2.66,0,0,1-1.12.54,3.92,3.92,0,0,1-1.41,0,4.31,4.31,0,0,1-1.31-.44,3.24,3.24,0,0,1-1-.75,2.27,2.27,0,0,1-.27-.42,2.82,2.82,0,0,1-.13-.37Z"/><path class="cls-14" d="M197.68,339.62l.19-.17a5.85,5.85,0,0,1,.55-.45,8.25,8.25,0,0,1,1-.59,7.48,7.48,0,0,1,1.33-.59,14,14,0,0,1,1.65-.49l.91-.21c.16,0,.29-.07.49-.1l.48-.07a17.52,17.52,0,0,1,2.06-.16c.7,0,1.41,0,2.12,0s1.42.13,2.11.24,1.36.26,2,.42a15.09,15.09,0,0,1,1.83.62,10.78,10.78,0,0,1,1.56.76c.22.15.45.27.65.42l.54.44a8.34,8.34,0,0,1,.79.8c.19.24.31.46.4.59l.14.21-.68-.67c-.25-.17-.51-.43-.87-.64a10.92,10.92,0,0,0-1.24-.64,6.34,6.34,0,0,0-.74-.29,6.27,6.27,0,0,0-.8-.28c-.56-.18-1.16-.31-1.78-.46s-1.28-.23-2-.33-1.35-.15-2-.19-1.36-.08-2-.08-1.33,0-2,.06l-.48.05-.45.06-.91.13c-.59.09-1.14.19-1.64.3s-1,.24-1.34.38a7.19,7.19,0,0,0-1,.42C198,339.44,197.68,339.62,197.68,339.62Z"/><path class="cls-15" d="M214.82,366.84a1.92,1.92,0,0,1,.28.11,4,4,0,0,0,.69.18,4.22,4.22,0,0,0,1,.05,5,5,0,0,0,.53-.05,3.41,3.41,0,0,0,.54-.1,6.88,6.88,0,0,0,1.92-.77,4.89,4.89,0,0,0,.61-.41l.24-.17a2.39,2.39,0,0,1-.47,1,3.24,3.24,0,0,1-.84.8,5.49,5.49,0,0,1-.59.31,4.49,4.49,0,0,1-.65.21,3.63,3.63,0,0,1-1.35.06,2.76,2.76,0,0,1-1.11-.4,2.12,2.12,0,0,1-.61-.56C214.87,366.94,214.82,366.84,214.82,366.84Z"/><path class="cls-15" d="M235.37,357.75c-.3-2.08-.86-5.68-2.7-4.2-1.63,1.32-2.58,6.5-3.19,8.38-.3.95-3.32,13.8-3,13.83-13.21-1.1-21.51.26-34.17,4.83-4.11-6-1.31-14.95-6.48-20.49-7.54-7.79-7.45,3.47-6.94,9.65-7.75-5.25-17,1.66-5.51,4.66-2.67,1.31-11,2.67-10.29,6.82s12.49,3.6,14.06,3.22c-4.74,1.65-7.15,6.05-2.2,8,3,1.27,8.34-1.86,11-2.67-6.9,9.15,11.05,2.46,14.65,2.24,7.2-.42,14.78.72,21.05-.8,7.8-1.9,11.23-8.12,12.64-15.62a83.8,83.8,0,0,0,1.15-11.73A34.59,34.59,0,0,0,235.37,357.75Z"/><path class="cls-16" d="M191.15,84.11a63,63,0,0,0,4.39-10l-13-2.29a36.41,36.41,0,0,0-1.92,8.75A19.34,19.34,0,0,0,191.15,84.11Z"/><path class="cls-17" d="M186.8,88.7c1.58-.6,3-2.4,4.35-4.59a19.34,19.34,0,0,1-10.56-3.55C180.06,86.16,181.07,91.44,186.8,88.7Z"/><path class="cls-17" d="M189.66,80.08a6.4,6.4,0,0,1-5.23-2.31c-.42-.47-1.24.1-.81.58a7.43,7.43,0,0,0,6.12,2.73.5.5,0,0,0-.08-1Z"/><path class="cls-17" d="M191.53,77.94a19.68,19.68,0,0,1-6.91-4c-.47-.43-1.11.34-.63.77a20.42,20.42,0,0,0,7.12,4.15c.61.21,1-.7.42-.91Z"/><path class="cls-17" d="M227.66,84.83A41.91,41.91,0,0,1,215,86.68c.87,3.14,2.6,6.15,5.89,6.86C226.07,94.64,227.52,90.08,227.66,84.83Z"/><path class="cls-16" d="M227,75.31s-5.57,1.5-8,3-4.88,1.21-4.56,4.58a22.2,22.2,0,0,0,.69,3.82,41.91,41.91,0,0,0,12.63-1.85A60.59,60.59,0,0,0,227,75.31Z"/><path class="cls-17" d="M224.7,81.44c-2.63.06-5.17.82-7.81.88-.64,0-.56,1,.09,1,2.63-.07,5.17-.82,7.8-.89.65,0,.56-1-.08-1Z"/><path class="cls-17" d="M224,78.28a38.8,38.8,0,0,1-10.28,2.13.5.5,0,0,0,.08,1,39.1,39.1,0,0,0,10.54-2.18.5.5,0,0,0-.34-.94Z"/><path class="cls-18" d="M93.89,88.41a7.77,7.77,0,0,1,5.35-4.72c-.72-1.79,2.08-2.12,3.55-2.18-.31-.25-.59-.67-.9-.92,2.53-1.66,5.39-1.43,8.13-2.33,4.35-1.65,29.71-22.58,52.41-28.23,0,0,2.42,9.48,3.53,12.07-4.26,2.95-28,7-46.89,21.49-5.87,4.49-3.63,5-6.87,7.88-1.07,1-2.23,5.55-4.43,3.82-1.88-1.48,1.19-4.85-.17-6.23-1.53-1.41-10.95.11-13.09.76Z"/><path class="cls-18" d="M323.81,97.18a7.73,7.73,0,0,0-5.44-4.62c.69-1.8-2.12-2.08-3.59-2.11.31-.25.58-.68.89-.93-2.56-1.62-5.43-1.33-8.18-2.17-4.38-1.57-35.11-26.16-51.6-27.39,0,0-3.84,7.67-4.89,10.29,25.37,6.92,46.61,21.31,47.54,22.59,4.35,6,3.73,5,7,7.75,1.1.93,2.35,5.5,4.51,3.74,1.85-1.52-1.28-4.84,0-6.24,1.51-1.44,12.68.56,14.83,1.17Z"/><path class="cls-19" d="M148,50.9c.57,5.84,5.77,13.35,9.14,19.21,0,0,2.15-1.41,5.07-3-3.14-5.21-7-12.93-7.23-18.76C152.36,49.36,150,50.27,148,50.9Z"/><path class="cls-17" d="M155,48.3c.27,5.83,4.09,13.55,7.23,18.76.74-.41,1.53-.84,2.35-1.27-2.83-5.79-5.64-12.6-6.52-18.73Z"/><path class="cls-17" d="M253.71,75.54c4.07-5.91,6.85-13.06,9.89-19.47l-2.15-1A64.72,64.72,0,0,1,251,74.45C252,74.82,252.87,75.19,253.71,75.54Z"/><path class="cls-19" d="M258.85,77.69c3.49-3.11,8.56-15.51,9-19.8-1.13-.46-2.58-1.09-4.25-1.82-3,6.41-5.82,13.56-9.89,19.47C256.68,76.76,258.85,77.69,258.85,77.69Z"/><path class="cls-19" d="M188.08,77.14c6.41,2.39,15.6,5.06,22.59,4.61C219.4,81.2,236.83,71.89,237,70c.08-1,7.81,2,14.06,4.49a64.72,64.72,0,0,0,10.42-19.34c-9.53-4.28-23.83-11.08-28.4-13.72L188,37.63c-7.31.09-19.89,5.35-29.93,9.43.88,6.13,3.69,12.94,6.52,18.73,3.52-1.83,7.54-3.58,10.25-3.7C174.84,62.09,180.56,74.35,188.08,77.14Z"/><path class="cls-17" d="M229.14,48.88c4.79,6.81-2.17,23.2-10.3,28.48-3.44-3.51-7.7-8.62-11.89-10.94-3.45,2.81-10.44,10-11.92,10.31-1.93.46-10.47-12-11.68-16.05-5.77-19.34,21-10.65,28.82-10.7Z"/><path class="cls-18" d="M229.87,17.1a16.82,16.82,0,0,0-7.41-7.44,29,29,0,0,0-18.17-2.5c-5.45.89-11.94,3.34-15.85,7.26s-5.55,10.24-6.63,15.42c-.76,4,.36,9.36-1.13,10.54-1.74,1.39-4,1.55-4.37,3.62-.91,4.89.11,8.43,3,10.61.32.24,4.88-.12,5.22.1s2.2,7.44,5.09,11c4.92,6.09,11.5,5.68,16.73,6.21,7.73.77,18.37-2,21.3-12.26.66-2.32,1.56-4.4,2.12-6.91a1.12,1.12,0,0,1,.73-.9,15.31,15.31,0,0,1,2.36,0c2.95-.45,5.68-2.39,6.14-8.79.3-4.2-2.65-4-5.67-5.81C234.75,32.31,231.14,19.35,229.87,17.1Z"/><path class="cls-20" d="M209.37,35.31s0,.1-.1.29-.19.47-.28.83a7.82,7.82,0,0,0-.28,1.3,5,5,0,0,0-.08.8,6.66,6.66,0,0,0,0,.9,10.19,10.19,0,0,0,.2,2,10.41,10.41,0,0,0,.26,1.07l.38,1.09a14.19,14.19,0,0,0,.9,2.26c.18.37.36.74.53,1.11s.42.74.62,1.1c.41.75.83,1.49,1.25,2.22.21.37.39.75.59,1.11l0,0s.1.27.06.15h0s0,.07,0,.16a.5.5,0,0,1-.09.24.66.66,0,0,1-.2.16,1.18,1.18,0,0,1-.23.09,2.85,2.85,0,0,1-.35.08l-.62.09c-.82.09-1.6.12-2.35.13h-.28l-.3,0-.53-.06c-.35-.06-.7-.1-1-.18a9.43,9.43,0,0,1-1.7-.55,6.87,6.87,0,0,1-1.22-.62,3.34,3.34,0,0,1-.7-.54l-.23-.21.26.17.31.2.45.21a6.87,6.87,0,0,0,1.25.44,13.07,13.07,0,0,0,1.68.34c.32.06.63.07,1,.1l.53,0h.24l.26,0c.73-.07,1.5-.16,2.27-.27l.57-.11a1.15,1.15,0,0,0,.24-.07l.06,0a.38.38,0,0,0-.08.08.31.31,0,0,0-.08.2c0,.07-.05.19-.06.15h-.07c0-.14.07.16,0,.13l.06,0c-.21-.35-.39-.72-.61-1.08-.43-.72-.84-1.47-1.27-2.23-.2-.38-.42-.75-.61-1.14l-.54-1.2a12.58,12.58,0,0,1-.85-2.35c-.11-.4-.24-.73-.34-1.16s-.15-.78-.18-1.16a11,11,0,0,1,0-2.13,7.39,7.39,0,0,1,.31-1.76,8.34,8.34,0,0,1,.46-1.3,6.94,6.94,0,0,1,.41-.77Z"/><path d="M220.25,39.91c.07-.94.49-2-.74-2.63-1.79-1.07-2.65,1.09-3,2.47-.73,3.69,2,5.64,3.28,1.53Z"/><path d="M196.73,37.45c.21-.91.12-2,1.5-2.28,2-.47,2.19,1.85,2.1,3.26-.43,3.74-3.67,4.76-3.59.46Z"/><path class="cls-21" d="M223.07,30.29l-.19-.25-.23-.2c-.12-.06-.22-.14-.35-.21a5.93,5.93,0,0,0-.94-.38,6.53,6.53,0,0,0-1.12-.24,5.45,5.45,0,0,0-1.13-.07,3.91,3.91,0,0,0-1,.17,2.57,2.57,0,0,0-.37.16,1.11,1.11,0,0,0-.29.16l-.26.17a2.69,2.69,0,0,1,.11-.3,1,1,0,0,1,.19-.32,1.23,1.23,0,0,1,.33-.36,2.68,2.68,0,0,1,1.12-.55,3.86,3.86,0,0,1,1.4-.05,4.34,4.34,0,0,1,1.32.42,3.12,3.12,0,0,1,1,.75,1.87,1.87,0,0,1,.28.41,1.85,1.85,0,0,1,.13.37A2.67,2.67,0,0,1,223.07,30.29Z"/><path class="cls-20" d="M217.78,56.1l-.18.17a5.85,5.85,0,0,1-.55.45,7.54,7.54,0,0,1-1,.6,8.27,8.27,0,0,1-1.33.6,13.4,13.4,0,0,1-1.65.5l-.9.22c-.17,0-.29.08-.49.11l-.48.07a20,20,0,0,1-2.06.18c-.7,0-1.41,0-2.12,0s-1.42-.13-2.11-.22-1.37-.26-2-.41a15.1,15.1,0,0,1-1.83-.6,9.54,9.54,0,0,1-1.57-.75c-.22-.15-.45-.26-.65-.41l-.55-.44a8.36,8.36,0,0,1-.79-.79,6.09,6.09,0,0,1-.41-.59l-.14-.21.68.67a9.9,9.9,0,0,0,.88.62,9.51,9.51,0,0,0,1.24.64,7.12,7.12,0,0,0,.74.29c.27.09.53.2.81.27.56.17,1.17.3,1.79.44s1.28.22,2,.31,1.35.15,2,.18,1.36.07,2,.06,1.33,0,2-.08l.48-.05.45-.06.91-.14c.58-.1,1.13-.2,1.63-.32A13.2,13.2,0,0,0,216,57a7.46,7.46,0,0,0,1-.43C217.48,56.28,217.78,56.1,217.78,56.1Z"/><path class="cls-21" d="M201.18,28.36l-.27-.13a3.13,3.13,0,0,0-.67-.26,4.18,4.18,0,0,0-.94-.16c-.17,0-.35,0-.53,0a5.09,5.09,0,0,0-.55,0,6.87,6.87,0,0,0-2,.55c-.27.13-.5.24-.66.34l-.26.15s0-.11.12-.29a2.34,2.34,0,0,1,.46-.66,3,3,0,0,1,.93-.69,3.71,3.71,0,0,1,.61-.25,5,5,0,0,1,.67-.14,3.57,3.57,0,0,1,1.35.1,2.69,2.69,0,0,1,1.06.51,2,2,0,0,1,.54.63C201.14,28.26,201.18,28.36,201.18,28.36Z"/><path class="cls-22" d="M239.42,9.43c-3.25-6.72-28.73-7.94-36.81-9.22-9.47-1-18.2,1.71-21.3,11.37-1.35,4.33-1.89,7-3.86,10.62-2.37,4.25-3.95,7.2-2.27,12.1.6,1.07,3.83,8.12,4.48,8.51,4.23,2.71,3.54-1.78,4.45-4.78,2.22-7,5.72-13.89,6.61-21.32,1.62,3.18,4.67,4.42,8,5.69,3.34.93,8,.6,11.07.83,5.43.4,13.81.73,17.87-3.4,2.16-.27,2,5.91,1.78,12.46,0,.34.38,5.4.38,5.4,1.6,1.48.79,3.13,4,1.32,5.65-2.65,6.19-19,.24-21.46a7.33,7.33,0,0,0,6-6.71Z"/><path class="cls-15" d="M95.25,216.14c-1.52-4-10.86-7.4-14.59-8.75l-.38,2.14c3,1,8.69,3.49,9.4,6.07,1.42,5.08-6.6,4.12-11,3l-.32,1.81C83.48,222.4,99.64,225.3,95.25,216.14Z"/><path class="cls-15" d="M89.41,188.6c4.09-.39,9.68-1.93,10.68-6.58,1.8-8.41-11.48-7-18.22-6,0,0,.26,1,.67,2.29,3.58-.26,8.59-1.38,10.63,1.45,3.16,4.22-3,5.94-6.84,7.51C86.87,188.19,87.62,188.77,89.41,188.6Z"/><path class="cls-23" d="M93.17,179.72c-2-2.83-7-1.71-10.63-1.45a31.41,31.41,0,0,0,2.3,5.77c.71,1.2,1,2.34,1.49,3.19C90.22,185.66,96.33,183.94,93.17,179.72Z"/><path class="cls-23" d="M89.68,215.6c-.71-2.58-6.37-5-9.4-6.07l-1.6,9.09C83.08,219.72,91.1,220.68,89.68,215.6Z"/><path class="cls-23" d="M103.73,79.13a7.78,7.78,0,0,0-4.62,5.44c-1.8-.69-2.08,2.12-2.11,3.59-.25-.31-.68-.58-.93-.89-1.61,2.56-1.33,5.42-2.17,8.18-1.57,4.38-26.16,35.11-27.39,51.6,0,0,7.68,3.84,10.3,4.89,6.91-25.37,21.3-46.61,22.58-47.54,6-4.35,5-3.73,7.76-7,.93-1.1,5.5-2.35,3.73-4.51-1.52-1.85-4.83,1.28-6.23-.05-1.44-1.5.55-12.67,1.16-14.82Z"/><path class="cls-23" d="M98.32,310a7.74,7.74,0,0,1-5.08-5c-1.74.84-2.26-1.93-2.42-3.39-.22.33-.63.63-.85,1-1.83-2.41-1.8-5.29-2.87-7.95-1.95-4.23-24.55-28.11-31.73-50.38,0,0,9.29-3.06,11.81-4.34,3.23,4,8.91,27.48,24.61,45.32,4.89,5.55,5.26,3.28,8.33,6.32,1,1,5.69,1.86,4.12,4.16-1.36,2-4.93-.85-6.21.6-1.3,1.62.85,10.91,1.64,13Z"/><path class="cls-24" d="M25.09,173.07c-.36-5.35-3.9-10.63-9.41-11.24A14.63,14.63,0,0,0,4.25,166c-4.43,4.58-6,12-1.83,17.29,3.49,4.46,13.05,7.09,17.71,3.1C23.58,183.43,25.38,177.45,25.09,173.07Z"/><path class="cls-25" d="M47.94,169.88c3.49-6,6.44-12.39,9.34-18.72,1.07-2.34,2.54-7.1,3.41-9.6.79-2.25,5.56-.91,3.81,2.07,2.2-3.74,5.61-2.82,6.3,1.42.49-1.75,3.07-3.56,4.94-2.19a4.51,4.51,0,0,1,1.33,4.85c.87-1.48,3.89-1.91,5.06-.35s-6.66,18.52-5.62,18.6c1.93.15,11.24,17.58,11.8,26.31.44,7-2.23,16.17-4.62,22.58-2.79,7.53-15,13.25-15,13.25a21.17,21.17,0,0,0,3.23,9.4c1.18,2,3.39,5.17,1.23,7.37-1.63,1.67-3.46.07-4.67-1.34-.26,1.86.06,3.88-1.94,4.86a3.51,3.51,0,0,1-4.18-.92c-.38,2.91-3.31,4.89-5,1.69a3.11,3.11,0,0,1-1.45,2.7c-1.68.7-2.22-1.47-2.45-2.57a32.68,32.68,0,0,0-1.35-4.17C51,242,49.94,239,48.9,235.87c-2-6.09-4.07-12.39-4.61-18.83-.06-.7-.1-1.4-.11-2.1Z"/><g class="cls-26"><path class="cls-27" d="M55.43,173.8c6.82-4.79,23.2,2.17,28.49,10.3-3.51,3.43-8.62,7.7-11,11.89,2.81,3.45,10,10.44,10.31,11.92.46,1.93-12,10.46-16,11.68-19.33,5.77-10.64-21-10.69-28.82Z"/></g><path class="cls-23" d="M23.66,173.07a16.75,16.75,0,0,0-7.44,7.4,28.92,28.92,0,0,0-2.5,18.18c.89,5.44,3.33,11.94,7.26,15.85S31.21,220,36.4,221.12c4,.77,9.36-.36,10.53,1.13,1.4,1.74,1.55,4,3.63,4.38,4.89.91,8.42-.11,10.6-3,.25-.32-.12-4.88.11-5.22s7.44-2.2,11-5.09c6.1-4.93,5.68-11.5,6.21-16.74.78-7.72-2-18.36-12.26-21.29-2.31-.66-4.39-1.56-6.91-2.12a1.11,1.11,0,0,1-.89-.73,13.15,13.15,0,0,1,0-2.36c-.46-2.95-2.4-5.69-8.8-6.14-4.19-.31-3.95,2.65-5.8,5.67C38.86,168.19,25.9,171.79,23.66,173.07Z"/><path class="cls-28" d="M39.87,194s.41,0,1.11,0l2.92.09a37.26,37.26,0,0,0,4.08,0,17.47,17.47,0,0,0,2.23-.29,7.31,7.31,0,0,0,2.12-.74c.16-.08.3-.19.46-.28l.11-.08.06,0h0l0,0h0l0,0,.2-.21a8.06,8.06,0,0,0,.37-.93,2.31,2.31,0,0,1,.77-1.22l.2-.13a.84.84,0,0,1,.19-.06L55,190a2.31,2.31,0,0,1,.65-.09A2.64,2.64,0,0,1,57.82,191a4.85,4.85,0,0,1,.84,1.91,5,5,0,0,1,0,1.71,4.48,4.48,0,0,1-.38,1.26,2.7,2.7,0,0,1-.5.66l-.21.21.17-.24a3.51,3.51,0,0,0,.36-.71,4.09,4.09,0,0,0,.19-1.21,5.53,5.53,0,0,0-.21-1.55,4.05,4.05,0,0,0-.85-1.56,2,2,0,0,0-1.58-.68,1.31,1.31,0,0,0-.46.09l-.28.09-.08,0s0,0,0,0a1.84,1.84,0,0,0-.39.77,5,5,0,0,1-.55,1.27,2.57,2.57,0,0,1-.21.24l0,0h0l-.07.06h0l-.07,0-.14.09a4.72,4.72,0,0,1-.55.36,8.9,8.9,0,0,1-2.41.81,15.35,15.35,0,0,1-2.39.21,30,30,0,0,1-4.16-.29c-1.2-.14-2.19-.35-2.88-.46Z"/><path d="M46.46,182.68c-.93-.06-2-.49-2.63.75-1.06,1.79,1.09,2.65,2.47,3,3.69.74,5.65-2,1.53-3.27Z"/><path d="M44,206.21c-.92-.22-2-.12-2.28-1.5-.48-2,1.84-2.2,3.26-2.1,3.73.42,4.75,3.67.46,3.59Z"/><path class="cls-24" d="M36.84,179.86a2.8,2.8,0,0,1-.25.19l-.2.24c-.06.11-.14.22-.21.35a5.58,5.58,0,0,0-.37.94,6.54,6.54,0,0,0-.25,1.12,5.37,5.37,0,0,0-.06,1.12,3.36,3.36,0,0,0,.17,1,1.67,1.67,0,0,0,.15.38,1.88,1.88,0,0,0,.16.29l.17.26-.3-.11a1.11,1.11,0,0,1-.32-.19,1.56,1.56,0,0,1-.36-.33,2.55,2.55,0,0,1-.54-1.12,3.87,3.87,0,0,1-.06-1.4,4,4,0,0,1,.43-1.32,3.11,3.11,0,0,1,.74-1,3,3,0,0,1,.41-.28,2.27,2.27,0,0,1,.38-.12Z"/><path class="cls-24" d="M34.92,201.76l-.14.27a3.23,3.23,0,0,0-.26.67,4.18,4.18,0,0,0-.16.94c0,.17,0,.35,0,.53a3.41,3.41,0,0,0,0,.55,6.37,6.37,0,0,0,.55,2,5.48,5.48,0,0,0,.33.65,2.59,2.59,0,0,1,.15.27l-.28-.12a2.59,2.59,0,0,1-.67-.46,3.46,3.46,0,0,1-.69-.93,3.32,3.32,0,0,1-.24-.62,3,3,0,0,1-.14-.67,3.53,3.53,0,0,1,.09-1.34,3.14,3.14,0,0,1,.21-.59,3.62,3.62,0,0,1,.31-.48,2.17,2.17,0,0,1,.62-.54Z"/><path class="cls-29" d="M49.83,170.17A42.69,42.69,0,0,1,43,170c1.46-1.26,1.56-2.61,2.36-4.26-11.73-2.58-32.59,2.81-33.39,15.63C1.77,184,4.33,204.15,8.37,210.26c5.86,8.86,17.47,14,27.82,14.81a35.31,35.31,0,0,0,12-1.15,16.41,16.41,0,0,1-.84-2.45,5.05,5.05,0,0,0,5.26-2c-3.24-2.28-10.1-1.77-14.45-2.78A55.33,55.33,0,0,1,25.84,213c4.77,0,4.08-4.46-.35-4.45,1.82-1.57,2.67-3.89-.33-4.8,3.18-1.47,3.85-5.85-.19-6.49,2.21-2.22,3.48-5.54-.15-7.17,3.49-1.11,3.43-4.86.14-6.47,2.81-1.15,4.74-4.08,1.84-6.34q4.1-.19,2.33-3.92c6.11.46,14.68-.26,20.65-2.55Z"/><path class="cls-30" d="M69.6,201.69a11.87,11.87,0,0,0,1.55-5.83,10.42,10.42,0,0,0-1.06-5.2C68.27,193.62,67.72,198.81,69.6,201.69Z"/><path class="cls-31" d="M61.1,205.94s5.67.41,8.5-4.25c-1.88-2.88-1.33-8.07.49-11-2.28-4.5-7.44-5.5-7.44-5.5A8.57,8.57,0,0,1,64,187.75c1,.11,1.92.24,2.39,1.29.93,2.05.34,5.58.25,7.81a14.42,14.42,0,0,1-.87,5,2.85,2.85,0,0,1-2.74,1.84A6.69,6.69,0,0,1,61.1,205.94Z"/><path class="cls-7" d="M65.81,201.84a14.42,14.42,0,0,0,.87-5c.09-2.23.68-5.76-.25-7.81C66,188,65,187.86,64,187.75a23.12,23.12,0,0,1,.82,3.42c.46,2.75.31,8.81-1.79,12.51A2.85,2.85,0,0,0,65.81,201.84Z"/><path d="M403.54,181.87c5.49,8.55,18.91-6.74,12.49-9.76,4.41-4.25-7.17-20.38-12.31-13.13.41-5.56-6.16-6.56-8.57-1.65-5.33-4-8.87,2.39-7.18,7.1-6.88,3,.74,17.36,8.52,15.9-1.9,4.95,2.64,5.79,5.88,3.49Z"/><path d="M403.87,225.15c7.31-2,15.75,8.29,6.21,12.67,8.78,5.74-11.27,13.92-13.86,7.62-3.79,2.77-8.72.37-8.42-3.68,0,0,.32,2.57.28,3.08-7.16,0-6.88-17.31,1.36-18.22,1.33-4,6.09-6.16,8.41-2.94,2.07-.35,2,.66,2.46,1.2Z"/><path class="cls-32" d="M392.51,165.27c5.31-2.65,11.73.37,12.76,7.06,1.88,15.91-11.37,1.7-16.74-1.75Z"/><path class="cls-32" d="M391.87,228.33c2.51.69,11.19.83,9.76,6.32-2.51,13-30-1.72-11.94-4.45Z"/><path class="cls-33" d="M313.92,316.88a7.76,7.76,0,0,0,4.62-5.42c1.8.69,2.07-2.1,2.11-3.57.25.31.68.58.93.88,1.61-2.55,1.33-5.4,2.17-8.13,1.57-4.36,26.16-34.95,27.39-51.35,0,0-7.68-3.83-10.3-4.87-6.91,25.24-21.3,46.38-22.58,47.31-6,4.33-5,3.71-7.75,7-.93,1.1-5.51,2.34-3.74,4.49,1.52,1.84,4.83-1.28,6.23.05,1.44,1.49-.55,12.61-1.16,14.75Z"/><path class="cls-33" d="M317.3,87a7.72,7.72,0,0,1,5.08,5c1.73-.84,2.25,1.92,2.41,3.37.23-.32.63-.63.86-.95,1.83,2.4,1.79,5.26,2.87,7.91,1.94,4.21,24.55,28,31.72,50.13,0,0-9.28,3.05-11.8,4.32-3.23-4-8.91-27.34-24.62-45.1-4.88-5.52-5.26-3.26-8.33-6.28-1-1-5.68-1.85-4.11-4.15,1.35-2,4.92.85,6.21-.59,1.3-1.61-.85-10.86-1.65-12.94Z"/><path class="cls-19" d="M335,189.08c-3.74-1.34-13.07-4.69-14.6-8.7-4.38-9.11,11.77-6.23,16.89-4.27Z"/><path class="cls-19" d="M330.78,212.33c-1.53-2.57-1.21-4.86-4.57-4.55-4.09.39-9.68,1.93-10.68,6.55-1.81,8.38,11.48,6.93,18.22,6C333.75,220.34,332.26,214.8,330.78,212.33Z"/><path class="cls-34" d="M367.68,226.41a290.9,290.9,0,0,0-12.78,26.44c-4.29-.43-18.09-3.89-21.2-7.37,0,0,7-15,5.4-15.17-1.93-.14-11.24-17.49-11.79-26.18-.44-6.95,2.23-16.09,4.61-22.47,2.79-7.49,15.05-13.18,15.05-13.18-.25-5.79-4.61-14.7-4.61-14.7,5.86-3.35,13.63-6.61,19.47-7.17,3.08,9.53,9.48,24.88,9.61,35Z"/><path class="cls-33" d="M391.19,224a16.77,16.77,0,0,0,7.69-7.12,28.68,28.68,0,0,0,3.13-18c-.7-5.45-2.92-12-6.7-16s-10-5.87-15.18-7.12c-4-.9-9.37,0-10.49-1.49-1.33-1.77-1.41-4-3.46-4.48-3.08-.69-8.1-.92-10.24,2.06-1.58,2.2-.05,4.37-2,6.2-3.62,3.42-7.72,2.93-11.16,7.39-3.11,4-4.91,7.41-5.5,12.51-1.06,9.1,1.72,19.23,11.42,22.34,2.29.74,4.34,1.71,6.83,2.35a1.13,1.13,0,0,1,.87.75,14.4,14.4,0,0,1,0,2.36c.35,2.94,2.19,5.73,8.57,6.41,4.19.44,4-2.5,6-5.44C375.83,228.32,388.9,225.18,391.19,224Z"/><path class="cls-35" d="M368.7,201.92c-.91,0-1.8-.14-2.69-.19a11.93,11.93,0,0,0-1.32-.07,3.36,3.36,0,0,0-1.18.19,1,1,0,0,0-.38.26c0,.1-.26.37-.26.51a3,3,0,0,0-.16.55,4.26,4.26,0,0,0-.13.62c-.15.85-.22,1.72-.36,2.65v0a.41.41,0,0,1-.35.35l-.74.12a6.43,6.43,0,0,1-.76,0,6,6,0,0,1-.73-.17,7,7,0,0,1-.68-.31l-.6-.43-.52-.51c-.14-.2-.29-.38-.42-.58l-.33-.63-.25-.66-.15-.68-.05-.7.06-.7.18-.67.3-.62c.14-.18.27-.37.41-.54l.51-.43-.39.52-.29.57-.18.6-.06.62,0,.62.12.6.19.58.26.55.33.51.38.46.44.39.49.31.52.22.55.12H361l.56-.1-.36.39c.14-.83.22-1.75.41-2.65a5.63,5.63,0,0,1,.17-.68,5.43,5.43,0,0,1,.27-.72,2.83,2.83,0,0,1,.41-.65,1.81,1.81,0,0,1,.74-.45,4,4,0,0,1,1.48-.1c.47.05.92.14,1.36.23C367,201.46,367.82,201.72,368.7,201.92Z"/><path d="M368.73,213.64c.94.1,1.94.56,2.66-.65,1.12-1.75-1-2.67-2.37-3.05-3.66-.86-5.71,1.83-1.64,3.2Z"/><path d="M372,190.33c.9.24,2,.19,2.22,1.57.4,2-1.92,2.12-3.33,2-3.72-.55-4.62-3.81-.34-3.58Z"/><path d="M378.25,216.78l.26-.18.2-.23c.07-.11.15-.21.23-.34a6.18,6.18,0,0,0,.4-.92,6.58,6.58,0,0,0,.29-1.1,5.48,5.48,0,0,0,.1-1.12,3.47,3.47,0,0,0-.14-1,1.68,1.68,0,0,0-.14-.38.87.87,0,0,0-.15-.29l-.16-.27.29.12a.94.94,0,0,1,.32.2,1.45,1.45,0,0,1,.35.35,2.62,2.62,0,0,1,.51,1.13,3.82,3.82,0,0,1,0,1.39,4.29,4.29,0,0,1-.47,1.3,3.16,3.16,0,0,1-.78.93,2.18,2.18,0,0,1-.42.26,2.27,2.27,0,0,1-.38.12Z"/><path d="M380.93,195.07s.05-.1.15-.26a3.26,3.26,0,0,0,.28-.66,4.13,4.13,0,0,0,.19-.93,4.58,4.58,0,0,0,0-.53,3.26,3.26,0,0,0,0-.54,6.39,6.39,0,0,0-.47-2,6.19,6.19,0,0,0-.32-.67l-.14-.26a1.53,1.53,0,0,1,.28.12,2.32,2.32,0,0,1,.65.48,3.42,3.42,0,0,1,.88,1.57,3.93,3.93,0,0,1,.12.67,3.71,3.71,0,0,1-.14,1.34,3.34,3.34,0,0,1-.23.58,2.71,2.71,0,0,1-.33.46,2.08,2.08,0,0,1-.64.52Z"/><path d="M377.44,168.76c-2.39-6.22-11.91-.88-7.6,3.71-3-2.89-3.67,3.64-1.49,5.58a5.7,5.7,0,0,0,7.46.56c-1.84,5.55,9,6,11.44,2.44-2.27,4.11,1.69,8.49,6.05,7.57-.57,2.81.66,10.19,3.63,11.12-.47-3.23-5-.54-5.64,1.36-1.09,2.59-.13,6.58,1.12,9-7.53-2.16-7,9.27-2.53,7.47-2.61-.91-10.21,2.62-6.65,5.2-3.26-4.16-11.15-3.86-10.21,2.62-1.26-2.23-7.85-2.54-7.25,1.42.52,2.53,3.58,2.22,5.38,2.18-3.59,2.58,2.12,7.45,5.21,6.79,1.42,9.71,18.44,4.39,14.74-1,4.74,1.06,10.41-.65,13.08-5.26.85-1.72,1.53-3.62-.54-4.67a10.13,10.13,0,0,0,9.53-5.52c1.06-2.23,1.48-5.4-1.31-6.32,6.79-2.34,9.62-13.88,1.39-16.26,6.94-4.29,3.46-19.85-5.3-15.17.24-3.18,1.13-5.43-1.55-7.94-2-1.75-6.52-3.68-8.5-1,2.13-7-8.36-12.54-11-5.62,1.78-2.35.12-6.39-3.1-6.45-3.77.25-3.56,4.54-4.63,6.95,1.68-5.75-4-1.23-1.71,1.29"/><path class="cls-7" d="M350,198.58c-.57,3.61-1.09,8.26,2,9.76-.52-3.75-.35-10.94,1.36-15.52C350.45,193.25,350.42,195.05,350,198.58Z"/><path class="cls-1" d="M349.62,204.11a21,21,0,0,0,.71-8.06c-.12.72-.21,1.55-.33,2.53A23.34,23.34,0,0,0,349.62,204.11Z"/><path class="cls-31" d="M351.43,210.53l1.21.09a5.87,5.87,0,0,1-.63-2.28c-1.59-.77-2.22-2.37-2.39-4.23a22.14,22.14,0,0,1-1.51,3.77A13.21,13.21,0,0,0,351.43,210.53Z"/><path class="cls-31" d="M353.37,192.82a9.57,9.57,0,0,1,1.54-2.81,11.61,11.61,0,0,0-5.39,2.18,19.08,19.08,0,0,1,.81,3.86C350.66,194.17,351.25,193.13,353.37,192.82Z"/><path class="cls-30" d="M349.62,204.11a23.34,23.34,0,0,1,.38-5.53c.12-1,.21-1.81.33-2.53a19.08,19.08,0,0,0-.81-3.86,9.32,9.32,0,0,0-3.65,6.62c-.53,4.52.73,7.31,2.24,9.07A22.14,22.14,0,0,0,349.62,204.11Z"/><path class="cls-17" d="M357.05,174.08c-.33-1.87-4.79-2.05-4.39.9.32,1.87,4.92,2.36,4.51-.43Z"/><path class="cls-17" d="M358.28,225.64c-.32-1.87-3.85-2.13-4.51.43-.57,3.5,5,3.14,4.79-.1Z"/><polygon class="cls-36" points="103.73 189.71 283.53 233.07 281.27 260.18 103.73 216.36 103.73 189.71"/><polygon class="cls-37" points="124.06 128.96 111.86 236.96 301.6 234.81 310.63 149.32 124.06 128.96"/><polygon class="cls-38" points="318.5 158.52 310.63 210.03 103.73 216.36 103.73 175.69 318.5 158.52"/><polygon class="cls-39" points="283.53 233.07 145.29 248.43 150.26 262.44 281.27 260.18 283.53 233.07"/><polygon class="cls-36" points="150.26 262.42 180.31 279.96 170.46 262.12 150.26 262.42"/><text class="cls-40" transform="translate(117.08 193.6) rotate(-3.79) scale(1 1.04)"><tspan class="cls-41">F</tspan><tspan x="9.39" y="0">ormacin Ci</tspan><tspan class="cls-42" x="113.38" y="0">u</tspan><tspan class="cls-43" x="124.65" y="0">dadana</tspan></text><text class="cls-40" transform="translate(124.35 209.68) rotate(-3.79) scale(1 1.04)"><tspan xml:space="preserve"> Co</tspan><tspan class="cls-44" x="27.19" y="0">n</tspan><tspan x="38.31" y="0">vi</tspan><tspan class="cls-45" x="53.62" y="0">v</tspan><tspan x="63.87" y="0">encia Es</tspan><tspan class="cls-42" x="132.79" y="0">c</tspan><tspan x="141.56" y="0">olar</tspan></text></g></g></svg>