<svg xmlns="http://www.w3.org/2000/svg" viewBox="0 0 253 253"><defs><style>.cls-1{fill:#d9eefd;}.cls-2{fill:#b2ddfb;}.cls-3{fill:#4189c2;}.cls-4{fill:#71a7d1;}.cls-5{fill:#126cb3;}.cls-6{font-size:19.9px;fill:#fff;font-family:CabinSketch-Regular, Cabin Sketch;}.cls-7{letter-spacing:-0.02em;}.cls-8{letter-spacing:-0.01em;}.cls-9{letter-spacing:0em;}.cls-10{letter-spacing:-0.02em;}.cls-11{letter-spacing:-0.01em;}</style></defs><title>logo_mini_v2</title><g id="Capa_2" data-name="Capa 2"><g id="OBJECTS"><circle class="cls-1" cx="126.5" cy="126.5" r="126.5"/><circle class="cls-2" cx="127" cy="126" r="117"/><polygon class="cls-3" points="19.43 118.75 199.22 162.12 196.97 189.22 19.43 145.4 19.43 118.75"/><polygon class="cls-4" points="39.75 58 27.56 166 217.29 163.85 226.33 78.37 39.75 58"/><polygon class="cls-3" points="234.19 87.56 226.33 139.08 19.43 145.4 19.43 104.73 234.19 87.56"/><polygon class="cls-5" points="199.22 162.12 60.99 177.48 65.96 191.48 196.97 189.22 199.22 162.12"/><polygon class="cls-3" points="65.96 191.46 96 209 86.15 191.16 65.96 191.46"/><text class="cls-6" transform="translate(32.77 122.64) rotate(-3.79) scale(1 1.04)"><tspan class="cls-7">F</tspan><tspan x="9.39" y="0">ormación Ci</tspan><tspan class="cls-8" x="113.38" y="0">u</tspan><tspan class="cls-9" x="124.65" y="0">dadana</tspan></text><text class="cls-6" transform="translate(40.04 138.72) rotate(-3.79) scale(1 1.04)"><tspan xml:space="preserve"> Co</tspan><tspan class="cls-10" x="27.19" y="0">n</tspan><tspan x="38.31" y="0">vi</tspan><tspan class="cls-11" x="53.62" y="0">v</tspan><tspan x="63.87" y="0">encia Es</tspan><tspan class="cls-8" x="132.79" y="0">c</tspan><tspan x="141.56" y="0">olar</tspan></text></g></g></svg>